<?xml version="1.0" encoding="utf-8"?>
<!-- Generator: Adobe Illustrator 27.5.0, SVG Export Plug-In . SVG Version: 6.00 Build 0)  -->
<svg version="1.1" xmlns="http://www.w3.org/2000/svg" xmlns:xlink="http://www.w3.org/1999/xlink" x="0px" y="0px"
	 viewBox="0 0 750 500" style="enable-background:new 0 0 750 500;" xml:space="preserve">
<g id="Background_Simple">
	<g>
		<path style="fill:#92E3A9;" d="M119.282,452.823l128.505-21.537l384.405-32.175l59.567,9.501l1.977,3.719
			c8.318-8.248,15.384-17.248,20.927-26.971c23.88-41.893,23.214-92.11,12.213-137.364
			c-14.906-61.313-56.72-110.411-107.689-148.911c-10.2-7.705-20.767-14.986-31.558-21.855
			c-37.885-24.115-81.369-43.194-127.905-43.993c-46.21-0.794-86.902,19.566-120.007,48.514c-3.293,2.88-6.513,5.834-9.672,8.843
			c-57.432,54.707-134.007,103.699-217.545,148.608c-39.73,21.359-64.388,60.375-66.957,103.093
			C42.428,394.061,74.854,431.01,119.282,452.823z"/>
		<path style="opacity:0.7;fill:#FFFFFF;" d="M119.282,452.823l128.505-21.537l384.405-32.175l59.567,9.501l1.977,3.719
			c8.318-8.248,15.384-17.248,20.927-26.971c23.88-41.893,23.214-92.11,12.213-137.364
			c-14.906-61.313-56.72-110.411-107.689-148.911c-10.2-7.705-20.767-14.986-31.558-21.855
			c-37.885-24.115-81.369-43.194-127.905-43.993c-46.21-0.794-86.902,19.566-120.007,48.514c-3.293,2.88-6.513,5.834-9.672,8.843
			c-57.432,54.707-134.007,103.699-217.545,148.608c-39.73,21.359-64.388,60.375-66.957,103.093
			C42.428,394.061,74.854,431.01,119.282,452.823z"/>
	</g>
</g>
<g id="Sea_1_">
	<g>
		<line style="fill:none;stroke:#263238;stroke-miterlimit:10;" x1="35.984" y1="350.539" x2="706.125" y2="350.539"/>
		<g>
			<line style="fill:none;stroke:#263238;stroke-miterlimit:10;" x1="76.606" y1="366.694" x2="119.065" y2="366.694"/>
			<line style="fill:none;stroke:#263238;stroke-miterlimit:10;" x1="178.672" y1="369.96" x2="136.212" y2="369.96"/>
			<line style="fill:none;stroke:#263238;stroke-miterlimit:10;" x1="108.45" y1="377.308" x2="142.745" y2="377.308"/>
			<line style="fill:none;stroke:#263238;stroke-miterlimit:10;" x1="190.103" y1="370.776" x2="205.617" y2="370.776"/>
		</g>
		<g>
			<line style="fill:none;stroke:#263238;stroke-miterlimit:10;" x1="226.847" y1="366.694" x2="269.306" y2="366.694"/>
			<line style="fill:none;stroke:#263238;stroke-miterlimit:10;" x1="328.913" y1="369.96" x2="286.454" y2="369.96"/>
			<line style="fill:none;stroke:#263238;stroke-miterlimit:10;" x1="258.692" y1="377.308" x2="292.986" y2="377.308"/>
			<line style="fill:none;stroke:#263238;stroke-miterlimit:10;" x1="340.344" y1="370.776" x2="355.858" y2="370.776"/>
		</g>
		<g>
			<line style="fill:none;stroke:#263238;stroke-miterlimit:10;" x1="377.088" y1="366.694" x2="419.548" y2="366.694"/>
			<line style="fill:none;stroke:#263238;stroke-miterlimit:10;" x1="479.154" y1="369.96" x2="436.695" y2="369.96"/>
			<line style="fill:none;stroke:#263238;stroke-miterlimit:10;" x1="408.933" y1="377.308" x2="443.227" y2="377.308"/>
			<line style="fill:none;stroke:#263238;stroke-miterlimit:10;" x1="490.586" y1="370.776" x2="506.1" y2="370.776"/>
		</g>
		<g>
			<line style="fill:none;stroke:#263238;stroke-miterlimit:10;" x1="527.329" y1="366.694" x2="569.789" y2="366.694"/>
			<line style="fill:none;stroke:#263238;stroke-miterlimit:10;" x1="629.395" y1="369.96" x2="586.936" y2="369.96"/>
			<line style="fill:none;stroke:#263238;stroke-miterlimit:10;" x1="559.174" y1="377.308" x2="593.468" y2="377.308"/>
			<line style="fill:none;stroke:#263238;stroke-miterlimit:10;" x1="640.827" y1="370.776" x2="656.341" y2="370.776"/>
		</g>
		<g>
			<line style="fill:none;stroke:#263238;stroke-miterlimit:10;" x1="605.716" y1="403.973" x2="570.672" y2="403.973"/>
			<line style="fill:none;stroke:#263238;stroke-miterlimit:10;" x1="521.476" y1="398.87" x2="556.52" y2="398.87"/>
			<line style="fill:none;stroke:#263238;stroke-miterlimit:10;" x1="579.433" y1="387.388" x2="551.128" y2="387.388"/>
			<line style="fill:none;stroke:#263238;stroke-miterlimit:10;" x1="512.041" y1="397.594" x2="499.236" y2="397.594"/>
		</g>
		<g>
			<line style="fill:none;stroke:#263238;stroke-miterlimit:10;" x1="481.714" y1="403.973" x2="446.67" y2="403.973"/>
			<line style="fill:none;stroke:#263238;stroke-miterlimit:10;" x1="397.474" y1="398.87" x2="432.518" y2="398.87"/>
			<line style="fill:none;stroke:#263238;stroke-miterlimit:10;" x1="455.431" y1="387.388" x2="427.126" y2="387.388"/>
			<line style="fill:none;stroke:#263238;stroke-miterlimit:10;" x1="388.039" y1="397.594" x2="375.234" y2="397.594"/>
		</g>
		<g>
			<line style="fill:none;stroke:#263238;stroke-miterlimit:10;" x1="357.712" y1="403.973" x2="322.668" y2="403.973"/>
			<line style="fill:none;stroke:#263238;stroke-miterlimit:10;" x1="273.472" y1="398.87" x2="308.516" y2="398.87"/>
			<line style="fill:none;stroke:#263238;stroke-miterlimit:10;" x1="331.429" y1="387.388" x2="303.125" y2="387.388"/>
			<line style="fill:none;stroke:#263238;stroke-miterlimit:10;" x1="264.037" y1="397.594" x2="251.232" y2="397.594"/>
		</g>
		<g>
			<line style="fill:none;stroke:#263238;stroke-miterlimit:10;" x1="233.71" y1="403.973" x2="198.666" y2="403.973"/>
			<line style="fill:none;stroke:#263238;stroke-miterlimit:10;" x1="149.47" y1="398.87" x2="184.514" y2="398.87"/>
			<line style="fill:none;stroke:#263238;stroke-miterlimit:10;" x1="207.427" y1="387.388" x2="179.123" y2="387.388"/>
			<line style="fill:none;stroke:#263238;stroke-miterlimit:10;" x1="140.035" y1="397.594" x2="127.231" y2="397.594"/>
		</g>
		<g>
			<line style="fill:none;stroke:#263238;stroke-miterlimit:10;" x1="654.296" y1="413.051" x2="616.041" y2="413.051"/>
			<line style="fill:none;stroke:#263238;stroke-miterlimit:10;" x1="563.213" y1="426.845" x2="545.907" y2="426.845"/>
		</g>
		<g>
			<line style="fill:none;stroke:#263238;stroke-miterlimit:10;" x1="408.371" y1="428.57" x2="455.735" y2="428.57"/>
			<line style="fill:none;stroke:#263238;stroke-miterlimit:10;" x1="486.703" y1="413.051" x2="448.448" y2="413.051"/>
			<line style="fill:none;stroke:#263238;stroke-miterlimit:10;" x1="395.62" y1="426.845" x2="378.314" y2="426.845"/>
		</g>
		<g>
			<line style="fill:none;stroke:#263238;stroke-miterlimit:10;" x1="354.633" y1="435.467" x2="307.269" y2="435.467"/>
			<line style="fill:none;stroke:#263238;stroke-miterlimit:10;" x1="240.779" y1="428.57" x2="288.142" y2="428.57"/>
			<line style="fill:none;stroke:#263238;stroke-miterlimit:10;" x1="319.11" y1="413.051" x2="280.855" y2="413.051"/>
			<line style="fill:none;stroke:#263238;stroke-miterlimit:10;" x1="228.027" y1="426.845" x2="210.721" y2="426.845"/>
		</g>
		<g>
			<line style="fill:none;stroke:#263238;stroke-miterlimit:10;" x1="187.04" y1="435.467" x2="139.676" y2="435.467"/>
			<line style="fill:none;stroke:#263238;stroke-miterlimit:10;" x1="73.186" y1="428.57" x2="120.549" y2="428.57"/>
			<line style="fill:none;stroke:#263238;stroke-miterlimit:10;" x1="151.517" y1="413.051" x2="113.262" y2="413.051"/>
			<line style="fill:none;stroke:#263238;stroke-miterlimit:10;" x1="60.434" y1="426.845" x2="43.128" y2="426.845"/>
		</g>
	</g>
</g>
<g id="Clouds">
	<path style="fill:none;stroke:#263238;stroke-miterlimit:10;" d="M153.057,238.984c-1.518-1.447-2.473,0.157-4.063,0.176
		c-1.641,0.02-2.101-0.953-2.862-2.614c-1.144-2.497-1.723-5.444-4.572-4.785c-0.749,0.174-1.432,0.625-2.133,0.991
		c-0.702,0.365-1.472,0.652-2.219,0.469c-1.854-0.454-1.904-4.012-2.075-5.787c-0.37-3.853-4.435-8.609-9.978-9.289
		c-2.936-0.36-6.21,1.776-8.213,4.335c-0.723,0.924-1.25,2.037-1.767,3.151c-0.175,0.378-0.351,0.753-0.532,1.124
		c-2.993-1.531-6.557-0.904-9.635-2.337c-3.219-1.499-4.803-4.375-6.438-7.246c-0.968-1.7-1.954-3.399-3.307-4.81
		c-3.746-3.906-9.872-7.166-15.366-6.617c-10.372,1.037-17.978,8.298-18.67,14.178c-0.319,2.709-0.412,8.14-3.881,8.833
		c-1.398,0.279-2.839-0.158-4.152-0.715c-1.313-0.558-2.59-1.247-3.991-1.512c-5.331-1.007-6.414,3.492-8.555,7.303
		c-1.423,2.535-2.284,4.02-5.354,3.99c-2.976-0.03-4.762-2.478-7.603-0.269c-3.112,2.42-3.803,4.149-3.803,4.149h81.496h11.507
		h38.199C155.089,241.702,154.72,240.57,153.057,238.984z"/>
	<path style="fill:none;stroke:#263238;stroke-miterlimit:10;" d="M640.18,343.691c-3.671-3.5-5.979,0.379-9.824,0.426
		c-3.968,0.049-5.081-2.305-6.92-6.32c-2.765-6.038-4.165-13.164-11.055-11.569c-1.811,0.419-3.462,1.512-5.158,2.395
		c-1.696,0.883-3.558,1.575-5.365,1.133c-4.484-1.097-4.604-9.702-5.016-13.992c-0.894-9.316-10.723-20.817-24.127-22.46
		c-7.1-0.87-15.016,4.294-19.858,10.482c-1.748,2.235-3.022,4.926-4.273,7.62c-0.424,0.913-0.85,1.822-1.286,2.717
		c-7.236-3.701-15.854-2.185-23.297-5.65c-7.783-3.625-11.614-10.578-15.567-17.521c-2.341-4.111-4.724-8.22-7.996-11.631
		c-9.058-9.445-23.87-17.327-37.155-15.999c-25.079,2.508-43.471,20.064-45.144,34.283c-0.77,6.549-0.996,19.683-9.385,21.357
		c-3.382,0.675-6.865-0.382-10.038-1.73c-3.174-1.348-6.263-3.016-9.651-3.655c-12.891-2.434-15.51,8.443-20.684,17.658
		c-3.441,6.129-5.522,9.721-12.947,9.647c-7.196-0.072-11.514-5.992-18.383-0.65c-7.524,5.852-9.196,10.032-9.196,10.032h197.053
		h27.824h92.363C645.095,350.263,644.201,347.524,640.18,343.691z"/>
	<path style="fill:none;stroke:#263238;stroke-miterlimit:10;" d="M289.921,185.689c-3.281-3.128-5.343,0.338-8.78,0.381
		c-3.546,0.044-4.54-2.06-6.184-5.648c-2.471-5.396-3.722-11.764-9.879-10.339c-1.618,0.375-3.094,1.351-4.609,2.141
		c-1.516,0.79-3.18,1.408-4.795,1.013c-4.007-0.981-4.115-8.67-4.483-12.504c-0.799-8.325-9.583-18.604-21.562-20.072
		c-6.345-0.778-13.419,3.837-17.746,9.367c-1.563,1.997-2.701,4.402-3.819,6.81c-0.379,0.816-0.759,1.628-1.149,2.429
		c-6.467-3.308-14.168-1.953-20.82-5.049c-6.955-3.239-10.379-9.453-13.912-15.658c-2.092-3.674-4.222-7.346-7.146-10.394
		c-8.095-8.441-21.332-15.485-33.204-14.298c-22.412,2.241-38.848,17.93-40.344,30.637c-0.688,5.853-0.89,17.59-8.387,19.087
		c-3.022,0.603-6.135-0.341-8.971-1.546c-2.837-1.205-5.597-2.695-8.625-3.267c-11.52-2.175-13.86,7.545-18.485,15.78
		c-3.075,5.477-4.935,8.688-11.57,8.621c-6.43-0.064-10.289-5.355-16.428-0.581c-6.724,5.23-8.218,8.965-8.218,8.965h176.1h24.865
		h82.542C294.313,191.563,293.514,189.115,289.921,185.689z"/>
	<path style="fill:none;stroke:#263238;stroke-miterlimit:10;" d="M714.673,283.936c-1.034-0.986-1.684,0.107-2.767,0.12
		c-1.118,0.014-1.431-0.649-1.949-1.78c-0.779-1.701-1.173-3.708-3.114-3.259c-0.51,0.118-0.975,0.426-1.453,0.675
		c-0.478,0.249-1.002,0.444-1.511,0.319c-1.263-0.309-1.297-2.733-1.413-3.941c-0.252-2.624-3.02-5.863-6.796-6.326
		c-2-0.245-4.23,1.209-5.593,2.952c-0.492,0.629-0.851,1.388-1.204,2.146c-0.119,0.257-0.239,0.513-0.362,0.765
		c-2.038-1.043-4.466-0.615-6.562-1.592c-2.192-1.021-3.271-2.979-4.385-4.935c-0.659-1.158-1.331-2.315-2.252-3.276
		c-2.552-2.66-6.724-4.88-10.465-4.506c-7.064,0.706-12.244,5.651-12.716,9.656c-0.217,1.845-0.28,5.544-2.643,6.016
		c-0.953,0.19-1.934-0.108-2.828-0.487c-0.894-0.38-1.764-0.849-2.718-1.03c-3.631-0.686-4.369,2.378-5.826,4.974
		c-0.969,1.726-1.555,2.738-3.647,2.717c-2.027-0.02-3.243-1.688-5.178-0.183c-2.119,1.648-2.59,2.826-2.59,2.826h55.503h7.837
		h26.016C716.057,285.787,715.805,285.016,714.673,283.936z"/>
</g>
<g id="Rocks">
	<g>
		<polygon style="fill:#949494;stroke:#263238;stroke-linecap:round;stroke-linejoin:round;stroke-miterlimit:10;" points="
			41.052,397.485 90.388,337.624 110.78,334.993 123.936,325.126 136.434,329.731 144.328,358.674 167.351,383.671 166.036,404.721 
			33.105,404.721 		"/>
		<path style="fill:#263238;stroke:#263238;stroke-linecap:round;stroke-linejoin:round;stroke-miterlimit:10;" d="M136.434,329.731
			l-15.376,14.981c0,0,2.318,6.663,2.897,8.691c0.579,2.028,13.037,12.168,13.037,12.168l-7.243,16.224l-13.037,4.346l-9.271,7.532
			l3.187,11.299l-77.524-0.251l7.947-7.236l49.336-59.861l20.392-2.631l13.156-9.867L136.434,329.731z"/>
	</g>
	<g>
		<polygon style="fill:#949494;stroke:#263238;stroke-linecap:round;stroke-linejoin:round;stroke-miterlimit:10;" points="
			260.035,419.624 260.035,407.959 242.259,390.183 223.928,393.516 198.864,419.624 		"/>
		<polygon style="fill:#263238;stroke:#263238;stroke-linecap:round;stroke-linejoin:round;stroke-miterlimit:10;" points="
			223.928,393.516 233.107,400.068 237.084,409.878 242.652,416.241 260.035,419.624 198.864,419.624 		"/>
	</g>
</g>
<g id="Trees">
	<g>
		<path style="fill:#263238;stroke:#263238;stroke-miterlimit:10;" d="M576.91,225.394c0,0-6.032,9.63-2.822,19.432
			c3.21,9.801,6.44,19.172,6.44,19.172l0.471-14.069c0,0,4.602,6.979,3.97,5.377c-0.631-1.602-2.745-10.487-2.745-10.487
			s3.97,5.377,3.666,2.257c-0.173-1.773-0.263-4.476-0.309-6.478c-0.035-1.521-0.044-2.638-0.044-2.638s2.926,6.251,3.739,3.617
			c0.813-2.634,0.521-8.072,0.521-8.072s1.837,6.295,2.341,3.268c0.504-3.027,0.429-7.523,0.429-7.523s1.166,10.853,3.2,14.577
			c2.033,3.724,1.29-3.903,1.29-3.903s8.415,17.047,8.237,13.723c-0.179-3.324-2.955-14.674-2.955-14.674s6.404,9.072,5.587,6.283
			c-0.817-2.789-4.26-7.937-4.26-7.937s5.632,7.114,4.719,4.08c-0.913-3.034-5.121-11.558-5.121-11.558s11.568,12.128,11.634,8.708
			c0.066-3.42-4.304-8.768-4.304-8.768s3.577,7.641,4.371,5.348c0.793-2.293,0.793-2.293,0.793-2.293s3.429,7.982,3.881,5.541
			c0.452-2.441,0.452-2.441,0.452-2.441s4.556,7.255,4.319,5.934c-0.238-1.32,0.311-3.516,0.311-3.516s5.224,10.385,3.539,5.393
			c-1.685-4.992-6.85-17.381-6.85-17.381s7.733,16.75,6.011,9.51c-1.722-7.241-9.169-18.546-12.294-20.942
			c-3.125-2.395-20.361-14.552-26.125-14.825c-5.764-0.274-9.762,7.524-10.666,12.406
			C577.431,217.396,576.91,225.394,576.91,225.394z"/>
		<path style="fill:#ADADAD;stroke:#263238;stroke-miterlimit:10;" d="M590.745,212.424c0,0,12.042,25.974,21.438,63.74
			c9.396,37.766,11.607,58.849,15.64,73.725c4.034,14.876,26.855,69.686,26.855,69.686l8.974-3.537c0,0-29.109-61.479-33.705-90.16
			c-4.596-28.681-21.473-84.568-38.846-119.022L590.745,212.424z"/>
		<g>
			<path style="fill:#92E3A9;" d="M588.116,202.354c0,0-0.716-0.643-2.952-16.884c-2.236-16.241,7-24.509,7-24.509l-0.836,7.271
				c0,0,5.158-8.049,4.745-5.572c-0.412,2.476-4.842,8.85-4.842,8.85s7.464-5.718,6.409-2.526c-1.055,3.193-4.041,8.534-4.041,8.534
				s4.418-4.055,4.005-1.579c-0.412,2.476-2.111,6.385-2.111,6.385s3.944-5.257,4.333-3.096s-2.705,13.098-2.705,13.098
				s5.631-6.847,4.333-3.096c-1.298,3.751-5.593,15.162-7.997,16.109C591.054,206.286,589.051,207.076,588.116,202.354z"/>
			<path style="fill:#92E3A9;" d="M595.794,209.971c0,0,0.085-0.959-9.361-14.359c-9.446-13.399-21.839-13.143-21.839-13.143
				l5.572,4.745c0,0-9.262-2.366-7.271-0.836c1.991,1.529,9.578,3.167,9.578,3.167s-9.359,0.912-6.409,2.526
				c2.95,1.614,8.777,3.482,8.777,3.482s-5.996,0.05-4.005,1.579c1.991,1.529,5.9,3.228,5.9,3.228s-6.47-1.152-5.28,0.693
				c1.19,1.845,10.914,7.731,10.914,7.731s-8.789-1.164-5.28,0.693c3.508,1.857,14.434,7.269,16.837,6.321
				C596.329,214.851,598.331,214.062,595.794,209.971z"/>
			<path style="fill:#92E3A9;" d="M585.496,206.751c0,0-8.444-4.719-16.159-3.874c-7.714,0.846-24.867,18.58-24.867,18.58
				s-4.557,19.331-3.186,16.939c1.371-2.391,5.813-11.083,5.813-11.083s1.324,6.882,1.736,4.406
				c0.412-2.476,2.354-6.944,2.354-6.944s0.839,7.999,1.737,4.406c0.449-1.797,1.219-3.951,1.878-5.657
				c0.658-1.706,1.204-2.962,1.204-2.962l3.932-2.938c0,0-3.324,9.177-1.237,7.429c2.088-1.748,4.915-7.49,4.915-7.49
				s-1.638,7.587,0.851,5.681c2.488-1.906,4.187-5.815,4.187-5.815l0.85,5.681l3.058-3.982l1.02,3.763l1.813-3.426l1.9-3.591
				l2.962-0.704c0,0-2.123,8.704-0.035,6.955c2.088-1.748,4.599-8.291,4.599-8.291l2.38,3.69c0,0-0.669-9.917,2.354-6.944
				C592.578,213.553,585.496,206.751,585.496,206.751z"/>
			<path style="fill:#92E3A9;" d="M584.793,214.851c0,0-9.31,2.629-14.169,8.679c-4.86,6.05-4.462,30.719-4.462,30.719
				s10.438,16.897,9.717,14.236c-0.72-2.661-3.721-11.949-3.721-11.949s5.801,3.933,4.342,1.89
				c-1.458-2.043-3.242-6.576-3.242-6.576s6.247,5.066,4.343,1.89c-0.952-1.588-1.93-3.657-2.67-5.329s-1.241-2.947-1.241-2.947
				l0.706-4.858c0,0,4.134,8.842,4.375,6.13c0.241-2.712-1.816-8.773-1.816-8.773s4.203,6.525,4.617,3.418
				c0.413-3.107-1.148-7.073-1.148-7.073l4.617,3.418l-0.651-4.979l3.381,1.941l-1.138-3.705l-1.193-3.884l1.597-2.592
				c0,0,4.649,7.658,4.891,4.946c0.241-2.712-2.606-9.116-2.606-9.116l4.291,0.928c0,0-7.482-6.543-3.242-6.576
				C594.61,214.658,584.793,214.851,584.793,214.851z"/>
			<path style="fill:#92E3A9;" d="M591.1,206.856c0,0,2.954-9.212,9.171-13.857c6.217-4.645,30.857-3.382,30.857-3.382
				s16.521,11.023,13.887,10.211c-2.634-0.813-11.812-4.137-11.812-4.137s3.728,5.935,1.737,4.406
				c-1.991-1.529-6.458-3.471-6.458-3.471s4.844,6.421,1.737,4.406c-1.554-1.007-3.587-2.057-5.232-2.855
				c-1.645-0.798-2.901-1.344-2.901-1.344l-4.88,0.535c0,0,8.692,4.441,5.973,4.587c-2.719,0.146-8.704-2.123-8.704-2.123
				s6.374,4.43,3.254,4.733c-3.12,0.304-7.029-1.395-7.029-1.395l3.254,4.734L609,207.08l1.821,3.447l-3.663-1.268l-3.839-1.329
				l-2.646,1.506c0,0,7.49,4.915,4.771,5.061s-9.019-2.924-9.019-2.924l0.778,4.321c0,0-6.277-7.707-6.458-3.471
				C590.563,216.661,591.1,206.856,591.1,206.856z"/>
			<path style="fill:#92E3A9;" d="M597.14,212.299c0,0,8.6-4.43,16.281-3.322c7.681,1.107,24.221,19.415,24.221,19.415
				s3.897,19.475,2.608,17.038c-1.289-2.437-5.432-11.275-5.432-11.275s-1.557,6.833-1.885,4.344
				c-0.328-2.489-2.116-7.02-2.116-7.02s-1.11,7.966-1.885,4.344c-0.388-1.811-1.084-3.99-1.684-5.717
				c-0.6-1.727-1.103-3.001-1.103-3.001l-3.83-3.07c0,0,3.01,9.285,0.984,7.467c-2.027-1.818-4.657-7.653-4.657-7.653
				s1.379,7.638-1.043,5.648c-2.422-1.99-3.987-5.954-3.987-5.954l-1.043,5.648l-2.921-4.084l-1.148,3.726l-1.695-3.485
				l-1.777-3.653l-2.936-0.805c0,0,1.826,8.771-0.201,6.953c-2.027-1.818-4.315-8.443-4.315-8.443l-2.504,3.607
				c0,0,1.006-9.889-2.116-7.02C589.831,218.856,597.14,212.299,597.14,212.299z"/>
		</g>
	</g>
	<g>
		<path style="fill:#263238;stroke:#263238;stroke-miterlimit:10;" d="M652.698,207.697c0,0-9.245,6.608-10.009,16.893
			s-1.345,20.18-1.345,20.18l5.793-12.829c0,0,1.597,8.205,1.624,6.484c0.026-1.722,1.455-10.743,1.455-10.743
			s1.624,6.484,2.53,3.483c0.515-1.705,1.461-4.239,2.181-6.108c0.547-1.42,0.964-2.456,0.964-2.456s0.326,6.894,2.08,4.768
			c1.755-2.126,3.555-7.266,3.555-7.266s-0.699,6.52,0.92,3.913c1.619-2.607,3.261-6.792,3.261-6.792s-3.054,10.48-2.592,14.697
			c0.462,4.218,2.679-3.117,2.679-3.117s1.29,18.967,2.391,15.826c1.1-3.141,2.855-14.693,2.855-14.693s2.467,10.827,2.774,7.937
			c0.307-2.89-0.916-8.961-0.916-8.961s2.499,8.722,2.81,5.569c0.311-3.153-0.334-12.637-0.334-12.637s6.078,15.619,7.442,12.482
			c1.364-3.137-0.641-9.747-0.641-9.747s0.398,8.427,2.005,6.609c1.607-1.818,1.607-1.818,1.607-1.818s0.131,8.686,1.478,6.602
			c1.347-2.085,1.347-2.085,1.347-2.085s1.451,8.443,1.734,7.132c0.283-1.311,1.627-3.133,1.627-3.133s0.876,11.592,1.219,6.334
			c0.343-5.258,0.284-18.68,0.284-18.68s0.772,18.433,1.937,11.082c1.165-7.351-1.416-20.641-3.394-24.046
			c-1.978-3.405-13.286-21.209-18.512-23.657c-5.226-2.448-11.891,3.24-14.586,7.41
			C656.225,200.499,652.698,207.697,652.698,207.697z"/>
		<path style="fill:#ADADAD;stroke:#263238;stroke-miterlimit:10;" d="M670.429,200.972c0,0,1.244,28.603-4.449,67.101
			c-5.693,38.499-11.677,58.835-13.612,74.126c-1.935,15.291-1.704,74.662-1.704,74.662l9.644,0.147c0,0-3.505-67.932,3.167-96.202
			c6.672-28.27,12.348-86.373,9.403-124.847L670.429,200.972z"/>
		<g>
			<path style="fill:#92E3A9;" d="M671.833,190.66c0,0-0.417-0.868,3.7-16.737c4.117-15.869,15.805-19.997,15.805-19.997
				l-3.542,6.405c0,0,7.834-5.478,6.51-3.346c-1.324,2.133-7.847,6.339-7.847,6.339s9.08-2.445,6.888,0.105
				s-6.986,6.352-6.986,6.352s5.629-2.067,4.305,0.066c-1.324,2.133-4.383,5.1-4.383,5.1s5.649-3.359,5.185-1.213
				c-0.463,2.146-7.489,11.081-7.489,11.081s7.814-4.187,5.185-1.213c-2.629,2.974-10.946,11.89-13.529,11.851
				C673.052,195.415,670.9,195.382,671.833,190.66z"/>
			<path style="fill:#92E3A9;" d="M676.032,200.627c0,0,0.444-0.854-3.188-16.841c-3.632-15.987-15.189-20.469-15.189-20.469
				l3.346,6.51c0,0-7.664-5.714-6.405-3.542c1.259,2.172,7.65,6.575,7.65,6.575s-9.001-2.721-6.888-0.105
				c2.113,2.616,6.789,6.562,6.789,6.562s-5.564-2.238-4.305-0.066c1.259,2.172,4.226,5.231,4.226,5.231s-5.544-3.529-5.146-1.37
				c0.398,2.159,7.148,11.304,7.148,11.304s-7.683-4.423-5.146-1.37c2.537,3.053,10.579,12.217,13.162,12.257
				C674.668,205.343,676.821,205.375,676.032,200.627z"/>
			<path style="fill:#92E3A9;" d="M667.736,193.728c0,0-6.011-7.579-13.466-9.735c-7.455-2.156-30.069,7.711-30.069,7.711
				s-11.575,16.139-9.397,14.45c2.179-1.689,9.595-8.035,9.595-8.035s-1.396,6.868-0.072,4.735c1.324-2.133,4.82-5.524,4.82-5.524
				s-2.27,7.716-0.072,4.735c1.099-1.49,2.632-3.189,3.89-4.516c1.258-1.326,2.241-2.28,2.241-2.28l4.755-1.219
				c0,0-6.569,7.22-3.973,6.398c2.596-0.822,7.397-5.054,7.397-5.054s-4.403,6.392-1.377,5.577c3.026-0.815,6.086-3.783,6.086-3.783
				l-1.377,5.577l4.344-2.517l-0.49,3.868l2.981-2.477l3.125-2.597l3.007,0.476c0,0-5.277,7.24-2.681,6.418
				c2.596-0.822,7.41-5.915,7.41-5.915l0.796,4.318c0,0,3.158-9.425,4.82-5.524C671.694,202.714,667.736,193.728,667.736,193.728z"
				/>
			<path style="fill:#92E3A9;" d="M664.002,200.95c0,0-9.609-1.114-16.407,2.63c-6.798,3.744-15.824,26.706-15.824,26.706
				s3.217,19.599,3.564,16.864c0.348-2.735,1.11-12.466,1.11-12.466s3.866,5.846,3.296,3.401c-0.57-2.445-0.494-7.315-0.494-7.315
				s3.847,7.063,3.296,3.401c-0.276-1.831-0.392-4.117-0.439-5.944c-0.047-1.828-0.026-3.197-0.026-3.197l2.502-4.223
				c0,0,0.455,9.75,1.711,7.334c1.256-2.416,1.661-8.803,1.661-8.803s1.402,7.634,2.967,4.918c1.565-2.716,1.632-6.977,1.632-6.977
				l2.967,4.918l1.294-4.851l2.387,3.082l0.358-3.859l0.375-4.045l2.464-1.788c0,0,1.383,8.852,2.639,6.436
				c1.256-2.416,1.062-9.422,1.062-9.422l3.614,2.493c0,0-4.427-8.899-0.494-7.315C673.153,204.51,664.002,200.95,664.002,200.95z"
				/>
			<path style="fill:#92E3A9;" d="M672.878,195.959c0,0,6.239-7.393,13.756-9.321c7.517-1.928,29.82,8.622,29.82,8.622
				s11.079,16.484,8.952,14.729c-2.126-1.755-9.346-8.323-9.346-8.323s1.187,6.908-0.072,4.735c-1.259-2.172-4.65-5.668-4.65-5.668
				s2.035,7.781-0.072,4.735c-1.053-1.523-2.534-3.268-3.751-4.632c-1.217-1.364-2.171-2.347-2.171-2.347l-4.716-1.364
				c0,0,6.346,7.417,3.776,6.516c-2.57-0.9-7.24-5.277-7.24-5.277s4.206,6.523,1.206,5.616c-3-0.907-5.968-3.966-5.968-3.966
				l1.206,5.616l-4.266-2.648l0.372,3.881l-2.904-2.567l-3.044-2.691l-3.02,0.385c0,0,5.054,7.397,2.485,6.497
				c-2.57-0.9-7.227-6.138-7.227-6.138l-0.927,4.292c0,0-2.869-9.517-4.65-5.669C668.648,204.82,672.878,195.959,672.878,195.959z"
				/>
			<path style="fill:#92E3A9;" d="M676.391,203.292c0,0,9.639-0.821,16.319,3.128c6.681,3.949,15.003,27.175,15.003,27.175
				s-3.812,19.492-4.076,16.747s-0.73-12.494-0.73-12.494s-4.042,5.725-3.398,3.299c0.645-2.426,0.716-7.297,0.716-7.297
				s-4.06,6.943-3.398,3.299c0.331-1.822,0.517-4.103,0.62-5.928c0.103-1.825,0.123-3.195,0.123-3.195l-2.372-4.297
				c0,0-0.752,9.732-1.934,7.279c-1.182-2.453-1.392-8.85-1.392-8.85s-1.634,7.588-3.116,4.826
				c-1.482-2.762-1.419-7.024-1.419-7.024l-3.115,4.826l-1.146-4.888l-2.48,3.008l-0.24-3.868l-0.252-4.055l-2.408-1.862
				c0,0-1.652,8.805-2.834,6.352c-1.182-2.453-0.775-9.45-0.775-9.45l-3.689,2.382c0,0,4.696-8.76,0.716-7.297
				C667.135,206.571,676.391,203.292,676.391,203.292z"/>
		</g>
	</g>
	<g>
		<path style="fill:#263238;stroke:#263238;stroke-miterlimit:10;" d="M549.274,290.381c0,0-10.042,7.411-10.709,18.718
			c-0.667,11.307-1.14,22.182-1.14,22.182l6.147-14.185c0,0,1.891,8.984,1.891,7.092c0-1.891,1.418-11.821,1.418-11.821
			s1.891,7.092,2.837,3.783c0.537-1.881,1.533-4.679,2.293-6.744c0.577-1.568,1.017-2.713,1.017-2.713s0.473,7.565,2.364,5.201
			c1.891-2.364,3.783-8.038,3.783-8.038s-0.658,7.171,1.076,4.281c1.734-2.89,3.468-7.513,3.468-7.513s-3.179,11.559-2.601,16.183
			c0.578,4.624,2.89-3.468,2.89-3.468s1.734,20.807,2.89,17.339c1.156-3.468,2.89-16.183,2.89-16.183s2.89,11.848,3.179,8.669
			c0.289-3.179-1.156-9.825-1.156-9.825s2.89,9.536,3.179,6.069c0.289-3.468-0.578-13.871-0.578-13.871s6.936,17.05,8.38,13.582
			c1.445-3.468-0.867-10.692-0.867-10.692s0.578,9.247,2.312,7.224c1.734-2.023,1.734-2.023,1.734-2.023s0.289,9.536,1.734,7.225
			c1.445-2.312,1.445-2.312,1.445-2.312s1.734,9.247,2.023,7.803c0.289-1.445,1.734-3.468,1.734-3.468s1.156,12.715,1.445,6.935
			c0.289-5.78,0-20.517,0-20.517s1.156,20.229,2.312,12.137c1.156-8.091-1.9-22.642-4.129-26.348
			c-2.229-3.706-14.944-23.068-20.723-25.668s-13.004,3.757-15.894,8.38C553.027,282.418,549.274,290.381,549.274,290.381z"/>
		<path style="fill:#ADADAD;stroke:#263238;stroke-miterlimit:10;" d="M568.633,282.7c0,0-2.153,31.13,27.717,65.136
			c24.783,28.214,35.388,32.711,46.017,46.008c10.629,13.296,12.896,20.482,12.896,20.482l-10.491,0.233
			c0,0-2.404-12.37-19.852-29.059c-17.447-16.689-31.102-28.068-42.481-47.791c-11.379-19.723-17.596-36.033-16.884-62.919
			L568.633,282.7z"/>
		<g>
			<path style="fill:#92E3A9;" d="M570.002,271.352c0,0-0.473-0.946,3.783-18.441s17.022-22.223,17.022-22.223l-3.783,7.092
				c0,0,8.511-6.147,7.092-3.783c-1.418,2.364-8.511,7.092-8.511,7.092s9.93-2.837,7.565,0c-2.364,2.837-7.565,7.092-7.565,7.092
				s6.147-2.364,4.728,0c-1.419,2.364-4.728,5.674-4.728,5.674s6.147-3.783,5.674-1.419c-0.473,2.364-8.038,12.294-8.038,12.294
				s8.511-4.728,5.674-1.418c-2.837,3.31-11.821,13.239-14.658,13.239C571.42,276.553,569.056,276.553,570.002,271.352z"/>
			<path style="fill:#92E3A9;" d="M574.779,282.227c0,0,0.473-0.946-3.783-18.44c-4.255-17.495-17.022-22.223-17.022-22.223
				l3.783,7.092c0,0-8.511-6.147-7.092-3.783c1.418,2.364,8.511,7.092,8.511,7.092s-9.93-2.837-7.565,0
				c2.364,2.837,7.565,7.093,7.565,7.093s-6.147-2.364-4.728,0c1.419,2.364,4.728,5.674,4.728,5.674s-6.147-3.783-5.674-1.418
				c0.473,2.364,8.038,12.294,8.038,12.294s-8.511-4.728-5.674-1.419c2.837,3.31,11.821,13.239,14.658,13.239
				C573.361,287.428,575.725,287.428,574.779,282.227z"/>
			<path style="fill:#92E3A9;" d="M565.554,274.79c0,0-6.728-8.223-14.95-10.465c-8.222-2.243-32.89,8.97-32.89,8.97
				s-12.441,17.916-10.077,16.025c2.364-1.891,10.402-8.984,10.402-8.984s-1.418,7.565,0,5.201c1.419-2.364,5.201-6.147,5.201-6.147
				s-2.364,8.511,0,5.201c1.182-1.655,2.837-3.546,4.196-5.024c1.359-1.478,2.423-2.542,2.423-2.542l5.201-1.418
				c0,0-7.093,8.038-4.255,7.092c2.837-0.946,8.038-5.674,8.038-5.674s-4.728,7.092-1.419,6.147c3.31-0.946,6.62-4.256,6.62-4.256
				l-1.419,6.147l4.728-2.837l-0.473,4.255l3.232-2.77l3.388-2.904l3.31,0.473c0,0-5.674,8.038-2.837,7.093
				c2.837-0.946,8.038-6.62,8.038-6.62l0.946,4.728c0,0,3.31-10.402,5.201-6.147C570.051,284.591,565.554,274.79,565.554,274.79z"/>
			<path style="fill:#92E3A9;" d="M561.574,282.783c0,0-10.571-1.063-17.973,3.162c-7.402,4.225-16.93,29.591-16.93,29.591
				s3.86,21.468,4.196,18.459c0.336-3.009,1.01-13.708,1.01-13.708s4.343,6.355,3.676,3.68c-0.667-2.675-0.664-8.025-0.664-8.025
				s4.342,7.692,3.676,3.68c-0.333-2.006-0.499-4.514-0.582-6.52c-0.083-2.006-0.082-3.511-0.082-3.511l2.677-4.68
				c0,0,0.663,10.699,2.002,8.025c1.339-2.674,1.677-9.695,1.677-9.695s1.667,8.359,3.341,5.351
				c1.673-3.008,1.676-7.689,1.676-7.689l3.341,5.351l1.34-5.349l2.673,3.345l0.329-4.244l0.344-4.449l2.676-2.005
				c0,0,1.667,9.697,3.005,7.023c1.339-2.674,1.008-10.364,1.008-10.364l4.011,2.677c0,0-5.01-9.699-0.664-8.025
				C571.683,286.539,561.574,282.783,561.574,282.783z"/>
			<path style="fill:#92E3A9;" d="M571.238,277.154c0,0,6.727-8.223,14.95-10.465c8.223-2.242,32.89,8.97,32.89,8.97
				s12.441,17.916,10.077,16.025c-2.364-1.891-10.402-8.984-10.402-8.984s1.419,7.565,0,5.201c-1.419-2.364-5.201-6.147-5.201-6.147
				s2.364,8.511,0,5.201c-1.182-1.655-2.837-3.546-4.196-5.024c-1.359-1.478-2.423-2.542-2.423-2.542l-5.201-1.418
				c0,0,7.092,8.038,4.255,7.092c-2.837-0.946-8.038-5.674-8.038-5.674s4.728,7.092,1.418,6.147c-3.31-0.946-6.62-4.256-6.62-4.256
				l1.419,6.147l-4.728-2.837l0.473,4.255l-3.232-2.77l-3.388-2.904l-3.31,0.473c0,0,5.674,8.038,2.837,7.092
				c-2.837-0.946-8.038-6.62-8.038-6.62l-0.946,4.728c0,0-3.31-10.402-5.201-6.147S571.238,277.154,571.238,277.154z"/>
			<path style="fill:#92E3A9;" d="M575.218,285.147c0,0,10.571-1.063,17.973,3.162c7.402,4.225,16.93,29.591,16.93,29.591
				s-3.86,21.468-4.196,18.459c-0.336-3.009-1.01-13.708-1.01-13.708s-4.343,6.355-3.676,3.68c0.667-2.675,0.665-8.025,0.665-8.025
				s-4.342,7.692-3.676,3.68c0.333-2.006,0.499-4.514,0.582-6.52c0.083-2.006,0.082-3.511,0.082-3.511l-2.677-4.679
				c0,0-0.663,10.699-2.002,8.025c-1.339-2.674-1.677-9.695-1.677-9.695s-1.667,8.359-3.341,5.351s-1.676-7.689-1.676-7.689
				l-3.341,5.351l-1.34-5.349l-2.673,3.345l-0.329-4.244l-0.344-4.448l-2.676-2.005c0,0-1.667,9.697-3.005,7.023
				c-1.339-2.674-1.009-10.364-1.009-10.364l-4.011,2.677c0,0,5.01-9.699,0.664-8.025
				C565.109,288.904,575.218,285.147,575.218,285.147z"/>
		</g>
	</g>
</g>
<g id="Sun">
	<g>
		<g>
			
				<ellipse transform="matrix(0.7071 -0.7071 0.7071 0.7071 18.3718 200.4933)" style="fill:#92E3A9;" cx="251.203" cy="78.07" rx="52.115" ry="52.115"/>
			
				<ellipse transform="matrix(0.7071 -0.7071 0.7071 0.7071 18.3718 200.4933)" style="opacity:0.7;fill:#FFFFFF;" cx="251.203" cy="78.07" rx="52.115" ry="52.115"/>
		</g>
		<g>
			
				<ellipse transform="matrix(0.7071 -0.7071 0.7071 0.7071 18.3718 200.4933)" style="fill:#92E3A9;" cx="251.203" cy="78.07" rx="43.091" ry="43.091"/>
			
				<ellipse transform="matrix(0.7071 -0.7071 0.7071 0.7071 18.3718 200.4933)" style="opacity:0.49;fill:#FFFFFF;" cx="251.203" cy="78.07" rx="43.091" ry="43.091"/>
		</g>
		<circle style="fill:#92E3A9;" cx="251.203" cy="78.07" r="34.316"/>
	</g>
</g>
<g id="Floor">
	<g>
		<path style="fill:#FFFFFF;stroke:#263238;stroke-linecap:round;stroke-linejoin:round;stroke-miterlimit:10;" d="M34.944,456.154
			l81.919-2.926c0,0,55.588-9.508,73.873-13.166s44.617-6.583,57.051-8.777c12.434-2.194,54.125-16.091,77.53-26.331
			c23.405-10.24,86.307-19.017,119.953-30.72c33.645-11.703,166.032,8.777,166.032,8.777s43.154,11.703,46.079,12.434
			c2.926,0.731,34.377,13.166,34.377,13.166l47.847,26.304"/>
		<ellipse style="fill:none;stroke:#263238;stroke-miterlimit:10;" cx="567.76" cy="407.857" rx="9.457" ry="4.098"/>
		<path style="fill:none;stroke:#263238;stroke-miterlimit:10;" d="M626.394,425.51c0,3.656-5.222,6.62-11.664,6.62
			c-6.442,0-11.664-2.964-11.664-6.62c0-3.656,5.222-6.62,11.664-6.62C621.172,418.89,626.394,421.854,626.394,425.51z"/>
		<path style="fill:none;stroke:#263238;stroke-miterlimit:10;" d="M568.391,438.75c0,1.219-3.246,2.207-7.25,2.207
			c-4.004,0-7.25-0.988-7.25-2.207c0-1.219,3.246-2.207,7.25-2.207C565.145,436.543,568.391,437.531,568.391,438.75z"/>
		<ellipse style="fill:none;stroke:#263238;stroke-miterlimit:10;" cx="538.443" cy="414.792" rx="4.098" ry="2.837"/>
		<path style="fill:none;stroke:#263238;stroke-miterlimit:10;" d="M589.196,438.435c0,1.741-1.694,3.152-3.783,3.152
			c-2.089,0-3.783-1.411-3.783-3.152c0-1.741,1.694-3.152,3.783-3.152C587.503,435.283,589.196,436.694,589.196,438.435z"/>
		<path style="fill:none;stroke:#263238;stroke-miterlimit:10;" d="M615.046,402.813c0,1.219-1.976,2.207-4.413,2.207
			c-2.437,0-4.413-0.988-4.413-2.207s1.976-2.207,4.413-2.207C613.07,400.607,615.046,401.595,615.046,402.813z"/>
		<ellipse style="fill:none;stroke:#263238;stroke-miterlimit:10;" cx="431.263" cy="444.74" rx="11.033" ry="4.413"/>
		<ellipse style="fill:none;stroke:#263238;stroke-miterlimit:10;" cx="453.645" cy="424.249" rx="7.566" ry="2.207"/>
		<path style="fill:none;stroke:#263238;stroke-miterlimit:10;" d="M348.356,447.892c0,2.437-6.916,4.413-15.447,4.413
			c-8.531,0-15.447-1.976-15.447-4.413s6.916-4.413,15.447-4.413C341.44,443.479,348.356,445.455,348.356,447.892z"/>
		<path style="fill:none;stroke:#263238;stroke-miterlimit:10;" d="M248.741,460.817c0,1.219-2.117,2.207-4.729,2.207
			s-4.729-0.988-4.729-2.207c0-1.219,2.117-2.207,4.729-2.207S248.741,459.598,248.741,460.817z"/>
		<path style="fill:none;stroke:#263238;stroke-miterlimit:10;" d="M313.68,432.13c0,1.741-3.528,3.152-7.881,3.152
			s-7.881-1.411-7.881-3.152s3.528-3.152,7.881-3.152S313.68,430.389,313.68,432.13z"/>
		<path style="fill:none;stroke:#263238;stroke-miterlimit:10;" d="M381.14,457.664c0,0.871-1.694,1.576-3.783,1.576
			s-3.783-0.706-3.783-1.576c0-0.87,1.694-1.576,3.783-1.576S381.14,456.794,381.14,457.664z"/>
		<path style="fill:none;stroke:#263238;stroke-miterlimit:10;" d="M358.443,412.27c0,1.915-2.823,3.468-6.305,3.468
			c-3.482,0-6.305-1.553-6.305-3.468s2.823-3.468,6.305-3.468C355.621,408.803,358.443,410.355,358.443,412.27z"/>
		<path style="fill:none;stroke:#263238;stroke-miterlimit:10;" d="M523.627,469.643c0,1.219-2.682,2.207-5.99,2.207
			c-3.308,0-5.99-0.988-5.99-2.207s2.682-2.207,5.99-2.207C520.946,467.437,523.627,468.425,523.627,469.643z"/>
		<path style="fill:none;stroke:#263238;stroke-miterlimit:10;" d="M454.275,395.247c0,1.219-1.835,2.207-4.098,2.207
			s-4.098-0.988-4.098-2.207s1.835-2.207,4.098-2.207S454.275,394.029,454.275,395.247z"/>
	</g>
</g>
<g id="Character">
	<g>
		<path style="fill:#263238;stroke:#263238;stroke-linecap:round;stroke-linejoin:round;stroke-miterlimit:10;" d="M469.905,107.888
			c0,0,4.325,5.286,1.121,9.931c-3.204,4.645-4.645,7.849-1.762,11.372c2.883,3.524,4.485,5.126,3.524,7.368
			c-0.961,2.242,16.658,23.706,18.42,24.667c1.762,0.961,5.927-1.922,5.927-4.965c0-3.043-1.762-5.126-1.602-6.247
			c0.16-1.121,2.242-0.32,2.563-4.966c0.32-4.645-6.247-8.489-6.727-10.572c-0.48-2.082,2.082-5.926,0.801-10.892
			c-1.281-4.965-4.965-7.528-10.091-9.45c-5.126-1.922-6.905-4.361-6.905-4.361L469.905,107.888z"/>
		<path style="fill:#263238;stroke:#263238;stroke-linecap:round;stroke-linejoin:round;stroke-miterlimit:10;" d="M434.986,103.883
			c0,0,1.442,2.883-3.203,5.446c-4.645,2.563-8.81,3.844-8.169,8.81c0.641,4.965,2.242,6.087,0.961,7.688
			c-1.281,1.602-7.208,2.082-7.849,6.247c-0.641,4.165,3.043,5.126,2.883,7.048c-0.16,1.922-0.641,2.883-1.442,3.844
			c-0.801,0.961-1.121,2.723-1.121,2.723s5.126-5.606,14.576-5.606c9.45,0,10.411-0.961,10.411-0.961s-3.844-17.619-4.645-23.706
			c-0.801-6.087-1.121-12.334-1.121-12.334L434.986,103.883z"/>
		<path style="fill:#263238;stroke:#263238;stroke-linecap:round;stroke-linejoin:round;stroke-miterlimit:10;" d="M467.775,377.411
			c0,0,5.671,29.405,7.141,36.966c1.47,7.561,2.31,12.392,3.781,15.123c1.47,2.73,2.73,5.041,3.571,10.292
			c0.84,5.251,11.132,11.132,14.283,9.662c3.151-1.47,7.561-4.411,3.361-12.812c-4.201-8.402-9.032-15.543-10.292-18.903
			c-1.26-3.361,0.84-36.126,1.05-43.057L467.775,377.411z"/>
		<path style="fill:#263238;stroke:#263238;stroke-linecap:round;stroke-linejoin:round;stroke-miterlimit:10;" d="M456.749,345.673
			c0,0-1.152,1.152-1.44,4.319c-0.288,3.168-1.44,24.477-1.44,24.477s9.215,6.047,21.597,6.047c12.382,0,23.037-9.215,23.037-9.215
			s-6.911-25.052-8.351-25.916c-1.44-0.864-1.44-0.864-1.44-0.864S465.1,348.552,456.749,345.673z"/>
		<path style="fill:#263238;stroke:#263238;stroke-linecap:round;stroke-linejoin:round;stroke-miterlimit:10;" d="M386.491,368.38
			c0,0,2.52,33.186,1.68,35.496c-0.84,2.31-15.123,13.022-19.743,13.652c-4.621,0.63-7.351,0.84-7.141,2.1
			c0.21,1.26,5.881,2.94,12.602,4.621c6.721,1.68,16.593,0,17.853-0.42c1.26-0.42,6.511-2.73,7.141-2.941
			c0.63-0.21-0.21,2.31-0.21,2.31s1.26,0.84,5.251,0.42c3.991-0.42,6.301-1.47,6.301-1.47s0-4.621-1.26-9.452
			c-1.26-4.831-2.73-7.771-2.94-9.242c-0.21-1.47,5.041-33.606,5.041-33.606L386.491,368.38z"/>
		<path style="fill:#263238;stroke:#263238;stroke-linecap:round;stroke-linejoin:round;stroke-miterlimit:10;" d="M389.367,334.73
			c0,0-3.456,0.864-4.319,4.031c-0.864,3.168-5.183,26.492-4.895,27.644c0.288,1.152,8.639,7.775,19.869,7.775
			c11.23,0,19.293-2.016,19.293-2.016s0.576-25.341,0.288-27.068c-0.288-1.728-3.168-2.88-3.168-2.88
			S399.158,340.489,389.367,334.73z"/>
		<path style="fill:#FFFFFF;stroke:#263238;stroke-linecap:round;stroke-linejoin:round;stroke-miterlimit:10;" d="M401.549,250.151
			c0,0-6.552,23.207-7.645,38.496c-1.092,15.289-1.911,33.309-1.911,33.309s-3.822,13.651-4.368,17.2
			c-0.546,3.549,27.848,6.553,27.848,6.553s2.73-6.826,4.368-18.293c1.638-11.467,9.829-37.131,10.375-39.042
			c0.546-1.911,5.187-14.743,5.187-14.743s13.105,37.677,14.743,45.595s8.191,31.671,8.191,31.671s10.375,2.73,15.289,2.184
			c4.914-0.546,13.378-5.46,13.378-5.46l-4.914-37.404c0,0-0.819-37.677-3.822-50.236c0,0-32.49-0.273-54.058-7.099
			c-21.569-6.826-19.931-6.553-19.931-6.553L401.549,250.151z"/>
		<g>
			<path style="fill:#263238;" d="M420.638,311.421c3.635-15.027,12.05-42.175,14.604-50.336l14.982,50.031l9.224,40.058
				c0.781,0.189,1.921,0.454,3.247,0.73l-9.572-41.556L436.85,256c-1.121-0.216-2.233-0.445-3.336-0.685l0.859,2.869l-1.241-0.393
				c-0.11,0.349-11.096,35.085-15.411,52.925c-3.642,15.051-5.482,30.063-5.985,34.555c1.295,0.161,2.332,0.282,2.979,0.355
				C415.206,341.239,417.027,326.345,420.638,311.421z"/>
			<path style="fill:#263238;" d="M401.814,343.822c-0.079-2.794-0.236-10.44-0.011-12.252c0.088-0.703,0.501-2.935,1.023-5.76
				c1.127-6.094,3.013-16.292,4.199-24.988c1.721-12.618,7.198-50.11,7.254-50.488l-2.969-0.434
				c-0.055,0.377-5.535,37.884-7.258,50.515c-1.177,8.627-3.055,18.782-4.177,24.85c-0.573,3.097-0.951,5.143-1.05,5.934
				c-0.265,2.12-0.089,9.774-0.027,12.109c0.961,0.181,1.94,0.353,2.918,0.517L401.814,343.822z"/>
			<path style="fill:#263238;" d="M393.784,342.233l4.237-25.99l0.013-0.1c0.038-0.396,3.789-39.746,6.055-48.526
				c2.102-8.148,4.955-17.843,5.429-19.448c-1.196-0.393-2.13-0.705-2.848-0.948c-0.387,1.305-3.329,11.284-5.486,19.647
				c-2.306,8.931-5.92,46.707-6.132,48.942l-4.172,25.59C391.73,341.687,392.712,341.966,393.784,342.233z"/>
			<path style="fill:#263238;" d="M413.116,317.689c0.338-1.678,7.296-36.258,8.708-45.578c1.377-9.095,3.659-18.151,3.823-18.795
				c-0.482-0.143-0.965-0.285-1.437-0.435c-0.002,0-0.003-0.001-0.005-0.001l-1.449-0.372c-0.024,0.096-2.453,9.61-3.899,19.153
				c-1.429,9.433-8.621,45.136-8.694,45.495l-3.223,27.475c1.048,0.149,2.051,0.286,2.973,0.407L413.116,317.689z"/>
			<path style="fill:#263238;" d="M469.694,275.331l-3.557-15.842c-1-0.062-2.038-0.131-3.122-0.209l3.748,16.692l15.75,74.001
				c1.065-0.513,2.014-1.003,2.768-1.404L469.694,275.331z"/>
			<path style="fill:#263238;" d="M473.308,259.847l12.389,88.499c0.81-0.438,1.307-0.726,1.307-0.726l-4.914-37.404
				c0,0-0.111-5.079-0.399-12.121l-5.341-38.152C475.555,259.923,474.531,259.893,473.308,259.847z"/>
			<path style="fill:#263238;" d="M472.388,353.149l-14.77-48.637l-12.357-47.11c-1.074-0.154-2.151-0.316-3.23-0.489l12.7,48.415
				l14.468,47.644C470.333,353.094,471.421,353.161,472.388,353.149z"/>
			<path style="fill:#263238;" d="M473.444,330.677c-2.505-8.628-7.528-28.256-11.96-45.573
				c-3.246-12.683-5.395-21.033-6.851-26.555c-1.05-0.108-2.116-0.224-3.194-0.348c1.876,7.082,4.534,17.467,7.139,27.648
				c4.438,17.339,9.467,36.992,11.985,45.665c2.932,10.102,4.771,16.929,5.814,20.951c0.924-0.282,1.882-0.631,2.835-1.018
				C478.15,347.359,476.319,340.58,473.444,330.677z"/>
		</g>
		<g>
			<path style="fill:#FFFFFF;stroke:#263238;stroke-linecap:round;stroke-linejoin:round;stroke-miterlimit:10;" d="M443.126,140.5
				c0,0-10.727-1.598-18.486,0.456c-7.76,2.054-13.693,6.847-16.432,8.444c-2.739,1.598-26.246,10.955-26.246,10.955
				s-7.988-11.183-11.868-19.171c-3.88-7.988-6.847-12.552-10.498-13.009c-3.651-0.456-12.78,2.282-13.465,9.357
				c-0.685,7.075,15.976,38.113,20.996,46.786c5.021,8.673,21.453,7.075,24.876,5.706c3.423-1.369,23.051-14.15,23.051-14.15
				s-3.652,35.603-5.706,41.765c-2.054,6.162-9.357,34.69-9.357,34.69s11.868,12.096,37.429,15.291s42.678-5.021,42.678-5.021
				s-3.423-18.714-3.423-20.312c0-1.598,2.51-15.519,6.39-24.42c3.88-8.901,12.781-46.786,12.781-48.611
				c0-1.826-1.826-9.357-9.357-17.117c-7.531-7.76-12.324-17.801-17.345-20.084C464.123,129.773,443.126,140.5,443.126,140.5z"/>
			<polyline style="fill:none;stroke:#263238;stroke-linecap:round;stroke-linejoin:round;stroke-miterlimit:10;" points="
				411.499,163.319 415.055,175.875 406.514,170.698 			"/>
		</g>
		<g>
			<path style="fill:#92E3A9;stroke:#263238;stroke-linecap:round;stroke-linejoin:round;stroke-miterlimit:10;" d="
				M457.428,241.781c0,0-7.994,54.065-6.942,55.117c1.052,1.052,5.68,1.473,5.68,1.473v6.521c0,0,3.155,1.683,6.732,1.683
				c3.576,0,9.046-3.366,9.046-3.366l-6.311-59.955L457.428,241.781z"/>
			
				<line style="fill:#FFFFFF;stroke:#263238;stroke-linecap:round;stroke-linejoin:round;stroke-miterlimit:10;" x1="456.166" y1="298.371" x2="456.166" y2="272.916"/>
		</g>
		<path style="fill:#263238;stroke:#263238;stroke-linecap:round;stroke-linejoin:round;stroke-miterlimit:10;" d="M403.048,240.595
			c0,0,32.659,17.765,73.932,5.383v-7.896c0,0-30.819,5.444-71.846-5.443L403.048,240.595z"/>
		<path style="fill:#FFFFFF;stroke:#263238;stroke-linecap:round;stroke-linejoin:round;stroke-miterlimit:10;" d="M422.428,236.288
			l-1.436,11.305l11.485,2.153l1.256-11.844L422.428,236.288z M430.568,247.234l-7.197-1.349l0.9-7.085l7.085,1.012L430.568,247.234
			z"/>
		<g>
			<path style="fill:#263238;stroke:#263238;stroke-linecap:round;stroke-linejoin:round;stroke-miterlimit:10;" d="
				M454.011,262.487c0,0,38.222,25.302,55.449,33.198c17.227,7.896,22.431,3.41,22.252,1.615c-0.18-1.794,1.436,0.897-10.587-2.333
				c-12.023-3.23-52.04-28.353-58.141-32.301c-6.101-3.948-9.331-5.922-9.331-5.922l-19.262-16.22
				c-0.688-0.58-1.696-0.573-2.376,0.017l0,0c-0.813,0.704-0.852,1.949-0.077,2.694C436.546,247.669,450.86,261.287,454.011,262.487
				z"/>
			<path style="fill:#FFFFFF;stroke:#263238;stroke-linecap:round;stroke-linejoin:round;stroke-miterlimit:10;" d="
				M458.856,253.694c-6.849,0-12.438-5.333-12.877-12.07c-6.305,0.857-11.169,6.248-11.169,12.788c0,7.136,5.785,12.92,12.92,12.92
				c7.136,0,12.92-5.785,12.92-12.92c0-0.287-0.024-0.568-0.043-0.85C460.033,253.64,459.452,253.694,458.856,253.694z"/>
		</g>
		<path style="fill:#92E3A9;stroke:#263238;stroke-linecap:round;stroke-linejoin:round;stroke-miterlimit:10;" d="M495.846,169.256
			c0-1.826-1.826-9.357-9.357-17.117c-4.612-4.752-8.195-10.353-11.435-14.51c-2.612,7.099-5.91,17.477-5.91,17.477
			s-11.868,25.789-16.204,53.176c-4.336,27.387-5.249,34.233-5.249,34.233s20.084,2.282,25.561,0.913
			c1.127-0.282,2.292-0.613,3.432-0.959c-0.005-0.073-0.009-0.136-0.009-0.182c0-1.598,2.51-15.519,6.39-24.42
			C486.945,208.967,495.846,171.082,495.846,169.256z"/>
		<path style="fill:#92E3A9;stroke:#263238;stroke-linecap:round;stroke-linejoin:round;stroke-miterlimit:10;" d="M443.231,140.447
			c-0.062,0.032-0.105,0.053-0.105,0.053s-5.885-0.875-12.09-0.495c-2.214,3.844-6.413,11.451-10.504,20.579
			c-1.883,4.201-4.134,13.07-6.33,23.218c-1.204,10.864-3.418,29.532-4.853,33.838c-0.827,2.481-2.505,8.589-4.215,15
			c-0.079,0.484-0.121,0.747-0.121,0.747l14.835,5.934c0,0,16.66-73.944,19.399-83.53
			C441.238,148.82,442.622,143.072,443.231,140.447z"/>
		<path style="fill:#FFFFFF;stroke:#263238;stroke-linecap:round;stroke-linejoin:round;stroke-miterlimit:10;" d="M362.276,120.834
			c0,0-2.233-4.913-3.573-6.104c-1.34-1.191-2.084-1.191-3.424-2.978c-1.34-1.786-2.531,1.042-2.68,2.68s2.382,3.126,2.382,3.126
			l1.489,2.68L362.276,120.834z"/>
		<path style="fill:#FFFFFF;stroke:#263238;stroke-linecap:round;stroke-linejoin:round;stroke-miterlimit:10;" d="M396.492,202.541
			c0,0,3.447,0.726,4.716,0.363c1.27-0.363,1.814-4.172,1.814-4.172l3.447,0.907c0,0,0.544,4.535,1.088,5.986
			c0.544,1.451,2.721,1.995,2.539,3.809c-0.181,1.814-3.259,6.218-5.254,6.218s-11.797-5.13-14.336-6.218
			c-2.539-1.088-7.981-6.167-7.981-6.167L396.492,202.541z"/>
		
			<line style="fill:none;stroke:#263238;stroke-linecap:round;stroke-linejoin:round;stroke-miterlimit:10;" x1="393.408" y1="205.262" x2="398.487" y2="208.889"/>
		
			<line style="fill:none;stroke:#263238;stroke-linecap:round;stroke-linejoin:round;stroke-miterlimit:10;" x1="388.873" y1="203.992" x2="392.138" y2="207.257"/>
		
			<line style="fill:none;stroke:#263238;stroke-linecap:round;stroke-linejoin:round;stroke-miterlimit:10;" x1="385.811" y1="204.087" x2="389.076" y2="207.352"/>
		<g>
			<path style="fill:#92E3A9;stroke:#263238;stroke-linecap:round;stroke-linejoin:round;stroke-miterlimit:10;" d="
				M404.844,195.543l-1.309,0.138l0.649-1.082c-0.314-0.462-0.64-0.956-0.982-1.49c-1.066-1.665-3.012-8.908-5.084-17.692
				l-2.852-0.713l1.684-1.991l-1.837-0.766l1.79-1.79c-1.821-8.034-3.626-16.641-4.919-23.172l-2.842-0.609l2.315-2.084
				c-0.696-3.6-1.173-6.279-1.315-7.416c-0.726-5.805,3.447-7.8,3.447-7.8l-12.116-3.442l-3.203,1.602v-2.511l-25.225-7.166
				c0,0-15.689-3.719-18.954-3.537c-2.631,0.146-3.138,6.186,1.601,20.669l2.306,2.652l-1.145,0.763
				c0.92,2.616,1.987,5.463,3.223,8.566c1.2,3.011,1.958,8.058,2.537,13.398l1.357,2.078l-1.103,0.386
				c0.878,8.943,1.367,17.97,2.651,19.147c2.177,1.995,30.837,13.604,43.716,15.418c11.095,1.563,20.568,3.393,22.981,3.871
				c-0.542-0.124-1.414-0.359-2.484-0.787C408.288,199.604,406.841,198.33,404.844,195.543z"/>
			<path style="fill:#92E3A9;stroke:#263238;stroke-linecap:round;stroke-linejoin:round;stroke-miterlimit:10;" d="M412.217,200.97
				c0.377,0.086,0.6,0.12,0.6,0.12S412.605,201.046,412.217,200.97z"/>
		</g>
		<g>
			<path style="fill:#FFFFFF;stroke:#263238;stroke-linecap:round;stroke-linejoin:round;stroke-miterlimit:10;" d="M353.046,112.05
				c0,0-1.786-1.34-2.977-1.191c-1.191,0.149-1.786,4.02-1.638,5.211c0.149,1.191,0.893,4.02,1.638,4.466
				c0.744,0.447,2.68,1.34,2.977,0c0.298-1.34,0-2.977,0-2.977l-0.447-3.126C352.599,114.432,352.153,113.092,353.046,112.05z"/>
			<path style="fill:#FFFFFF;stroke:#263238;stroke-linecap:round;stroke-linejoin:round;stroke-miterlimit:10;" d="
				M349.026,111.008c0,0-1.935-1.042-3.275-0.149c-1.34,0.893-1.34,5.211-1.191,6.104c0.149,0.893,1.935,2.977,2.382,3.126
				c0.447,0.149,1.191-0.149,1.191-0.149l0.595-1.042l-0.447-3.871L349.026,111.008z"/>
			<path style="fill:#FFFFFF;stroke:#263238;stroke-linecap:round;stroke-linejoin:round;stroke-miterlimit:10;" d="
				M345.751,110.859c0,0-2.382-0.596-3.126,1.042c-0.744,1.638-1.638,5.062-0.893,5.955c0.744,0.893,1.489,1.34,1.935,1.042
				c0.447-0.298,0.893-1.935,0.893-1.935s0-2.829,0-3.722C344.56,112.348,345.751,110.859,345.751,110.859z"/>
			<path style="fill:#FFFFFF;stroke:#263238;stroke-linecap:round;stroke-linejoin:round;stroke-miterlimit:10;" d="
				M342.625,111.901c0,0-2.233-0.149-2.531,0.744c-0.298,0.893-3.126,3.573-2.233,4.615c0.893,1.042,2.829-0.893,2.829-0.893
				L342.625,111.901z"/>
		</g>
		<g>
			<g>
				<path style="fill:#FFFFFF;stroke:#263238;stroke-linecap:round;stroke-linejoin:round;stroke-miterlimit:10;" d="
					M392.32,192.201c0,0,0.181,12.153,1.088,13.06c0.907,0.907,3.084-0.181,3.628-0.726c0.544-0.544-0.544-5.805-1.27-8.888
					C395.041,192.564,393.771,190.75,392.32,192.201z"/>
				<path style="fill:#FFFFFF;stroke:#263238;stroke-linecap:round;stroke-linejoin:round;stroke-miterlimit:10;" d="
					M388.51,194.197c0,0-0.726,8.344,0.363,9.795c1.088,1.451,2.902,1.27,3.265,0.544c0.363-0.726,0-7.981-0.544-9.795
					C391.05,192.927,389.599,193.108,388.51,194.197z"/>
				<path style="fill:#FFFFFF;stroke:#263238;stroke-linecap:round;stroke-linejoin:round;stroke-miterlimit:10;" d="
					M387.785,195.466c0,0-2.902-2.358-3.447-0.907c-0.544,1.451,0.181,6.167,0.544,7.619c0.363,1.451,1.088,2.177,2.539,1.995
					c1.451-0.181,1.451-0.181,1.451-0.181L387.785,195.466z"/>
				<path style="fill:#FFFFFF;stroke:#263238;stroke-linecap:round;stroke-linejoin:round;stroke-miterlimit:10;" d="
					M383.794,196.373c0,0-1.995,5.805-1.27,6.893c0.725,1.088,3.084,0.363,3.084,0.363L383.794,196.373z"/>
			</g>
		</g>
		<path style="fill:#FFFFFF;stroke:#263238;stroke-linecap:round;stroke-linejoin:round;stroke-miterlimit:10;" d="M410.046,208.294
			c0,0-6.64,9.152-6.46,9.69c0.179,0.538,4.486,3.051,4.486,3.051s8.075-10.049,7.357-11.305
			C414.712,208.473,410.814,206.742,410.046,208.294z"/>
		<g>
			<path style="fill:#FFFFFF;stroke:#263238;stroke-linecap:round;stroke-linejoin:round;stroke-miterlimit:10;" d="M415.43,209.73
				c0,0-9.331,13.1-9.331,15.074c0,1.974,4.845,7.716,20.637,13.1c15.791,5.384,38.707,12.484,44.324,8.434
				c5.617-4.049,17.227-15.433,22.61-37.864c5.383-22.431,5.563-36.607,3.589-41.273c-1.974-4.666-8.075-2.692-11.305,0.897
				c-3.23,3.589-16.689,28.532-19.56,34.633c-2.871,6.101-13.459,16.15-13.459,16.15s-16.868-5.383-26.738-9.152
				S415.43,209.73,415.43,209.73z"/>
			<path style="fill:none;stroke:#263238;stroke-linecap:round;stroke-linejoin:round;stroke-miterlimit:10;" d="M462.746,218.177
				c5.477-1.453,13.556-4.095,19.977-8.268"/>
			<path style="fill:none;stroke:#263238;stroke-linecap:round;stroke-linejoin:round;stroke-miterlimit:10;" d="M456.523,219.599
				c0,0,0.965-0.168,2.579-0.53"/>
			<path style="fill:none;stroke:#263238;stroke-linecap:round;stroke-linejoin:round;stroke-miterlimit:10;" d="M494.207,193.041
				c0,0-10.767,12.92-21.354,18.842"/>
		</g>
		<g>
			<path style="fill:#FFFFFF;stroke:#263238;stroke-linecap:round;stroke-linejoin:round;stroke-miterlimit:10;" d="
				M445.193,139.487c0,0-6.175,0.328-9.826,4.208c-3.652,3.88-11.639,12.552-15.291,14.378c-3.652,1.826-4.564,0.913,4.108,3.195
				c8.673,2.282,16.889-1.141,21.225,2.739c4.336,3.88,5.477,3.423,5.477,3.423s8.216-2.967,13.693-1.369
				c5.477,1.597,12.324,5.477,15.063,6.39c2.739,0.913,0.456-4.336,0.228-6.162c-0.228-1.826-2.51-22.138-5.249-27.615
				c-2.739-5.477-3.652-6.618-5.477-6.618C467.318,132.056,445.193,139.487,445.193,139.487z"/>
			<path style="fill:#FFFFFF;stroke:#263238;stroke-linecap:round;stroke-linejoin:round;stroke-miterlimit:10;" d="
				M443.956,136.079c0,0,0.641,7.368-2.563,14.896c-3.204,7.528,0.641,25.148,1.762,27.55c1.121,2.403,20.182-17.299,23.065-23.386
				c2.883-6.087,4.645-14.576,4.805-16.658c0.16-2.082,0-9.931,0-9.931L443.956,136.079z"/>
			<g>
				<g>
					<path style="fill:#FFFFFF;stroke:#263238;stroke-linecap:round;stroke-linejoin:round;stroke-miterlimit:10;" d="
						M436.555,90.596c0,0-0.775,0.581-1.162,10.461c-0.388,9.88-0.194,24.409,0.581,27.315c0.775,2.906,6.587,11.623,8.911,13.367
						c2.325,1.743,4.456,1.356,7.168,0.969c2.712-0.387,13.754-6.393,16.079-8.136c2.325-1.744,3.874-5.812,3.874-7.943
						c0-2.131,4.843-21.891,4.456-28.478c-0.388-6.587-6.587-14.723-12.011-16.66c-5.424-1.937-15.692-2.131-20.729,1.162
						C438.686,85.947,436.555,90.596,436.555,90.596z"/>
					<path style="fill:#263238;stroke:#263238;stroke-linecap:round;stroke-linejoin:round;stroke-miterlimit:10;" d="
						M469.905,107.888c0,0,1.013,1.112,1.013,3.056c0,1.944-2.754,8.261-1.62,9.719c1.134,1.458,2.754,3.24,1.782,4.86
						c-0.972,1.62-3.225,3.834-1.936,6.533c1.288,2.7,6.634,3.996,6.634,3.996l-0.604-26.278L469.905,107.888z"/>
					<path style="fill:#92E3A9;stroke:#263238;stroke-linecap:round;stroke-linejoin:round;stroke-miterlimit:10;" d="
						M464.451,81.491c-5.424-1.937-15.692-2.131-20.728,1.162c-5.037,3.293-7.168,7.943-7.168,7.943s-0.775,0.581-1.162,10.461
						c0,0.012-0.001,0.024-0.001,0.036c5.982,0.198,22.671,1.422,39.782,8.68c0.819-4.652,1.437-9.101,1.289-11.621
						C476.074,91.565,469.875,83.429,464.451,81.491z"/>
					<path style="fill:none;stroke:#263238;stroke-linecap:round;stroke-linejoin:round;stroke-miterlimit:10;" d="M448.178,110.938
						c0,0,0.969,4.456,0.388,6.587"/>
					<path style="fill:none;stroke:#263238;stroke-linecap:round;stroke-linejoin:round;stroke-miterlimit:10;" d="M447.458,121.539
						c0,0-2.845,4.265-0.133,4.652c2.712,0.387,6.278-0.144,6.665-2.081"/>
					<path style="fill:#263238;stroke:#263238;stroke-linecap:round;stroke-linejoin:round;stroke-miterlimit:10;" d="
						M457.065,127.825c-1.261-1.681-3.467-2.627-3.467-2.627s-1.471,1.261-3.992,1.051c-2.521-0.21-3.467-1.681-3.467-1.681
						s-1.891,0.21-3.677,3.257c-1.786,3.047-1.366,8.405-1.051,9.456c0.315,1.051,1.051,4.518,5.358,5.673
						c4.308,1.156,7.249-0.42,8.3-1.156c1.051-0.735,4.518-1.681,4.938-3.362C460.427,136.755,458.326,129.506,457.065,127.825z
						 M457.8,138.016c-1.051,2.101-3.677,2.416-5.358,2.416c-1.681,0-2.101,0.42-2.626-1.261c-0.525-1.681-0.735-3.362-2.416-2.837
						s-1.051,2.837-2.206,3.152s-1.786-1.261-2.416-2.732c-0.63-1.471-0.42-4.202-0.105-6.619c0.315-2.417,3.572-3.992,3.572-3.992
						c1.891,1.786,6.724,1.051,6.724,1.051s1.891,0.105,2.837,1.366C456.75,129.822,458.851,135.915,457.8,138.016z"/>
					<path style="fill:none;stroke:#263238;stroke-linecap:round;stroke-linejoin:round;stroke-miterlimit:10;" d="M444.983,128.876
						c0,0,5.406,1.585,10.16,0.531"/>
					<path style="fill:#263238;" d="M460.112,115.743c0,1.073-0.494,1.944-1.103,1.944c-0.609,0-1.103-0.87-1.103-1.944
						c0-1.074,0.494-1.944,1.103-1.944C459.618,113.799,460.112,114.67,460.112,115.743z"/>
					<path style="fill:#263238;" d="M445.035,113.747c0,1.074-0.494,1.944-1.103,1.944c-0.609,0-1.103-0.87-1.103-1.944
						c0-1.073,0.494-1.944,1.103-1.944C444.541,111.803,445.035,112.674,445.035,113.747z"/>
					<path style="fill:none;stroke:#263238;stroke-linecap:round;stroke-linejoin:round;stroke-miterlimit:10;" d="M436.108,96.355
						c0,0,8.009-0.961,13.935,0.48"/>
					<path style="fill:none;stroke:#263238;stroke-linecap:round;stroke-linejoin:round;stroke-miterlimit:10;" d="M476.152,101.801
						c0,0-6.888-5.286-14.736-7.368"/>
					
						<line style="fill:none;stroke:#263238;stroke-linecap:round;stroke-linejoin:round;stroke-miterlimit:10;" x1="454.047" y1="92.671" x2="458.853" y2="93.792"/>
					<path style="fill:none;stroke:#263238;stroke-linecap:round;stroke-linejoin:round;stroke-miterlimit:10;" d="M439.952,85.943
						c0,0,3.524-1.602,6.887-1.121"/>
				</g>
				<path style="fill:none;stroke:#263238;stroke-width:2;stroke-linecap:round;stroke-linejoin:round;stroke-miterlimit:10;" d="
					M456.231,110.107c0,0,4.785-2.792,7.976,1.196"/>
				<path style="fill:none;stroke:#263238;stroke-width:2;stroke-linecap:round;stroke-linejoin:round;stroke-miterlimit:10;" d="
					M446.66,109.31c0,0-2.659-4.785-7.178-3.589"/>
			</g>
		</g>
	</g>
</g>
<g id="Ship">
	<g>
		<path style="fill:#92E3A9;stroke:#263238;stroke-linecap:round;stroke-linejoin:round;stroke-miterlimit:10;" d="M155.438,315.298
			l-60.627-24.3c-0.648-0.26-1.381,0.08-1.601,0.742l0,0c-0.196,0.587,0.082,1.227,0.645,1.485l47.568,21.822L155.438,315.298z"/>
		<g>
			<path style="fill:#263238;stroke:#263238;stroke-linecap:round;stroke-linejoin:round;stroke-miterlimit:10;" d="
				M245.292,184.396c0,0,4.255,4.005,11.263,2.002c7.008-2.002,12.765-7.008,16.769-7.258c4.005-0.25,7.258,1.001,7.258,1.001
				l-1.502,2.253l2.503,2.002l-1.502,1.752c0,0,4.005,2.002,4.755,2.753c0.751,0.751,2.753,3.003,2.753,3.003l-4.255,0.751
				l1.001,3.504h-6.007l2.253,3.254l-3.754,1.001l1.752,3.003c0,0-10.012-2.503-15.518-0.25c-5.506,2.253-12.264,4.505-16.519,2.253
				C246.543,205.42,251.799,193.406,245.292,184.396z"/>
			<path style="fill:#FFFFFF;stroke:#263238;stroke-linecap:round;stroke-linejoin:round;stroke-miterlimit:10;" d="
				M269.981,189.257c-1.772-2.255-5.316-2.417-7.25-1.45c0,0-2.255,0.644-3.383,2.9c-1.128,2.255,1.933,4.994,1.933,4.994
				s-0.161,3.383,0.967,3.544c1.128,0.161,2.094-1.45,2.094-1.45s0.322,2.256,1.772,1.45c1.45-0.806,1.45-2.094,1.45-2.094
				s1.289,2.9,1.933,1.933c0.644-0.967-0.644-4.35-0.644-4.35S271.753,191.512,269.981,189.257z M264.064,194.354
				c-0.533,0.858-2.265-0.343-2.398-1.545c-0.133-1.201,1.932-1.373,1.932-1.373C264.664,191.693,264.597,193.495,264.064,194.354z
				 M266.529,194.439c-0.666,0-1.266-1.287-1.266-2.403s1.399-1.116,1.399-1.116s1.066-0.172,1.399,1.03
				C268.394,193.152,267.195,194.439,266.529,194.439z"/>
			<path style="fill:#FFFFFF;" d="M272.591,183.344l-1.806,1.72l1.72,0.602l1.462-1.032c0,0,1.634,0,1.72-0.774
				c0.086-0.774-1.462-0.602-1.462-0.602s-0.086-1.634-0.86-1.118C272.591,182.656,272.591,183.344,272.591,183.344z"/>
			<path style="fill:#FFFFFF;" d="M258.313,201.32l1.37-2.084l-1.812-0.197l-1.191,1.336c0,0-1.592,0.37-1.5,1.143
				c0.091,0.773,1.56,0.255,1.56,0.255s0.454,1.572,1.091,0.895C258.469,201.99,258.313,201.32,258.313,201.32z"/>
			<path style="fill:#FFFFFF;" d="M255.322,189.471l2.12,1.315l-1.561,0.941l-1.642-0.712c0,0-1.6,0.334-1.842-0.406
				c-0.242-0.74,1.308-0.888,1.308-0.888s-0.25-1.617,0.613-1.27C255.182,188.798,255.322,189.471,255.322,189.471z"/>
			<path style="fill:#FFFFFF;" d="M273.231,199.677l-1.767-1.76l1.733-0.563l1.439,1.065c0,0,1.634,0.037,1.702,0.813
				c0.069,0.776-1.475,0.569-1.475,0.569s-0.123,1.632-0.885,1.098C273.215,200.365,273.231,199.677,273.231,199.677z"/>
		</g>
		<g>
			<polyline style="fill:none;stroke:#263238;stroke-linecap:round;stroke-linejoin:round;stroke-miterlimit:10;" points="
				213.755,321.943 238.784,208.924 240.736,222.355 228.773,321.69 			"/>
			
				<line style="fill:none;stroke:#263238;stroke-linecap:round;stroke-linejoin:round;stroke-miterlimit:10;" x1="217.858" y1="322.087" x2="239.783" y2="214.865"/>
			
				<line style="fill:none;stroke:#263238;stroke-linecap:round;stroke-linejoin:round;stroke-miterlimit:10;" x1="222.202" y1="321.25" x2="240.818" y2="220.31"/>
			
				<line style="fill:none;stroke:#263238;stroke-linecap:round;stroke-linejoin:round;stroke-miterlimit:10;" x1="226.112" y1="321.25" x2="241.012" y2="221.499"/>
			
				<line style="fill:none;stroke:#263238;stroke-linecap:round;stroke-linejoin:round;stroke-miterlimit:10;" x1="215.658" y1="313.654" x2="229.24" y2="315.8"/>
			
				<line style="fill:none;stroke:#263238;stroke-linecap:round;stroke-linejoin:round;stroke-miterlimit:10;" x1="216.621" y1="309.168" x2="230.01" y2="311.509"/>
			
				<line style="fill:none;stroke:#263238;stroke-linecap:round;stroke-linejoin:round;stroke-miterlimit:10;" x1="217.584" y1="304.779" x2="230.492" y2="307.51"/>
			
				<line style="fill:none;stroke:#263238;stroke-linecap:round;stroke-linejoin:round;stroke-miterlimit:10;" x1="218.933" y1="298.635" x2="231.359" y2="300.781"/>
			
				<line style="fill:none;stroke:#263238;stroke-linecap:round;stroke-linejoin:round;stroke-miterlimit:10;" x1="219.896" y1="293.467" x2="232.129" y2="295.417"/>
			
				<line style="fill:none;stroke:#263238;stroke-linecap:round;stroke-linejoin:round;stroke-miterlimit:10;" x1="221.245" y1="288.981" x2="232.611" y2="290.249"/>
			
				<line style="fill:none;stroke:#263238;stroke-linecap:round;stroke-linejoin:round;stroke-miterlimit:10;" x1="222.4" y1="283.032" x2="233.189" y2="283.812"/>
			
				<line style="fill:none;stroke:#263238;stroke-linecap:round;stroke-linejoin:round;stroke-miterlimit:10;" x1="223.845" y1="276.985" x2="234.056" y2="277.863"/>
			
				<line style="fill:none;stroke:#263238;stroke-linecap:round;stroke-linejoin:round;stroke-miterlimit:10;" x1="224.809" y1="271.914" x2="234.73" y2="272.597"/>
			
				<line style="fill:none;stroke:#263238;stroke-linecap:round;stroke-linejoin:round;stroke-miterlimit:10;" x1="225.868" y1="267.623" x2="235.115" y2="268.208"/>
			
				<line style="fill:none;stroke:#263238;stroke-linecap:round;stroke-linejoin:round;stroke-miterlimit:10;" x1="226.831" y1="263.332" x2="235.597" y2="263.82"/>
			
				<line style="fill:none;stroke:#263238;stroke-linecap:round;stroke-linejoin:round;stroke-miterlimit:10;" x1="227.698" y1="260.016" x2="236.175" y2="260.601"/>
			
				<line style="fill:none;stroke:#263238;stroke-linecap:round;stroke-linejoin:round;stroke-miterlimit:10;" x1="228.469" y1="256.505" x2="236.464" y2="256.701"/>
			
				<line style="fill:none;stroke:#263238;stroke-linecap:round;stroke-linejoin:round;stroke-miterlimit:10;" x1="229.721" y1="250.654" x2="237.138" y2="251.239"/>
			
				<line style="fill:none;stroke:#263238;stroke-linecap:round;stroke-linejoin:round;stroke-miterlimit:10;" x1="230.684" y1="246.266" x2="237.909" y2="246.753"/>
			
				<line style="fill:none;stroke:#263238;stroke-linecap:round;stroke-linejoin:round;stroke-miterlimit:10;" x1="231.648" y1="241.487" x2="238.39" y2="241.682"/>
			
				<line style="fill:none;stroke:#263238;stroke-linecap:round;stroke-linejoin:round;stroke-miterlimit:10;" x1="232.611" y1="236.513" x2="239.161" y2="236.806"/>
			
				<line style="fill:none;stroke:#263238;stroke-linecap:round;stroke-linejoin:round;stroke-miterlimit:10;" x1="233.959" y1="231.832" x2="239.739" y2="231.637"/>
			
				<line style="fill:none;stroke:#263238;stroke-linecap:round;stroke-linejoin:round;stroke-miterlimit:10;" x1="234.826" y1="227.053" x2="240.22" y2="227.053"/>
			
				<line style="fill:none;stroke:#263238;stroke-linecap:round;stroke-linejoin:round;stroke-miterlimit:10;" x1="236.079" y1="221.495" x2="240.509" y2="223.64"/>
		</g>
		<g>
			<polyline style="fill:none;stroke:#263238;stroke-linecap:round;stroke-linejoin:round;stroke-miterlimit:10;" points="
				277.156,324.473 252.127,208.924 250.175,222.656 262.138,324.214 			"/>
			
				<line style="fill:none;stroke:#263238;stroke-linecap:round;stroke-linejoin:round;stroke-miterlimit:10;" x1="273.053" y1="324.621" x2="251.128" y2="214.998"/>
			
				<line style="fill:none;stroke:#263238;stroke-linecap:round;stroke-linejoin:round;stroke-miterlimit:10;" x1="268.709" y1="323.764" x2="250.093" y2="220.565"/>
			
				<line style="fill:none;stroke:#263238;stroke-linecap:round;stroke-linejoin:round;stroke-miterlimit:10;" x1="264.799" y1="323.764" x2="249.899" y2="221.781"/>
			
				<line style="fill:none;stroke:#263238;stroke-linecap:round;stroke-linejoin:round;stroke-miterlimit:10;" x1="275.253" y1="315.999" x2="261.672" y2="318.192"/>
			
				<line style="fill:none;stroke:#263238;stroke-linecap:round;stroke-linejoin:round;stroke-miterlimit:10;" x1="274.29" y1="311.412" x2="260.901" y2="313.805"/>
			
				<line style="fill:none;stroke:#263238;stroke-linecap:round;stroke-linejoin:round;stroke-miterlimit:10;" x1="273.327" y1="306.925" x2="260.419" y2="309.717"/>
			
				<line style="fill:none;stroke:#263238;stroke-linecap:round;stroke-linejoin:round;stroke-miterlimit:10;" x1="271.978" y1="300.644" x2="259.552" y2="302.837"/>
			
				<line style="fill:none;stroke:#263238;stroke-linecap:round;stroke-linejoin:round;stroke-miterlimit:10;" x1="271.015" y1="295.359" x2="258.782" y2="297.353"/>
			
				<line style="fill:none;stroke:#263238;stroke-linecap:round;stroke-linejoin:round;stroke-miterlimit:10;" x1="269.667" y1="290.773" x2="258.3" y2="292.069"/>
			
				<line style="fill:none;stroke:#263238;stroke-linecap:round;stroke-linejoin:round;stroke-miterlimit:10;" x1="268.511" y1="284.691" x2="257.722" y2="285.488"/>
			
				<line style="fill:none;stroke:#263238;stroke-linecap:round;stroke-linejoin:round;stroke-miterlimit:10;" x1="267.066" y1="278.509" x2="256.855" y2="279.406"/>
			
				<line style="fill:none;stroke:#263238;stroke-linecap:round;stroke-linejoin:round;stroke-miterlimit:10;" x1="266.103" y1="273.324" x2="256.181" y2="274.022"/>
			
				<line style="fill:none;stroke:#263238;stroke-linecap:round;stroke-linejoin:round;stroke-miterlimit:10;" x1="265.043" y1="268.937" x2="255.796" y2="269.535"/>
			
				<line style="fill:none;stroke:#263238;stroke-linecap:round;stroke-linejoin:round;stroke-miterlimit:10;" x1="264.08" y1="264.55" x2="255.314" y2="265.048"/>
			
				<line style="fill:none;stroke:#263238;stroke-linecap:round;stroke-linejoin:round;stroke-miterlimit:10;" x1="263.213" y1="261.16" x2="254.736" y2="261.758"/>
			
				<line style="fill:none;stroke:#263238;stroke-linecap:round;stroke-linejoin:round;stroke-miterlimit:10;" x1="262.442" y1="257.571" x2="254.447" y2="257.77"/>
			
				<line style="fill:none;stroke:#263238;stroke-linecap:round;stroke-linejoin:round;stroke-miterlimit:10;" x1="261.19" y1="251.588" x2="253.773" y2="252.186"/>
			
				<line style="fill:none;stroke:#263238;stroke-linecap:round;stroke-linejoin:round;stroke-miterlimit:10;" x1="260.227" y1="247.101" x2="253.002" y2="247.6"/>
			
				<line style="fill:none;stroke:#263238;stroke-linecap:round;stroke-linejoin:round;stroke-miterlimit:10;" x1="259.263" y1="242.216" x2="252.521" y2="242.415"/>
			
				<line style="fill:none;stroke:#263238;stroke-linecap:round;stroke-linejoin:round;stroke-miterlimit:10;" x1="258.3" y1="237.131" x2="251.75" y2="237.43"/>
			
				<line style="fill:none;stroke:#263238;stroke-linecap:round;stroke-linejoin:round;stroke-miterlimit:10;" x1="256.952" y1="232.345" x2="251.172" y2="232.145"/>
			
				<line style="fill:none;stroke:#263238;stroke-linecap:round;stroke-linejoin:round;stroke-miterlimit:10;" x1="256.085" y1="227.459" x2="250.691" y2="227.459"/>
			
				<line style="fill:none;stroke:#263238;stroke-linecap:round;stroke-linejoin:round;stroke-miterlimit:10;" x1="254.833" y1="221.776" x2="250.402" y2="223.969"/>
		</g>
		<path style="fill:#92E3A9;stroke:#263238;stroke-linecap:round;stroke-linejoin:round;stroke-miterlimit:10;" d="M197.987,329.815
			h-5.506l2.033-108.495c0.007-0.35,0.327-0.632,0.72-0.632l0,0c0.393,0,0.714,0.281,0.72,0.632L197.987,329.815z"/>
		<path style="fill:#92E3A9;stroke:#263238;stroke-linecap:round;stroke-linejoin:round;stroke-miterlimit:10;" d="M248.543,336.572
			h-7.004l2.586-154.779c0.008-0.5,0.416-0.901,0.916-0.901l0,0c0.5,0,0.908,0.401,0.916,0.901L248.543,336.572z"/>
		<path style="fill:#92E3A9;stroke:#263238;stroke-linecap:round;stroke-linejoin:round;stroke-miterlimit:10;" d="M274.326,321.054
			c0,0-77.84,0.25-99.615-2.753c-21.775-3.003-35.291-7.008-35.041-5.006c0.25,2.002,15.017,8.26,15.017,8.26
			s18.521,31.787,21.775,34.79c3.254,3.003,7.258,5.256,10.512,6.507c3.254,1.251,123.893,0,123.893,0s-3.004-4.255-4.005-8.009
			c-1.001-3.754-0.5-6.508-0.5-6.508s7.509-3.004,8.259-6.508c0.751-3.504,5.256-20.774,5.256-20.774l3.754-2.753v-22.025
			c0,0-43.801,13.516-45.803,15.268C275.827,313.295,274.326,321.054,274.326,321.054z"/>
		
			<circle style="fill:#263238;stroke:#263238;stroke-linecap:round;stroke-linejoin:round;stroke-miterlimit:10;" cx="205.996" cy="338.074" r="4.505"/>
		
			<circle style="fill:#263238;stroke:#263238;stroke-linecap:round;stroke-linejoin:round;stroke-miterlimit:10;" cx="225.269" cy="338.074" r="4.505"/>
		<path style="fill:#263238;stroke:#263238;stroke-linecap:round;stroke-linejoin:round;stroke-miterlimit:10;" d="M249.046,338.074
			c0,2.488-2.017,4.505-4.505,4.505c-2.488,0-4.505-2.017-4.505-4.505c0-2.488,2.017-4.505,4.505-4.505
			C247.029,333.569,249.046,335.586,249.046,338.074z"/>
		
			<circle style="fill:#263238;stroke:#263238;stroke-linecap:round;stroke-linejoin:round;stroke-miterlimit:10;" cx="263.813" cy="338.074" r="4.505"/>
		
			<circle style="fill:#263238;stroke:#263238;stroke-linecap:round;stroke-linejoin:round;stroke-miterlimit:10;" cx="283.086" cy="338.074" r="4.505"/>
		<path style="fill:#FFFFFF;stroke:#263238;stroke-linecap:round;stroke-linejoin:round;stroke-miterlimit:10;" d="M228.272,225.944
			c0,0-3.504,4.755-3.754,12.014c-0.25,7.259,5.006,13.766,5.006,13.766l30.786,4.755c0,0-3.754-8.26-3.504-15.268
			c0.25-7.008,5.506-15.017,5.506-15.017L228.272,225.944z"/>
		<path style="fill:#FFFFFF;stroke:#263238;stroke-linecap:round;stroke-linejoin:round;stroke-miterlimit:10;" d="M214.256,226.695
			c0,0-4.505,6.007-4.255,15.518s3.504,15.268,3.504,15.268l-34.79-3.754c0,0-4.505-6.508-4.005-13.766
			c0.501-7.258,5.256-12.765,5.256-12.765L214.256,226.695z"/>
		<path style="fill:#FFFFFF;stroke:#263238;stroke-linecap:round;stroke-linejoin:round;stroke-miterlimit:10;" d="M174.46,262.737
			l39.546,0.25c0,0-5.006,12.014-5.506,21.275c-0.501,9.261,3.504,17.27,3.504,17.27l-36.292-6.508c0,0-5.757-7.259-5.256-17.52
			C170.956,267.242,174.46,262.737,174.46,262.737z"/>
		<path style="fill:#FFFFFF;stroke:#263238;stroke-linecap:round;stroke-linejoin:round;stroke-miterlimit:10;" d="M219.512,261.235
			c0,0-9.01,13.516-7.008,23.527c2.002,10.012,6.508,18.271,6.508,18.271l52.561,8.009c0,0-7.509-13.516-6.007-25.029
			c1.502-11.513,8.26-24.528,8.26-24.528L219.512,261.235z"/>
		<path style="fill:#FFFFFF;stroke:#263238;stroke-linecap:round;stroke-linejoin:round;stroke-miterlimit:10;" d="M320.629,254.727
			l-61.062,66.079l61.312-30.038C320.879,290.769,314.372,280.007,320.629,254.727z"/>
		<polygon style="fill:#92E3A9;stroke:#263238;stroke-linecap:round;stroke-linejoin:round;stroke-miterlimit:10;" points="
			249.847,222.19 240.736,222.19 238.784,208.924 251.799,208.924 		"/>
		<polygon style="fill:#FFFFFF;stroke:#263238;stroke-linecap:round;stroke-linejoin:round;stroke-miterlimit:10;" points="
			178.715,253.726 94.811,290.998 133.412,290.018 		"/>
		
			<line style="fill:none;stroke:#263238;stroke-linecap:round;stroke-linejoin:round;stroke-miterlimit:10;" x1="133.412" y1="290.018" x2="152.935" y2="315.047"/>
		
			<line style="fill:none;stroke:#263238;stroke-linecap:round;stroke-linejoin:round;stroke-miterlimit:10;" x1="237.234" y1="215.946" x2="240.736" y2="222.19"/>
		<polygon style="fill:#92E3A9;stroke:#263238;stroke-linecap:round;stroke-linejoin:round;stroke-miterlimit:10;" points="
			276.795,329.849 321.644,316.97 321.644,299.26 280.015,313.06 		"/>
		
			<line style="fill:#92E3A9;stroke:#263238;stroke-linecap:round;stroke-linejoin:round;stroke-miterlimit:10;" x1="278.865" y1="320.88" x2="321.184" y2="307.08"/>
		
			<line style="fill:#92E3A9;stroke:#263238;stroke-linecap:round;stroke-linejoin:round;stroke-miterlimit:10;" x1="288.525" y1="310.76" x2="285.995" y2="327.319"/>
		
			<line style="fill:#92E3A9;stroke:#263238;stroke-linecap:round;stroke-linejoin:round;stroke-miterlimit:10;" x1="298.43" y1="307.287" x2="295.9" y2="323.846"/>
		
			<line style="fill:#92E3A9;stroke:#263238;stroke-linecap:round;stroke-linejoin:round;stroke-miterlimit:10;" x1="309.75" y1="303.428" x2="307.22" y2="319.987"/>
	</g>
</g>
<g id="Treasure">
	<path style="fill:#263238;stroke:#263238;stroke-linecap:round;stroke-linejoin:round;stroke-miterlimit:10;" d="M578.371,25.407
		c-36.219,0-65.58,29.361-65.58,65.58c0,3.228,0.243,6.398,0.694,9.5l-17.901,14.03l20.155-4.031
		c8.303,26.696,33.204,46.08,62.632,46.08c36.219,0,65.58-29.361,65.58-65.58S614.59,25.407,578.371,25.407z"/>
	<g>
		<polygon style="fill:#FFFFFF;stroke:#263238;stroke-linecap:round;stroke-linejoin:round;stroke-miterlimit:10;" points="
			580.281,70.981 584.192,74.809 578.919,76.427 575.806,72.946 		"/>
		<polygon style="fill:#FFFFFF;stroke:#263238;stroke-linecap:round;stroke-linejoin:round;stroke-miterlimit:10;" points="
			536.988,84.323 540.899,88.151 535.626,89.769 532.513,86.288 		"/>
		<g>
			<polygon style="fill:#FFFFFF;stroke:#263238;stroke-linecap:round;stroke-linejoin:round;stroke-miterlimit:10;" points="
				529.232,91.272 578.176,104.671 577.804,141.891 537.048,129.05 			"/>
			<polygon style="fill:#FFFFFF;stroke:#263238;stroke-linecap:round;stroke-linejoin:round;stroke-miterlimit:10;" points="
				578.176,104.671 634.564,83.642 629.167,121.42 577.804,141.891 			"/>
			<polygon style="fill:#FFFFFF;stroke:#263238;stroke-linecap:round;stroke-linejoin:round;stroke-miterlimit:10;" points="
				529.232,91.272 590.086,72.848 634.564,83.642 578.176,104.671 			"/>
			<polygon style="fill:#FFFFFF;stroke:#263238;stroke-linecap:round;stroke-linejoin:round;stroke-miterlimit:10;" points="
				536.137,90.007 577.997,102.06 628.669,83.786 589.142,73.937 			"/>
			<g>
				<polygon style="fill:#92E3A9;stroke:#263238;stroke-linecap:round;stroke-linejoin:round;stroke-miterlimit:10;" points="
					601.779,99.006 582.921,106.077 582.662,133.551 600.035,126.425 				"/>
				<polygon style="fill:#92E3A9;stroke:#263238;stroke-linecap:round;stroke-linejoin:round;stroke-miterlimit:10;" points="
					612.383,95.029 609.648,122.482 625.947,115.797 628.539,88.97 				"/>
			</g>
			<polygon style="fill:#92E3A9;stroke:#263238;stroke-linecap:round;stroke-linejoin:round;stroke-miterlimit:10;" points="
				534.452,96.487 572.554,106.984 572.683,133.163 540.414,122.925 			"/>
			<path style="fill:#FFFFFF;stroke:#263238;stroke-linecap:round;stroke-linejoin:round;stroke-miterlimit:10;" d="M550.681,39.17
				l58.435-18.49c0,0-10.292-5.059-17.094-4.012c-6.803,1.047-61.203,19.637-61.203,19.637l18.292,6.354L550.681,39.17z"/>
			<path style="fill:#92E3A9;stroke:#263238;stroke-linecap:round;stroke-linejoin:round;stroke-miterlimit:10;" d="M541.192,32.787
				c2.669-0.223,7.317-0.152,10.891,2.371l49.303-15.323c0,0-4.89-2.087-12.849-2.33C578.932,20.149,555.041,28.116,541.192,32.787z
				"/>
			<path style="fill:#FFFFFF;stroke:#263238;stroke-linecap:round;stroke-linejoin:round;stroke-miterlimit:10;" d="M527.83,89.232
				l22.851-50.062c0,0-11.513-8.024-23.723-1.221c-12.21,6.803-10.989,23.549-9.419,31.224
				C519.109,76.848,524.516,85.918,527.83,89.232z"/>
			<path style="fill:#92E3A9;stroke:#263238;stroke-linecap:round;stroke-linejoin:round;stroke-miterlimit:10;" d="M545.551,40.752
				l-19.619,40.302c0,0-8.669-18.098-3.042-31.633C528.518,35.886,545.551,40.752,545.551,40.752z"/>
			<polygon style="fill:#FFFFFF;stroke:#263238;stroke-linecap:round;stroke-linejoin:round;stroke-miterlimit:10;" points="
				609.116,20.68 586.005,70.712 527.83,89.232 550.681,39.17 			"/>
			<polygon style="fill:#949494;stroke:#263238;stroke-linecap:round;stroke-linejoin:round;stroke-miterlimit:10;" points="
				552.395,40.904 531.712,86.529 584.028,69.192 605.167,24.632 			"/>
			<path style="fill:none;stroke:#263238;stroke-linecap:round;stroke-linejoin:round;stroke-miterlimit:10;" d="M583.238,34.924
				c0.747-1.317,1.246-1.928,1.246-1.928"/>
			<path style="fill:none;stroke:#263238;stroke-linecap:round;stroke-linejoin:round;stroke-miterlimit:10;" d="M584.028,69.192
				c0,0-8.213-6.539-5.931-18.858c1.104-5.96,2.634-10.211,3.921-13.012"/>
			<path style="fill:#FFFFFF;stroke:#263238;stroke-linecap:round;stroke-linejoin:round;stroke-miterlimit:10;" d="M607.382,83.119
				c0,1.117-1.854,2.022-4.14,2.022s-4.14-0.905-4.14-2.022c0-1.117,1.854-2.022,4.14-2.022S607.382,82.002,607.382,83.119z"/>
			<path style="fill:#FFFFFF;stroke:#263238;stroke-linecap:round;stroke-linejoin:round;stroke-miterlimit:10;" d="M600.065,86.392
				c0,1.117-1.854,2.022-4.14,2.022s-4.14-0.905-4.14-2.022c0-1.117,1.853-2.022,4.14-2.022S600.065,85.276,600.065,86.392z"/>
			<path style="fill:#FFFFFF;stroke:#263238;stroke-linecap:round;stroke-linejoin:round;stroke-miterlimit:10;" d="M607.863,86.104
				c0,1.117-1.854,2.022-4.14,2.022s-4.14-0.905-4.14-2.022s1.853-2.022,4.14-2.022S607.863,84.987,607.863,86.104z"/>
			<path style="fill:#FFFFFF;stroke:#263238;stroke-linecap:round;stroke-linejoin:round;stroke-miterlimit:10;" d="M600.37,82.919
				c0,1.117-1.854,2.022-4.14,2.022s-4.14-0.905-4.14-2.022c0-1.117,1.854-2.022,4.14-2.022S600.37,81.802,600.37,82.919z"/>
			<path style="fill:#FFFFFF;stroke:#263238;stroke-linecap:round;stroke-linejoin:round;stroke-miterlimit:10;" d="M589.718,82.312
				c0,1.117-1.854,2.022-4.14,2.022s-4.14-0.905-4.14-2.022c0-1.117,1.854-2.022,4.14-2.022S589.718,81.196,589.718,82.312z"/>
			<path style="fill:#FFFFFF;stroke:#263238;stroke-linecap:round;stroke-linejoin:round;stroke-miterlimit:10;" d="M594.447,78.367
				c0,1.117-1.854,2.022-4.14,2.022c-2.286,0-4.14-0.905-4.14-2.022c0-1.117,1.854-2.022,4.14-2.022
				C592.594,76.345,594.447,77.25,594.447,78.367z"/>
			<path style="fill:#FFFFFF;stroke:#263238;stroke-linecap:round;stroke-linejoin:round;stroke-miterlimit:10;" d="M603.121,79.448
				c0,1.117-1.854,2.022-4.14,2.022s-4.14-0.905-4.14-2.022c0-1.117,1.854-2.022,4.14-2.022S603.121,78.332,603.121,79.448z"/>
			<path style="fill:#FFFFFF;stroke:#263238;stroke-linecap:round;stroke-linejoin:round;stroke-miterlimit:10;" d="M596.556,80.902
				c0,1.117-1.854,2.022-4.14,2.022c-2.286,0-4.14-0.905-4.14-2.022c0-1.117,1.854-2.022,4.14-2.022
				C594.702,78.88,596.556,79.785,596.556,80.902z"/>
			<path style="fill:#FFFFFF;stroke:#263238;stroke-linecap:round;stroke-linejoin:round;stroke-miterlimit:10;" d="M583.493,80.677
				c0,1.117-1.854,2.022-4.14,2.022s-4.14-0.905-4.14-2.022c0-1.117,1.854-2.022,4.14-2.022S583.493,79.561,583.493,80.677z"/>
			<path style="fill:#FFFFFF;stroke:#263238;stroke-linecap:round;stroke-linejoin:round;stroke-miterlimit:10;" d="M587.12,76.894
				c0,1.117-1.854,2.022-4.14,2.022c-2.286,0-4.14-0.905-4.14-2.022c0-1.117,1.854-2.022,4.14-2.022
				C585.266,74.872,587.12,75.777,587.12,76.894z"/>
			<path style="fill:#FFFFFF;stroke:#263238;stroke-linecap:round;stroke-linejoin:round;stroke-miterlimit:10;" d="M575.27,81.431
				c0,1.117-1.854,2.022-4.14,2.022s-4.14-0.905-4.14-2.022c0-1.117,1.854-2.022,4.14-2.022S575.27,80.314,575.27,81.431z"/>
			<path style="fill:#FFFFFF;stroke:#263238;stroke-linecap:round;stroke-linejoin:round;stroke-miterlimit:10;" d="M579.408,78.306
				c0,1.117-1.854,2.022-4.14,2.022s-4.14-0.905-4.14-2.022c0-1.117,1.854-2.022,4.14-2.022S579.408,77.19,579.408,78.306z"/>
			<path style="fill:#FFFFFF;stroke:#263238;stroke-linecap:round;stroke-linejoin:round;stroke-miterlimit:10;" d="M566.988,81.459
				c0,1.117-1.854,2.022-4.14,2.022s-4.14-0.905-4.14-2.022c0-1.117,1.854-2.022,4.14-2.022S566.988,80.342,566.988,81.459z"/>
			<path style="fill:#FFFFFF;stroke:#263238;stroke-linecap:round;stroke-linejoin:round;stroke-miterlimit:10;" d="M559.253,83.837
				c0,1.117-1.853,2.022-4.14,2.022c-2.286,0-4.14-0.905-4.14-2.022c0-1.117,1.854-2.022,4.14-2.022
				C557.4,81.815,559.253,82.72,559.253,83.837z"/>
			<path style="fill:#FFFFFF;stroke:#263238;stroke-linecap:round;stroke-linejoin:round;stroke-miterlimit:10;" d="M550.341,87.144
				c0,1.117-1.854,2.022-4.14,2.022s-4.14-0.905-4.14-2.022s1.853-2.022,4.14-2.022S550.341,86.028,550.341,87.144z"/>
			
				<ellipse style="fill:#FFFFFF;stroke:#263238;stroke-linecap:round;stroke-linejoin:round;stroke-miterlimit:10;" cx="540.619" cy="88.864" rx="4.14" ry="2.022"/>
			<path style="fill:#FFFFFF;stroke:#263238;stroke-linecap:round;stroke-linejoin:round;stroke-miterlimit:10;" d="M553.232,85.205
				c0,1.117-1.854,2.022-4.14,2.022c-2.286,0-4.14-0.905-4.14-2.022c0-1.117,1.854-2.022,4.14-2.022
				C551.378,83.183,553.232,84.088,553.232,85.205z"/>
			<path style="fill:#FFFFFF;stroke:#263238;stroke-linecap:round;stroke-linejoin:round;stroke-miterlimit:10;" d="M565.502,83.993
				c0,1.117-1.854,2.022-4.14,2.022s-4.14-0.905-4.14-2.022c0-1.117,1.854-2.022,4.14-2.022S565.502,82.876,565.502,83.993z"/>
			<path style="fill:#FFFFFF;stroke:#263238;stroke-linecap:round;stroke-linejoin:round;stroke-miterlimit:10;" d="M556.644,89.192
				c0,1.117-1.854,2.022-4.14,2.022c-2.286,0-4.14-0.905-4.14-2.022c0-1.117,1.854-2.022,4.14-2.022
				C554.79,87.17,556.644,88.075,556.644,89.192z"/>
			<path style="fill:#FFFFFF;stroke:#263238;stroke-linecap:round;stroke-linejoin:round;stroke-miterlimit:10;" d="M566.996,90.717
				c0,1.117-1.854,2.022-4.14,2.022c-2.286,0-4.14-0.905-4.14-2.022c0-1.117,1.854-2.022,4.14-2.022
				C565.143,88.695,566.996,89.6,566.996,90.717z"/>
			<path style="fill:#FFFFFF;stroke:#263238;stroke-linecap:round;stroke-linejoin:round;stroke-miterlimit:10;" d="M578.9,87.859
				c0,1.117-1.854,2.022-4.14,2.022s-4.14-0.905-4.14-2.022c0-1.117,1.854-2.022,4.14-2.022S578.9,86.743,578.9,87.859z"/>
			<path style="fill:#FFFFFF;stroke:#263238;stroke-linecap:round;stroke-linejoin:round;stroke-miterlimit:10;" d="M576.74,95.038
				c0,1.117-1.854,2.022-4.14,2.022c-2.286,0-4.14-0.905-4.14-2.022c0-1.117,1.854-2.022,4.14-2.022
				C574.887,93.016,576.74,93.921,576.74,95.038z"/>
			<path style="fill:#FFFFFF;stroke:#263238;stroke-linecap:round;stroke-linejoin:round;stroke-miterlimit:10;" d="M585.591,95.811
				c0,1.117-1.854,2.022-4.14,2.022s-4.14-0.905-4.14-2.022c0-1.117,1.854-2.022,4.14-2.022S585.591,94.694,585.591,95.811z"/>
			<path style="fill:#FFFFFF;stroke:#263238;stroke-linecap:round;stroke-linejoin:round;stroke-miterlimit:10;" d="M591.42,90.829
				c0,1.117-1.854,2.022-4.14,2.022c-2.287,0-4.14-0.905-4.14-2.022c0-1.117,1.854-2.022,4.14-2.022
				C589.566,88.807,591.42,89.712,591.42,90.829z"/>
			<path style="fill:#FFFFFF;stroke:#263238;stroke-linecap:round;stroke-linejoin:round;stroke-miterlimit:10;" d="M623.873,83.919
				c0,1.117-1.854,2.022-4.14,2.022s-4.14-0.905-4.14-2.022c0-1.117,1.854-2.022,4.14-2.022S623.873,82.802,623.873,83.919z"/>
			<path style="fill:#FFFFFF;stroke:#263238;stroke-linecap:round;stroke-linejoin:round;stroke-miterlimit:10;" d="M617.294,80.491
				c0,1.117-1.854,2.022-4.14,2.022s-4.14-0.905-4.14-2.022c0-1.117,1.854-2.022,4.14-2.022S617.294,79.375,617.294,80.491z"/>
			<path style="fill:#FFFFFF;stroke:#263238;stroke-linecap:round;stroke-linejoin:round;stroke-miterlimit:10;" d="M594.222,74.695
				c0,1.117-1.854,2.022-4.14,2.022s-4.14-0.905-4.14-2.022s1.853-2.022,4.14-2.022S594.222,73.578,594.222,74.695z"/>
			<path style="fill:#FFFFFF;stroke:#263238;stroke-linecap:round;stroke-linejoin:round;stroke-miterlimit:10;" d="M602,76.568
				c0,1.117-1.854,2.022-4.14,2.022s-4.14-0.905-4.14-2.022c0-1.117,1.854-2.022,4.14-2.022S602,75.451,602,76.568z"/>
			<path style="fill:#FFFFFF;stroke:#263238;stroke-linecap:round;stroke-linejoin:round;stroke-miterlimit:10;" d="M572.952,86.29
				c0,1.117-1.854,2.022-4.14,2.022c-2.286,0-4.14-0.905-4.14-2.022c0-1.117,1.854-2.022,4.14-2.022
				C571.098,84.268,572.952,85.173,572.952,86.29z"/>
			<path style="fill:#FFFFFF;stroke:#263238;stroke-linecap:round;stroke-linejoin:round;stroke-miterlimit:10;" d="M589.955,86.489
				c0,1.117-1.854,2.022-4.14,2.022s-4.14-0.905-4.14-2.022c0-1.117,1.854-2.022,4.14-2.022S589.955,85.372,589.955,86.489z"/>
			
				<line style="fill:none;stroke:#C7C7C7;stroke-linecap:round;stroke-linejoin:round;stroke-miterlimit:10;" x1="600.257" y1="58.182" x2="597.754" y2="69.351"/>
			
				<line style="fill:none;stroke:#C7C7C7;stroke-linecap:round;stroke-linejoin:round;stroke-miterlimit:10;" x1="609.885" y1="71.854" x2="612.774" y2="68.773"/>
			
				<line style="fill:none;stroke:#C7C7C7;stroke-linecap:round;stroke-linejoin:round;stroke-miterlimit:10;" x1="622.402" y1="76.09" x2="635.303" y2="71.276"/>
		</g>
	</g>
</g>
</svg>
