<?xml version="1.0" encoding="utf-8"?>
<!-- Generator: Adobe Illustrator 27.5.0, SVG Export Plug-In . SVG Version: 6.00 Build 0)  -->
<svg version="1.1" xmlns="http://www.w3.org/2000/svg" xmlns:xlink="http://www.w3.org/1999/xlink" x="0px" y="0px"
	 viewBox="0 0 750 500" style="enable-background:new 0 0 750 500;" xml:space="preserve">
<g id="Background_Simple">
	<g>
		<path style="fill:#92E3A9;" d="M598.274,88.751c-9.571-7.705-19.487-14.986-29.613-21.855
			c-35.549-24.115-76.352-43.194-120.02-43.993c-43.361-0.794-81.544,19.566-112.608,48.514c-3.09,2.88-6.111,5.834-9.076,8.843
			c-53.891,54.707-125.745,103.699-204.133,148.608c-37.28,21.359-60.418,60.375-62.829,103.093
			c-5.819,103.097,120.626,147.444,204.905,130.434c89.002-17.964,85.736-20.413,179.636-2.45
			c93.901,17.964,205.765-14.698,243.326-84.92c22.408-41.893,21.783-92.11,11.46-137.364
			C685.336,176.349,646.1,127.251,598.274,88.751z"/>
		<path style="opacity:0.7;fill:#FFFFFF;" d="M598.274,88.751c-9.571-7.705-19.487-14.986-29.613-21.855
			c-35.549-24.115-76.352-43.194-120.02-43.993c-43.361-0.794-81.544,19.566-112.608,48.514c-3.09,2.88-6.111,5.834-9.076,8.843
			c-53.891,54.707-125.745,103.699-204.133,148.608c-37.28,21.359-60.418,60.375-62.829,103.093
			c-5.819,103.097,120.626,147.444,204.905,130.434c89.002-17.964,85.736-20.413,179.636-2.45
			c93.901,17.964,205.765-14.698,243.326-84.92c22.408-41.893,21.783-92.11,11.46-137.364
			C685.336,176.349,646.1,127.251,598.274,88.751z"/>
	</g>
</g>
<g id="Clouds">
	<g>
		<path style="fill:none;stroke:#263238;stroke-miterlimit:10;" d="M698.411,218.644c-2.821-2.689-4.594,0.291-7.549,0.327
			c-3.049,0.038-3.904-1.771-5.317-4.856c-2.125-4.639-3.201-10.115-8.495-8.889c-1.392,0.322-2.66,1.161-3.963,1.84
			c-1.304,0.679-2.734,1.21-4.123,0.871c-3.445-0.843-3.538-7.455-3.854-10.752c-0.687-7.158-8.24-15.996-18.539-17.258
			c-5.456-0.669-11.539,3.299-15.258,8.054c-1.344,1.717-2.322,3.785-3.284,5.855c-0.326,0.702-0.653,1.4-0.988,2.088
			c-5.56-2.844-12.182-1.679-17.901-4.342c-5.98-2.785-8.925-8.128-11.962-13.463c-1.799-3.159-3.63-6.316-6.144-8.937
			c-6.961-7.258-18.342-13.314-28.55-12.294c-19.271,1.927-33.403,15.417-34.688,26.343c-0.592,5.033-0.765,15.124-7.211,16.411
			c-2.599,0.519-5.275-0.293-7.714-1.329c-2.439-1.036-4.812-2.317-7.416-2.809c-9.906-1.87-11.918,6.487-15.894,13.569
			c-2.644,4.71-4.243,7.47-9.949,7.413c-5.529-0.056-8.847-4.604-14.125-0.499c-5.781,4.496-7.066,7.708-7.066,7.708h151.416h21.38
			h70.972C702.187,223.695,701.501,221.59,698.411,218.644z"/>
		<path style="fill:none;stroke:#263238;stroke-miterlimit:10;" d="M185.333,253.598c-1.518-1.447-2.473,0.157-4.063,0.176
			c-1.641,0.02-2.101-0.953-2.862-2.614c-1.144-2.497-1.723-5.444-4.572-4.785c-0.749,0.174-1.432,0.625-2.133,0.991
			c-0.702,0.365-1.471,0.652-2.219,0.469c-1.854-0.454-1.904-4.012-2.074-5.787c-0.37-3.853-4.435-8.609-9.978-9.289
			c-2.936-0.36-6.21,1.776-8.213,4.335c-0.723,0.924-1.25,2.037-1.767,3.151c-0.175,0.378-0.351,0.753-0.532,1.124
			c-2.993-1.531-6.557-0.904-9.635-2.337c-3.219-1.499-4.803-4.375-6.438-7.246c-0.968-1.7-1.954-3.399-3.307-4.81
			c-3.746-3.906-9.872-7.166-15.366-6.617c-10.372,1.037-17.978,8.298-18.67,14.178c-0.319,2.708-0.412,8.14-3.881,8.833
			c-1.398,0.279-2.839-0.158-4.152-0.715c-1.313-0.558-2.59-1.247-3.992-1.512c-5.331-1.007-6.414,3.492-8.555,7.303
			c-1.423,2.535-2.284,4.02-5.354,3.99c-2.976-0.03-4.762-2.478-7.602-0.269c-3.112,2.42-3.803,4.149-3.803,4.149h81.496h11.507
			h38.199C187.366,256.316,186.996,255.183,185.333,253.598z"/>
		<path style="fill:none;stroke:#263238;stroke-miterlimit:10;" d="M312.721,93.143c0,0-1.147-10.896-13.763-13.19
			c-12.616-2.294-13.19,4.014-18.351,7.455c-5.161,3.441-8.029-1.147-13.763-2.867c-5.735-1.72-9.175,3.441-13.19,8.602
			s-5.735-1.72-12.043-0.574c-6.308,1.147-8.602,5.161-10.322,6.882s-6.308-2.867-10.322-1.147c-4.014,1.72-4.014,1.72-4.014,1.72
			H335.66c0,0,4.014-9.749-6.308-10.896C319.029,87.981,317.882,94.863,312.721,93.143z"/>
	</g>
</g>
<g id="Sun">
	<g>
		<g>
			
				<ellipse transform="matrix(0.7071 -0.7071 0.7071 0.7071 111.8081 439.1873)" style="fill:#92E3A9;" cx="586.05" cy="84.629" rx="52.115" ry="52.115"/>
			
				<ellipse transform="matrix(0.7071 -0.7071 0.7071 0.7071 111.8081 439.1873)" style="opacity:0.7;fill:#FFFFFF;" cx="586.05" cy="84.629" rx="52.115" ry="52.115"/>
		</g>
		<g>
			
				<ellipse transform="matrix(0.7071 -0.7071 0.7071 0.7071 111.8081 439.1873)" style="fill:#92E3A9;" cx="586.05" cy="84.629" rx="43.091" ry="43.091"/>
			
				<ellipse transform="matrix(0.7071 -0.7071 0.7071 0.7071 111.8081 439.1873)" style="opacity:0.49;fill:#FFFFFF;" cx="586.05" cy="84.629" rx="43.091" ry="43.091"/>
		</g>
		<circle style="fill:#92E3A9;" cx="586.05" cy="84.629" r="34.316"/>
	</g>
</g>
<g id="Island">
	<g>
		<g>
			<path style="fill:#92E3A9;" d="M406.343,328.05c0,0,15.478-19.035,29.165-19.922c13.686-0.887,13.504,7.503,25.762,7.984
				c12.258,0.481,18.987-12.072,36.835-6.412c17.849,5.66,19.272,19.465,20.341,24.762c1.069,5.296,9.995,5.597,20.526,6.256
				c10.532,0.659,10.589,7.978,11.777,12.738c1.188,4.761,6.604,3.156,15.41,3.993c8.806,0.836,14.337,8.812,14.216,14.405
				c-0.121,5.593-0.121,5.593-0.121,5.593l-77.642-27.402l14.157,12.144c0,0-31.891-8.224-44.207-10.966
				c-12.316-2.742-38.377-6.858-38.377-6.858l14.521-4.636L406.343,328.05z"/>
			<line style="fill:none;stroke:#263238;stroke-miterlimit:10;" x1="441.03" y1="336.335" x2="436.871" y2="319.672"/>
			<line style="fill:none;stroke:#263238;stroke-miterlimit:10;" x1="439.248" y1="329.193" x2="443.356" y2="323.364"/>
			<line style="fill:none;stroke:#263238;stroke-miterlimit:10;" x1="480.713" y1="352.475" x2="478.696" y2="336.29"/>
			<polyline style="fill:none;stroke:#263238;stroke-miterlimit:10;" points="484.586,337.601 480.537,345.692 469.233,340.927 			
				"/>
			<polyline style="fill:none;stroke:#263238;stroke-miterlimit:10;" points="522.606,346.065 510.227,351.178 508.748,330.054 			
				"/>
			<line style="fill:none;stroke:#263238;stroke-miterlimit:10;" x1="514.929" y1="349.044" x2="514.229" y2="342.254"/>
			<line style="fill:none;stroke:#263238;stroke-miterlimit:10;" x1="558.853" y1="369.052" x2="567.753" y2="363.845"/>
			<line style="fill:none;stroke:#263238;stroke-miterlimit:10;" x1="561.224" y1="367.092" x2="573.37" y2="368.413"/>
			<line style="fill:none;stroke:#263238;stroke-miterlimit:10;" x1="532.164" y1="359.793" x2="540.129" y2="348.849"/>
			<polyline style="fill:none;stroke:#263238;stroke-miterlimit:10;" points="544.547,352.597 536.029,354.848 531.583,347.5 			"/>
			<line style="fill:none;stroke:#263238;stroke-miterlimit:10;" x1="509.43" y1="338.974" x2="496.848" y2="330.92"/>
			<line style="fill:none;stroke:#263238;stroke-miterlimit:10;" x1="440.184" y1="332.127" x2="427.63" y2="325.186"/>
		</g>
		<path style="fill:#263238;" d="M140.709,301.75c0,0-0.285,7.588,0.095,6.071c0.38-1.518,3.51-9.201,3.51-9.201
			s0.095,6.07,1.518,3.604c0.809-1.402,2.169-3.447,3.193-4.951c0.777-1.142,1.36-1.973,1.36-1.973s-1.138,6.165,0.854,4.648
			c1.992-1.518,4.648-5.691,4.648-5.691s-1.967,5.622,0.004,3.651c1.971-1.971,4.29-5.333,4.29-5.333s-4.87,8.638-5.333,12.464
			c-0.464,3.826,3.014-2.203,3.014-2.203s-2.783,17.043-1.159,14.493c1.623-2.551,5.565-12.406,5.565-12.406
			s-0.058,10.087,0.812,7.594c0.365-1.048,0.607-2.648,0.766-4.153c0.791,5.756,2.144,11.518,3.917,17.723
			c5.174,18.109,13.848,29.979,24.5,46.87c0.712,1.13,1.371,2.228,1.986,3.298h6.673c-5.416-8.973-12.577-17.025-24.029-39.251
			c-6.186-12.007-9.093-22.867-10.294-31.858c0.634-3.16,1.176-6.485,1.176-6.485s2.145,15.072,4,12.58
			c0.523-0.703,0.862-1.708,1.085-2.784c0.135,0.408,0.37,0.575,0.77,0.292c1.797-1.275,1.797-1.275,1.797-1.275
			s-1.681,7.71-0.058,6.145c1.623-1.565,1.623-1.565,1.623-1.565s-0.464,7.768,0.058,6.667c0.522-1.101,2.087-2.435,2.087-2.435
			s-1.623,10.435-0.232,5.855c0.79-2.601,2.01-7.556,2.917-11.353c0.08,0.122,0.18,0.14,0.294,0.077
			c-0.672,4.198-1.23,8.834,0.326,5.015c1.138-2.793,1.859-6.785,2.218-10.655c0.162-0.483,0.26-0.793,0.26-0.793l1.21,4.292
			c0,0-0.301,1.207-0.77,2.801c-0.469,1.593-1.105,3.572-1.775,5.115c-1.34,3.086,3.688-2.215,3.688-2.215s-1.071,4.293-2.143,6.306
			c-1.072,2.013,3.688-2.215,3.688-2.215s-1.605,8.72-1.939,11.202c-0.334,2.482,7.07-13.97,7.07-13.97s-2.556-22.266-7.648-27.14
			c-0.766-0.734-1.619-1.376-2.507-1.955l0.241-1.782l3.225,3.225l0.095-5.217c0,0,1.992,3.32,4.458,4.743
			c2.466,1.423,0.095-5.217,0.095-5.217s3.225,4.838,5.312,6.165c2.087,1.328-1.992-6.545-1.992-6.545l3.889,2.182
			c0,0,0.64,1.067,1.435,2.525c0.794,1.458,1.743,3.308,2.359,4.873c1.233,3.13,1.043-4.173,1.043-4.173s2.277,3.794,2.941,5.976
			c0.664,2.182,1.043-4.173,1.043-4.173s5.027,7.304,6.545,9.296c1.518,1.992-4.871-14.88-4.871-14.88s-17.544-13.946-24.592-13.796
			c-0.114,0.002-0.228,0.017-0.343,0.022c1.326-0.871,2.467-1.657,3.208-2.184c2.94-2.087-4.838,0-4.838,0s8.063-6.45,8.916-8.252
			c0.854-1.802-4.837,0-4.837,0s3.32-1.992,4.932-3.604c1.613-1.613-3.794-0.949-3.794-0.949s5.027-2.371,7.493-4.173
			c2.466-1.802-6.071-1.518-6.071-1.518s6.64-2.371,8.252-3.984c1.613-1.613-6.45,1.613-6.45,1.613l4.458-4.932
			c0,0-11.193,1.233-18.117,14.417c-2.02,3.847-3.432,6.638-4.422,8.671c0.001-0.169,0.003-0.331,0.004-0.504
			c0.095-14.892-9.201-21.247-9.201-21.247l1.613,6.45c0,0-5.596-6.64-4.932-4.458c0.664,2.182,5.407,7.399,5.407,7.399
			s-7.398-4.268-6.071-1.518c1.328,2.751,4.648,7.209,4.648,7.209s-4.458-3.13-3.794-0.949c0.664,2.182,2.656,5.501,2.656,5.501
			s-4.173-4.268-4.268-2.276c-0.022,0.469,0.192,1.362,0.525,2.441c-0.937-0.832-1.955-1.595-3.053-2.211
			c-6.148-3.449-28.191,0.6-28.191,0.6s-13.577,11.88-11.301,10.837s10.149-5.122,10.149-5.122s-2.656,5.786-1.043,4.173
			c1.612-1.613,5.407-3.889,5.407-3.889s-3.604,6.355-1.043,4.174c1.281-1.091,2.988-2.277,4.375-3.189
			c1.387-0.913,2.454-1.553,2.454-1.553l4.458-0.095c0,0-7.304,5.027-4.838,4.837c2.466-0.19,7.588-2.94,7.588-2.94
			s-5.217,4.742-2.371,4.648c2.846-0.095,6.165-2.087,6.165-2.087l-2.371,4.648l4.363-1.328l-0.626,1.685
			c-1.055,0.092-2.11,0.258-3.132,0.545c-6.787,1.905-19.521,20.348-19.521,20.348s-1.209,18-0.336,15.653
			c0.873-2.347,3.56-10.796,3.56-10.796s2.21,5.97,2.211,3.69c0.001-2.28,1.077-6.572,1.077-6.572s0.882,3.195,1.54,4.252
			c-1.511,4.957-2.582,8.564-2.582,8.564L140.709,301.75z M155.956,274.625l0.469,0.191c-0.455,0.487-0.91,0.987-1.358,1.486
			c-0.696-0.077-1.416-0.13-2.155-0.156L155.956,274.625z M137.026,297.425c0.336-1.626,0.639-2.833,0.639-2.833l0.871-0.908
			c-0.078,0.217-0.17,0.422-0.24,0.645c-0.599,1.911-1.185,3.801-1.74,5.603C136.702,299.058,136.867,298.194,137.026,297.425z"/>
		<path style="fill:#263238;" d="M439.024,214.591c0,0,18.492-9.013,24.777-7.479c1.122,0.274,2.21,0.697,3.244,1.202
			c-0.56-0.872-0.97-1.608-1.065-2.029c-0.407-1.785,4.335,0.961,4.335,0.961s-2.579-2.444-3.704-4.21
			c-1.125-1.765,3.588-0.096,3.588-0.096s-4.034-3.123-5.886-5.228c-1.852-2.105,5.741-0.155,5.741-0.155s-5.479-3.444-6.604-5.209
			c-1.125-1.765,5.46,2.726,5.46,2.726l-3.016-5.305c0,0,9.785,3.328,13.372,16.518c0.042,0.153,0.08,0.296,0.121,0.446
			c0.375-2.041,0.935-4.857,1.773-8.756c2.872-13.364,12.465-17.213,12.465-17.213l-2.726,5.46c0,0,6.334-4.839,5.305-3.015
			c-1.028,1.823-6.314,5.556-6.314,5.556s7.478-2.356,5.741-0.154c-1.736,2.201-5.597,5.537-5.597,5.537s4.617-1.92,3.588-0.097
			c-1.028,1.823-3.473,4.403-3.473,4.403s4.588-2.996,4.277-1.192c-0.311,1.804-5.849,9.494-5.849,9.494s6.363-3.762,4.277-1.192
			c-0.526,0.648-1.341,1.624-2.298,2.721c0.1-0.033,0.197-0.074,0.297-0.104c6.194-1.87,25.144,6.136,25.144,6.136
			s9.807,13.343,7.974,11.956c-1.833-1.387-8.078-6.606-8.078-6.606s1.231,5.712,0.106,3.947c-1.125-1.765-4.073-4.559-4.073-4.559
			s1.968,6.411,0.106,3.947c-0.931-1.232-2.225-2.633-3.287-3.727s-1.891-1.879-1.891-1.879l-3.976-0.97
			c0,0,5.547,5.955,3.374,5.296c-2.172-0.66-6.216-4.142-6.216-4.142s3.733,5.286,1.202,4.636c-2.531-0.65-5.11-3.094-5.11-3.094
			l1.202,4.636l-3.646-2.056l0.226,1.635c0.927,0.292,1.84,0.651,2.698,1.11c5.704,3.055,13.452,22.111,13.452,22.111
			s-2.491,16.371-2.808,14.094c-0.316-2.277-1.046-10.382-1.046-10.382s-3.166,4.911-2.715,2.868c0.452-2.044,0.34-6.104,0.34-6.104
			s-3.138,5.926-2.715,2.868c0.212-1.529,0.287-3.436,0.308-4.96c0.022-1.524-0.01-2.666-0.01-2.666l-2.127-3.497
			c0,0-0.01,0.298-0.035,0.765c0.636,3.51,0.983,7.217,0.665,9.968c-0.434,3.76-1.083-0.477-1.524-4.354
			c-0.085,0.084-0.178,0.092-0.279,0.004c0.134,3.581,0.277,8.263,0.219,10.757c-0.101,4.392-1.238-5.234-1.238-5.234
			s-1.055,1.565-1.245,2.667c-0.19,1.103-1.694-5.88-1.694-5.88s0,0-1.049,1.784c-1.049,1.784-1.463-5.447-1.463-5.447
			s0,0-1.275,1.571c-0.283,0.349-0.533,0.259-0.753-0.068c0.068,1.007,0.016,1.979-0.273,2.729
			c-1.026,2.661-6.637-10.137-6.637-10.137s0.87,7.877,0.722,10.515c-0.101,1.794-1.237-0.952-1.954-2.892
			c0.006,0.395,0.014,0.788,0.019,1.184c0.287,1.551,0.554,3.398,0.477,4.601c-0.037,0.584-0.208,0.502-0.445,0.048
			c0.052,25.936-2.172,53.331-5.257,69.401c-4.566,23.784-0.35,39.76-0.35,39.76l-8.039,0.216c0,0-1.187-8.959-0.112-21.765
			c1.075-12.806,5.346-29.957,8.737-62.227c0.862-8.206,1.372-15.86,1.655-22.717c-0.216,1.307-0.436,2.435-0.641,3.11
			c-0.806,2.655-2.547-13.099-2.547-13.099s-1.589,6.188-2.122,2.691c-0.533-3.497,1.643-12.334,1.643-12.334
			s-1.221,3.544-2.478,5.773c-1.257,2.229-0.904-3.227-0.904-3.227s-1.32,4.345-2.707,6.177c-1.387,1.833-1.9-3.899-1.9-3.899
			s-0.311,0.878-0.717,2.08c-0.534,1.582-1.233,3.726-1.602,5.165c-0.65,2.531-2.23-2.813-2.23-2.813s-0.874,7.564-0.835,9
			c0.039,1.435-1.58-5.344-1.58-5.344l-4.375,10.891c0,0,0.057-3.453,0.172-8.208c-0.842-0.773-2.41-3.38-2.41-3.38
			s0.107,4.06,0.668,6.076c0.561,2.017-2.865-2.717-2.865-2.717s-0.293,8.133-0.487,10.423c-0.193,2.29-3.561-13.923-3.561-13.923
			s6.713-19.445,12.244-22.802c0.832-0.505,1.724-0.912,2.634-1.254l0.138-1.644l-3.53,2.25l0.951-4.694
			c0,0-2.444,2.579-4.937,3.365c-2.492,0.785,0.951-4.694,0.951-4.694s-3.851,3.694-5.984,4.47
			c-2.134,0.776,3.085-5.469,3.085-5.469l-3.918,1.183c0,0-0.786,0.829-1.787,1.978c-1.002,1.149-2.219,2.618-3.082,3.898
			c-1.727,2.56-0.106-3.947-0.106-3.947s-2.793,2.948-3.822,4.771c-1.028,1.823-0.106-3.947-0.106-3.947s-5.956,5.547-7.711,7.03
			C429.948,228.441,439.024,214.591,439.024,214.591z M491.396,222.7c0.004,0.005,0.007,0.01,0.011,0.015
			c0.003,0.001,0.006,0.001,0.009,0.002L491.396,222.7z M455.22,244.387c0.049,0.719,0.116,1.524,0.202,2.332
			c0.046-1.729,0.099-3.545,0.157-5.382c0.007-0.214,0.037-0.419,0.053-0.629l-0.546,1.017
			C455.086,241.724,455.116,242.866,455.22,244.387z M465.965,221.264c0.273-0.551,0.552-1.105,0.834-1.648l-0.462-0.053
			l-2.315,2.095C464.681,221.498,465.331,221.367,465.965,221.264z"/>
		<path style="fill:#263238;" d="M474.921,261.548c2.019-1.099,8.97-5.331,8.97-5.331s-2.067,5.466-0.692,3.887
			c1.375-1.578,4.705-3.902,4.705-3.902s-2.899,6.047-0.692,3.887c1.104-1.08,2.592-2.273,3.805-3.197
			c1.213-0.924,2.149-1.577,2.149-1.577l4.076-0.368c0,0-6.371,5.064-4.124,4.735c2.246-0.329,6.763-3.172,6.763-3.172
			s-4.478,4.672-1.878,4.406c2.6-0.267,5.514-2.3,5.514-2.3l-1.878,4.406l3.911-1.491l-0.467,1.583
			c-0.96,0.151-1.916,0.37-2.833,0.697c-6.095,2.173-16.59,19.865-16.59,19.865s0.029,16.559,0.68,14.355
			c0.652-2.204,2.579-10.111,2.579-10.111s2.401,5.328,2.258,3.239c-0.143-2.088,0.571-6.086,0.571-6.086s1.009,2.87,1.679,3.797
			c-1.071,4.634-1.824,8.005-1.824,8.005l6.482-9.785c0,0,0.218,6.966,0.47,5.553c0.252-1.414,2.633-8.647,2.633-8.647
			s0.47,5.553,1.617,3.205c0.652-1.335,1.768-3.293,2.611-4.736c0.64-1.095,1.121-1.892,1.121-1.892s-0.653,5.718,1.075,4.202
			c1.728-1.515,3.897-5.505,3.897-5.505s-1.446,5.272,0.234,3.343c1.68-1.929,3.591-5.155,3.591-5.155s-3.914,8.217-4.097,11.75
			c-0.183,3.533,2.621-2.207,2.621-2.207s-1.472,15.782-0.147,13.344c0.336-0.619,0.78-1.68,1.255-2.917
			c-1.66,6.659-3.702,14.053-6.202,21.917c-9.235,29.057-16.539,44.881-20.403,56.912h6.527c1.174-4.254,2.723-8.907,4.769-13.848
			c6.262-15.117,13.965-41.501,19.143-66.915c0.14,0.492,0.291,0.607,0.446,0.042c0.318-1.163,0.429-3.025,0.461-4.603
			c0.075-0.389,0.147-0.775,0.22-1.163c0.311,2.045,0.87,4.964,1.331,3.227c0.677-2.553,1.413-10.445,1.413-10.445
			s2.916,13.666,4.457,11.267c0.434-0.676,0.681-1.618,0.818-2.618c0.149,0.365,0.375,0.503,0.724,0.219
			c1.565-1.281,1.565-1.281,1.565-1.281s-1.053,7.166,0.335,5.631c1.387-1.536,1.387-1.536,1.387-1.536s0.066,7.142,0.474,6.101
			c0.408-1.042,1.757-2.361,1.757-2.361s-0.827,9.658,0.157,5.376c0.559-2.431,1.363-7.045,1.954-10.58
			c0.081,0.107,0.173,0.117,0.274,0.052c-0.35,3.886-0.569,8.167,0.615,4.572c0.866-2.63,1.274-6.331,1.358-9.897
			c0.118-0.452,0.188-0.742,0.188-0.742l1.379,3.854c0,0-0.2,1.125-0.528,2.613c-0.329,1.488-0.786,3.341-1.302,4.796
			c-1.032,2.91,3.237-2.261,3.237-2.261s-0.71,3.999-1.564,5.91c-0.855,1.911,3.237-2.261,3.237-2.261s-0.919,8.086-1.068,10.38
			c-0.149,2.294,5.592-13.239,5.592-13.239s-3.746-20.227-8.717-24.369c-0.748-0.623-1.569-1.158-2.419-1.632l0.108-1.647
			l3.157,2.75l-0.242-4.783c0,0,2.034,2.914,4.382,4.061c2.348,1.147-0.242-4.783-0.242-4.783s3.258,4.226,5.253,5.31
			c1.995,1.084-2.237-5.867-2.237-5.867l3.699,1.752c0,0,0.654,0.937,1.473,2.222c0.819,1.285,1.805,2.919,2.468,4.313
			c1.327,2.788,0.692-3.888,0.692-3.888s2.324,3.331,3.07,5.286c0.746,1.956,0.692-3.888,0.692-3.888s5.064,6.371,6.58,8.099
			c1.516,1.728-5.4-13.318-5.4-13.318s-16.946-11.662-23.39-11.08c-0.104,0.01-0.208,0.03-0.312,0.042
			c1.159-0.882,2.154-1.673,2.799-2.202c2.561-2.096-4.43,0.305-4.43,0.305s6.976-6.415,7.643-8.119
			c0.668-1.704-4.43,0.305-4.43,0.305s2.914-2.034,4.289-3.612c1.375-1.578-3.534-0.629-3.534-0.629s4.454-2.489,6.598-4.295
			c2.144-1.806-5.655-1.007-5.655-1.007s5.93-2.59,7.305-4.169c1.375-1.579-5.804,1.884-5.804,1.884l3.771-4.798
			c0,0-10.171,1.836-15.679,14.346c-1.607,3.65-2.723,6.295-3.502,8.219c-0.01-0.155-0.018-0.303-0.028-0.461
			c-0.853-13.642-9.766-18.875-9.766-18.875l1.884,5.805c0,0-5.544-5.727-4.798-3.771c0.746,1.956,5.418,6.434,5.418,6.434
			s-7.044-3.441-5.654-1.007c1.39,2.435,4.711,6.308,4.711,6.308s-4.28-2.585-3.534-0.629c0.746,1.956,2.779,4.87,2.779,4.87
			s-4.091-3.645-4.052-1.815c0.009,0.431,0.262,1.235,0.635,2.202c-0.911-0.703-1.891-1.337-2.935-1.832
			c-5.848-2.77-25.777,2.329-25.777,2.329S472.902,262.647,474.921,261.548z M495.407,280.445c-0.428,1.787-0.845,3.555-1.239,5.24
			c0.078-0.809,0.175-1.611,0.272-2.325c0.205-1.51,0.406-2.635,0.406-2.635l0.74-0.886
			C495.528,280.043,495.457,280.237,495.407,280.445z M510.334,261.288l0.442,0.146c-0.385,0.475-0.771,0.961-1.149,1.446
			c-0.642-0.027-1.305-0.03-1.983-0.006L510.334,261.288z"/>
		<path style="fill:#263238;" d="M374.679,256.048c1.795-1.436,7.897-6.82,7.897-6.82s-1.077,5.743,0,3.949
			c1.077-1.795,3.949-4.667,3.949-4.667s-1.795,6.461,0,3.949c0.897-1.257,2.154-2.692,3.186-3.814
			c1.032-1.122,1.84-1.929,1.84-1.929l3.949-1.077c0,0-5.385,6.102-3.231,5.384c2.154-0.718,6.102-4.308,6.102-4.308
			s-3.59,5.385-1.077,4.667c2.513-0.718,5.025-3.231,5.025-3.231l-1.077,4.667l3.59-2.154l-0.182,1.64
			c-0.919,0.317-1.822,0.7-2.667,1.183c-5.62,3.207-12.853,22.465-12.853,22.465s2.931,16.298,3.186,14.014
			c0.255-2.284,0.767-10.406,0.767-10.406s3.297,4.824,2.791,2.793c-0.507-2.031-0.504-6.092-0.504-6.092s3.297,5.84,2.791,2.794
			c-0.253-1.523-0.379-3.427-0.441-4.95c-0.063-1.523-0.062-2.665-0.062-2.665l2.033-3.552c0,0,0.018,0.298,0.055,0.764
			c-0.542,3.526-0.789,7.241-0.397,9.982c0.535,3.747,1.07-0.506,1.406-4.393c0.088,0.081,0.18,0.088,0.279-0.004
			c-0.038,3.584-0.055,8.267,0.07,10.759c0.219,4.388,1.097-5.265,1.097-5.265s1.097,1.536,1.316,2.633
			c0.219,1.097,1.536-5.923,1.536-5.923s0,0,1.097,1.755c1.097,1.755,1.316-5.485,1.316-5.485s0,0,1.316,1.536
			c0.293,0.341,0.54,0.245,0.751-0.088c-0.041,1.009,0.037,1.979,0.346,2.721c1.097,2.633,6.362-10.311,6.362-10.311
			s-0.658,7.898-0.439,10.531c0.149,1.79,1.211-0.984,1.876-2.944c0.004,0.395,0.008,0.788,0.013,1.184
			c-0.245,1.559-0.462,3.411-0.353,4.612c0.053,0.583,0.222,0.496,0.446,0.036c0.645,25.928,3.605,53.254,7.121,69.234
			c2.398,10.9,2.885,20.186,2.716,27.037h6.954c-0.108-2.709-0.315-5.755-0.682-9.062c-1.419-12.772-6.15-29.802-10.407-61.969
			c-1.083-8.18-1.798-15.817-2.265-22.664c0.251,1.301,0.502,2.423,0.724,3.091c0.878,2.633,2.194-13.163,2.194-13.163
			s1.755,6.143,2.194,2.633c0.439-3.51-1.975-12.286-1.975-12.286s1.316,3.51,2.633,5.704c1.316,2.194,0.817-3.25,0.817-3.25
			s1.436,4.307,2.872,6.102c1.436,1.795,1.795-3.949,1.795-3.949s0.334,0.869,0.772,2.06c0.577,1.567,1.333,3.691,1.741,5.12
			c0.718,2.513,2.154-2.872,2.154-2.872s1.077,7.538,1.077,8.974c0,1.436,1.436-5.384,1.436-5.384l4.667,10.769
			c0,0-0.15-3.451-0.393-8.201c0.821-0.795,2.318-3.444,2.318-3.444s0.002,4.061-0.504,6.092c-0.507,2.031,2.791-2.794,2.791-2.794
			s0.512,8.122,0.767,10.407c0.255,2.284,3.185-14.014,3.185-14.014s-7.233-19.257-12.853-22.465
			c-0.846-0.483-1.748-0.865-2.667-1.183l-0.182-1.64l3.59,2.154l-1.077-4.667c0,0,2.513,2.513,5.026,3.231
			c2.513,0.718-1.077-4.667-1.077-4.667s3.949,3.59,6.102,4.308c2.154,0.718-3.231-5.384-3.231-5.384l3.949,1.077
			c0,0,0.808,0.808,1.84,1.929c1.032,1.122,2.288,2.558,3.186,3.814c1.795,2.513,0-3.949,0-3.949s2.872,2.872,3.949,4.667
			c1.077,1.795,0-3.949,0-3.949s6.102,5.384,7.897,6.82c1.795,1.436-7.65-12.166-7.65-12.166s-18.727-8.512-24.97-6.81
			c-1.115,0.304-2.191,0.757-3.21,1.289c0.537-0.887,0.926-1.634,1.01-2.056c0.359-1.795-4.308,1.077-4.308,1.077
			s2.513-2.513,3.59-4.308c1.077-1.795-3.59,0-3.59,0s3.949-3.231,5.743-5.384c1.795-2.154-5.743,0-5.743,0s5.384-3.59,6.461-5.385
			s-5.384,2.872-5.384,2.872l2.872-5.385c0,0-9.692,3.59-12.923,16.871c-0.037,0.154-0.072,0.298-0.109,0.449
			c-0.43-2.03-1.065-4.83-2.008-8.706c-3.231-13.282-12.923-16.871-12.923-16.871l2.872,5.385c0,0-6.461-4.667-5.384-2.872
			c1.077,1.795,6.461,5.385,6.461,5.385s-7.538-2.154-5.743,0c1.795,2.154,5.743,5.384,5.743,5.384s-4.667-1.795-3.59,0
			c1.077,1.795,3.59,4.308,3.59,4.308s-4.667-2.872-4.308-1.077c0.359,1.795,6.102,9.333,6.102,9.333s-6.461-3.59-4.308-1.077
			c0.543,0.633,1.384,1.587,2.37,2.658c-0.101-0.03-0.199-0.068-0.3-0.096c-6.242-1.702-24.969,6.81-24.969,6.81
			S372.884,257.484,374.679,256.048z M443.957,269.643c0,0,0.001,1.142-0.062,2.665c-0.03,0.72-0.075,1.527-0.14,2.336
			c-0.093-1.727-0.194-3.541-0.302-5.376c-0.013-0.214-0.048-0.417-0.07-0.628L443.957,269.643z M432.114,247.792l2.371,2.032
			c-0.663-0.142-1.316-0.255-1.953-0.341c-0.287-0.544-0.582-1.09-0.878-1.625L432.114,247.792z"/>
		<path style="fill:#263238;" d="M255.359,253.524c1.795-1.436,7.897-6.82,7.897-6.82s-1.077,5.743,0,3.949s3.949-4.667,3.949-4.667
			s-1.795,6.461,0,3.949c0.898-1.256,2.154-2.692,3.186-3.814c1.032-1.122,1.84-1.93,1.84-1.93l3.949-1.077
			c0,0-5.384,6.102-3.231,5.385c2.154-0.718,6.102-4.308,6.102-4.308s-3.59,5.384-1.077,4.667c2.513-0.718,5.026-3.231,5.026-3.231
			l-1.077,4.667l3.59-2.154l-0.182,1.64c-0.919,0.317-1.822,0.7-2.667,1.182c-5.62,3.207-12.853,22.465-12.853,22.465
			s2.931,16.298,3.186,14.014c0.255-2.284,0.767-10.407,0.767-10.407s3.297,4.824,2.791,2.794c-0.507-2.031-0.505-6.092-0.505-6.092
			s1.497,2.648,2.318,3.444c-0.242,4.75-0.393,8.201-0.393,8.201l4.667-10.769c0,0,1.436,6.82,1.436,5.384s1.077-8.974,1.077-8.974
			s1.436,5.384,2.154,2.872c0.408-1.428,1.164-3.552,1.741-5.12c0.438-1.19,0.772-2.06,0.772-2.06s0.359,5.743,1.795,3.949
			c1.436-1.795,2.872-6.102,2.872-6.102s-0.5,5.444,0.817,3.25c1.316-2.194,2.633-5.704,2.633-5.704s-2.413,8.775-1.974,12.286
			c0.439,3.51,2.194-2.633,2.194-2.633s1.316,15.796,2.194,13.163c0.223-0.668,0.474-1.791,0.724-3.091
			c-0.467,6.847-1.182,14.484-2.265,22.664c-4.257,32.167-8.988,49.197-10.407,61.969c-0.401,3.611-0.609,6.903-0.707,9.791h7
			c-0.223-6.915,0.211-16.475,2.695-27.767c3.516-15.98,6.476-43.306,7.121-69.234c0.224,0.46,0.393,0.546,0.446-0.036
			c0.109-1.201-0.108-3.054-0.353-4.612c0.005-0.396,0.009-0.789,0.013-1.184c0.664,1.959,1.727,4.734,1.876,2.944
			c0.219-2.633-0.439-10.531-0.439-10.531s5.265,12.944,6.362,10.311c0.309-0.742,0.387-1.712,0.346-2.721
			c0.211,0.333,0.458,0.43,0.75,0.088c1.316-1.536,1.316-1.536,1.316-1.536s0.219,7.24,1.316,5.485
			c1.097-1.755,1.097-1.755,1.097-1.755s1.316,7.021,1.536,5.923c0.219-1.097,1.316-2.633,1.316-2.633s0.878,9.653,1.097,5.265
			c0.125-2.492,0.108-7.175,0.07-10.759c0.098,0.091,0.191,0.085,0.279,0.003c0.336,3.888,0.871,8.141,1.406,4.393
			c0.391-2.741,0.145-6.456-0.397-9.982c0.037-0.466,0.055-0.764,0.055-0.764l2.033,3.553c0,0,0.001,1.142-0.062,2.665
			c-0.063,1.523-0.189,3.427-0.442,4.95c-0.506,3.046,2.791-2.794,2.791-2.794s0.002,4.061-0.504,6.092
			c-0.507,2.031,2.791-2.794,2.791-2.794s0.512,8.122,0.767,10.406c0.255,2.284,3.186-14.014,3.186-14.014
			s-7.233-19.258-12.853-22.465c-0.846-0.483-1.748-0.865-2.667-1.182l-0.182-1.64l3.59,2.154l-1.077-4.667
			c0,0,2.513,2.513,5.026,3.231c2.513,0.718-1.077-4.667-1.077-4.667s3.949,3.59,6.102,4.308c2.154,0.718-3.231-5.385-3.231-5.385
			l3.949,1.077c0,0,0.808,0.808,1.84,1.93c1.032,1.122,2.288,2.558,3.186,3.814c1.795,2.513,0-3.949,0-3.949
			s2.872,2.872,3.949,4.667c1.077,1.795,0-3.949,0-3.949s6.102,5.384,7.897,6.82c1.795,1.436-7.65-12.166-7.65-12.166
			s-18.727-8.512-24.969-6.81c-0.101,0.027-0.2,0.066-0.3,0.096c0.987-1.071,1.827-2.025,2.37-2.658
			c2.154-2.513-4.308,1.077-4.308,1.077s5.743-7.538,6.102-9.333c0.359-1.795-4.308,1.077-4.308,1.077s2.513-2.513,3.59-4.308
			c1.077-1.795-3.59,0-3.59,0s3.949-3.231,5.743-5.384s-5.743,0-5.743,0s5.384-3.59,6.461-5.385
			c1.077-1.795-5.384,2.872-5.384,2.872l2.872-5.384c0,0-9.692,3.59-12.923,16.871c-0.943,3.875-1.578,6.675-2.008,8.706
			c-0.037-0.151-0.071-0.295-0.109-0.449c-3.231-13.282-12.923-16.871-12.923-16.871l2.872,5.384c0,0-6.461-4.666-5.384-2.872
			c1.077,1.795,6.461,5.384,6.461,5.384s-7.538-2.154-5.743,0c1.795,2.154,5.743,5.385,5.743,5.385s-4.667-1.795-3.59,0
			c1.077,1.795,3.59,4.308,3.59,4.308s-4.667-2.872-4.308-1.077c0.085,0.423,0.474,1.17,1.01,2.056
			c-1.02-0.532-2.096-0.985-3.21-1.289c-6.242-1.702-24.97,6.81-24.97,6.81S253.564,254.96,255.359,253.524z M278.839,268.539
			c-0.108,1.835-0.209,3.649-0.302,5.376c-0.065-0.81-0.11-1.616-0.14-2.336c-0.063-1.523-0.062-2.665-0.062-2.665l0.573-1.002
			C278.888,268.122,278.852,268.326,278.839,268.539z M290.179,247.063l0.461,0.066c-0.296,0.535-0.591,1.081-0.878,1.625
			c-0.637,0.086-1.29,0.2-1.953,0.341L290.179,247.063z"/>
		<path style="fill:#263238;" d="M220.57,282.405c1.795-1.436,7.897-6.82,7.897-6.82s-1.077,5.743,0,3.949
			c1.077-1.795,3.949-4.667,3.949-4.667s-1.795,6.462,0,3.949c0.898-1.256,2.154-2.692,3.186-3.814c1.032-1.122,1.84-1.93,1.84-1.93
			l3.949-1.077c0,0-5.385,6.103-3.231,5.385c2.154-0.718,6.102-4.308,6.102-4.308s-3.59,5.384-1.077,4.667
			c2.513-0.718,5.025-3.231,5.025-3.231l-1.077,4.667l3.59-2.154l-0.182,1.64c-0.919,0.317-1.822,0.7-2.667,1.182
			c-5.62,3.207-12.853,22.465-12.853,22.465s2.931,16.298,3.186,14.014c0.255-2.284,0.767-10.406,0.767-10.406
			s3.297,4.824,2.791,2.793c-0.507-2.031-0.505-6.092-0.505-6.092s1.497,2.648,2.318,3.444c-0.242,4.75-0.393,8.201-0.393,8.201
			l4.667-10.769c0,0,1.436,6.82,1.436,5.384c0-1.436,1.077-8.974,1.077-8.974s1.436,5.385,2.154,2.872
			c0.408-1.428,1.164-3.552,1.741-5.12c0.438-1.19,0.772-2.06,0.772-2.06s0.359,5.743,1.795,3.949
			c1.436-1.795,2.872-6.103,2.872-6.103s-0.5,5.444,0.817,3.25c1.316-2.194,2.633-5.704,2.633-5.704s-2.413,8.776-1.975,12.286
			c0.439,3.51,2.194-2.633,2.194-2.633s1.316,15.796,2.194,13.163c0.223-0.668,0.474-1.791,0.724-3.091
			c-0.467,6.847-1.182,14.484-2.265,22.664c-2.475,18.697-5.108,32.274-7.159,42.88h5.979c3.41-16.115,6.252-42.782,6.882-68.12
			c0.225,0.46,0.393,0.546,0.446-0.036c0.109-1.201-0.108-3.054-0.353-4.612c0.005-0.396,0.009-0.789,0.013-1.184
			c0.664,1.959,1.727,4.734,1.876,2.944c0.219-2.633-0.439-10.531-0.439-10.531s5.265,12.944,6.362,10.311
			c0.309-0.742,0.387-1.712,0.346-2.721c0.211,0.333,0.458,0.43,0.751,0.088c1.316-1.536,1.316-1.536,1.316-1.536
			s0.219,7.24,1.316,5.485c1.097-1.755,1.097-1.755,1.097-1.755s1.316,7.02,1.536,5.923c0.219-1.097,1.316-2.633,1.316-2.633
			s0.878,9.653,1.097,5.265c0.125-2.492,0.108-7.175,0.07-10.759c0.098,0.091,0.191,0.085,0.279,0.004
			c0.336,3.887,0.871,8.141,1.406,4.393c0.392-2.741,0.145-6.456-0.397-9.982c0.037-0.466,0.055-0.764,0.055-0.764l2.033,3.552
			c0,0,0.001,1.142-0.062,2.665c-0.063,1.523-0.189,3.427-0.442,4.95c-0.506,3.046,2.791-2.794,2.791-2.794s0.002,4.061-0.504,6.092
			c-0.507,2.031,2.791-2.794,2.791-2.794s0.512,8.122,0.767,10.406s3.186-14.014,3.186-14.014s-7.233-19.257-12.853-22.465
			c-0.846-0.483-1.748-0.865-2.667-1.182l-0.182-1.64l3.59,2.154l-1.077-4.667c0,0,2.513,2.513,5.025,3.231
			c2.513,0.718-1.077-4.667-1.077-4.667s3.949,3.59,6.102,4.308c2.154,0.718-3.231-5.385-3.231-5.385l3.949,1.077
			c0,0,0.808,0.808,1.84,1.93c1.032,1.122,2.288,2.558,3.186,3.814c1.795,2.513,0-3.949,0-3.949s2.872,2.872,3.949,4.667
			c1.077,1.795,0-3.949,0-3.949s6.102,5.384,7.897,6.82c1.795,1.436-7.65-12.166-7.65-12.166s-18.727-8.512-24.969-6.81
			c-0.101,0.028-0.199,0.066-0.3,0.096c0.987-1.071,1.827-2.025,2.37-2.658c2.154-2.513-4.308,1.077-4.308,1.077
			s5.743-7.538,6.102-9.333c0.359-1.795-4.308,1.077-4.308,1.077s2.513-2.513,3.59-4.308s-3.59,0-3.59,0s3.949-3.231,5.743-5.384
			c1.795-2.154-5.743,0-5.743,0s5.384-3.59,6.461-5.384c1.077-1.795-5.384,2.872-5.384,2.872l2.872-5.385
			c0,0-9.692,3.59-12.923,16.871c-0.943,3.876-1.578,6.675-2.008,8.706c-0.036-0.151-0.071-0.295-0.109-0.449
			c-3.231-13.282-12.923-16.871-12.923-16.871l2.872,5.385c0,0-6.461-4.667-5.384-2.872c1.077,1.795,6.461,5.385,6.461,5.385
			s-7.538-2.154-5.743,0c1.795,2.154,5.743,5.385,5.743,5.385s-4.667-1.795-3.59,0c1.077,1.795,3.59,4.308,3.59,4.308
			s-4.667-2.872-4.308-1.077c0.085,0.423,0.474,1.17,1.01,2.057c-1.02-0.532-2.096-0.985-3.21-1.289
			c-6.242-1.702-24.97,6.81-24.97,6.81S218.775,283.841,220.57,282.405z M244.05,297.42c-0.108,1.835-0.209,3.649-0.302,5.376
			c-0.065-0.81-0.11-1.616-0.14-2.336c-0.063-1.523-0.062-2.665-0.062-2.665l0.573-1.002
			C244.098,297.003,244.063,297.206,244.05,297.42z M255.389,275.943l0.461,0.066c-0.296,0.535-0.591,1.081-0.878,1.625
			c-0.637,0.086-1.29,0.2-1.953,0.341L255.389,275.943z"/>
		<path style="fill:#263238;" d="M178.395,244.696c0,0,13.964-15.106,20.378-15.956c1.145-0.152,2.313-0.152,3.459-0.056
			c-0.838-0.609-1.487-1.147-1.729-1.504c-1.027-1.515,4.388-0.677,4.388-0.677s-3.29-1.342-4.979-2.579
			c-1.688-1.237,3.309-1.391,3.309-1.391s-4.892-1.447-7.382-2.737c-2.489-1.29,5.294-2.226,5.294-2.226s-6.355-1.222-8.043-2.459
			c-1.688-1.237,6.077,0.56,6.077,0.56l-4.734-3.85c0,0,10.326-0.448,18.452,10.543c0.094,0.128,0.182,0.247,0.274,0.372
			c-0.391-2.038-0.891-4.865-1.524-8.803c-2.17-13.496,5.373-20.562,5.373-20.562l-0.56,6.077c0,0,4.147-6.806,3.85-4.734
			c-0.297,2.072-3.869,7.468-3.869,7.468s6.114-4.907,5.294-2.226c-0.82,2.681-3.207,7.19-3.207,7.19s3.606-3.463,3.309-1.391
			c-0.297,2.072-1.639,5.362-1.639,5.362s3.189-4.456,3.553-2.662c0.365,1.794-2.008,10.969-2.008,10.969s4.565-5.814,3.553-2.662
			c-0.255,0.795-0.66,1.999-1.155,3.369c0.081-0.067,0.157-0.14,0.239-0.205c5.094-3.989,25.657-3.401,25.657-3.401
			s13.979,8.877,11.768,8.249c-2.211-0.628-9.924-3.226-9.924-3.226s3.219,4.877,1.531,3.64c-1.689-1.237-5.449-2.771-5.449-2.771
			s4.159,5.26,1.531,3.64c-1.314-0.81-3.029-1.647-4.415-2.281c-1.386-0.634-2.444-1.065-2.444-1.065l-4.057,0.538
			c0,0,7.329,3.538,5.065,3.711c-2.264,0.173-7.295-1.605-7.295-1.605s5.396,3.572,2.801,3.884c-2.595,0.312-5.885-1.03-5.885-1.03
			l2.802,3.884l-4.144-0.594l0.804,1.441c0.97-0.064,1.951-0.061,2.917,0.056c6.423,0.778,20.556,15.726,20.556,15.726
			s3.616,16.16,2.496,14.153c-1.121-2.007-4.741-9.296-4.741-9.296s-1.169,5.725-1.49,3.657c-0.32-2.068-1.896-5.811-1.896-5.811
			s-0.775,6.661-1.49,3.657c-0.357-1.502-0.979-3.306-1.512-4.734c-0.533-1.428-0.976-2.481-0.976-2.481l-3.251-2.487
			c0,0,0.098,0.282,0.245,0.726c1.866,3.04,3.534,6.369,4.235,9.048c0.959,3.662-1.183-0.051-2.999-3.505
			c-0.049,0.109-0.132,0.151-0.258,0.105c1.424,3.289,3.255,7.6,4.106,9.945c1.499,4.13-3.052-4.428-3.052-4.428
			s-0.416,1.841-0.193,2.937c0.223,1.096-3.712-4.865-3.712-4.865s0,0-0.331,2.043c-0.331,2.043-3.34-4.546-3.34-4.546
			s0,0-0.618,1.926c-0.137,0.428-0.403,0.435-0.726,0.209c0.429,0.914,0.733,1.839,0.735,2.643c0.009,2.852-9.862-7.039-9.862-7.039
			s3.668,7.025,4.486,9.537c0.557,1.708-1.498-0.438-2.87-1.987c0.149,0.366,0.298,0.729,0.447,1.096
			c0.83,1.342,1.748,2.965,2.113,4.115c0.177,0.558-0.012,0.543-0.397,0.206c9.456,24.151,17.319,50.488,20.273,66.581
			c4.372,23.82,14.095,37.18,14.095,37.18l-7.413,3.117c0,0-4.356-7.919-7.999-20.242c-3.643-12.324-5.883-29.856-14.428-61.158
			c-2.173-7.96-4.473-15.277-6.697-21.77c0.273,1.296,0.477,2.428,0.53,3.13c0.212,2.767-7.125-11.284-7.125-11.284
			s0.763,6.343-1.002,3.277c-1.765-3.066-2.942-12.091-2.942-12.091s0.147,3.746-0.216,6.279c-0.363,2.533-2.013-2.68-2.013-2.68
			s0.346,4.527-0.282,6.739c-0.628,2.211-3.185-2.944-3.185-2.944s0.029,0.931,0.087,2.198c0.076,1.668,0.203,3.919,0.38,5.394
			c0.312,2.595-3.098-1.812-3.098-1.812s1.929,7.366,2.486,8.69c0.557,1.324-3.411-4.407-3.411-4.407l-0.127,11.736
			c0,0-1.199-3.239-2.817-7.712c-1.065-0.415-3.471-2.276-3.471-2.276s1.572,3.744,2.827,5.42c1.254,1.676-3.655-1.493-3.655-1.493
			s2.676,7.686,3.327,9.89c0.65,2.204-8.369-11.683-8.369-11.683s-0.797-20.555,3.14-25.69c0.592-0.773,1.276-1.475,2-2.124
			l-0.468-1.583l-2.474,3.377l-0.816-4.719c0,0-1.342,3.29-3.38,4.926c-2.038,1.636-0.816-4.719-0.816-4.719
			s-2.249,4.84-3.956,6.336c-1.707,1.497,0.891-6.216,0.891-6.216l-3.222,2.523c0,0-0.432,1.058-0.948,2.492
			c-0.517,1.434-1.118,3.245-1.458,4.751c-0.68,3.012-1.531-3.64-1.531-3.64s-1.534,3.76-1.831,5.832
			c-0.297,2.072-1.531-3.64-1.531-3.64s-3.538,7.329-4.636,9.348C174.961,260.895,178.395,244.696,178.395,244.696z
			 M230.142,233.257c0.005,0.003,0.01,0.007,0.016,0.01c0.003-0.001,0.006-0.001,0.009-0.002L230.142,233.257z M204.295,266.589
			c0.307,0.652,0.661,1.378,1.034,2.1c-0.584-1.628-1.194-3.34-1.806-5.073c-0.071-0.202-0.117-0.404-0.179-0.606l-0.14,1.146
			C203.205,264.156,203.647,265.209,204.295,266.589z M205.923,241.143c0.054-0.613,0.114-1.23,0.18-1.838l-0.45,0.118l-1.398,2.792
			C204.811,241.827,205.369,241.469,205.923,241.143z"/>
		<path style="fill:#263238;" d="M398.143,215.974c0,0-18.727-8.512-24.97-6.81c-1.115,0.304-2.191,0.757-3.21,1.289
			c0.537-0.886,0.926-1.634,1.01-2.056c0.359-1.795-4.308,1.077-4.308,1.077s2.513-2.513,3.59-4.308c1.077-1.795-3.59,0-3.59,0
			s3.949-3.231,5.743-5.384c1.795-2.154-5.743,0-5.743,0s5.385-3.59,6.461-5.385c1.077-1.795-5.384,2.872-5.384,2.872l2.872-5.385
			c0,0-9.692,3.59-12.923,16.871c-0.038,0.154-0.072,0.298-0.109,0.449c-0.43-2.03-1.065-4.83-2.008-8.705
			c-3.231-13.282-12.923-16.871-12.923-16.871l2.872,5.384c0,0-6.461-4.667-5.384-2.872c1.077,1.795,6.461,5.384,6.461,5.384
			s-7.538-2.154-5.743,0c1.795,2.154,5.743,5.384,5.743,5.384s-4.667-1.795-3.59,0c1.077,1.795,3.59,4.308,3.59,4.308
			s-4.667-2.872-4.308-1.077c0.359,1.795,6.102,9.333,6.102,9.333s-6.461-3.59-4.308-1.077c0.543,0.634,1.384,1.587,2.37,2.658
			c-0.101-0.03-0.199-0.068-0.3-0.096c-6.242-1.702-24.969,6.81-24.969,6.81s-9.445,13.602-7.65,12.166
			c1.795-1.436,7.897-6.82,7.897-6.82s-1.077,5.743,0,3.949c1.077-1.795,3.949-4.667,3.949-4.667s-1.795,6.461,0,3.949
			c0.897-1.256,2.154-2.692,3.186-3.814c1.032-1.122,1.84-1.929,1.84-1.929l3.949-1.077c0,0-5.384,6.102-3.231,5.385
			c2.154-0.718,6.102-4.308,6.102-4.308s-3.59,5.384-1.077,4.667c2.513-0.718,5.026-3.231,5.026-3.231l-1.077,4.667l3.59-2.154
			l-0.182,1.64c-0.919,0.317-1.822,0.7-2.667,1.182c-5.62,3.207-12.853,22.465-12.853,22.465s2.931,16.298,3.186,14.014
			c0.255-2.284,0.767-10.406,0.767-10.406s3.297,4.824,2.791,2.794c-0.507-2.031-0.504-6.092-0.504-6.092s3.297,5.84,2.791,2.794
			c-0.253-1.523-0.379-3.427-0.442-4.95c-0.063-1.523-0.062-2.665-0.062-2.665l2.033-3.553c0,0,0.018,0.298,0.055,0.764
			c-0.542,3.526-0.789,7.241-0.397,9.982c0.535,3.747,1.07-0.506,1.406-4.393c0.088,0.081,0.181,0.088,0.279-0.004
			c-0.038,3.584-0.055,8.267,0.07,10.759c0.219,4.388,1.097-5.265,1.097-5.265s1.097,1.536,1.316,2.633
			c0.219,1.097,1.536-5.924,1.536-5.924s0,0,1.097,1.755c1.097,1.755,1.316-5.485,1.316-5.485s0,0,1.316,1.536
			c0.293,0.341,0.54,0.245,0.75-0.088c-0.041,1.009,0.037,1.979,0.346,2.721c1.097,2.633,6.362-10.311,6.362-10.311
			s-0.658,7.898-0.439,10.531c0.149,1.79,1.211-0.984,1.876-2.944c0.004,0.395,0.008,0.788,0.013,1.184
			c-0.245,1.559-0.462,3.411-0.353,4.612c0.053,0.583,0.222,0.496,0.446,0.036c0.645,25.928,3.605,53.254,7.121,69.234
			c5.204,23.652,1.419,39.736,1.419,39.736h8.042c0,0,0.946-8.988-0.473-21.76c-1.419-12.772-6.15-29.802-10.407-61.969
			c-1.083-8.18-1.798-15.817-2.265-22.664c0.251,1.301,0.502,2.423,0.724,3.091c0.878,2.633,2.194-13.163,2.194-13.163
			s1.755,6.143,2.194,2.633c0.439-3.51-1.974-12.286-1.974-12.286s1.316,3.51,2.633,5.704c1.316,2.194,0.817-3.25,0.817-3.25
			s1.436,4.307,2.872,6.102c1.436,1.795,1.795-3.949,1.795-3.949s0.334,0.869,0.772,2.06c0.577,1.567,1.332,3.691,1.741,5.12
			c0.718,2.513,2.154-2.872,2.154-2.872s1.077,7.538,1.077,8.974s1.436-5.385,1.436-5.385l4.667,10.769c0,0-0.15-3.451-0.393-8.201
			c0.821-0.795,2.318-3.444,2.318-3.444s0.002,4.061-0.505,6.092c-0.507,2.031,2.791-2.794,2.791-2.794s0.512,8.122,0.767,10.407
			c0.255,2.284,3.186-14.014,3.186-14.014s-7.233-19.258-12.853-22.465c-0.846-0.483-1.748-0.865-2.667-1.182l-0.182-1.64
			l3.59,2.154l-1.077-4.667c0,0,2.513,2.513,5.025,3.231c2.513,0.718-1.077-4.667-1.077-4.667s3.949,3.59,6.102,4.307
			c2.154,0.718-3.231-5.384-3.231-5.384l3.949,1.077c0,0,0.808,0.808,1.84,1.929c1.032,1.122,2.288,2.558,3.186,3.814
			c1.795,2.513,0-3.949,0-3.949s2.872,2.872,3.949,4.667c1.077,1.795,0-3.949,0-3.949s6.102,5.385,7.897,6.82
			C407.588,229.576,398.143,215.974,398.143,215.974z M346.008,225.488c-0.004,0.005-0.007,0.01-0.011,0.015
			c-0.003,0.001-0.006,0.001-0.009,0.002L346.008,225.488z M382.755,246.195c-0.03,0.72-0.075,1.527-0.14,2.336
			c-0.093-1.727-0.194-3.541-0.302-5.376c-0.013-0.214-0.048-0.418-0.07-0.628l0.573,1.002
			C382.817,243.53,382.817,244.672,382.755,246.195z M371.391,223.369c-0.287-0.544-0.582-1.09-0.878-1.625l0.461-0.066l2.371,2.032
			C372.681,223.569,372.028,223.455,371.391,223.369z"/>
		<path style="fill:#263238;" d="M301.255,266.786c1.795-1.436,7.897-6.82,7.897-6.82s-1.077,5.743,0,3.949
			c1.077-1.795,3.949-4.667,3.949-4.667s-1.795,6.461,0,3.949c0.897-1.256,2.154-2.692,3.186-3.814
			c1.032-1.122,1.84-1.929,1.84-1.929l3.949-1.077c0,0-5.384,6.102-3.231,5.385c2.154-0.718,6.102-4.308,6.102-4.308
			s-3.59,5.385-1.077,4.667c2.513-0.718,5.026-3.231,5.026-3.231l-1.077,4.667l3.59-2.154l-0.182,1.64
			c-0.919,0.317-1.822,0.7-2.667,1.183c-5.62,3.207-12.853,22.465-12.853,22.465s2.93,16.298,3.186,14.014
			c0.255-2.284,0.767-10.407,0.767-10.407s3.297,4.825,2.791,2.794s-0.505-6.092-0.505-6.092s3.297,5.84,2.791,2.794
			c-0.253-1.523-0.379-3.427-0.442-4.95c-0.063-1.523-0.062-2.665-0.062-2.665l2.033-3.552c0,0,0.018,0.298,0.055,0.764
			c-0.542,3.526-0.789,7.241-0.397,9.982c0.535,3.747,1.07-0.506,1.406-4.393c0.088,0.081,0.18,0.088,0.279-0.004
			c-0.038,3.584-0.055,8.267,0.07,10.759c0.219,4.388,1.097-5.265,1.097-5.265s1.097,1.536,1.316,2.633
			c0.219,1.097,1.536-5.923,1.536-5.923s0,0,1.097,1.755c1.097,1.755,1.316-5.485,1.316-5.485s0,0,1.316,1.536
			c0.293,0.341,0.54,0.245,0.75-0.088c-0.041,1.009,0.037,1.979,0.347,2.721c1.097,2.633,6.362-10.311,6.362-10.311
			s-0.658,7.898-0.439,10.531c0.149,1.79,1.211-0.984,1.876-2.944c0.004,0.395,0.008,0.788,0.013,1.184
			c-0.245,1.559-0.462,3.411-0.353,4.612c0.053,0.583,0.222,0.497,0.446,0.036c0.645,25.928,3.605,53.254,7.121,69.234
			c1.311,5.96,2.051,11.437,2.425,16.3h6.36c-1.624-12.593-6.129-29.51-10.204-60.293c-1.083-8.18-1.798-15.817-2.265-22.664
			c0.251,1.3,0.502,2.423,0.724,3.091c0.878,2.633,2.194-13.163,2.194-13.163s1.755,6.143,2.194,2.633
			c0.439-3.51-1.974-12.286-1.974-12.286s1.316,3.51,2.633,5.704c1.316,2.194,0.817-3.25,0.817-3.25s1.436,4.308,2.872,6.102
			c1.436,1.795,1.795-3.949,1.795-3.949s0.334,0.869,0.772,2.06c0.577,1.568,1.333,3.692,1.741,5.12
			c0.718,2.513,2.154-2.872,2.154-2.872s1.077,7.538,1.077,8.974c0,1.436,1.436-5.384,1.436-5.384l4.667,10.769
			c0,0-0.15-3.45-0.393-8.201c0.821-0.795,2.318-3.444,2.318-3.444s0.002,4.061-0.504,6.092c-0.507,2.031,2.791-2.794,2.791-2.794
			s0.512,8.122,0.767,10.407c0.255,2.284,3.186-14.014,3.186-14.014s-7.233-19.257-12.853-22.465
			c-0.846-0.483-1.748-0.865-2.667-1.182l-0.182-1.64l3.59,2.154l-1.077-4.667c0,0,2.513,2.513,5.025,3.231
			c2.513,0.718-1.077-4.667-1.077-4.667s3.949,3.59,6.102,4.308s-3.231-5.384-3.231-5.384l3.949,1.077c0,0,0.808,0.808,1.84,1.929
			c1.032,1.122,2.288,2.558,3.186,3.814c1.795,2.513,0-3.949,0-3.949s2.872,2.872,3.949,4.667c1.077,1.795,0-3.949,0-3.949
			s6.102,5.384,7.897,6.82c1.795,1.436-7.65-12.166-7.65-12.166s-18.727-8.512-24.97-6.81c-1.115,0.304-2.191,0.757-3.21,1.289
			c0.537-0.886,0.926-1.634,1.01-2.057c0.359-1.795-4.308,1.077-4.308,1.077s2.513-2.513,3.59-4.308s-3.59,0-3.59,0
			s3.949-3.231,5.743-5.384c1.795-2.154-5.743,0-5.743,0s5.384-3.59,6.461-5.385c1.077-1.795-5.384,2.872-5.384,2.872l2.872-5.385
			c0,0-9.692,3.59-12.923,16.871c-0.038,0.154-0.072,0.298-0.109,0.449c-0.43-2.03-1.065-4.83-2.008-8.706
			c-3.231-13.282-12.923-16.871-12.923-16.871l2.872,5.385c0,0-6.461-4.667-5.384-2.872s6.461,5.384,6.461,5.384
			s-7.538-2.154-5.743,0c1.795,2.154,5.743,5.385,5.743,5.385s-4.667-1.795-3.59,0s3.59,4.308,3.59,4.308s-4.667-2.872-4.308-1.077
			c0.359,1.795,6.103,9.333,6.103,9.333s-6.461-3.59-4.308-1.077c0.543,0.634,1.384,1.587,2.37,2.658
			c-0.101-0.03-0.199-0.068-0.3-0.096c-6.242-1.702-24.97,6.81-24.97,6.81S299.46,268.222,301.255,266.786z M370.533,280.381
			c0,0,0.001,1.142-0.062,2.665c-0.03,0.72-0.075,1.527-0.14,2.336c-0.093-1.727-0.194-3.541-0.302-5.376
			c-0.013-0.214-0.048-0.418-0.07-0.628L370.533,280.381z M358.69,258.53l2.371,2.032c-0.663-0.142-1.316-0.255-1.953-0.341
			c-0.287-0.544-0.582-1.09-0.878-1.625L358.69,258.53z"/>
		<g>
			<path style="fill:#92E3A9;" d="M163.063,360.159c0,0,6.023-23.783,18.063-30.352c12.04-6.568,15.408,1.118,26.728-3.608
				c11.32-4.726,12.137-18.945,30.709-21.328c18.572-2.383,25.677,9.539,28.877,13.893c3.2,4.354,11.422,0.868,21.252-2.97
				c9.83-3.838,12.964,2.777,16.046,6.594c3.083,3.818,7.319,0.082,15.658-2.868c8.34-2.95,16.715,1.955,18.96,7.079
				c2.246,5.124,2.246,5.124,2.246,5.124l-81.961,7.844l17.955,5.053c0,0-32.388,5.971-44.714,8.671
				c-12.326,2.7-37.696,9.942-37.696,9.942l11.218-10.32L163.063,360.159z"/>
			<line style="fill:none;stroke:#263238;stroke-miterlimit:10;" x1="198.014" y1="353.065" x2="187.224" y2="339.703"/>
			<line style="fill:none;stroke:#263238;stroke-miterlimit:10;" x1="193.39" y1="347.338" x2="194.66" y2="340.321"/>
			<line style="fill:none;stroke:#263238;stroke-miterlimit:10;" x1="240.803" y1="350.993" x2="232.158" y2="337.162"/>
			<polyline style="fill:none;stroke:#263238;stroke-miterlimit:10;" points="238.052,335.871 237.787,344.914 225.528,345.353 			
				"/>
			<polyline style="fill:none;stroke:#263238;stroke-miterlimit:10;" points="276.101,327.536 267.026,337.387 256.788,318.85 			
				"/>
			<line style="fill:none;stroke:#263238;stroke-miterlimit:10;" x1="270.392" y1="333.471" x2="266.897" y2="327.607"/>
			<line style="fill:none;stroke:#263238;stroke-miterlimit:10;" x1="318.657" y1="333.12" x2="324.536" y2="324.65"/>
			<line style="fill:none;stroke:#263238;stroke-miterlimit:10;" x1="319.982" y1="330.344" x2="331.555" y2="326.428"/>
			<line style="fill:none;stroke:#263238;stroke-miterlimit:10;" x1="290.551" y1="335.962" x2="293.167" y2="322.682"/>
			<polyline style="fill:none;stroke:#263238;stroke-miterlimit:10;" points="298.752,324.221 291.974,329.849 284.847,325.057 			
				"/>
			<line style="fill:none;stroke:#263238;stroke-miterlimit:10;" x1="261.164" y1="326.653" x2="246.36" y2="324.647"/>
			<line style="fill:none;stroke:#263238;stroke-miterlimit:10;" x1="195.474" y1="349.605" x2="181.165" y2="348.596"/>
		</g>
		<g>
			<path style="fill:#263238;stroke:#263238;stroke-miterlimit:10;" d="M486.329,200.213c0,0,8.5,6.273,9.064,15.843
				c0.565,9.571,0.965,18.776,0.965,18.776l-5.203-12.007c0,0-1.601,7.604-1.601,6.003c0-1.601-1.201-10.005-1.201-10.005
				s-1.601,6.003-2.401,3.202c-0.455-1.592-1.298-3.96-1.941-5.708c-0.488-1.327-0.861-2.296-0.861-2.296s-0.4,6.403-2.001,4.402
				c-1.601-2.001-3.202-6.804-3.202-6.804s0.557,6.07-0.911,3.624c-1.468-2.446-2.935-6.36-2.935-6.36s2.691,9.784,2.201,13.697
				c-0.489,3.914-2.446-2.935-2.446-2.935s-1.468,17.611-2.446,14.676s-2.446-13.697-2.446-13.697s-2.446,10.029-2.691,7.338
				c-0.245-2.691,0.978-8.316,0.978-8.316s-2.446,8.072-2.691,5.137s0.489-11.741,0.489-11.741s-5.87,14.431-7.093,11.496
				c-1.223-2.935,0.734-9.05,0.734-9.05s-0.489,7.827-1.957,6.115c-1.468-1.712-1.468-1.712-1.468-1.712s-0.245,8.072-1.468,6.115
				c-1.223-1.957-1.223-1.957-1.223-1.957s-1.467,7.827-1.712,6.604c-0.245-1.223-1.468-2.935-1.468-2.935s-0.978,10.762-1.223,5.87
				s0-17.367,0-17.367s-0.978,17.122-1.957,10.273c-0.978-6.849,1.608-19.165,3.495-22.301c1.886-3.137,12.649-19.525,17.541-21.726
				s11.007,3.18,13.453,7.093C483.153,193.473,486.329,200.213,486.329,200.213z"/>
			<path style="fill:#ADADAD;stroke:#263238;stroke-miterlimit:10;" d="M469.944,193.712c0,0-1.561,26.568,3.186,62.432
				c4.747,35.864,10.021,54.85,11.603,69.091c1.582,14.24,0.527,24.261,0.527,24.261h-8.966c0,0,4.219-17.932-1.582-44.302
				c-5.802-26.37-10.255-80.456-6.974-116.175L469.944,193.712z"/>
			<g>
				<path style="fill:#92E3A9;" d="M468.785,184.106c0,0,0.4-0.801-3.202-15.609c-3.602-14.808-14.408-18.81-14.408-18.81
					l3.202,6.003c0,0-7.204-5.203-6.003-3.202c1.201,2.001,7.204,6.003,7.204,6.003s-8.405-2.401-6.404,0
					c2.001,2.401,6.404,6.003,6.404,6.003s-5.203-2.001-4.002,0c1.201,2.001,4.002,4.803,4.002,4.803s-5.203-3.202-4.803-1.201
					s6.804,10.406,6.804,10.406s-7.204-4.002-4.803-1.201s10.005,11.206,12.407,11.206
					C467.584,188.509,469.585,188.509,468.785,184.106z"/>
				<path style="fill:#92E3A9;" d="M464.741,193.311c0,0-0.4-0.801,3.202-15.609c3.602-14.808,14.408-18.81,14.408-18.81
					l-3.202,6.003c0,0,7.204-5.203,6.003-3.202c-1.201,2.001-7.204,6.003-7.204,6.003s8.405-2.401,6.403,0
					c-2.001,2.401-6.403,6.003-6.403,6.003s5.203-2.001,4.002,0c-1.201,2.001-4.002,4.803-4.002,4.803s5.203-3.202,4.803-1.201
					c-0.4,2.001-6.804,10.406-6.804,10.406s7.204-4.002,4.803-1.201c-2.401,2.801-10.005,11.206-12.407,11.206
					C465.942,197.714,463.941,197.714,464.741,193.311z"/>
				<path style="fill:#92E3A9;" d="M472.55,187.016c0,0,5.694-6.96,12.654-8.858c6.96-1.898,27.839,7.592,27.839,7.592
					s10.531,15.165,8.529,13.564c-2.001-1.601-8.805-7.604-8.805-7.604s1.201,6.404,0,4.402c-1.201-2.001-4.402-5.203-4.402-5.203
					s2.001,7.204,0,4.402c-1-1.401-2.401-3.002-3.552-4.252c-1.151-1.251-2.051-2.151-2.051-2.151l-4.402-1.201
					c0,0,6.003,6.804,3.602,6.003c-2.401-0.8-6.804-4.803-6.804-4.803s4.002,6.003,1.201,5.203c-2.801-0.8-5.603-3.602-5.603-3.602
					l1.201,5.203l-4.002-2.401l0.4,3.602l-2.736-2.345l-2.867-2.458l-2.801,0.4c0,0,4.803,6.804,2.401,6.003
					c-2.401-0.801-6.804-5.603-6.804-5.603l-0.8,4.002c0,0-2.801-8.805-4.402-5.203C468.743,195.312,472.55,187.016,472.55,187.016z
					"/>
				<path style="fill:#92E3A9;" d="M475.918,193.782c0,0,8.947-0.899,15.213,2.676c6.265,3.576,14.33,25.046,14.33,25.046
					s-3.267,18.171-3.552,15.624c-0.284-2.547-0.855-11.602-0.855-11.602s-3.676,5.379-3.111,3.115
					c0.565-2.264,0.563-6.792,0.563-6.792s-3.676,6.511-3.111,3.115c0.282-1.698,0.422-3.821,0.492-5.519
					c0.07-1.698,0.069-2.971,0.069-2.971l-2.266-3.961c0,0-0.561,9.056-1.694,6.793c-1.133-2.263-1.419-8.206-1.419-8.206
					s-1.411,7.076-2.828,4.529c-1.416-2.546-1.418-6.508-1.418-6.508l-2.828,4.529l-1.134-4.527l-2.262,2.831l-0.278-3.592
					l-0.292-3.765l-2.265-1.697c0,0-1.411,8.208-2.544,5.944c-1.133-2.263-0.854-8.773-0.854-8.773l-3.395,2.266
					c0,0,4.241-8.209,0.562-6.792C467.362,196.961,475.918,193.782,475.918,193.782z"/>
				<path style="fill:#92E3A9;" d="M467.739,189.017c0,0-5.694-6.96-12.654-8.858c-6.96-1.898-27.839,7.592-27.839,7.592
					s-10.53,15.165-8.529,13.564c2.001-1.601,8.805-7.604,8.805-7.604s-1.201,6.403,0,4.402c1.201-2.001,4.402-5.203,4.402-5.203
					s-2.001,7.204,0,4.402c1-1.401,2.401-3.002,3.552-4.252c1.151-1.251,2.051-2.151,2.051-2.151l4.402-1.201
					c0,0-6.003,6.804-3.602,6.003c2.401-0.801,6.804-4.803,6.804-4.803s-4.002,6.003-1.201,5.203
					c2.801-0.801,5.603-3.602,5.603-3.602l-1.201,5.203l4.002-2.401l-0.4,3.602l2.736-2.345l2.867-2.458l2.802,0.4
					c0,0-4.803,6.804-2.401,6.003c2.401-0.801,6.804-5.603,6.804-5.603l0.8,4.002c0,0,2.801-8.805,4.402-5.203
					C471.545,197.314,467.739,189.017,467.739,189.017z"/>
				<path style="fill:#92E3A9;" d="M464.37,195.783c0,0-8.947-0.899-15.213,2.676c-6.265,3.576-14.329,25.046-14.329,25.046
					s3.267,18.171,3.552,15.624c0.284-2.547,0.855-11.602,0.855-11.602s3.676,5.379,3.111,3.115
					c-0.565-2.264-0.563-6.792-0.563-6.792s3.676,6.511,3.111,3.115c-0.282-1.698-0.423-3.821-0.492-5.519
					c-0.07-1.698-0.069-2.971-0.069-2.971l2.266-3.961c0,0,0.561,9.056,1.694,6.793c1.133-2.263,1.419-8.206,1.419-8.206
					s1.411,7.076,2.828,4.529c1.416-2.546,1.418-6.508,1.418-6.508l2.827,4.529l1.134-4.527l2.262,2.831l0.278-3.592l0.292-3.765
					l2.265-1.697c0,0,1.411,8.208,2.544,5.944c1.133-2.263,0.854-8.772,0.854-8.772l3.395,2.266c0,0-4.241-8.209-0.562-6.792
					C472.926,198.962,464.37,195.783,464.37,195.783z"/>
			</g>
		</g>
		<g>
			<path style="fill:#263238;stroke:#263238;stroke-miterlimit:10;" d="M358.186,198.581c0,0-8.5,6.273-9.064,15.843
				c-0.565,9.57-0.965,18.775-0.965,18.775l5.203-12.007c0,0,1.601,7.604,1.601,6.003c0-1.601,1.201-10.005,1.201-10.005
				s1.601,6.003,2.401,3.202c0.455-1.592,1.298-3.96,1.941-5.708c0.488-1.327,0.861-2.296,0.861-2.296s0.4,6.403,2.001,4.402
				c1.601-2.001,3.202-6.804,3.202-6.804s-0.557,6.07,0.91,3.624s2.935-6.36,2.935-6.36s-2.691,9.784-2.201,13.697
				c0.489,3.914,2.446-2.935,2.446-2.935s1.468,17.611,2.446,14.676c0.978-2.935,2.446-13.697,2.446-13.697
				s2.446,10.029,2.691,7.338c0.245-2.691-0.978-8.316-0.978-8.316s2.446,8.072,2.691,5.136c0.245-2.935-0.489-11.741-0.489-11.741
				s5.87,14.431,7.093,11.496c1.223-2.935-0.734-9.05-0.734-9.05s0.489,7.827,1.957,6.115c1.468-1.712,1.468-1.712,1.468-1.712
				s0.245,8.072,1.468,6.115c1.223-1.957,1.223-1.957,1.223-1.957s1.468,7.827,1.712,6.604c0.245-1.223,1.468-2.935,1.468-2.935
				s0.978,10.762,1.223,5.87s0-17.367,0-17.367s0.978,17.122,1.957,10.273c0.978-6.849-1.608-19.165-3.495-22.301
				c-1.887-3.137-12.649-19.525-17.541-21.726c-4.892-2.201-11.007,3.18-13.453,7.093
				C361.362,191.841,358.186,198.581,358.186,198.581z"/>
			<path style="fill:#ADADAD;stroke:#263238;stroke-miterlimit:10;" d="M374.571,192.08c0,0,1.561,26.568-3.186,62.432
				c-4.747,35.864-10.021,54.85-11.603,69.091c-1.582,14.24-0.527,24.261-0.527,24.261h8.966c0,0-4.219-17.932,1.582-44.302
				c5.801-26.37,10.255-80.456,6.973-116.175L374.571,192.08z"/>
			<g>
				<path style="fill:#92E3A9;" d="M375.73,182.474c0,0-0.4-0.8,3.202-15.608c3.602-14.808,14.408-18.81,14.408-18.81l-3.202,6.003
					c0,0,7.204-5.203,6.003-3.202c-1.201,2.001-7.204,6.003-7.204,6.003s8.405-2.401,6.404,0c-2.001,2.401-6.404,6.003-6.404,6.003
					s5.203-2.001,4.002,0c-1.201,2.001-4.002,4.803-4.002,4.803s5.203-3.202,4.803-1.201c-0.4,2.001-6.804,10.406-6.804,10.406
					s7.204-4.002,4.803-1.201c-2.401,2.801-10.005,11.206-12.407,11.206S374.929,186.877,375.73,182.474z"/>
				<path style="fill:#92E3A9;" d="M379.774,191.679c0,0,0.4-0.8-3.202-15.608c-3.602-14.808-14.408-18.81-14.408-18.81l3.202,6.003
					c0,0-7.204-5.203-6.003-3.202c1.201,2.001,7.204,6.003,7.204,6.003s-8.405-2.401-6.404,0c2.001,2.401,6.404,6.003,6.404,6.003
					s-5.203-2.001-4.002,0c1.201,2.001,4.002,4.803,4.002,4.803s-5.203-3.202-4.803-1.201c0.4,2.001,6.804,10.406,6.804,10.406
					s-7.204-4.002-4.803-1.201c2.401,2.801,10.005,11.206,12.407,11.206S380.574,196.082,379.774,191.679z"/>
				<path style="fill:#92E3A9;" d="M371.965,185.384c0,0-5.694-6.96-12.654-8.858c-6.96-1.898-27.839,7.592-27.839,7.592
					s-10.531,15.165-8.529,13.564c2.001-1.601,8.805-7.604,8.805-7.604s-1.201,6.403,0,4.402c1.201-2.001,4.402-5.203,4.402-5.203
					s-2.001,7.204,0,4.402c1-1.401,2.401-3.002,3.552-4.252c1.151-1.251,2.051-2.151,2.051-2.151l4.402-1.201
					c0,0-6.003,6.804-3.602,6.003c2.401-0.801,6.804-4.803,6.804-4.803s-4.002,6.003-1.201,5.203c2.802-0.8,5.603-3.602,5.603-3.602
					l-1.201,5.203l4.002-2.401l-0.4,3.602l2.736-2.345l2.867-2.458l2.802,0.4c0,0-4.803,6.804-2.401,6.003
					c2.401-0.801,6.804-5.603,6.804-5.603l0.8,4.002c0,0,2.802-8.805,4.402-5.203C375.771,193.68,371.965,185.384,371.965,185.384z"
					/>
				<path style="fill:#92E3A9;" d="M368.597,192.15c0,0-8.947-0.899-15.213,2.676c-6.265,3.576-14.33,25.046-14.33,25.046
					s3.267,18.171,3.552,15.624c0.284-2.547,0.855-11.602,0.855-11.602s3.676,5.379,3.111,3.115
					c-0.565-2.264-0.562-6.792-0.562-6.792s3.676,6.511,3.111,3.115c-0.282-1.698-0.423-3.821-0.492-5.519
					c-0.07-1.698-0.069-2.971-0.069-2.971l2.266-3.961c0,0,0.561,9.056,1.694,6.793c1.133-2.263,1.419-8.206,1.419-8.206
					s1.411,7.076,2.828,4.529c1.416-2.546,1.418-6.508,1.418-6.508l2.827,4.529l1.134-4.527l2.263,2.831l0.278-3.592l0.292-3.765
					l2.265-1.697c0,0,1.411,8.208,2.544,5.944c1.133-2.263,0.854-8.773,0.854-8.773l3.395,2.266c0,0-4.241-8.209-0.562-6.792
					S368.597,192.15,368.597,192.15z"/>
				<path style="fill:#92E3A9;" d="M376.776,187.385c0,0,5.694-6.96,12.654-8.858c6.96-1.898,27.839,7.592,27.839,7.592
					s10.53,15.165,8.529,13.564c-2.001-1.601-8.805-7.604-8.805-7.604s1.201,6.403,0,4.402c-1.201-2.001-4.402-5.203-4.402-5.203
					s2.001,7.204,0,4.402c-1.001-1.401-2.401-3.002-3.552-4.252s-2.051-2.151-2.051-2.151l-4.402-1.201c0,0,6.003,6.804,3.602,6.003
					c-2.401-0.801-6.804-4.803-6.804-4.803s4.002,6.003,1.201,5.203c-2.802-0.8-5.603-3.602-5.603-3.602l1.201,5.203l-4.002-2.401
					l0.4,3.602l-2.736-2.345l-2.867-2.458l-2.802,0.4c0,0,4.803,6.804,2.401,6.003c-2.401-0.801-6.804-5.603-6.804-5.603l-0.8,4.002
					c0,0-2.802-8.805-4.402-5.203C372.97,195.682,376.776,187.385,376.776,187.385z"/>
				<path style="fill:#92E3A9;" d="M380.145,194.151c0,0,8.947-0.899,15.213,2.676c6.265,3.576,14.329,25.046,14.329,25.046
					s-3.267,18.171-3.552,15.624c-0.284-2.547-0.855-11.602-0.855-11.602s-3.676,5.379-3.111,3.115
					c0.565-2.264,0.562-6.792,0.562-6.792s-3.676,6.511-3.111,3.115c0.282-1.698,0.422-3.821,0.492-5.519
					c0.07-1.698,0.069-2.971,0.069-2.971l-2.266-3.961c0,0-0.561,9.056-1.694,6.793c-1.133-2.263-1.419-8.206-1.419-8.206
					s-1.411,7.076-2.828,4.529c-1.416-2.546-1.418-6.508-1.418-6.508l-2.827,4.53l-1.134-4.527l-2.263,2.831l-0.278-3.592
					l-0.292-3.765l-2.265-1.697c0,0-1.411,8.208-2.544,5.944c-1.133-2.263-0.854-8.772-0.854-8.772l-3.395,2.266
					c0,0,4.241-8.209,0.562-6.792C371.589,197.33,380.145,194.151,380.145,194.151z"/>
			</g>
		</g>
		<g>
			<path style="fill:#263238;stroke:#263238;stroke-miterlimit:10;" d="M252.468,185.235c0,0-9.143,6.748-9.751,17.043
				c-0.607,10.296-1.038,20.198-1.038,20.198l5.597-12.916c0,0,1.722,8.18,1.722,6.458c0-1.722,1.292-10.763,1.292-10.763
				s1.722,6.458,2.583,3.444c0.489-1.713,1.396-4.261,2.088-6.141c0.525-1.428,0.926-2.47,0.926-2.47s0.43,6.889,2.153,4.736
				c1.722-2.153,3.444-7.319,3.444-7.319s-0.599,6.53,0.98,3.898c1.579-2.631,3.158-6.841,3.158-6.841s-2.894,10.525-2.368,14.735
				c0.526,4.21,2.631-3.158,2.631-3.158s1.579,18.945,2.631,15.788c1.053-3.158,2.631-14.735,2.631-14.735s2.631,10.788,2.895,7.894
				c0.263-2.894-1.053-8.946-1.053-8.946s2.631,8.683,2.895,5.526c0.263-3.158-0.526-12.63-0.526-12.63s6.315,15.525,7.631,12.367
				c1.316-3.158-0.789-9.736-0.789-9.736s0.526,8.42,2.105,6.578c1.579-1.842,1.579-1.842,1.579-1.842s0.263,8.683,1.579,6.578
				c1.316-2.105,1.316-2.105,1.316-2.105s1.579,8.42,1.842,7.104c0.263-1.316,1.579-3.158,1.579-3.158s1.052,11.578,1.316,6.315
				c0.263-5.263,0-18.682,0-18.682s1.053,18.419,2.105,11.051c1.053-7.368-1.73-20.617-3.759-23.991
				c-2.029-3.374-13.607-21.004-18.87-23.372c-5.263-2.368-11.841,3.421-14.472,7.631
				C255.885,177.985,252.468,185.235,252.468,185.235z"/>
			<path style="fill:#ADADAD;stroke:#263238;stroke-miterlimit:10;" d="M270.095,178.242c0,0,1.679,28.581-3.427,67.161
				c-5.106,38.581-10.78,59.006-12.482,74.325c-1.702,15.319-0.567,26.099-0.567,26.099h9.645c0,0-4.539-19.29,1.702-47.659
				s11.032-86.551,7.502-124.976L270.095,178.242z"/>
			<g>
				<path style="fill:#92E3A9;" d="M271.341,167.909c0,0-0.43-0.861,3.444-16.791c3.875-15.93,15.499-20.235,15.499-20.235
					l-3.444,6.458c0,0,7.75-5.597,6.458-3.444s-7.75,6.458-7.75,6.458s9.041-2.583,6.889,0c-2.153,2.583-6.889,6.458-6.889,6.458
					s5.597-2.153,4.305,0c-1.292,2.153-4.305,5.166-4.305,5.166s5.597-3.444,5.166-1.292c-0.431,2.153-7.319,11.194-7.319,11.194
					s7.75-4.305,5.166-1.292c-2.583,3.014-10.763,12.055-13.347,12.055C272.633,172.645,270.48,172.645,271.341,167.909z"/>
				<path style="fill:#92E3A9;" d="M275.692,177.811c0,0,0.431-0.861-3.444-16.791c-3.875-15.93-15.499-20.235-15.499-20.235
					l3.444,6.458c0,0-7.75-5.597-6.458-3.444c1.292,2.153,7.75,6.458,7.75,6.458s-9.041-2.583-6.889,0
					c2.153,2.583,6.889,6.458,6.889,6.458s-5.597-2.153-4.305,0c1.292,2.153,4.305,5.166,4.305,5.166s-5.597-3.444-5.166-1.292
					c0.431,2.153,7.319,11.194,7.319,11.194s-7.75-4.305-5.166-1.292c2.583,3.014,10.763,12.055,13.347,12.055
					S276.553,182.547,275.692,177.811z"/>
				<path style="fill:#92E3A9;" d="M267.292,171.039c0,0-6.126-7.487-13.613-9.529c-7.487-2.042-29.948,8.168-29.948,8.168
					s-11.328,16.313-9.175,14.591c2.153-1.722,9.472-8.18,9.472-8.18s-1.292,6.889,0,4.736c1.292-2.153,4.736-5.597,4.736-5.597
					s-2.153,7.75,0,4.736c1.076-1.507,2.583-3.229,3.821-4.574c1.238-1.345,2.206-2.314,2.206-2.314l4.736-1.292
					c0,0-6.458,7.319-3.875,6.458c2.583-0.861,7.319-5.166,7.319-5.166s-4.305,6.458-1.292,5.597
					c3.014-0.861,6.027-3.875,6.027-3.875l-1.292,5.597l4.305-2.583l-0.43,3.875l2.943-2.523l3.085-2.644l3.014,0.431
					c0,0-5.166,7.319-2.583,6.458c2.583-0.861,7.319-6.027,7.319-6.027l0.861,4.305c0,0,3.014-9.472,4.736-5.597
					C271.386,179.964,267.292,171.039,267.292,171.039z"/>
				<path style="fill:#92E3A9;" d="M263.668,178.317c0,0-9.625-0.968-16.365,2.879c-6.74,3.847-15.415,26.944-15.415,26.944
					s3.515,19.547,3.821,16.808c0.306-2.74,0.92-12.481,0.92-12.481s3.955,5.786,3.347,3.351c-0.608-2.436-0.605-7.307-0.605-7.307
					s3.954,7.004,3.347,3.35c-0.303-1.827-0.454-4.11-0.53-5.937c-0.075-1.827-0.074-3.197-0.074-3.197l2.438-4.261
					c0,0,0.604,9.742,1.823,7.307c1.219-2.435,1.527-8.828,1.527-8.828s1.518,7.612,3.042,4.873
					c1.524-2.739,1.526-7.001,1.526-7.001l3.042,4.872l1.22-4.87l2.434,3.046l0.299-3.864l0.314-4.051l2.436-1.825
					c0,0,1.518,8.829,2.737,6.395s0.918-9.437,0.918-9.437l3.652,2.437c0,0-4.562-8.831-0.605-7.307
					C272.872,181.737,263.668,178.317,263.668,178.317z"/>
				<path style="fill:#92E3A9;" d="M272.467,173.192c0,0,6.126-7.487,13.613-9.529s29.948,8.168,29.948,8.168
					s11.328,16.313,9.176,14.591c-2.153-1.722-9.472-8.18-9.472-8.18s1.292,6.889,0,4.736s-4.736-5.597-4.736-5.597
					s2.153,7.75,0,4.736c-1.076-1.507-2.583-3.229-3.821-4.574c-1.238-1.345-2.206-2.314-2.206-2.314l-4.736-1.292
					c0,0,6.458,7.319,3.875,6.458c-2.583-0.861-7.319-5.166-7.319-5.166s4.305,6.458,1.292,5.597
					c-3.014-0.861-6.027-3.875-6.027-3.875l1.292,5.597l-4.305-2.583l0.431,3.875l-2.943-2.523l-3.085-2.644l-3.014,0.431
					c0,0,5.166,7.319,2.583,6.458c-2.583-0.861-7.319-6.027-7.319-6.027l-0.861,4.305c0,0-3.014-9.472-4.736-5.597
					C268.373,182.116,272.467,173.192,272.467,173.192z"/>
				<path style="fill:#92E3A9;" d="M276.091,180.47c0,0,9.625-0.968,16.365,2.879c6.74,3.847,15.415,26.944,15.415,26.944
					s-3.515,19.547-3.821,16.808c-0.306-2.74-0.92-12.481-0.92-12.481s-3.955,5.786-3.347,3.35c0.608-2.436,0.605-7.307,0.605-7.307
					s-3.954,7.004-3.347,3.351c0.303-1.827,0.454-4.11,0.53-5.937c0.075-1.827,0.074-3.197,0.074-3.197l-2.438-4.261
					c0,0-0.604,9.742-1.823,7.307c-1.219-2.435-1.527-8.828-1.527-8.828s-1.518,7.612-3.042,4.873
					c-1.524-2.739-1.526-7.001-1.526-7.001l-3.042,4.873l-1.22-4.87l-2.434,3.046l-0.299-3.864l-0.314-4.051l-2.436-1.825
					c0,0-1.517,8.829-2.736,6.395c-1.219-2.435-0.918-9.437-0.918-9.437l-3.652,2.437c0,0,4.562-8.831,0.605-7.307
					C266.887,183.89,276.091,180.47,276.091,180.47z"/>
			</g>
		</g>
		<g>
			<g>
				<g>
					<path style="fill:#FFFFFF;" d="M601.87,376.161l-16.453-5.008c0,0-89.231-28.709-109.405-31.813
						c-20.174-3.104-129.13-20.987-238.983,1.552c-25.133,5.156-52.084,11.376-67.505,16.294
						c-8.265,2.636-31.813,10.087-40.348,13.191c-6.726,2.446-14.641,4.866-17.697,5.784H601.87z"/>
				</g>
			</g>
			<path style="fill:#ADADAD;" d="M600.146,375.636l-14.73-4.483c0,0-2.977-0.958-7.951-2.538c-5.387-0.159,0.777,2.653-7.868,3.518
				c-9.586,0.958-12.941,0.479-19.651-0.479c-6.71-0.959-12.941-3.355-18.213-2.396c-5.272,0.958,2.396,3.355-6.231,3.834
				c-8.627,0.479-18.692-1.917-33.071-3.834c-14.379-1.917-19.651-5.272-18.213,1.438c1.438,6.71-22.047-2.397-34.988-4.314
				c-12.941-1.917-7.669,3.355-9.586,5.272c-1.917,1.917-20.61,0-35.947-1.438c-15.337-1.438-21.089,2.397-43.616,2.876
				c-22.527,0.479-31.633-2.876-35.468-2.876c-3.834,0-10.065-0.479-10.065-0.479l-13.42,2.397c0,0-11.982,0-21.568-1.917
				c-9.586-1.917-15.337,3.834-32.592,3.834c-17.255,0-17.255-4.314-20.13-6.231c-2.876-1.917-7.189,1.438-13.42,3.834
				c-6.231,2.397-8.148,0-11.982-1.917c-3.834-1.917-14.858,2.397-24.923,3.355c-10.065,0.959-4.314,0-2.876-3.834
				c1.438-3.834-2.396-2.876-16.775,0.958c-14.379,3.834-35.382,5.945-35.382,5.945h488.952
				C600.343,375.983,600.246,375.809,600.146,375.636z"/>
			<g>
				<g>
					<path style="fill:none;stroke:#263238;stroke-miterlimit:10;" d="M601.87,376.161l-16.453-5.008
						c0,0-89.231-28.709-109.405-31.813c-20.174-3.104-129.13-20.987-238.983,1.552c-25.133,5.156-52.084,11.376-67.505,16.294
						c-8.265,2.636-31.813,10.087-40.348,13.191c-6.726,2.446-14.641,4.866-17.697,5.784H601.87z"/>
				</g>
			</g>
		</g>
		<path style="fill:#263238;" d="M181.344,285.268c-0.002-0.006-0.005-0.013-0.007-0.019l0.017,0.024
			C181.35,285.271,181.347,285.269,181.344,285.268z"/>
		<path style="fill:#263238;" d="M534.246,269.413c0.003,0.006,0.005,0.011,0.008,0.017c0.003,0.001,0.006,0.002,0.009,0.004
			L534.246,269.413z"/>
		<path style="fill:#263238;" d="M407.148,251.602c-0.004,0.005-0.007,0.01-0.011,0.015c-0.003,0.001-0.006,0.001-0.009,0.002
			L407.148,251.602z"/>
		<path style="fill:#263238;" d="M315.144,250.872c0.004,0.005,0.007,0.01,0.011,0.015c0.003,0.001,0.006,0.001,0.009,0.002
			L315.144,250.872z"/>
		<path style="fill:#263238;" d="M280.355,279.753c0.003,0.005,0.007,0.01,0.011,0.015c0.003,0.001,0.006,0.001,0.009,0.002
			L280.355,279.753z"/>
		<path style="fill:#263238;" d="M333.724,262.34c-0.004,0.005-0.007,0.01-0.011,0.015c-0.003,0.001-0.006,0.001-0.009,0.002
			L333.724,262.34z"/>
		<g>
			<path style="fill:#92E3A9;" d="M331.684,341.169c0,0,10.972-21.944,24.138-25.784c13.166-3.84,14.812,4.389,26.881,2.194
				c12.069-2.194,15.909-15.909,34.562-14.264c18.652,1.646,23.041,14.812,25.235,19.749c2.194,4.937,10.972,3.292,21.395,1.646
				c10.423-1.646,12.069,5.486,14.264,9.875c2.194,4.389,7.132,1.646,15.909,0.549c8.778-1.097,15.909,5.486,17.007,10.972
				c1.097,5.486,1.097,5.486,1.097,5.486l-81.741-9.875l16.458,8.777c0,0-32.916-1.097-45.534-1.097
				c-12.618,0-38.951,1.646-38.951,1.646l13.166-7.68L331.684,341.169z"/>
			<line style="fill:none;stroke:#263238;stroke-miterlimit:10;" x1="367.343" y1="341.717" x2="359.662" y2="326.356"/>
			<line style="fill:none;stroke:#263238;stroke-miterlimit:10;" x1="364.051" y1="335.134" x2="366.794" y2="328.551"/>
			<line style="fill:none;stroke:#263238;stroke-miterlimit:10;" x1="409.585" y1="348.849" x2="404.099" y2="333.488"/>
			<polyline style="fill:none;stroke:#263238;stroke-miterlimit:10;" points="410.133,333.488 407.939,342.266 395.87,340.071 			
				"/>
			<polyline style="fill:none;stroke:#263238;stroke-miterlimit:10;" points="449.084,333.488 438.112,341.169 432.077,320.871 			
				"/>
			<line style="fill:none;stroke:#263238;stroke-miterlimit:10;" x1="442.237" y1="338.064" x2="440.078" y2="331.588"/>
			<line style="fill:none;stroke:#263238;stroke-miterlimit:10;" x1="489.46" y1="348.048" x2="497.015" y2="341.032"/>
			<line style="fill:none;stroke:#263238;stroke-miterlimit:10;" x1="491.348" y1="345.62" x2="503.491" y2="344.271"/>
			<line style="fill:none;stroke:#263238;stroke-miterlimit:10;" x1="461.396" y1="344.81" x2="466.793" y2="332.397"/>
			<polyline style="fill:none;stroke:#263238;stroke-miterlimit:10;" points="471.92,335.096 464.094,339.143 458.158,332.937 			
				"/>
			<line style="fill:none;stroke:#263238;stroke-miterlimit:10;" x1="434.682" y1="329.429" x2="420.65" y2="324.302"/>
			<line style="fill:none;stroke:#263238;stroke-miterlimit:10;" x1="365.602" y1="337.794" x2="351.84" y2="333.747"/>
		</g>
		<g>
			<path style="fill:#263238;stroke:#263238;stroke-miterlimit:10;" d="M309.445,130.921c0,0-9.143,6.748-9.751,17.043
				c-0.607,10.296-1.038,20.198-1.038,20.198l5.597-12.916c0,0,1.722,8.18,1.722,6.458c0-1.722,1.292-10.763,1.292-10.763
				s1.722,6.458,2.583,3.444c0.49-1.713,1.396-4.26,2.088-6.141c0.525-1.428,0.926-2.47,0.926-2.47s0.43,6.889,2.153,4.736
				c1.722-2.153,3.444-7.319,3.444-7.319s-0.599,6.53,0.98,3.898c1.579-2.631,3.158-6.841,3.158-6.841s-2.895,10.525-2.368,14.735
				c0.526,4.21,2.631-3.158,2.631-3.158s1.579,18.945,2.631,15.788c1.052-3.158,2.631-14.735,2.631-14.735s2.631,10.788,2.894,7.894
				c0.263-2.895-1.053-8.946-1.053-8.946s2.631,8.683,2.894,5.526c0.263-3.158-0.526-12.63-0.526-12.63s6.315,15.525,7.631,12.367
				c1.316-3.158-0.789-9.736-0.789-9.736s0.526,8.42,2.105,6.578c1.579-1.842,1.579-1.842,1.579-1.842s0.263,8.683,1.579,6.578
				c1.316-2.105,1.316-2.105,1.316-2.105s1.579,8.42,1.842,7.105c0.263-1.316,1.579-3.158,1.579-3.158s1.052,11.578,1.316,6.315
				c0.263-5.263,0-18.682,0-18.682s1.052,18.419,2.105,11.051c1.052-7.368-1.73-20.617-3.76-23.991
				c-2.029-3.374-13.607-21.004-18.87-23.372c-5.263-2.368-11.841,3.421-14.472,7.631
				C312.862,123.67,309.445,130.921,309.445,130.921z"/>
			<path style="fill:#ADADAD;stroke:#263238;stroke-miterlimit:10;" d="M327.072,123.927c0,0,1.679,28.581-3.427,67.161
				c-5.106,38.581-10.78,59.006-12.482,74.325c-1.702,15.319-0.567,74.679-0.567,74.679h9.645c0,0-4.539-67.871,1.702-96.239
				s11.032-86.551,7.502-124.976L327.072,123.927z"/>
			<g>
				<path style="fill:#92E3A9;" d="M328.318,113.594c0,0-0.431-0.861,3.444-16.791c3.875-15.93,15.499-20.235,15.499-20.235
					l-3.444,6.458c0,0,7.75-5.597,6.458-3.444c-1.292,2.153-7.75,6.458-7.75,6.458s9.041-2.583,6.889,0
					c-2.153,2.583-6.889,6.458-6.889,6.458s5.597-2.153,4.305,0c-1.292,2.153-4.305,5.166-4.305,5.166s5.597-3.444,5.166-1.292
					c-0.431,2.153-7.319,11.194-7.319,11.194s7.75-4.305,5.167-1.292c-2.583,3.014-10.763,12.055-13.347,12.055
					C329.61,118.33,327.457,118.33,328.318,113.594z"/>
				<path style="fill:#92E3A9;" d="M332.668,123.496c0,0,0.431-0.861-3.444-16.791c-3.875-15.93-15.499-20.235-15.499-20.235
					l3.444,6.458c0,0-7.75-5.597-6.458-3.444c1.292,2.153,7.75,6.458,7.75,6.458s-9.041-2.583-6.889,0
					c2.153,2.583,6.889,6.458,6.889,6.458s-5.597-2.153-4.305,0s4.305,5.166,4.305,5.166s-5.597-3.444-5.167-1.292
					c0.431,2.153,7.319,11.194,7.319,11.194s-7.75-4.305-5.166-1.292c2.583,3.014,10.763,12.055,13.347,12.055
					C331.377,128.232,333.529,128.232,332.668,123.496z"/>
				<path style="fill:#92E3A9;" d="M324.268,116.724c0,0-6.126-7.487-13.613-9.529c-7.487-2.042-29.948,8.168-29.948,8.168
					s-11.328,16.313-9.176,14.591c2.153-1.722,9.472-8.18,9.472-8.18s-1.292,6.889,0,4.736c1.292-2.153,4.736-5.597,4.736-5.597
					s-2.153,7.75,0,4.736c1.076-1.507,2.583-3.229,3.821-4.575c1.238-1.345,2.206-2.314,2.206-2.314l4.736-1.292
					c0,0-6.458,7.319-3.875,6.458c2.583-0.861,7.319-5.166,7.319-5.166s-4.305,6.458-1.292,5.597
					c3.014-0.861,6.027-3.875,6.027-3.875l-1.292,5.597l4.305-2.583l-0.431,3.875l2.943-2.522l3.085-2.644l3.014,0.43
					c0,0-5.166,7.319-2.583,6.458c2.583-0.861,7.319-6.027,7.319-6.027l0.861,4.305c0,0,3.014-9.472,4.736-5.597
					C328.363,125.649,324.268,116.724,324.268,116.724z"/>
				<path style="fill:#92E3A9;" d="M320.645,124.003c0,0-9.625-0.968-16.365,2.879c-6.74,3.847-15.415,26.944-15.415,26.944
					s3.515,19.547,3.821,16.808c0.306-2.74,0.92-12.481,0.92-12.481s3.955,5.786,3.347,3.351c-0.608-2.436-0.605-7.307-0.605-7.307
					s3.954,7.004,3.347,3.351c-0.303-1.827-0.454-4.11-0.53-5.937c-0.075-1.827-0.074-3.197-0.074-3.197l2.438-4.261
					c0,0,0.604,9.742,1.823,7.307c1.219-2.435,1.527-8.828,1.527-8.828s1.518,7.612,3.042,4.872s1.526-7.001,1.526-7.001
					l3.042,4.873l1.22-4.87l2.434,3.046l0.299-3.864l0.314-4.051l2.436-1.825c0,0,1.517,8.829,2.736,6.395
					c1.219-2.435,0.918-9.437,0.918-9.437l3.652,2.437c0,0-4.562-8.831-0.605-7.307
					C329.849,127.423,320.645,124.003,320.645,124.003z"/>
				<path style="fill:#92E3A9;" d="M329.444,118.877c0,0,6.126-7.487,13.613-9.529s29.948,8.168,29.948,8.168
					s11.328,16.313,9.175,14.591c-2.153-1.722-9.472-8.18-9.472-8.18s1.292,6.889,0,4.736c-1.292-2.153-4.736-5.597-4.736-5.597
					s2.153,7.75,0,4.736c-1.076-1.507-2.583-3.229-3.821-4.574c-1.238-1.345-2.207-2.314-2.207-2.314l-4.736-1.292
					c0,0,6.458,7.319,3.875,6.458c-2.583-0.861-7.319-5.166-7.319-5.166s4.305,6.458,1.292,5.597
					c-3.014-0.861-6.027-3.875-6.027-3.875l1.292,5.597l-4.305-2.583l0.43,3.875l-2.943-2.522l-3.085-2.644l-3.014,0.431
					c0,0,5.167,7.319,2.583,6.458c-2.583-0.861-7.319-6.028-7.319-6.028l-0.861,4.305c0,0-3.014-9.472-4.736-5.597
					C325.349,127.802,329.444,118.877,329.444,118.877z"/>
				<path style="fill:#92E3A9;" d="M333.068,126.155c0,0,9.625-0.968,16.365,2.879c6.74,3.847,15.415,26.944,15.415,26.944
					s-3.515,19.547-3.821,16.808c-0.306-2.74-0.92-12.481-0.92-12.481s-3.955,5.786-3.347,3.351s0.605-7.307,0.605-7.307
					s-3.954,7.004-3.347,3.35c0.304-1.827,0.455-4.11,0.53-5.937c0.075-1.827,0.074-3.197,0.074-3.197l-2.438-4.261
					c0,0-0.604,9.742-1.823,7.307c-1.219-2.435-1.527-8.828-1.527-8.828s-1.518,7.612-3.042,4.873
					c-1.524-2.739-1.526-7.001-1.526-7.001l-3.042,4.873l-1.22-4.87l-2.434,3.046l-0.299-3.864l-0.314-4.051l-2.436-1.825
					c0,0-1.518,8.829-2.737,6.395c-1.219-2.435-0.918-9.437-0.918-9.437l-3.652,2.437c0,0,4.562-8.831,0.605-7.307
					C323.863,129.576,333.068,126.155,333.068,126.155z"/>
			</g>
		</g>
		<g>
			<path style="fill:#263238;stroke:#263238;stroke-miterlimit:10;" d="M450.056,145.237c0,0,9.143,6.748,9.751,17.043
				c0.607,10.296,1.038,20.198,1.038,20.198l-5.597-12.916c0,0-1.722,8.18-1.722,6.458c0-1.722-1.292-10.763-1.292-10.763
				s-1.722,6.458-2.583,3.444c-0.489-1.713-1.396-4.261-2.088-6.141c-0.525-1.428-0.926-2.47-0.926-2.47s-0.43,6.888-2.153,4.736
				c-1.722-2.153-3.444-7.319-3.444-7.319s0.599,6.53-0.979,3.899c-1.579-2.631-3.158-6.841-3.158-6.841s2.895,10.525,2.368,14.735
				c-0.526,4.21-2.631-3.158-2.631-3.158s-1.579,18.945-2.631,15.788c-1.053-3.158-2.631-14.735-2.631-14.735
				s-2.631,10.788-2.894,7.894c-0.263-2.894,1.052-8.946,1.052-8.946s-2.631,8.683-2.894,5.526
				c-0.263-3.158,0.526-12.63,0.526-12.63s-6.315,15.525-7.631,12.367c-1.316-3.158,0.789-9.736,0.789-9.736
				s-0.526,8.42-2.105,6.578c-1.579-1.842-1.579-1.842-1.579-1.842s-0.263,8.683-1.579,6.578c-1.316-2.105-1.316-2.105-1.316-2.105
				s-1.579,8.42-1.842,7.104c-0.263-1.316-1.579-3.158-1.579-3.158s-1.052,11.578-1.316,6.315c-0.263-5.263,0-18.682,0-18.682
				s-1.052,18.419-2.105,11.051c-1.053-7.368,1.73-20.617,3.759-23.991c2.029-3.374,13.607-21.004,18.87-23.372
				c5.263-2.368,11.841,3.421,14.472,7.631C446.638,137.987,450.056,145.237,450.056,145.237z"/>
			<path style="fill:#ADADAD;stroke:#263238;stroke-miterlimit:10;" d="M432.429,138.244c0,0-1.679,28.581,3.427,67.161
				s10.78,59.006,12.482,74.325c1.702,15.319,0.567,74.679,0.567,74.679h-9.645c0,0,4.539-67.871-1.702-96.239
				c-6.241-28.368-11.032-86.551-7.502-124.976L432.429,138.244z"/>
			<g>
				<path style="fill:#92E3A9;" d="M431.182,127.911c0,0,0.43-0.861-3.444-16.791c-3.875-15.93-15.499-20.235-15.499-20.235
					l3.444,6.458c0,0-7.75-5.597-6.458-3.444c1.292,2.153,7.75,6.458,7.75,6.458s-9.041-2.583-6.889,0s6.889,6.458,6.889,6.458
					s-5.597-2.153-4.305,0c1.292,2.153,4.305,5.167,4.305,5.167s-5.597-3.444-5.167-1.292c0.431,2.153,7.319,11.194,7.319,11.194
					s-7.75-4.305-5.166-1.292c2.583,3.014,10.763,12.055,13.347,12.055C429.891,132.647,432.043,132.647,431.182,127.911z"/>
				<path style="fill:#92E3A9;" d="M426.832,137.813c0,0-0.431-0.861,3.444-16.791c3.875-15.93,15.499-20.235,15.499-20.235
					l-3.444,6.458c0,0,7.75-5.597,6.458-3.444c-1.292,2.153-7.75,6.458-7.75,6.458s9.041-2.583,6.889,0
					c-2.153,2.583-6.889,6.458-6.889,6.458s5.597-2.153,4.305,0c-1.292,2.153-4.305,5.166-4.305,5.166s5.597-3.444,5.167-1.292
					c-0.431,2.153-7.319,11.194-7.319,11.194s7.75-4.305,5.167-1.292c-2.583,3.014-10.763,12.055-13.347,12.055
					C428.124,142.549,425.971,142.549,426.832,137.813z"/>
				<path style="fill:#92E3A9;" d="M435.232,131.041c0,0,6.126-7.487,13.613-9.529s29.948,8.168,29.948,8.168
					s11.328,16.313,9.176,14.591c-2.153-1.722-9.472-8.18-9.472-8.18s1.292,6.889,0,4.736c-1.292-2.153-4.736-5.597-4.736-5.597
					s2.153,7.75,0,4.736c-1.076-1.507-2.583-3.229-3.821-4.574c-1.238-1.345-2.207-2.314-2.207-2.314l-4.736-1.292
					c0,0,6.458,7.319,3.875,6.458c-2.583-0.861-7.319-5.167-7.319-5.167s4.305,6.458,1.292,5.597
					c-3.014-0.861-6.027-3.875-6.027-3.875l1.292,5.597l-4.305-2.583l0.431,3.875l-2.943-2.522l-3.085-2.644l-3.014,0.431
					c0,0,5.166,7.319,2.583,6.458s-7.319-6.027-7.319-6.027l-0.861,4.305c0,0-3.014-9.472-4.736-5.597
					C431.137,139.966,435.232,131.041,435.232,131.041z"/>
				<path style="fill:#92E3A9;" d="M438.856,138.32c0,0,9.625-0.968,16.365,2.879c6.74,3.847,15.415,26.944,15.415,26.944
					s-3.515,19.547-3.821,16.808c-0.306-2.74-0.92-12.481-0.92-12.481s-3.955,5.786-3.347,3.351
					c0.608-2.436,0.605-7.307,0.605-7.307s-3.954,7.004-3.347,3.35c0.303-1.827,0.454-4.11,0.53-5.937
					c0.075-1.827,0.074-3.197,0.074-3.197l-2.438-4.261c0,0-0.604,9.742-1.823,7.307c-1.219-2.435-1.527-8.828-1.527-8.828
					s-1.518,7.612-3.042,4.873c-1.524-2.739-1.526-7.001-1.526-7.001l-3.042,4.872l-1.22-4.87l-2.434,3.046l-0.299-3.864
					l-0.314-4.051l-2.437-1.825c0,0-1.517,8.829-2.736,6.395c-1.219-2.435-0.918-9.437-0.918-9.437l-3.652,2.437
					c0,0,4.562-8.831,0.605-7.307C429.652,141.74,438.856,138.32,438.856,138.32z"/>
				<path style="fill:#92E3A9;" d="M430.057,133.194c0,0-6.126-7.487-13.613-9.529s-29.948,8.168-29.948,8.168
					s-11.328,16.313-9.176,14.591c2.153-1.722,9.472-8.18,9.472-8.18s-1.292,6.888,0,4.736c1.292-2.153,4.736-5.597,4.736-5.597
					s-2.153,7.75,0,4.736c1.076-1.507,2.583-3.229,3.821-4.574c1.238-1.346,2.207-2.314,2.207-2.314l4.736-1.292
					c0,0-6.458,7.319-3.875,6.458c2.583-0.861,7.319-5.166,7.319-5.166s-4.305,6.458-1.292,5.597
					c3.014-0.861,6.027-3.875,6.027-3.875l-1.292,5.597l4.305-2.583l-0.431,3.875l2.943-2.522l3.085-2.644l3.014,0.43
					c0,0-5.166,7.319-2.583,6.458c2.583-0.861,7.319-6.027,7.319-6.027l0.861,4.305c0,0,3.014-9.472,4.736-5.597
					C434.151,142.119,430.057,133.194,430.057,133.194z"/>
				<path style="fill:#92E3A9;" d="M426.433,140.472c0,0-9.625-0.968-16.365,2.879c-6.74,3.847-15.415,26.944-15.415,26.944
					s3.515,19.547,3.821,16.808c0.306-2.74,0.92-12.481,0.92-12.481s3.955,5.786,3.347,3.35c-0.608-2.436-0.605-7.307-0.605-7.307
					s3.954,7.004,3.347,3.351c-0.303-1.827-0.454-4.11-0.53-5.937c-0.075-1.827-0.074-3.197-0.074-3.197l2.438-4.261
					c0,0,0.604,9.742,1.823,7.307c1.219-2.435,1.527-8.828,1.527-8.828s1.518,7.612,3.042,4.872
					c1.524-2.739,1.526-7.001,1.526-7.001l3.042,4.873l1.22-4.87l2.434,3.046l0.299-3.864l0.314-4.051l2.436-1.825
					c0,0,1.518,8.829,2.737,6.395c1.219-2.435,0.918-9.437,0.918-9.437l3.652,2.437c0,0-4.562-8.831-0.605-7.307
					C435.637,143.892,426.433,140.472,426.433,140.472z"/>
			</g>
		</g>
		<g>
			<path style="fill:#263238;stroke:#263238;stroke-miterlimit:10;" d="M174.245,152.272c0,0-8.062,8.009-7.162,18.283
				c0.9,10.274,1.918,20.133,1.918,20.133l3.654-13.594c0,0,2.896,7.842,2.645,6.138c-0.251-1.704-0.291-10.837-0.291-10.837
				s2.645,6.138,3.058,3.031c0.234-1.766,0.76-4.419,1.17-6.379c0.311-1.489,0.556-2.579,0.556-2.579s1.43,6.752,2.82,4.371
				c1.39-2.381,2.34-7.743,2.34-7.743s0.359,6.547,1.537,3.714c1.178-2.833,2.126-7.229,2.126-7.229s-1.329,10.835-0.195,14.923
				c1.134,4.088,2.143-3.507,2.143-3.507s4.324,18.513,4.905,15.235c0.581-3.277,0.455-14.961,0.455-14.961
				s4.176,10.289,4.014,7.388c-0.162-2.902-2.346-8.697-2.346-8.697s3.869,8.207,3.669,5.045s-2.362-12.418-2.362-12.418
				s8.511,14.438,9.352,11.122c0.841-3.316-2.2-9.517-2.2-9.517s1.748,8.253,3.042,6.201s1.293-2.052,1.293-2.052
				s1.526,8.552,2.521,6.278c0.995-2.274,0.995-2.274,0.995-2.274s2.789,8.1,2.858,6.76c0.068-1.34,1.102-3.354,1.102-3.354
				s2.729,11.3,2.222,6.056c-0.507-5.245-2.724-18.483-2.724-18.483s3.727,18.069,3.694,10.626
				c-0.033-7.442-4.717-20.144-7.217-23.187c-2.5-3.042-16.524-18.796-22.075-20.372c-5.552-1.576-11.216,5.11-13.205,9.659
				C176.569,144.601,174.245,152.272,174.245,152.272z"/>
			<path style="fill:#ADADAD;stroke:#263238;stroke-miterlimit:10;" d="M190.664,142.783c0,0,5.828,28.031,6.401,66.943
				c0.573,38.913-2.063,59.947-1.513,75.35c0.549,15.403,10.326,73.964,10.326,73.964l9.542-1.406c0,0-14.385-66.484-12.346-95.459
				c2.039-28.975-1.704-87.235-10.798-124.734L190.664,142.783z"/>
			<g>
				<path style="fill:#92E3A9;" d="M190.391,132.379c0,0-0.551-0.789,0.96-17.114c1.511-16.325,12.384-22.279,12.384-22.279
					l-2.466,6.891c0,0,6.851-6.667,5.887-4.349c-0.964,2.318-6.725,7.519-6.725,7.519s8.568-3.874,6.815-1.004
					c-1.753,2.869-5.874,7.393-5.874,7.393s5.223-2.946,4.259-0.628c-0.964,2.318-3.506,5.739-3.506,5.739s5.035-4.224,4.923-2.031
					c-0.112,2.192-5.609,12.141-5.609,12.141s7.039-5.389,4.923-2.031c-2.116,3.358-8.891,13.495-11.447,13.872
					S190.229,137.19,190.391,132.379z"/>
				<path style="fill:#92E3A9;" d="M196.138,141.541c0,0,0.3-0.915-5.855-16.109c-6.156-15.195-18.284-17.759-18.284-17.759
					l4.349,5.887c0,0-8.483-4.407-6.891-2.466c1.592,1.941,8.608,5.259,8.608,5.259s-9.321-1.237-6.815,1.004
					c2.506,2.242,7.756,5.385,7.756,5.385s-5.851-1.314-4.259,0.628c1.592,1.941,5.012,4.484,5.012,4.484s-6.039-2.592-5.299-0.525
					c0.74,2.067,8.873,10.007,8.873,10.007s-8.294-3.13-5.299-0.525c2.995,2.605,12.406,10.357,14.962,9.98
					S197.68,146.101,196.138,141.541z"/>
				<path style="fill:#92E3A9;" d="M186.841,136.066c0,0-7.152-6.514-14.856-7.443c-7.705-0.929-28.437,12.446-28.437,12.446
					s-8.829,17.791-6.95,15.773c1.879-2.018,8.178-9.474,8.178-9.474s-0.274,7.003,0.69,4.685c0.964-2.318,3.869-6.228,3.869-6.228
					s-1,7.981,0.691,4.685c0.845-1.648,2.085-3.571,3.113-5.083c1.028-1.511,1.846-2.611,1.846-2.611l4.497-1.968
					c0,0-5.322,8.182-2.892,6.954s6.488-6.178,6.488-6.178s-3.318,7.017-0.462,5.725c2.856-1.291,5.398-4.712,5.398-4.712
					l-0.462,5.725l3.883-3.183l0.139,3.896l2.544-2.925l2.666-3.065l3.044-0.013c0,0-4.044,7.994-1.614,6.766
					c2.43-1.229,6.362-7.03,6.362-7.03l1.48,4.134c0,0,1.601-9.81,3.869-6.228C192.193,144.299,186.841,136.066,186.841,136.066z"/>
				<path style="fill:#92E3A9;" d="M184.317,143.795c0,0-9.663,0.446-15.77,5.234c-6.107,4.788-11.323,28.903-11.323,28.903
					s6.327,18.826,6.23,16.071c-0.097-2.755-0.91-12.482-0.91-12.482s4.756,5.148,3.8,2.827c-0.956-2.321-1.664-7.141-1.664-7.141
					s4.933,6.353,3.8,2.827c-0.567-1.763-1.049-4-1.389-5.796c-0.341-1.796-0.54-3.152-0.54-3.152l1.79-4.571
					c0,0,2.018,9.55,2.869,6.964c0.851-2.587,0.223-8.956,0.223-8.956s2.612,7.309,3.72,4.377c1.108-2.932,0.489-7.149,0.489-7.149
					l3.72,4.377l0.497-4.996l2.852,2.658l-0.267-3.867l-0.28-4.053l2.144-2.161c0,0,2.789,8.514,3.64,5.927
					c0.851-2.587-0.467-9.47-0.467-9.47l3.968,1.879c0,0-5.801-8.072-1.664-7.14C193.921,145.837,184.317,143.795,184.317,143.795z"
					/>
				<path style="fill:#92E3A9;" d="M192.275,137.442c0,0,4.969-8.3,12.078-11.412c7.109-3.112,30.819,3.714,30.819,3.714
					s13.585,14.488,11.205,13.098c-2.381-1.39-10.563-6.712-10.563-6.712s2.282,6.627,0.69,4.685
					c-1.592-1.941-5.501-4.847-5.501-4.847s3.26,7.353,0.69,4.685c-1.285-1.334-3.026-2.818-4.447-3.969
					c-1.421-1.151-2.52-1.968-2.52-1.968l-4.874-0.587c0,0,7.456,6.299,4.775,5.824c-2.681-0.475-7.994-4.044-7.994-4.044
					s5.201,5.761,2.094,5.349c-3.107-0.412-6.528-2.955-6.528-2.955l2.094,5.349l-4.636-1.928l0.991,3.771l-3.279-2.066
					l-3.437-2.166l-2.919,0.865c0,0,6.178,6.488,3.497,6.012c-2.681-0.475-8.12-4.896-8.12-4.896l-0.224,4.385
					c0,0-4.362-8.931-5.501-4.847C189.525,146.868,192.275,137.442,192.275,137.442z"/>
				<path style="fill:#92E3A9;" d="M196.921,144.114c0,0,9.381-2.36,16.61,0.463c7.229,2.823,19.178,24.409,19.178,24.409
					s-0.627,19.851-1.329,17.185c-0.702-2.666-2.73-12.214-2.73-12.214s-3.069,6.301-2.823,3.803
					c0.246-2.498-0.467-7.317-0.467-7.317s-2.891,7.506-2.823,3.803c0.034-1.852-0.15-4.133-0.342-5.951
					c-0.192-1.818-0.392-3.173-0.392-3.173l-3.033-3.86c0,0,0.823,9.726-0.738,7.495c-1.561-2.231-2.798-8.511-2.798-8.511
					s-0.392,7.752-2.299,5.264c-1.907-2.488-2.53-6.704-2.53-6.704l-2.299,5.264l-1.917-4.64l-1.964,3.368l-0.859-3.779
					l-0.901-3.962l-2.676-1.451c0,0-0.214,8.956-1.775,6.725c-1.561-2.231-2.284-9.202-2.284-9.202l-3.257,2.944
					c0,0,3.226-9.402-0.467-7.317C188.313,148.839,196.921,144.114,196.921,144.114z"/>
			</g>
		</g>
		<g>
			<path style="fill:#263238;stroke:#263238;stroke-miterlimit:10;" d="M615.893,234.832c0,0,10.042,7.411,10.709,18.718
				c0.667,11.307,1.14,22.182,1.14,22.182l-6.147-14.185c0,0-1.891,8.984-1.891,7.092c0-1.891-1.418-11.821-1.418-11.821
				s-1.891,7.092-2.837,3.783c-0.537-1.881-1.533-4.679-2.293-6.744c-0.577-1.568-1.017-2.713-1.017-2.713s-0.473,7.565-2.364,5.201
				c-1.891-2.364-3.783-8.038-3.783-8.038s0.658,7.171-1.076,4.281s-3.468-7.513-3.468-7.513s3.179,11.559,2.601,16.183
				c-0.578,4.624-2.89-3.468-2.89-3.468s-1.734,20.807-2.89,17.339c-1.156-3.468-2.89-16.183-2.89-16.183s-2.89,11.848-3.179,8.669
				c-0.289-3.179,1.156-9.825,1.156-9.825s-2.89,9.536-3.179,6.069c-0.289-3.468,0.578-13.871,0.578-13.871
				s-6.936,17.05-8.38,13.582c-1.445-3.468,0.867-10.692,0.867-10.692s-0.578,9.247-2.312,7.225
				c-1.734-2.023-1.734-2.023-1.734-2.023s-0.289,9.536-1.734,7.225c-1.445-2.312-1.445-2.312-1.445-2.312s-1.734,9.247-2.023,7.802
				c-0.289-1.445-1.734-3.468-1.734-3.468s-1.156,12.715-1.445,6.935c-0.289-5.78,0-20.517,0-20.517s-1.156,20.229-2.312,12.137
				c-1.156-8.091,1.9-22.642,4.129-26.348c2.229-3.706,14.944-23.068,20.723-25.668c5.78-2.601,13.004,3.757,15.894,8.38
				S615.893,234.832,615.893,234.832z"/>
			<path style="fill:#ADADAD;stroke:#263238;stroke-miterlimit:10;" d="M596.535,227.152c0,0,2.153,31.13-27.717,65.136
				c-24.783,28.214-35.388,32.711-46.017,46.008c-10.629,13.296-12.896,20.482-12.896,20.482l10.491,0.233
				c0,0,2.404-12.37,19.852-29.059c17.447-16.689,31.102-28.068,42.481-47.791c11.379-19.723,17.596-36.033,16.884-62.919
				L596.535,227.152z"/>
			<g>
				<path style="fill:#92E3A9;" d="M595.166,215.804c0,0,0.473-0.946-3.783-18.441s-17.022-22.223-17.022-22.223l3.783,7.092
					c0,0-8.511-6.147-7.092-3.783c1.418,2.364,8.511,7.092,8.511,7.092s-9.93-2.837-7.565,0c2.364,2.837,7.565,7.092,7.565,7.092
					s-6.147-2.364-4.728,0c1.418,2.364,4.728,5.674,4.728,5.674s-6.147-3.783-5.674-1.419c0.473,2.364,8.038,12.294,8.038,12.294
					s-8.511-4.728-5.674-1.419c2.837,3.31,11.821,13.239,14.658,13.239C593.747,221.005,596.111,221.005,595.166,215.804z"/>
				<path style="fill:#92E3A9;" d="M590.388,226.679c0,0-0.473-0.946,3.783-18.441c4.255-17.495,17.022-22.223,17.022-22.223
					l-3.783,7.092c0,0,8.511-6.147,7.092-3.783c-1.418,2.364-8.511,7.092-8.511,7.092s9.93-2.837,7.565,0
					c-2.364,2.837-7.565,7.092-7.565,7.092s6.147-2.364,4.728,0c-1.419,2.364-4.728,5.674-4.728,5.674s6.147-3.783,5.674-1.419
					c-0.473,2.364-8.038,12.294-8.038,12.294s8.511-4.728,5.674-1.419c-2.837,3.31-11.821,13.239-14.658,13.239
					C591.807,231.88,589.442,231.88,590.388,226.679z"/>
				<path style="fill:#92E3A9;" d="M599.613,219.242c0,0,6.728-8.223,14.95-10.465c8.222-2.243,32.89,8.97,32.89,8.97
					s12.441,17.916,10.077,16.025c-2.364-1.891-10.402-8.984-10.402-8.984s1.418,7.565,0,5.201
					c-1.419-2.364-5.201-6.147-5.201-6.147s2.364,8.511,0,5.201c-1.182-1.655-2.837-3.546-4.196-5.024
					c-1.359-1.478-2.423-2.542-2.423-2.542l-5.201-1.419c0,0,7.093,8.038,4.255,7.092c-2.837-0.946-8.038-5.674-8.038-5.674
					s4.728,7.092,1.419,6.147c-3.31-0.946-6.62-4.256-6.62-4.256l1.419,6.147l-4.728-2.837l0.473,4.255l-3.232-2.77l-3.388-2.904
					l-3.31,0.473c0,0,5.674,8.038,2.837,7.092c-2.837-0.946-8.038-6.62-8.038-6.62l-0.946,4.728c0,0-3.31-10.402-5.201-6.147
					C595.116,229.043,599.613,219.242,599.613,219.242z"/>
				<path style="fill:#92E3A9;" d="M603.593,227.235c0,0,10.571-1.063,17.973,3.162c7.402,4.225,16.93,29.591,16.93,29.591
					s-3.86,21.468-4.196,18.459c-0.336-3.009-1.01-13.708-1.01-13.708s-4.343,6.355-3.676,3.68s0.664-8.025,0.664-8.025
					s-4.342,7.692-3.676,3.68c0.333-2.006,0.499-4.514,0.582-6.52c0.083-2.006,0.082-3.511,0.082-3.511l-2.677-4.68
					c0,0-0.663,10.699-2.002,8.025c-1.339-2.674-1.677-9.695-1.677-9.695s-1.667,8.359-3.341,5.351
					c-1.673-3.008-1.676-7.689-1.676-7.689l-3.341,5.351l-1.34-5.349l-2.673,3.345l-0.329-4.244l-0.344-4.449l-2.676-2.005
					c0,0-1.667,9.697-3.005,7.023c-1.339-2.674-1.008-10.364-1.008-10.364l-4.011,2.677c0,0,5.01-9.699,0.664-8.025
					C593.485,230.991,603.593,227.235,603.593,227.235z"/>
				<path style="fill:#92E3A9;" d="M593.929,221.606c0,0-6.727-8.222-14.95-10.465c-8.223-2.242-32.89,8.97-32.89,8.97
					s-12.441,17.916-10.077,16.025c2.364-1.891,10.402-8.984,10.402-8.984s-1.419,7.565,0,5.201
					c1.419-2.364,5.201-6.147,5.201-6.147s-2.364,8.511,0,5.201c1.182-1.655,2.837-3.546,4.196-5.024
					c1.359-1.478,2.423-2.542,2.423-2.542l5.201-1.419c0,0-7.092,8.038-4.255,7.093c2.837-0.946,8.038-5.674,8.038-5.674
					s-4.728,7.092-1.419,6.147c3.31-0.946,6.62-4.255,6.62-4.255l-1.419,6.147l4.728-2.837l-0.473,4.255l3.232-2.77l3.388-2.904
					l3.31,0.473c0,0-5.674,8.038-2.837,7.092c2.837-0.946,8.038-6.62,8.038-6.62l0.946,4.728c0,0,3.31-10.402,5.201-6.147
					C598.426,231.407,593.929,221.606,593.929,221.606z"/>
				<path style="fill:#92E3A9;" d="M589.95,229.599c0,0-10.571-1.063-17.973,3.162c-7.402,4.225-16.93,29.591-16.93,29.591
					s3.86,21.468,4.196,18.459c0.336-3.009,1.01-13.707,1.01-13.707s4.343,6.355,3.676,3.68c-0.667-2.675-0.664-8.025-0.664-8.025
					s4.342,7.692,3.676,3.68c-0.333-2.006-0.499-4.514-0.582-6.52c-0.083-2.006-0.082-3.511-0.082-3.511l2.677-4.679
					c0,0,0.663,10.699,2.002,8.025c1.339-2.674,1.677-9.695,1.677-9.695s1.667,8.359,3.341,5.351
					c1.673-3.008,1.676-7.689,1.676-7.689l3.341,5.351l1.34-5.349l2.673,3.345l0.329-4.244l0.345-4.448l2.676-2.005
					c0,0,1.667,9.697,3.005,7.023c1.339-2.674,1.009-10.364,1.009-10.364l4.011,2.677c0,0-5.01-9.699-0.664-8.025
					C600.058,233.355,589.95,229.599,589.95,229.599z"/>
			</g>
		</g>
		<g>
			<path style="fill:#92E3A9;" d="M349.273,348.371c0,0-9.098-16.03-19.128-18.391c-10.03-2.361-10.939,3.878-20.081,2.708
				c-9.142-1.17-12.564-11.307-26.493-9.336c-13.929,1.971-16.701,12.023-18.153,15.814c-1.451,3.791-8.102,2.903-15.987,2.08
				c-7.885-0.823-8.838,4.592-10.311,7.972c-1.473,3.379-5.286,1.516-11.914,1.04c-6.629-0.476-11.719,4.744-12.326,8.903
				c-0.607,4.159-0.607,4.159-0.607,4.159l60.935-10.637l-12.001,7.235c0,0,24.651-2.123,34.118-2.622
				c9.466-0.498,29.287-0.304,29.287-0.304l-10.181-5.242L349.273,348.371z"/>
			<line style="fill:none;stroke:#263238;stroke-miterlimit:10;" x1="322.542" y1="350.191" x2="327.698" y2="338.364"/>
			<line style="fill:none;stroke:#263238;stroke-miterlimit:10;" x1="324.752" y1="345.122" x2="322.434" y2="340.292"/>
			<line style="fill:none;stroke:#263238;stroke-miterlimit:10;" x1="291.132" y1="357.21" x2="294.641" y2="345.469"/>
			<polyline style="fill:none;stroke:#263238;stroke-miterlimit:10;" points="290.114,345.708 292.107,352.206 301.075,350.083 			
				"/>
			<polyline style="fill:none;stroke:#263238;stroke-miterlimit:10;" points="260.892,347.246 269.427,352.575 273.152,337.108 			
				"/>
			<line style="fill:none;stroke:#263238;stroke-miterlimit:10;" x1="266.209" y1="350.409" x2="267.573" y2="345.465"/>
			<line style="fill:none;stroke:#263238;stroke-miterlimit:10;" x1="231.175" y1="359.764" x2="225.23" y2="354.799"/>
			<line style="fill:none;stroke:#263238;stroke-miterlimit:10;" x1="229.662" y1="358.017" x2="220.499" y2="357.484"/>
			<line style="fill:none;stroke:#263238;stroke-miterlimit:10;" x1="252.102" y1="356.227" x2="247.563" y2="347.127"/>
			<polyline style="fill:none;stroke:#263238;stroke-miterlimit:10;" points="243.823,349.354 249.854,352.082 254.062,347.191 			
				"/>
			<line style="fill:none;stroke:#263238;stroke-miterlimit:10;" x1="271.536" y1="343.632" x2="281.861" y2="339.231"/>
			<line style="fill:none;stroke:#263238;stroke-miterlimit:10;" x1="323.693" y1="347.179" x2="333.858" y2="343.599"/>
		</g>
	</g>
</g>
<g id="Sea">
	<g>
		<line style="fill:none;stroke:#263238;stroke-miterlimit:10;" x1="52.075" y1="376.139" x2="722.216" y2="376.139"/>
		<g>
			<line style="fill:none;stroke:#263238;stroke-miterlimit:10;" x1="92.697" y1="392.293" x2="135.156" y2="392.293"/>
			<line style="fill:none;stroke:#263238;stroke-miterlimit:10;" x1="194.763" y1="395.559" x2="152.304" y2="395.559"/>
			<line style="fill:none;stroke:#263238;stroke-miterlimit:10;" x1="124.542" y1="402.908" x2="158.836" y2="402.908"/>
			<line style="fill:none;stroke:#263238;stroke-miterlimit:10;" x1="206.194" y1="396.376" x2="221.708" y2="396.376"/>
		</g>
		<g>
			<line style="fill:none;stroke:#263238;stroke-miterlimit:10;" x1="242.938" y1="392.293" x2="285.398" y2="392.293"/>
			<line style="fill:none;stroke:#263238;stroke-miterlimit:10;" x1="345.004" y1="395.559" x2="302.545" y2="395.559"/>
			<line style="fill:none;stroke:#263238;stroke-miterlimit:10;" x1="274.783" y1="402.908" x2="309.077" y2="402.908"/>
			<line style="fill:none;stroke:#263238;stroke-miterlimit:10;" x1="356.436" y1="396.376" x2="371.95" y2="396.376"/>
		</g>
		<g>
			<line style="fill:none;stroke:#263238;stroke-miterlimit:10;" x1="393.179" y1="392.293" x2="435.639" y2="392.293"/>
			<line style="fill:none;stroke:#263238;stroke-miterlimit:10;" x1="495.245" y1="395.559" x2="452.786" y2="395.559"/>
			<line style="fill:none;stroke:#263238;stroke-miterlimit:10;" x1="425.024" y1="402.908" x2="459.318" y2="402.908"/>
			<line style="fill:none;stroke:#263238;stroke-miterlimit:10;" x1="506.677" y1="396.376" x2="522.191" y2="396.376"/>
		</g>
		<g>
			<line style="fill:none;stroke:#263238;stroke-miterlimit:10;" x1="543.421" y1="392.293" x2="585.88" y2="392.293"/>
			<line style="fill:none;stroke:#263238;stroke-miterlimit:10;" x1="645.487" y1="395.559" x2="603.027" y2="395.559"/>
			<line style="fill:none;stroke:#263238;stroke-miterlimit:10;" x1="575.265" y1="402.908" x2="609.559" y2="402.908"/>
			<line style="fill:none;stroke:#263238;stroke-miterlimit:10;" x1="656.918" y1="396.376" x2="672.432" y2="396.376"/>
		</g>
		<g>
			<line style="fill:none;stroke:#263238;stroke-miterlimit:10;" x1="621.807" y1="429.573" x2="586.763" y2="429.573"/>
			<line style="fill:none;stroke:#263238;stroke-miterlimit:10;" x1="537.567" y1="424.47" x2="572.611" y2="424.47"/>
			<line style="fill:none;stroke:#263238;stroke-miterlimit:10;" x1="595.524" y1="412.987" x2="567.219" y2="412.987"/>
			<line style="fill:none;stroke:#263238;stroke-miterlimit:10;" x1="528.132" y1="423.194" x2="515.327" y2="423.194"/>
		</g>
		<g>
			<line style="fill:none;stroke:#263238;stroke-miterlimit:10;" x1="497.805" y1="429.573" x2="462.761" y2="429.573"/>
			<line style="fill:none;stroke:#263238;stroke-miterlimit:10;" x1="413.565" y1="424.47" x2="448.609" y2="424.47"/>
			<line style="fill:none;stroke:#263238;stroke-miterlimit:10;" x1="471.522" y1="412.987" x2="443.218" y2="412.987"/>
			<line style="fill:none;stroke:#263238;stroke-miterlimit:10;" x1="404.13" y1="423.194" x2="391.326" y2="423.194"/>
		</g>
		<g>
			<line style="fill:none;stroke:#263238;stroke-miterlimit:10;" x1="373.804" y1="429.573" x2="338.76" y2="429.573"/>
			<line style="fill:none;stroke:#263238;stroke-miterlimit:10;" x1="289.563" y1="424.47" x2="324.607" y2="424.47"/>
			<line style="fill:none;stroke:#263238;stroke-miterlimit:10;" x1="347.521" y1="412.987" x2="319.216" y2="412.987"/>
			<line style="fill:none;stroke:#263238;stroke-miterlimit:10;" x1="280.128" y1="423.194" x2="267.324" y2="423.194"/>
		</g>
		<g>
			<line style="fill:none;stroke:#263238;stroke-miterlimit:10;" x1="249.802" y1="429.573" x2="214.758" y2="429.573"/>
			<line style="fill:none;stroke:#263238;stroke-miterlimit:10;" x1="165.561" y1="424.47" x2="200.605" y2="424.47"/>
			<line style="fill:none;stroke:#263238;stroke-miterlimit:10;" x1="223.519" y1="412.987" x2="195.214" y2="412.987"/>
			<line style="fill:none;stroke:#263238;stroke-miterlimit:10;" x1="156.126" y1="423.194" x2="143.322" y2="423.194"/>
		</g>
		<g>
			<line style="fill:none;stroke:#263238;stroke-miterlimit:10;" x1="705.91" y1="461.067" x2="658.547" y2="461.067"/>
			<line style="fill:none;stroke:#263238;stroke-miterlimit:10;" x1="592.056" y1="454.169" x2="639.419" y2="454.169"/>
			<line style="fill:none;stroke:#263238;stroke-miterlimit:10;" x1="670.387" y1="438.65" x2="632.132" y2="438.65"/>
			<line style="fill:none;stroke:#263238;stroke-miterlimit:10;" x1="579.304" y1="452.445" x2="561.998" y2="452.445"/>
		</g>
		<g>
			<line style="fill:none;stroke:#263238;stroke-miterlimit:10;" x1="538.317" y1="461.067" x2="490.953" y2="461.067"/>
			<line style="fill:none;stroke:#263238;stroke-miterlimit:10;" x1="424.463" y1="454.169" x2="471.826" y2="454.169"/>
			<line style="fill:none;stroke:#263238;stroke-miterlimit:10;" x1="502.794" y1="438.65" x2="464.539" y2="438.65"/>
			<line style="fill:none;stroke:#263238;stroke-miterlimit:10;" x1="411.711" y1="452.445" x2="394.405" y2="452.445"/>
		</g>
		<g>
			<line style="fill:none;stroke:#263238;stroke-miterlimit:10;" x1="370.724" y1="461.067" x2="323.361" y2="461.067"/>
			<line style="fill:none;stroke:#263238;stroke-miterlimit:10;" x1="256.87" y1="454.169" x2="304.233" y2="454.169"/>
			<line style="fill:none;stroke:#263238;stroke-miterlimit:10;" x1="335.201" y1="438.65" x2="296.946" y2="438.65"/>
			<line style="fill:none;stroke:#263238;stroke-miterlimit:10;" x1="244.118" y1="452.445" x2="226.812" y2="452.445"/>
		</g>
		<g>
			<line style="fill:none;stroke:#263238;stroke-miterlimit:10;" x1="203.131" y1="461.067" x2="155.768" y2="461.067"/>
			<line style="fill:none;stroke:#263238;stroke-miterlimit:10;" x1="89.277" y1="454.169" x2="136.64" y2="454.169"/>
			<line style="fill:none;stroke:#263238;stroke-miterlimit:10;" x1="167.608" y1="438.65" x2="129.353" y2="438.65"/>
			<line style="fill:none;stroke:#263238;stroke-miterlimit:10;" x1="76.525" y1="452.445" x2="59.219" y2="452.445"/>
		</g>
	</g>
</g>
</svg>
