<?xml version="1.0" encoding="utf-8"?>
<!-- Generator: Adobe Illustrator 27.5.0, SVG Export Plug-In . SVG Version: 6.00 Build 0)  -->
<svg version="1.1" xmlns="http://www.w3.org/2000/svg" xmlns:xlink="http://www.w3.org/1999/xlink" x="0px" y="0px"
	 viewBox="0 0 500 500" style="enable-background:new 0 0 500 500;" xml:space="preserve">
<g id="Background_Simple">
	<g>
		<path style="fill:#92E3A9;" d="M478.802,267.656c17.746-113.515-76.951-227.932-201.29-242.142
			c-1.547-0.177-3.097-0.343-4.648-0.497c-86.88-8.629-166.294,57.735-189.001,108.352c-22.707,50.617-82.132,98.77-60.106,192.588
			c22.026,93.818,81.864,143.806,222.157,158.601c140.294,14.794,166.179-25.33,203.422-112.984
			C462.242,341.2,472.974,304.934,478.802,267.656z"/>
		<path style="opacity:0.7;fill:#FFFFFF;" d="M478.802,267.656c17.746-113.515-76.951-227.932-201.29-242.142
			c-1.547-0.177-3.097-0.343-4.648-0.497c-86.88-8.629-166.294,57.735-189.001,108.352c-22.707,50.617-82.132,98.77-60.106,192.588
			c22.026,93.818,81.864,143.806,222.157,158.601c140.294,14.794,166.179-25.33,203.422-112.984
			C462.242,341.2,472.974,304.934,478.802,267.656z"/>
	</g>
</g>
<g id="Clock">
	<g>
		
			<ellipse transform="matrix(0.2244 -0.9745 0.9745 0.2244 236.472 475.6336)" style="fill:none;stroke:#263238;stroke-linecap:round;stroke-linejoin:round;stroke-miterlimit:10;" cx="417.053" cy="89.253" rx="55.166" ry="55.166"/>
		
			<ellipse transform="matrix(0.2014 -0.9795 0.9795 0.2014 245.6247 479.7806)" style="fill:none;stroke:#263238;stroke-linecap:round;stroke-linejoin:round;stroke-miterlimit:10;" cx="417.053" cy="89.253" rx="49.777" ry="49.777"/>
		
			<line style="fill:none;stroke:#263238;stroke-linecap:round;stroke-linejoin:round;stroke-miterlimit:10;" x1="418.52" y1="92.51" x2="431.354" y2="120.989"/>
		
			<line style="fill:none;stroke:#263238;stroke-linecap:round;stroke-linejoin:round;stroke-miterlimit:10;" x1="397.391" y1="101.243" x2="414.034" y2="91.389"/>
		<path style="fill:none;stroke:#263238;stroke-linecap:round;stroke-linejoin:round;stroke-miterlimit:10;" d="M420.317,89.253
			c0,1.803-1.461,3.264-3.264,3.264c-1.803,0-3.264-1.461-3.264-3.264c0-1.803,1.461-3.264,3.264-3.264
			C418.855,85.989,420.317,87.451,420.317,89.253z"/>
	</g>
</g>
<g id="Plant">
	<g>
		<g>
			<rect x="77.191" y="86.008" style="fill:#263238;" width="3.54" height="197.343"/>
			<rect x="88.119" y="67.089" style="fill:#263238;" width="3.54" height="216.262"/>
			<rect x="99.047" y="67.089" style="fill:#263238;" width="3.54" height="216.262"/>
			<g>
				<path style="fill:#92E3A9;" d="M77.025,85.757c0,0-2.277-5.008-10.473-5.464c-8.196-0.456-14.571,4.553-14.571,4.553
					s7.285-0.455,10.473,0.911c3.187,1.366,7.285,4.098,7.285,4.098s-2.732,2.276-4.553,6.83
					c-1.821,4.553-4.553,13.205-4.553,13.205s8.651-6.375,10.928-10.473c2.277-4.098,5.464-6.375,5.464-6.375
					s1.366,5.009,0.455,8.651c-0.911,3.643-1.366,9.107-1.366,9.107s9.106-3.187,7.285-14.57
					C81.578,84.847,77.025,85.757,77.025,85.757z"/>
				<path style="fill:#92E3A9;" d="M92.506,117.631c0,0-2.277-5.009-10.473-5.464c-8.196-0.455-14.571,4.554-14.571,4.554
					s7.285-0.455,10.473,0.911c3.187,1.366,7.285,4.098,7.285,4.098s-2.732,2.277-4.553,6.83
					c-1.821,4.553-4.553,13.204-4.553,13.204s8.651-6.374,10.928-10.473c2.277-4.098,5.464-6.375,5.464-6.375
					s1.366,5.009,0.455,8.651c-0.911,3.643-1.366,9.107-1.366,9.107s9.107-3.187,7.285-14.571
					C97.06,116.72,92.506,117.631,92.506,117.631z"/>
				<path style="fill:#92E3A9;" d="M73.838,132.201c0,0-2.277-5.009-10.473-5.464c-8.196-0.455-14.571,4.553-14.571,4.553
					s7.285-0.455,10.473,0.911c3.187,1.366,7.285,4.098,7.285,4.098s-2.732,2.277-4.553,6.83
					c-1.821,4.553-4.553,13.204-4.553,13.204s8.651-6.375,10.928-10.473c2.277-4.098,5.464-6.375,5.464-6.375
					s1.366,5.009,0.455,8.651c-0.911,3.643-1.366,9.107-1.366,9.107s9.107-3.187,7.285-14.571
					C78.391,131.29,73.838,132.201,73.838,132.201z"/>
				<path style="fill:#92E3A9;" d="M103.402,188.616c0,0-4.52-0.821-8.733,4.586c-4.213,5.407-3.81,12.165-3.81,12.165
					s3.155-5.216,5.608-6.753c2.454-1.537,6.279-3.049,6.279-3.049s0.262,2.958,2.52,6.374c2.257,3.416,6.893,9.408,6.893,9.408
					s-0.257-8.969-1.986-12.482c-1.728-3.512-1.774-6.783-1.774-6.783s4.087,1.446,6.153,3.805c2.066,2.358,5.598,5.271,5.598,5.271
					s2.146-7.765-6.531-11.932C104.943,185.059,103.402,188.616,103.402,188.616z"/>
				<path style="fill:#92E3A9;" d="M104.862,182.492c0,0-1.444,4.361,3.321,9.287c4.766,4.926,11.513,5.471,11.513,5.471
					s-4.724-3.852-5.903-6.496c-1.179-2.645-2.142-6.643-2.142-6.643s2.965,0.154,6.664-1.605
					c3.698-1.758,10.278-5.512,10.278-5.512s-8.918-0.998-12.637,0.223c-3.719,1.221-6.964,0.809-6.964,0.809
					s2.003-3.845,4.626-5.561c2.624-1.716,6.001-4.807,6.001-4.807s-7.389-3.21-12.728,4.8
					C101.554,180.468,104.862,182.492,104.862,182.492z"/>
				<path style="fill:#92E3A9;" d="M59.329,196.152c0,0-1.444,4.361,3.321,9.288c4.766,4.926,11.513,5.471,11.513,5.471
					s-4.724-3.852-5.903-6.497c-1.179-2.645-2.142-6.643-2.142-6.643s2.966,0.153,6.664-1.605
					c3.698-1.758,10.278-5.512,10.278-5.512s-8.918-0.998-12.637,0.223c-3.719,1.221-6.964,0.809-6.964,0.809
					s2.003-3.845,4.626-5.561c2.624-1.716,6.001-4.808,6.001-4.808s-7.389-3.21-12.728,4.8
					C56.021,194.128,59.329,196.152,59.329,196.152z"/>
				<path style="fill:#92E3A9;" d="M99.543,213.236c0,0-1.444,4.361,3.321,9.287c4.766,4.926,11.513,5.471,11.513,5.471
					s-4.724-3.852-5.903-6.496c-1.179-2.645-2.142-6.643-2.142-6.643s2.966,0.154,6.664-1.605
					c3.698-1.758,10.278-5.512,10.278-5.512s-8.917-0.998-12.637,0.223c-3.719,1.221-6.964,0.809-6.964,0.809
					s2.003-3.845,4.626-5.561c2.624-1.717,6.001-4.807,6.001-4.807s-7.389-3.21-12.728,4.8
					C96.235,211.212,99.543,213.236,99.543,213.236z"/>
				<path style="fill:#92E3A9;" d="M100.247,136.754c0,0-2.277-5.009-10.472-5.464c-8.196-0.455-14.571,4.553-14.571,4.553
					s7.285-0.455,10.473,0.911c3.187,1.366,7.285,4.098,7.285,4.098s-2.732,2.277-4.553,6.83
					c-1.821,4.553-4.553,13.204-4.553,13.204s8.651-6.375,10.928-10.473c2.277-4.098,5.464-6.375,5.464-6.375
					s1.366,5.009,0.455,8.651c-0.911,3.643-1.366,9.107-1.366,9.107s9.107-3.187,7.285-14.571
					C104.8,135.844,100.247,136.754,100.247,136.754z"/>
				<path style="fill:#92E3A9;" d="M83.659,85.261c0,0-3.534,4.216-0.405,11.805c3.129,7.589,10.4,11.175,10.4,11.175
					s-3.557-6.374-3.702-9.839c-0.145-3.465,0.55-8.341,0.55-8.341s3.233,1.481,8.127,1.157c4.893-0.324,13.876-1.596,13.876-1.596
					s-9.486-5.05-14.165-5.333c-4.679-0.283-8.109-2.175-8.109-2.175s3.927-3.395,7.606-4.147c3.679-0.752,8.803-2.701,8.803-2.701
					s-6.808-6.837-16.288-0.278C80.871,81.548,83.659,85.261,83.659,85.261z"/>
				<path style="fill:#92E3A9;" d="M95.953,117.59c0,0-3.534,4.216-0.405,11.805c3.129,7.589,10.4,11.175,10.4,11.175
					s-3.557-6.374-3.702-9.839c-0.145-3.465,0.55-8.341,0.55-8.341s3.233,1.481,8.127,1.157c4.893-0.324,13.876-1.596,13.876-1.596
					s-9.486-5.05-14.165-5.333c-4.679-0.284-8.109-2.175-8.109-2.175s3.927-3.395,7.606-4.147c3.679-0.752,8.803-2.701,8.803-2.701
					s-6.808-6.837-16.288-0.278S95.953,117.59,95.953,117.59z"/>
				<path style="fill:#92E3A9;" d="M103.491,133.529c0,0-3.534,4.216-0.405,11.805c3.129,7.589,10.4,11.175,10.4,11.175
					s-3.557-6.374-3.702-9.839c-0.145-3.465,0.549-8.34,0.549-8.34s3.233,1.481,8.127,1.157c4.893-0.324,13.876-1.596,13.876-1.596
					s-9.486-5.05-14.165-5.333c-4.679-0.283-8.109-2.175-8.109-2.175s3.927-3.395,7.606-4.147c3.679-0.752,8.804-2.701,8.804-2.701
					s-6.808-6.837-16.288-0.278C100.703,129.815,103.491,133.529,103.491,133.529z"/>
				<path style="fill:#92E3A9;" d="M85.621,78.925c0,0,4.932-2.439,5.12-10.645c0.188-8.206-5.025-14.415-5.025-14.415
					s0.692,7.267-0.569,10.497c-1.262,3.23-3.859,7.415-3.859,7.415s-2.364-2.657-6.975-4.329
					c-4.61-1.672-13.346-4.121-13.346-4.121s6.653,8.439,10.823,10.581c4.17,2.142,6.549,5.253,6.549,5.253
					s-4.962,1.528-8.632,0.737c-3.67-0.791-9.146-1.069-9.146-1.069s3.482,8.998,14.8,6.807
					C86.68,83.446,85.621,78.925,85.621,78.925z"/>
				<path style="fill:#92E3A9;" d="M54.066,200.545c0,0-5.083-2.106-11.383,3.156c-6.3,5.262-7.539,13.274-7.539,13.274
					s5.013-5.306,8.274-6.484c3.261-1.178,8.121-1.979,8.121-1.979s-0.442,3.529,1.335,8.099c1.777,4.571,5.687,12.757,5.687,12.757
					s1.97-10.564,0.836-15.113c-1.134-4.549-0.359-8.388-0.359-8.388s4.417,2.727,6.238,6.011c1.821,3.283,5.219,7.587,5.219,7.587
					s4.479-8.546-4.623-15.62C56.771,196.772,54.066,200.545,54.066,200.545z"/>
				<path style="fill:#92E3A9;" d="M103.214,171.222c0,0,4.932-2.438,5.12-10.645c0.188-8.206-5.025-14.415-5.025-14.415
					s0.692,7.267-0.569,10.497c-1.261,3.23-3.859,7.415-3.859,7.415s-2.364-2.656-6.975-4.329
					c-4.61-1.672-13.346-4.121-13.346-4.121s6.653,8.439,10.823,10.581s6.549,5.253,6.549,5.253s-4.962,1.528-8.632,0.737
					c-3.67-0.792-9.146-1.069-9.146-1.069s3.482,8.998,14.8,6.807C104.272,175.743,103.214,171.222,103.214,171.222z"/>
				<path style="fill:#92E3A9;" d="M58.353,197.076c0,0,4.932-2.438,5.12-10.645c0.188-8.206-5.025-14.415-5.025-14.415
					s0.693,7.267-0.569,10.497c-1.262,3.23-3.859,7.415-3.859,7.415s-2.364-2.657-6.974-4.329
					c-4.61-1.672-13.346-4.121-13.346-4.121s6.653,8.439,10.823,10.581c4.17,2.142,6.549,5.253,6.549,5.253
					s-4.962,1.528-8.632,0.737c-3.67-0.792-9.146-1.069-9.146-1.069s3.482,8.998,14.8,6.807
					C59.411,201.597,58.353,197.076,58.353,197.076z"/>
				<path style="fill:#92E3A9;" d="M82.095,233.489c0,0-1.444,4.361,3.321,9.287c4.766,4.926,11.513,5.471,11.513,5.471
					s-4.724-3.852-5.903-6.497c-1.179-2.645-2.142-6.643-2.142-6.643s2.966,0.154,6.664-1.605
					c3.698-1.758,10.279-5.512,10.279-5.512s-8.918-0.998-12.637,0.223s-6.964,0.809-6.964,0.809s2.003-3.845,4.627-5.561
					c2.624-1.716,6.001-4.808,6.001-4.808s-7.389-3.21-12.728,4.801C78.788,231.465,82.095,233.489,82.095,233.489z"/>
				<path style="fill:#92E3A9;" d="M76.832,237.883c0,0-5.083-2.106-11.383,3.156c-6.3,5.262-7.539,13.274-7.539,13.274
					s5.013-5.306,8.274-6.484c3.262-1.178,8.121-1.979,8.121-1.979s-0.442,3.529,1.335,8.099c1.778,4.571,5.687,12.757,5.687,12.757
					s1.97-10.564,0.836-15.113c-1.134-4.549-0.359-8.388-0.359-8.388s4.417,2.727,6.238,6.011c1.821,3.284,5.218,7.587,5.218,7.587
					s4.479-8.546-4.623-15.621C79.538,234.109,76.832,237.883,76.832,237.883z"/>
				<path style="fill:#92E3A9;" d="M81.119,234.413c0,0,4.932-2.438,5.12-10.645c0.188-8.206-5.025-14.415-5.025-14.415
					s0.692,7.267-0.569,10.497c-1.261,3.23-3.859,7.415-3.859,7.415s-2.364-2.656-6.975-4.329
					c-4.61-1.672-13.346-4.121-13.346-4.121s6.653,8.439,10.823,10.581c4.17,2.142,6.549,5.254,6.549,5.254
					s-4.962,1.528-8.632,0.737c-3.67-0.792-9.146-1.069-9.146-1.069s3.482,8.998,14.8,6.807S81.119,234.413,81.119,234.413z"/>
				<path style="fill:#92E3A9;" d="M98.032,192.509c0,0-1.444,4.361,3.321,9.288c4.766,4.926,11.513,5.471,11.513,5.471
					s-4.724-3.852-5.903-6.496c-1.179-2.645-2.142-6.643-2.142-6.643s2.966,0.153,6.664-1.605
					c3.698-1.758,10.278-5.512,10.278-5.512s-8.918-0.998-12.637,0.223c-3.719,1.221-6.964,0.809-6.964,0.809
					s2.003-3.845,4.626-5.561c2.624-1.716,6.001-4.808,6.001-4.808s-7.389-3.21-12.728,4.801
					C94.724,190.485,98.032,192.509,98.032,192.509z"/>
				<path style="fill:#92E3A9;" d="M92.769,196.903c0,0-5.083-2.106-11.383,3.157c-6.3,5.262-7.539,13.274-7.539,13.274
					s5.013-5.306,8.274-6.484c3.262-1.178,8.121-1.979,8.121-1.979s-0.442,3.529,1.335,8.099c1.777,4.571,5.687,12.757,5.687,12.757
					s1.97-10.564,0.836-15.113c-1.134-4.549-0.359-8.388-0.359-8.388s4.417,2.728,6.239,6.011c1.821,3.283,5.218,7.587,5.218,7.587
					s4.479-8.546-4.623-15.621C95.474,193.129,92.769,196.903,92.769,196.903z"/>
				<path style="fill:#92E3A9;" d="M97.056,193.434c0,0,4.932-2.438,5.12-10.645c0.188-8.206-5.025-14.415-5.025-14.415
					s0.692,7.267-0.569,10.497c-1.261,3.23-3.859,7.415-3.859,7.415s-2.364-2.657-6.975-4.329
					c-4.61-1.672-13.346-4.121-13.346-4.121s6.653,8.439,10.823,10.581c4.17,2.142,6.549,5.253,6.549,5.253
					s-4.962,1.528-8.632,0.737c-3.671-0.792-9.146-1.069-9.146-1.069s3.482,8.998,14.8,6.807
					C98.114,197.955,97.056,193.434,97.056,193.434z"/>
				<path style="fill:#92E3A9;" d="M124.434,209.291c0,0,4.932-2.438,5.12-10.645c0.188-8.206-5.025-14.415-5.025-14.415
					s0.692,7.266-0.569,10.497c-1.261,3.23-3.858,7.415-3.858,7.415s-2.365-2.657-6.975-4.329
					c-4.61-1.672-13.346-4.121-13.346-4.121s6.653,8.439,10.823,10.581c4.17,2.142,6.549,5.254,6.549,5.254
					s-4.962,1.528-8.632,0.737c-3.67-0.791-9.146-1.069-9.146-1.069s3.482,8.998,14.8,6.807
					C125.493,213.812,124.434,209.291,124.434,209.291z"/>
				<path style="fill:#92E3A9;" d="M73.899,179.304c0,0-1.445,4.361,3.321,9.288c4.766,4.926,11.513,5.471,11.513,5.471
					s-4.724-3.852-5.903-6.497c-1.179-2.645-2.142-6.643-2.142-6.643s2.966,0.154,6.664-1.605
					c3.698-1.758,10.278-5.512,10.278-5.512s-8.918-0.998-12.637,0.223c-3.719,1.221-6.964,0.809-6.964,0.809
					s2.003-3.845,4.627-5.561c2.624-1.717,6.001-4.808,6.001-4.808s-7.389-3.21-12.728,4.8
					C70.592,177.281,73.899,179.304,73.899,179.304z"/>
				<path style="fill:#92E3A9;" d="M68.636,183.698c0,0-5.083-2.106-11.383,3.157c-6.3,5.262-7.539,13.274-7.539,13.274
					s5.013-5.306,8.274-6.484c3.262-1.178,8.121-1.979,8.121-1.979s-0.442,3.529,1.335,8.099c1.778,4.571,5.687,12.757,5.687,12.757
					s1.97-10.564,0.836-15.113c-1.134-4.549-0.359-8.388-0.359-8.388s4.417,2.727,6.239,6.011c1.821,3.283,5.218,7.587,5.218,7.587
					s4.479-8.546-4.623-15.62C71.342,179.924,68.636,183.698,68.636,183.698z"/>
				<path style="fill:#92E3A9;" d="M72.923,180.229c0,0,4.932-2.439,5.12-10.645c0.188-8.207-5.025-14.415-5.025-14.415
					s0.692,7.267-0.569,10.497c-1.261,3.23-3.858,7.415-3.858,7.415s-2.365-2.656-6.975-4.328
					c-4.61-1.672-13.346-4.121-13.346-4.121s6.653,8.439,10.823,10.581c4.17,2.142,6.549,5.253,6.549,5.253
					s-4.962,1.528-8.632,0.737c-3.67-0.792-9.146-1.069-9.146-1.069s3.482,8.998,14.8,6.807
					C73.982,184.75,72.923,180.229,72.923,180.229z"/>
				<g>
					<path style="fill:#92E3A9;" d="M102.268,222.238c0,0-4.52-0.821-8.733,4.586c-4.213,5.407-3.81,12.164-3.81,12.164
						s3.154-5.216,5.608-6.752c2.454-1.537,6.279-3.049,6.279-3.049s0.262,2.958,2.52,6.374c2.258,3.417,6.893,9.408,6.893,9.408
						s-0.257-8.969-1.985-12.482c-1.729-3.512-1.774-6.783-1.774-6.783s4.087,1.446,6.153,3.804
						c2.066,2.358,5.599,5.271,5.599,5.271s2.146-7.765-6.531-11.932S102.268,222.238,102.268,222.238z"/>
					<path style="fill:#92E3A9;" d="M119.018,234.78c0,0-1.445,4.361,3.321,9.288c4.766,4.926,11.513,5.471,11.513,5.471
						s-4.724-3.852-5.903-6.496c-1.179-2.645-2.142-6.643-2.142-6.643s2.966,0.154,6.664-1.605
						c3.698-1.758,10.278-5.512,10.278-5.512s-8.918-0.998-12.637,0.223c-3.719,1.221-6.964,0.809-6.964,0.809
						s2.003-3.845,4.626-5.561c2.624-1.717,6.001-4.808,6.001-4.808s-7.389-3.21-12.727,4.801
						C115.71,232.756,119.018,234.78,119.018,234.78z"/>
					<path style="fill:#92E3A9;" d="M113.755,239.173c0,0-5.083-2.106-11.383,3.157c-6.3,5.262-7.539,13.274-7.539,13.274
						s5.013-5.306,8.274-6.484c3.262-1.178,8.121-1.979,8.121-1.979s-0.442,3.529,1.335,8.099s5.687,12.757,5.687,12.757
						s1.97-10.564,0.836-15.113c-1.134-4.549-0.359-8.388-0.359-8.388s4.417,2.728,6.239,6.011c1.821,3.283,5.218,7.587,5.218,7.587
						s4.479-8.546-4.623-15.621C116.46,235.4,113.755,239.173,113.755,239.173z"/>
					<path style="fill:#92E3A9;" d="M118.042,235.704c0,0,4.932-2.438,5.12-10.645c0.188-8.206-5.025-14.415-5.025-14.415
						s0.692,7.267-0.569,10.497c-1.262,3.23-3.859,7.415-3.859,7.415s-2.364-2.656-6.975-4.329s-13.346-4.121-13.346-4.121
						s6.653,8.439,10.823,10.581c4.17,2.142,6.549,5.254,6.549,5.254s-4.962,1.528-8.632,0.737c-3.67-0.792-9.146-1.069-9.146-1.069
						s3.482,8.998,14.8,6.807C119.1,240.226,118.042,235.704,118.042,235.704z"/>
				</g>
				<g>
					<path style="fill:#92E3A9;" d="M24.439,208.441c0,0-4.52-0.821-8.733,4.585c-4.213,5.407-3.81,12.165-3.81,12.165
						s3.155-5.215,5.609-6.752c2.454-1.537,6.279-3.049,6.279-3.049s0.262,2.958,2.52,6.375c2.257,3.417,6.894,9.408,6.894,9.408
						s-0.257-8.97-1.986-12.482c-1.728-3.512-1.774-6.783-1.774-6.783s4.087,1.446,6.153,3.805c2.066,2.358,5.599,5.271,5.599,5.271
						s2.147-7.765-6.531-11.932S24.439,208.441,24.439,208.441z"/>
					<path style="fill:#92E3A9;" d="M41.189,220.983c0,0-1.445,4.361,3.321,9.288c4.766,4.927,11.513,5.471,11.513,5.471
						s-4.724-3.852-5.903-6.496c-1.179-2.645-2.142-6.643-2.142-6.643s2.965,0.154,6.664-1.605
						c3.698-1.758,10.278-5.512,10.278-5.512s-8.918-0.998-12.637,0.223c-3.719,1.221-6.964,0.809-6.964,0.809
						s2.003-3.845,4.626-5.561c2.624-1.716,6.001-4.808,6.001-4.808s-7.389-3.21-12.728,4.801
						C37.882,218.96,41.189,220.983,41.189,220.983z"/>
					<path style="fill:#92E3A9;" d="M35.926,225.377c0,0-5.083-2.106-11.383,3.156c-6.3,5.262-7.539,13.274-7.539,13.274
						s5.013-5.306,8.274-6.484c3.261-1.178,8.121-1.979,8.121-1.979s-0.442,3.529,1.335,8.099c1.778,4.57,5.687,12.757,5.687,12.757
						s1.97-10.564,0.836-15.113c-1.134-4.549-0.359-8.388-0.359-8.388s4.417,2.727,6.239,6.011c1.821,3.283,5.219,7.587,5.219,7.587
						s4.479-8.546-4.623-15.621C38.631,221.603,35.926,225.377,35.926,225.377z"/>
					<path style="fill:#92E3A9;" d="M40.213,221.908c0,0,4.932-2.439,5.12-10.645c0.188-8.206-5.025-14.415-5.025-14.415
						s0.692,7.267-0.569,10.497c-1.262,3.23-3.859,7.415-3.859,7.415s-2.364-2.657-6.974-4.329
						c-4.61-1.672-13.346-4.121-13.346-4.121s6.653,8.439,10.823,10.581c4.17,2.142,6.549,5.254,6.549,5.254
						s-4.962,1.528-8.632,0.737c-3.67-0.792-9.146-1.069-9.146-1.069s3.482,8.998,14.8,6.807
						C41.271,226.429,40.213,221.908,40.213,221.908z"/>
				</g>
				<g>
					<path style="fill:#92E3A9;" d="M52.685,210.401c0,0-4.52-0.821-8.733,4.586c-4.213,5.407-3.81,12.165-3.81,12.165
						s3.155-5.215,5.608-6.753c2.454-1.537,6.279-3.049,6.279-3.049s0.262,2.958,2.52,6.374c2.257,3.417,6.893,9.408,6.893,9.408
						s-0.257-8.97-1.985-12.482c-1.728-3.512-1.774-6.783-1.774-6.783s4.087,1.446,6.153,3.805c2.066,2.358,5.598,5.271,5.598,5.271
						s2.147-7.765-6.531-11.933C54.227,206.844,52.685,210.401,52.685,210.401z"/>
					<path style="fill:#92E3A9;" d="M69.435,222.944c0,0-1.444,4.361,3.321,9.288c4.766,4.926,11.513,5.471,11.513,5.471
						s-4.724-3.852-5.903-6.496c-1.179-2.645-2.142-6.643-2.142-6.643s2.965,0.154,6.664-1.605
						c3.698-1.758,10.278-5.512,10.278-5.512s-8.918-0.998-12.637,0.223c-3.719,1.221-6.964,0.809-6.964,0.809
						s2.003-3.845,4.627-5.561c2.624-1.716,6.001-4.807,6.001-4.807s-7.389-3.21-12.728,4.801
						C66.127,220.92,69.435,222.944,69.435,222.944z"/>
					<path style="fill:#92E3A9;" d="M64.172,227.337c0,0-5.083-2.106-11.383,3.157c-6.3,5.262-7.539,13.274-7.539,13.274
						s5.013-5.306,8.274-6.484c3.262-1.178,8.121-1.979,8.121-1.979s-0.442,3.529,1.335,8.099
						c1.778,4.571,5.687,12.758,5.687,12.758s1.97-10.564,0.836-15.113c-1.134-4.549-0.359-8.388-0.359-8.388
						s4.417,2.728,6.239,6.011c1.821,3.284,5.219,7.587,5.219,7.587s4.479-8.546-4.623-15.621
						C66.877,223.564,64.172,227.337,64.172,227.337z"/>
					<path style="fill:#92E3A9;" d="M68.459,223.868c0,0,4.932-2.438,5.12-10.645c0.188-8.206-5.025-14.415-5.025-14.415
						s0.692,7.267-0.569,10.497c-1.261,3.23-3.859,7.415-3.859,7.415s-2.364-2.656-6.975-4.328
						c-4.61-1.672-13.346-4.121-13.346-4.121s6.653,8.439,10.823,10.581c4.17,2.142,6.549,5.254,6.549,5.254
						s-4.962,1.528-8.632,0.737c-3.67-0.792-9.146-1.069-9.146-1.069s3.482,8.998,14.8,6.807
						C69.517,228.389,68.459,223.868,68.459,223.868z"/>
				</g>
				<g>
					<path style="fill:#92E3A9;" d="M86.205,244.542c0,0-4.52-0.821-8.733,4.586c-4.213,5.407-3.81,12.164-3.81,12.164
						s3.155-5.216,5.609-6.752c2.454-1.537,6.279-3.049,6.279-3.049s0.262,2.958,2.52,6.374c2.257,3.417,6.894,9.408,6.894,9.408
						s-0.257-8.97-1.985-12.482c-1.729-3.512-1.774-6.783-1.774-6.783s4.087,1.446,6.153,3.805c2.066,2.358,5.599,5.271,5.599,5.271
						s2.146-7.765-6.531-11.933C87.747,240.985,86.205,244.542,86.205,244.542z"/>
					<path style="fill:#92E3A9;" d="M102.955,257.085c0,0-1.445,4.361,3.321,9.288c4.766,4.926,11.513,5.471,11.513,5.471
						s-4.724-3.852-5.903-6.496c-1.179-2.645-2.142-6.643-2.142-6.643s2.966,0.153,6.664-1.605
						c3.698-1.758,10.279-5.512,10.279-5.512s-8.918-0.998-12.637,0.223c-3.719,1.221-6.964,0.809-6.964,0.809
						s2.003-3.845,4.626-5.561c2.624-1.717,6.001-4.808,6.001-4.808s-7.389-3.21-12.728,4.8
						C99.647,255.061,102.955,257.085,102.955,257.085z"/>
					<path style="fill:#92E3A9;" d="M96.979,255.062c0,0-5.083-2.106-11.383,3.157c-6.3,5.262-7.539,13.274-7.539,13.274
						s5.013-5.306,8.274-6.484c3.262-1.178,8.121-1.979,8.121-1.979s-0.442,3.529,1.335,8.099
						c1.777,4.571,5.687,12.757,5.687,12.757s1.97-10.564,0.836-15.113c-1.134-4.549-0.359-8.388-0.359-8.388
						s4.417,2.727,6.239,6.011s5.219,7.587,5.219,7.587s4.479-8.546-4.623-15.621C99.684,251.289,96.979,255.062,96.979,255.062z"/>
					<path style="fill:#92E3A9;" d="M101.979,258.009c0,0,4.932-2.438,5.12-10.645c0.188-8.207-5.025-14.415-5.025-14.415
						s0.692,7.267-0.569,10.497c-1.262,3.23-3.859,7.415-3.859,7.415s-2.364-2.656-6.974-4.329
						c-4.61-1.672-13.346-4.121-13.346-4.121s6.653,8.439,10.823,10.581c4.17,2.142,6.549,5.253,6.549,5.253
						s-4.962,1.528-8.632,0.737c-3.67-0.792-9.146-1.069-9.146-1.069s3.523,9.198,14.8,6.807
						C105.89,261.716,102.583,257.837,101.979,258.009z"/>
				</g>
				<path style="fill:#92E3A9;" d="M69.516,254.997c0,0-1.016,3.068,2.336,6.533c3.352,3.465,8.098,3.848,8.098,3.848
					s-3.323-2.709-4.152-4.569c-0.829-1.86-1.507-4.673-1.507-4.673s2.086,0.108,4.687-1.129c2.601-1.237,7.23-3.877,7.23-3.877
					s-6.273-0.702-8.888,0.157c-2.616,0.859-4.898,0.569-4.898,0.569s1.409-2.704,3.254-3.912c1.846-1.207,4.221-3.382,4.221-3.382
					s-5.198-2.258-8.952,3.376C67.189,253.573,69.516,254.997,69.516,254.997z"/>
				<path style="fill:#92E3A9;" d="M65.814,258.087c0,0-3.575-1.481-8.007,2.22c-4.431,3.701-5.303,9.337-5.303,9.337
					s3.526-3.732,5.82-4.561c2.294-0.828,5.712-1.392,5.712-1.392s-0.311,2.482,0.939,5.697c1.25,3.215,4,8.973,4,8.973
					s1.386-7.431,0.588-10.63c-0.797-3.199-0.252-5.9-0.252-5.9s3.107,1.918,4.388,4.228c1.281,2.31,3.671,5.337,3.671,5.337
					s3.15-6.011-3.252-10.987C67.717,255.433,65.814,258.087,65.814,258.087z"/>
				<path style="fill:#92E3A9;" d="M68.829,255.647c0,0,3.469-1.715,3.601-7.488c0.133-5.772-3.535-10.139-3.535-10.139
					s0.487,5.111-0.401,7.383c-0.887,2.272-2.714,5.216-2.714,5.216s-1.663-1.869-4.906-3.045c-3.243-1.176-9.387-2.899-9.387-2.899
					s4.68,5.936,7.612,7.443c2.933,1.507,4.607,3.695,4.607,3.695s-3.49,1.075-6.072,0.518c-2.582-0.557-6.433-0.752-6.433-0.752
					s2.449,6.329,10.41,4.788C69.574,258.827,68.829,255.647,68.829,255.647z"/>
				<path style="fill:#92E3A9;" d="M99.567,62.796c0,0-1.016,3.067,2.336,6.533c3.352,3.465,8.098,3.848,8.098,3.848
					s-3.323-2.709-4.152-4.569c-0.83-1.86-1.507-4.673-1.507-4.673s2.086,0.108,4.687-1.129c2.601-1.237,7.23-3.877,7.23-3.877
					s-6.273-0.702-8.889,0.157c-2.616,0.859-4.898,0.569-4.898,0.569s1.409-2.704,3.254-3.912c1.845-1.207,4.221-3.382,4.221-3.382
					s-5.198-2.258-8.952,3.376S99.567,62.796,99.567,62.796z"/>
				<path style="fill:#92E3A9;" d="M95.865,65.886c0,0-3.575-1.481-8.006,2.22c-4.431,3.701-5.303,9.337-5.303,9.337
					s3.526-3.732,5.82-4.561c2.294-0.828,5.712-1.392,5.712-1.392s-0.311,2.482,0.939,5.697c1.25,3.215,4,8.973,4,8.973
					s1.386-7.431,0.588-10.63c-0.797-3.199-0.252-5.9-0.252-5.9s3.107,1.918,4.388,4.228c1.281,2.31,3.671,5.337,3.671,5.337
					s3.15-6.011-3.252-10.987C97.769,63.232,95.865,65.886,95.865,65.886z"/>
				<path style="fill:#92E3A9;" d="M98.881,63.446c0,0,3.469-1.715,3.601-7.488c0.132-5.772-3.535-10.139-3.535-10.139
					s0.487,5.111-0.4,7.383c-0.887,2.272-2.714,5.216-2.714,5.216s-1.663-1.869-4.906-3.045c-3.243-1.176-9.387-2.899-9.387-2.899
					s4.68,5.936,7.613,7.443c2.933,1.507,4.606,3.695,4.606,3.695s-3.49,1.075-6.072,0.518c-2.582-0.557-6.433-0.752-6.433-0.752
					s2.449,6.329,10.41,4.788C99.625,66.626,98.881,63.446,98.881,63.446z"/>
				<path style="fill:#92E3A9;" d="M124.775,144.337c0,0-1.016,3.067,2.336,6.533c3.352,3.465,8.098,3.848,8.098,3.848
					s-3.323-2.709-4.152-4.569c-0.829-1.86-1.507-4.673-1.507-4.673s2.086,0.108,4.687-1.129c2.601-1.237,7.23-3.877,7.23-3.877
					s-6.273-0.702-8.889,0.157c-2.616,0.859-4.898,0.569-4.898,0.569s1.409-2.704,3.254-3.911c1.845-1.207,4.221-3.382,4.221-3.382
					s-5.198-2.258-8.953,3.377C122.449,142.913,124.775,144.337,124.775,144.337z"/>
				<path style="fill:#92E3A9;" d="M121.073,147.428c0,0-3.575-1.481-8.007,2.22c-4.431,3.702-5.303,9.337-5.303,9.337
					s3.526-3.732,5.82-4.561c2.294-0.828,5.712-1.392,5.712-1.392s-0.311,2.482,0.939,5.697c1.25,3.215,4,8.973,4,8.973
					s1.386-7.431,0.588-10.63c-0.798-3.199-0.253-5.9-0.253-5.9s3.107,1.918,4.388,4.228c1.281,2.309,3.671,5.337,3.671,5.337
					s3.15-6.011-3.252-10.987C122.976,144.773,121.073,147.428,121.073,147.428z"/>
				<path style="fill:#92E3A9;" d="M124.089,144.987c0,0,3.469-1.715,3.601-7.488c0.132-5.772-3.535-10.139-3.535-10.139
					s0.487,5.111-0.4,7.383c-0.887,2.272-2.714,5.216-2.714,5.216s-1.663-1.869-4.906-3.045c-3.243-1.176-9.387-2.899-9.387-2.899
					s4.68,5.936,7.613,7.443s4.607,3.695,4.607,3.695s-3.49,1.075-6.072,0.518c-2.582-0.557-6.433-0.752-6.433-0.752
					s2.449,6.329,10.41,4.788C124.833,148.167,124.089,144.987,124.089,144.987z"/>
			</g>
		</g>
		<g>
			<rect x="77.191" y="254.698" style="fill:#263238;" width="3.54" height="197.343"/>
			<rect x="88.119" y="235.779" style="fill:#263238;" width="3.54" height="216.262"/>
			<rect x="99.047" y="235.779" style="fill:#263238;" width="3.54" height="216.262"/>
			<g>
				<path style="fill:#92E3A9;" d="M77.025,254.447c0,0-2.277-5.009-10.473-5.464c-8.196-0.456-14.571,4.553-14.571,4.553
					s7.285-0.455,10.473,0.911c3.187,1.366,7.285,4.098,7.285,4.098s-2.732,2.277-4.553,6.83
					c-1.821,4.553-4.553,13.205-4.553,13.205s8.651-6.375,10.928-10.473c2.277-4.098,5.464-6.375,5.464-6.375
					s1.366,5.009,0.455,8.651c-0.911,3.643-1.366,9.107-1.366,9.107s9.106-3.187,7.285-14.57
					C81.578,253.537,77.025,254.447,77.025,254.447z"/>
				<path style="fill:#92E3A9;" d="M92.506,286.32c0,0-2.277-5.009-10.473-5.464c-8.196-0.455-14.571,4.553-14.571,4.553
					s7.285-0.455,10.473,0.911c3.187,1.366,7.285,4.098,7.285,4.098s-2.732,2.277-4.553,6.83
					c-1.821,4.553-4.553,13.204-4.553,13.204s8.651-6.375,10.928-10.473c2.277-4.098,5.464-6.375,5.464-6.375
					s1.366,5.009,0.455,8.651c-0.911,3.643-1.366,9.107-1.366,9.107s9.107-3.187,7.285-14.571
					C97.06,285.41,92.506,286.32,92.506,286.32z"/>
				<path style="fill:#92E3A9;" d="M73.838,300.891c0,0-2.277-5.009-10.473-5.464c-8.196-0.455-14.571,4.553-14.571,4.553
					s7.285-0.455,10.473,0.911c3.187,1.366,7.285,4.098,7.285,4.098s-2.732,2.277-4.553,6.83
					c-1.821,4.553-4.553,13.204-4.553,13.204s8.651-6.375,10.928-10.473c2.277-4.098,5.464-6.375,5.464-6.375
					s1.366,5.009,0.455,8.651c-0.911,3.643-1.366,9.107-1.366,9.107s9.107-3.187,7.285-14.571
					C78.391,299.98,73.838,300.891,73.838,300.891z"/>
				<path style="fill:#92E3A9;" d="M103.402,357.306c0,0-4.52-0.821-8.733,4.586c-4.213,5.407-3.81,12.165-3.81,12.165
					s3.155-5.216,5.608-6.753c2.454-1.537,6.279-3.049,6.279-3.049s0.262,2.958,2.52,6.375c2.257,3.416,6.893,9.408,6.893,9.408
					s-0.257-8.97-1.986-12.482c-1.728-3.512-1.774-6.783-1.774-6.783s4.087,1.446,6.153,3.805c2.066,2.358,5.598,5.271,5.598,5.271
					s2.146-7.765-6.531-11.932C104.943,353.749,103.402,357.306,103.402,357.306z"/>
				<path style="fill:#92E3A9;" d="M104.862,351.182c0,0-1.444,4.361,3.321,9.287c4.766,4.927,11.513,5.471,11.513,5.471
					s-4.724-3.852-5.903-6.496c-1.179-2.645-2.142-6.643-2.142-6.643s2.965,0.154,6.664-1.605
					c3.698-1.758,10.278-5.512,10.278-5.512s-8.918-0.998-12.637,0.223c-3.719,1.221-6.964,0.809-6.964,0.809
					s2.003-3.845,4.626-5.561c2.624-1.716,6.001-4.807,6.001-4.807s-7.389-3.21-12.728,4.8
					C101.554,349.158,104.862,351.182,104.862,351.182z"/>
				<path style="fill:#92E3A9;" d="M59.329,364.841c0,0-1.444,4.361,3.321,9.288c4.766,4.927,11.513,5.471,11.513,5.471
					s-4.724-3.852-5.903-6.497s-2.142-6.643-2.142-6.643s2.966,0.154,6.664-1.605c3.698-1.758,10.278-5.512,10.278-5.512
					s-8.918-0.998-12.637,0.223c-3.719,1.221-6.964,0.809-6.964,0.809s2.003-3.845,4.626-5.561c2.624-1.716,6.001-4.808,6.001-4.808
					s-7.389-3.21-12.728,4.8C56.021,362.818,59.329,364.841,59.329,364.841z"/>
				<path style="fill:#92E3A9;" d="M99.543,381.926c0,0-1.444,4.361,3.321,9.288c4.766,4.926,11.513,5.471,11.513,5.471
					s-4.724-3.852-5.903-6.496c-1.179-2.645-2.142-6.643-2.142-6.643s2.966,0.154,6.664-1.605
					c3.698-1.758,10.278-5.512,10.278-5.512s-8.917-0.998-12.637,0.223c-3.719,1.221-6.964,0.809-6.964,0.809
					s2.003-3.845,4.626-5.561c2.624-1.717,6.001-4.808,6.001-4.808s-7.389-3.21-12.728,4.8
					C96.235,379.902,99.543,381.926,99.543,381.926z"/>
				<path style="fill:#92E3A9;" d="M100.247,305.444c0,0-2.277-5.009-10.472-5.464c-8.196-0.455-14.571,4.553-14.571,4.553
					s7.285-0.455,10.473,0.911c3.187,1.366,7.285,4.098,7.285,4.098s-2.732,2.277-4.553,6.83
					c-1.821,4.553-4.553,13.204-4.553,13.204s8.651-6.375,10.928-10.473c2.277-4.098,5.464-6.375,5.464-6.375
					s1.366,5.009,0.455,8.651c-0.911,3.643-1.366,9.107-1.366,9.107s9.107-3.187,7.285-14.571
					C104.8,304.534,100.247,305.444,100.247,305.444z"/>
				<path style="fill:#92E3A9;" d="M83.659,253.951c0,0-3.534,4.216-0.405,11.805c3.129,7.589,10.4,11.175,10.4,11.175
					s-3.557-6.374-3.702-9.839c-0.145-3.465,0.55-8.341,0.55-8.341s3.233,1.481,8.127,1.157c4.893-0.324,13.876-1.596,13.876-1.596
					s-9.486-5.05-14.165-5.333c-4.679-0.283-8.109-2.175-8.109-2.175s3.927-3.395,7.606-4.147c3.679-0.752,8.803-2.701,8.803-2.701
					s-6.808-6.837-16.288-0.278C80.871,250.238,83.659,253.951,83.659,253.951z"/>
				<path style="fill:#92E3A9;" d="M95.953,286.28c0,0-3.534,4.216-0.405,11.805c3.129,7.589,10.4,11.175,10.4,11.175
					s-3.557-6.374-3.702-9.839c-0.145-3.465,0.55-8.341,0.55-8.341s3.233,1.481,8.127,1.157c4.893-0.324,13.876-1.596,13.876-1.596
					s-9.486-5.05-14.165-5.333c-4.679-0.284-8.109-2.175-8.109-2.175s3.927-3.395,7.606-4.147c3.679-0.752,8.803-2.701,8.803-2.701
					s-6.808-6.837-16.288-0.278C93.165,282.566,95.953,286.28,95.953,286.28z"/>
				<path style="fill:#92E3A9;" d="M103.491,302.219c0,0-3.534,4.216-0.405,11.805c3.129,7.589,10.4,11.175,10.4,11.175
					s-3.557-6.374-3.702-9.839c-0.145-3.465,0.549-8.34,0.549-8.34s3.233,1.481,8.127,1.157c4.893-0.324,13.876-1.596,13.876-1.596
					s-9.486-5.05-14.165-5.333c-4.679-0.284-8.109-2.175-8.109-2.175s3.927-3.395,7.606-4.147c3.679-0.752,8.804-2.701,8.804-2.701
					s-6.808-6.837-16.288-0.278C100.703,298.505,103.491,302.219,103.491,302.219z"/>
				<path style="fill:#92E3A9;" d="M85.621,247.615c0,0,4.932-2.439,5.12-10.645c0.188-8.206-5.025-14.415-5.025-14.415
					s0.692,7.267-0.569,10.497c-1.262,3.23-3.859,7.415-3.859,7.415s-2.364-2.657-6.975-4.329
					c-4.61-1.672-13.346-4.121-13.346-4.121s6.653,8.439,10.823,10.581c4.17,2.142,6.549,5.253,6.549,5.253
					s-4.962,1.528-8.632,0.737c-3.67-0.792-9.146-1.069-9.146-1.069s3.482,8.998,14.8,6.807
					C86.68,252.136,85.621,247.615,85.621,247.615z"/>
				<path style="fill:#92E3A9;" d="M54.066,369.235c0,0-5.083-2.106-11.383,3.157c-6.3,5.262-7.539,13.274-7.539,13.274
					s5.013-5.306,8.274-6.484c3.261-1.178,8.121-1.979,8.121-1.979s-0.442,3.529,1.335,8.099c1.777,4.571,5.687,12.757,5.687,12.757
					s1.97-10.564,0.836-15.113c-1.134-4.549-0.359-8.388-0.359-8.388s4.417,2.727,6.238,6.011c1.821,3.283,5.219,7.587,5.219,7.587
					s4.479-8.546-4.623-15.621C56.771,365.461,54.066,369.235,54.066,369.235z"/>
				<path style="fill:#92E3A9;" d="M103.214,339.912c0,0,4.932-2.438,5.12-10.645c0.188-8.207-5.025-14.415-5.025-14.415
					s0.692,7.267-0.569,10.497c-1.261,3.23-3.859,7.415-3.859,7.415s-2.364-2.656-6.975-4.328
					c-4.61-1.672-13.346-4.121-13.346-4.121s6.653,8.439,10.823,10.581c4.17,2.142,6.549,5.253,6.549,5.253
					s-4.962,1.528-8.632,0.737c-3.67-0.792-9.146-1.069-9.146-1.069s3.482,8.998,14.8,6.807
					C104.272,344.433,103.214,339.912,103.214,339.912z"/>
				<path style="fill:#92E3A9;" d="M58.353,365.766c0,0,4.932-2.438,5.12-10.645c0.188-8.206-5.025-14.414-5.025-14.414
					s0.693,7.267-0.569,10.496c-1.262,3.23-3.859,7.415-3.859,7.415s-2.364-2.656-6.974-4.329
					c-4.61-1.672-13.346-4.121-13.346-4.121s6.653,8.439,10.823,10.581c4.17,2.142,6.549,5.254,6.549,5.254
					s-4.962,1.528-8.632,0.737c-3.67-0.792-9.146-1.069-9.146-1.069s3.482,8.998,14.8,6.807
					C59.411,370.287,58.353,365.766,58.353,365.766z"/>
				<path style="fill:#92E3A9;" d="M82.095,402.179c0,0-1.444,4.361,3.321,9.287c4.766,4.927,11.513,5.471,11.513,5.471
					s-4.724-3.852-5.903-6.496c-1.179-2.645-2.142-6.643-2.142-6.643s2.966,0.154,6.664-1.605
					c3.698-1.758,10.279-5.512,10.279-5.512s-8.918-0.998-12.637,0.223s-6.964,0.809-6.964,0.809s2.003-3.845,4.627-5.561
					c2.624-1.716,6.001-4.807,6.001-4.807s-7.389-3.21-12.728,4.801C78.788,400.155,82.095,402.179,82.095,402.179z"/>
				<path style="fill:#92E3A9;" d="M76.832,406.572c0,0-5.083-2.106-11.383,3.156c-6.3,5.262-7.539,13.274-7.539,13.274
					s5.013-5.306,8.274-6.484c3.262-1.178,8.121-1.979,8.121-1.979s-0.442,3.529,1.335,8.099c1.778,4.571,5.687,12.758,5.687,12.758
					s1.97-10.564,0.836-15.113c-1.134-4.549-0.359-8.388-0.359-8.388s4.417,2.727,6.238,6.011c1.821,3.284,5.218,7.587,5.218,7.587
					s4.479-8.546-4.623-15.62C79.538,402.798,76.832,406.572,76.832,406.572z"/>
				<path style="fill:#92E3A9;" d="M81.119,403.103c0,0,4.932-2.438,5.12-10.645c0.188-8.206-5.025-14.415-5.025-14.415
					s0.692,7.267-0.569,10.497c-1.261,3.23-3.859,7.415-3.859,7.415s-2.364-2.656-6.975-4.329
					c-4.61-1.672-13.346-4.121-13.346-4.121s6.653,8.439,10.823,10.581c4.17,2.142,6.549,5.254,6.549,5.254
					s-4.962,1.528-8.632,0.737c-3.67-0.792-9.146-1.069-9.146-1.069s3.482,8.998,14.8,6.807S81.119,403.103,81.119,403.103z"/>
				<path style="fill:#92E3A9;" d="M98.032,361.199c0,0-1.444,4.361,3.321,9.288c4.766,4.926,11.513,5.471,11.513,5.471
					s-4.724-3.852-5.903-6.496c-1.179-2.645-2.142-6.643-2.142-6.643s2.966,0.154,6.664-1.605
					c3.698-1.758,10.278-5.512,10.278-5.512s-8.918-0.998-12.637,0.223c-3.719,1.221-6.964,0.809-6.964,0.809
					s2.003-3.845,4.626-5.561c2.624-1.716,6.001-4.808,6.001-4.808s-7.389-3.21-12.728,4.8
					C94.724,359.175,98.032,361.199,98.032,361.199z"/>
				<path style="fill:#92E3A9;" d="M92.769,365.593c0,0-5.083-2.106-11.383,3.157c-6.3,5.262-7.539,13.274-7.539,13.274
					s5.013-5.306,8.274-6.484c3.262-1.178,8.121-1.979,8.121-1.979s-0.442,3.529,1.335,8.099c1.777,4.571,5.687,12.757,5.687,12.757
					s1.97-10.564,0.836-15.113c-1.134-4.549-0.359-8.388-0.359-8.388s4.417,2.728,6.239,6.011c1.821,3.283,5.218,7.587,5.218,7.587
					s4.479-8.546-4.623-15.621C95.474,361.819,92.769,365.593,92.769,365.593z"/>
				<path style="fill:#92E3A9;" d="M97.056,362.123c0,0,4.932-2.438,5.12-10.645c0.188-8.206-5.025-14.415-5.025-14.415
					s0.692,7.267-0.569,10.497c-1.261,3.23-3.859,7.415-3.859,7.415s-2.364-2.656-6.975-4.328
					c-4.61-1.672-13.346-4.121-13.346-4.121s6.653,8.439,10.823,10.581c4.17,2.142,6.549,5.254,6.549,5.254
					s-4.962,1.528-8.632,0.737c-3.671-0.792-9.146-1.069-9.146-1.069s3.482,8.998,14.8,6.807
					C98.114,366.645,97.056,362.123,97.056,362.123z"/>
				<path style="fill:#92E3A9;" d="M124.434,377.981c0,0,4.932-2.439,5.12-10.645c0.188-8.206-5.025-14.414-5.025-14.414
					s0.692,7.267-0.569,10.497c-1.261,3.23-3.858,7.415-3.858,7.415s-2.365-2.657-6.975-4.329
					c-4.61-1.672-13.346-4.121-13.346-4.121s6.653,8.439,10.823,10.581c4.17,2.142,6.549,5.254,6.549,5.254
					s-4.962,1.528-8.632,0.737c-3.67-0.792-9.146-1.069-9.146-1.069s3.482,8.998,14.8,6.807
					C125.493,382.502,124.434,377.981,124.434,377.981z"/>
				<path style="fill:#92E3A9;" d="M73.899,347.994c0,0-1.445,4.361,3.321,9.288c4.766,4.926,11.513,5.471,11.513,5.471
					s-4.724-3.852-5.903-6.496c-1.179-2.645-2.142-6.643-2.142-6.643s2.966,0.154,6.664-1.605
					c3.698-1.758,10.278-5.512,10.278-5.512s-8.918-0.998-12.637,0.223c-3.719,1.221-6.964,0.809-6.964,0.809
					s2.003-3.845,4.627-5.561c2.624-1.717,6.001-4.808,6.001-4.808s-7.389-3.21-12.728,4.8
					C70.592,345.971,73.899,347.994,73.899,347.994z"/>
				<path style="fill:#92E3A9;" d="M68.636,352.388c0,0-5.083-2.106-11.383,3.156c-6.3,5.262-7.539,13.274-7.539,13.274
					s5.013-5.306,8.274-6.484c3.262-1.178,8.121-1.979,8.121-1.979s-0.442,3.529,1.335,8.099c1.778,4.571,5.687,12.757,5.687,12.757
					s1.97-10.564,0.836-15.113c-1.134-4.549-0.359-8.388-0.359-8.388s4.417,2.727,6.239,6.011c1.821,3.284,5.218,7.587,5.218,7.587
					s4.479-8.546-4.623-15.62C71.342,348.614,68.636,352.388,68.636,352.388z"/>
				<path style="fill:#92E3A9;" d="M72.923,348.919c0,0,4.932-2.439,5.12-10.645c0.188-8.206-5.025-14.415-5.025-14.415
					s0.692,7.267-0.569,10.497c-1.261,3.23-3.858,7.415-3.858,7.415s-2.365-2.656-6.975-4.328
					c-4.61-1.672-13.346-4.121-13.346-4.121s6.653,8.439,10.823,10.581c4.17,2.142,6.549,5.254,6.549,5.254
					s-4.962,1.528-8.632,0.737c-3.67-0.792-9.146-1.069-9.146-1.069s3.482,8.998,14.8,6.807
					C73.982,353.44,72.923,348.919,72.923,348.919z"/>
				<g>
					<path style="fill:#92E3A9;" d="M102.268,390.927c0,0-4.52-0.821-8.733,4.586c-4.213,5.407-3.81,12.164-3.81,12.164
						s3.154-5.215,5.608-6.752c2.454-1.537,6.279-3.049,6.279-3.049s0.262,2.958,2.52,6.374c2.258,3.416,6.893,9.408,6.893,9.408
						s-0.257-8.97-1.985-12.482c-1.729-3.512-1.774-6.783-1.774-6.783s4.087,1.446,6.153,3.804c2.066,2.358,5.599,5.271,5.599,5.271
						s2.146-7.765-6.531-11.932C103.81,387.37,102.268,390.927,102.268,390.927z"/>
					<path style="fill:#92E3A9;" d="M119.018,403.47c0,0-1.445,4.361,3.321,9.288c4.766,4.926,11.513,5.471,11.513,5.471
						s-4.724-3.852-5.903-6.496s-2.142-6.643-2.142-6.643s2.966,0.154,6.664-1.605c3.698-1.758,10.278-5.512,10.278-5.512
						s-8.918-0.998-12.637,0.223c-3.719,1.221-6.964,0.809-6.964,0.809s2.003-3.845,4.626-5.561
						c2.624-1.717,6.001-4.808,6.001-4.808s-7.389-3.21-12.727,4.801C115.71,401.446,119.018,403.47,119.018,403.47z"/>
					<path style="fill:#92E3A9;" d="M113.755,407.863c0,0-5.083-2.106-11.383,3.157c-6.3,5.262-7.539,13.274-7.539,13.274
						s5.013-5.306,8.274-6.484c3.262-1.178,8.121-1.979,8.121-1.979s-0.442,3.529,1.335,8.099
						c1.777,4.571,5.687,12.758,5.687,12.758s1.97-10.564,0.836-15.113c-1.134-4.549-0.359-8.388-0.359-8.388
						s4.417,2.728,6.239,6.011c1.821,3.284,5.218,7.587,5.218,7.587s4.479-8.546-4.623-15.621
						C116.46,404.09,113.755,407.863,113.755,407.863z"/>
					<path style="fill:#92E3A9;" d="M118.042,404.394c0,0,4.932-2.438,5.12-10.645c0.188-8.206-5.025-14.415-5.025-14.415
						s0.692,7.267-0.569,10.497c-1.262,3.23-3.859,7.415-3.859,7.415s-2.364-2.656-6.975-4.328
						c-4.61-1.672-13.346-4.121-13.346-4.121s6.653,8.439,10.823,10.581c4.17,2.142,6.549,5.253,6.549,5.253
						s-4.962,1.528-8.632,0.737c-3.67-0.792-9.146-1.069-9.146-1.069s3.482,8.998,14.8,6.807
						C119.1,408.915,118.042,404.394,118.042,404.394z"/>
				</g>
				<g>
					<path style="fill:#92E3A9;" d="M24.439,377.131c0,0-4.52-0.821-8.733,4.586c-4.213,5.407-3.81,12.165-3.81,12.165
						s3.155-5.216,5.609-6.753c2.454-1.537,6.279-3.049,6.279-3.049s0.262,2.958,2.52,6.375c2.257,3.417,6.894,9.408,6.894,9.408
						s-0.257-8.97-1.986-12.482c-1.728-3.512-1.774-6.783-1.774-6.783s4.087,1.446,6.153,3.805c2.066,2.358,5.599,5.271,5.599,5.271
						s2.147-7.765-6.531-11.932S24.439,377.131,24.439,377.131z"/>
					<path style="fill:#92E3A9;" d="M41.189,389.673c0,0-1.445,4.361,3.321,9.288c4.766,4.927,11.513,5.471,11.513,5.471
						s-4.724-3.852-5.903-6.496c-1.179-2.645-2.142-6.643-2.142-6.643s2.965,0.154,6.664-1.605
						c3.698-1.758,10.278-5.512,10.278-5.512s-8.918-0.998-12.637,0.223c-3.719,1.221-6.964,0.809-6.964,0.809
						s2.003-3.845,4.626-5.561c2.624-1.716,6.001-4.808,6.001-4.808s-7.389-3.21-12.728,4.801
						C37.882,387.649,41.189,389.673,41.189,389.673z"/>
					<path style="fill:#92E3A9;" d="M35.926,394.067c0,0-5.083-2.106-11.383,3.156c-6.3,5.262-7.539,13.274-7.539,13.274
						s5.013-5.306,8.274-6.484c3.261-1.177,8.121-1.979,8.121-1.979s-0.442,3.529,1.335,8.099c1.778,4.57,5.687,12.758,5.687,12.758
						s1.97-10.564,0.836-15.113c-1.134-4.549-0.359-8.388-0.359-8.388s4.417,2.727,6.239,6.011c1.821,3.284,5.219,7.587,5.219,7.587
						s4.479-8.546-4.623-15.621C38.631,390.293,35.926,394.067,35.926,394.067z"/>
					<path style="fill:#92E3A9;" d="M40.213,390.598c0,0,4.932-2.439,5.12-10.645c0.188-8.206-5.025-14.415-5.025-14.415
						s0.692,7.267-0.569,10.497c-1.262,3.23-3.859,7.415-3.859,7.415s-2.364-2.657-6.974-4.328C24.295,377.449,15.56,375,15.56,375
						s6.653,8.439,10.823,10.581c4.17,2.142,6.549,5.254,6.549,5.254s-4.962,1.528-8.632,0.737c-3.67-0.792-9.146-1.069-9.146-1.069
						s3.482,8.998,14.8,6.807C41.271,395.119,40.213,390.598,40.213,390.598z"/>
				</g>
				<g>
					<path style="fill:#92E3A9;" d="M52.685,379.091c0,0-4.52-0.821-8.733,4.586c-4.213,5.407-3.81,12.165-3.81,12.165
						s3.155-5.216,5.608-6.753c2.454-1.537,6.279-3.049,6.279-3.049s0.262,2.958,2.52,6.375c2.257,3.417,6.893,9.408,6.893,9.408
						s-0.257-8.97-1.985-12.482c-1.728-3.512-1.774-6.783-1.774-6.783s4.087,1.446,6.153,3.805c2.066,2.358,5.598,5.271,5.598,5.271
						s2.147-7.765-6.531-11.933C54.227,375.534,52.685,379.091,52.685,379.091z"/>
					<path style="fill:#92E3A9;" d="M69.435,391.634c0,0-1.444,4.361,3.321,9.288c4.766,4.926,11.513,5.471,11.513,5.471
						s-4.724-3.852-5.903-6.496c-1.179-2.645-2.142-6.643-2.142-6.643s2.965,0.154,6.664-1.605
						c3.698-1.758,10.278-5.512,10.278-5.512s-8.918-0.998-12.637,0.223c-3.719,1.221-6.964,0.809-6.964,0.809
						s2.003-3.845,4.627-5.561c2.624-1.716,6.001-4.807,6.001-4.807s-7.389-3.21-12.728,4.8
						C66.127,389.61,69.435,391.634,69.435,391.634z"/>
					<path style="fill:#92E3A9;" d="M64.172,396.027c0,0-5.083-2.106-11.383,3.157c-6.3,5.262-7.539,13.274-7.539,13.274
						s5.013-5.306,8.274-6.484c3.262-1.178,8.121-1.979,8.121-1.979s-0.442,3.529,1.335,8.099c1.778,4.57,5.687,12.757,5.687,12.757
						s1.97-10.564,0.836-15.113c-1.134-4.549-0.359-8.388-0.359-8.388s4.417,2.728,6.239,6.011c1.821,3.283,5.219,7.587,5.219,7.587
						s4.479-8.546-4.623-15.621C66.877,392.253,64.172,396.027,64.172,396.027z"/>
					<path style="fill:#92E3A9;" d="M68.459,392.558c0,0,4.932-2.438,5.12-10.645c0.188-8.206-5.025-14.414-5.025-14.414
						s0.692,7.267-0.569,10.497c-1.261,3.23-3.859,7.415-3.859,7.415s-2.364-2.656-6.975-4.328
						c-4.61-1.672-13.346-4.121-13.346-4.121s6.653,8.439,10.823,10.581c4.17,2.142,6.549,5.254,6.549,5.254
						s-4.962,1.528-8.632,0.737c-3.67-0.792-9.146-1.069-9.146-1.069s3.482,8.998,14.8,6.807
						C69.517,397.079,68.459,392.558,68.459,392.558z"/>
				</g>
				<g>
					<path style="fill:#92E3A9;" d="M86.205,413.232c0,0-4.52-0.821-8.733,4.586c-4.213,5.407-3.81,12.165-3.81,12.165
						s3.155-5.216,5.609-6.752c2.454-1.537,6.279-3.049,6.279-3.049s0.262,2.958,2.52,6.375c2.257,3.416,6.894,9.408,6.894,9.408
						s-0.257-8.97-1.985-12.482c-1.729-3.512-1.774-6.783-1.774-6.783s4.087,1.446,6.153,3.805c2.066,2.358,5.599,5.271,5.599,5.271
						s2.146-7.765-6.531-11.933C87.747,409.674,86.205,413.232,86.205,413.232z"/>
					<path style="fill:#92E3A9;" d="M102.955,425.774c0,0-1.445,4.361,3.321,9.287c4.766,4.926,11.513,5.471,11.513,5.471
						s-4.724-3.852-5.903-6.496c-1.179-2.645-2.142-6.643-2.142-6.643s2.966,0.154,6.664-1.605
						c3.698-1.758,10.279-5.512,10.279-5.512s-8.918-0.998-12.637,0.223c-3.719,1.221-6.964,0.809-6.964,0.809
						s2.003-3.845,4.626-5.561c2.624-1.717,6.001-4.808,6.001-4.808s-7.389-3.21-12.728,4.8
						C99.647,423.751,102.955,425.774,102.955,425.774z"/>
					<path style="fill:#92E3A9;" d="M96.979,423.752c0,0-5.083-2.106-11.383,3.157c-6.3,5.262-7.539,13.274-7.539,13.274
						s5.013-5.306,8.274-6.484c3.262-1.178,8.121-1.979,8.121-1.979s-0.442,3.529,1.335,8.099
						c1.777,4.571,5.687,12.757,5.687,12.757s1.97-10.564,0.836-15.113c-1.134-4.549-0.359-8.388-0.359-8.388
						s4.417,2.727,6.239,6.011c1.821,3.283,5.219,7.587,5.219,7.587s4.479-8.546-4.623-15.62
						C99.684,419.978,96.979,423.752,96.979,423.752z"/>
					<path style="fill:#92E3A9;" d="M101.979,426.699c0,0,4.932-2.438,5.12-10.645c0.188-8.207-5.025-14.415-5.025-14.415
						s0.692,7.267-0.569,10.497c-1.262,3.23-3.859,7.415-3.859,7.415s-2.364-2.656-6.974-4.329
						c-4.61-1.672-13.346-4.121-13.346-4.121s6.653,8.439,10.823,10.581c4.17,2.142,6.549,5.254,6.549,5.254
						s-4.962,1.528-8.632,0.737c-3.67-0.792-9.146-1.069-9.146-1.069s3.523,9.198,14.8,6.807
						C105.89,430.406,102.583,426.526,101.979,426.699z"/>
				</g>
				<path style="fill:#92E3A9;" d="M69.516,423.687c0,0-1.016,3.067,2.336,6.533c3.352,3.465,8.098,3.848,8.098,3.848
					s-3.323-2.709-4.152-4.569c-0.829-1.86-1.507-4.673-1.507-4.673s2.086,0.108,4.687-1.129c2.601-1.237,7.23-3.877,7.23-3.877
					s-6.273-0.702-8.888,0.157c-2.616,0.859-4.898,0.569-4.898,0.569s1.409-2.704,3.254-3.912c1.846-1.207,4.221-3.382,4.221-3.382
					s-5.198-2.258-8.952,3.376C67.189,422.263,69.516,423.687,69.516,423.687z"/>
				<path style="fill:#92E3A9;" d="M65.814,426.777c0,0-3.575-1.481-8.007,2.22c-4.431,3.701-5.303,9.337-5.303,9.337
					s3.526-3.732,5.82-4.561c2.294-0.828,5.712-1.392,5.712-1.392s-0.311,2.482,0.939,5.697c1.25,3.215,4,8.973,4,8.973
					s1.386-7.431,0.588-10.63c-0.797-3.199-0.252-5.9-0.252-5.9s3.107,1.918,4.388,4.228c1.281,2.309,3.671,5.336,3.671,5.336
					s3.15-6.011-3.252-10.987C67.717,424.123,65.814,426.777,65.814,426.777z"/>
				<path style="fill:#92E3A9;" d="M68.829,424.337c0,0,3.469-1.715,3.601-7.488c0.133-5.772-3.535-10.139-3.535-10.139
					s0.487,5.111-0.401,7.383c-0.887,2.272-2.714,5.216-2.714,5.216s-1.663-1.869-4.906-3.045c-3.243-1.176-9.387-2.899-9.387-2.899
					s4.68,5.936,7.612,7.443c2.933,1.507,4.607,3.695,4.607,3.695s-3.49,1.075-6.072,0.518c-2.582-0.557-6.433-0.752-6.433-0.752
					s2.449,6.329,10.41,4.788C69.574,427.517,68.829,424.337,68.829,424.337z"/>
				<path style="fill:#92E3A9;" d="M99.567,231.486c0,0-1.016,3.067,2.336,6.533c3.352,3.465,8.098,3.848,8.098,3.848
					s-3.323-2.709-4.152-4.569c-0.83-1.86-1.507-4.673-1.507-4.673s2.086,0.108,4.687-1.129c2.601-1.237,7.23-3.877,7.23-3.877
					s-6.273-0.702-8.889,0.157c-2.616,0.859-4.898,0.569-4.898,0.569s1.409-2.704,3.254-3.912c1.845-1.207,4.221-3.382,4.221-3.382
					s-5.198-2.258-8.952,3.376S99.567,231.486,99.567,231.486z"/>
				<path style="fill:#92E3A9;" d="M95.865,234.576c0,0-3.575-1.481-8.006,2.22c-4.431,3.701-5.303,9.337-5.303,9.337
					s3.526-3.732,5.82-4.561c2.294-0.828,5.712-1.392,5.712-1.392s-0.311,2.482,0.939,5.697c1.25,3.215,4,8.973,4,8.973
					s1.386-7.431,0.588-10.63c-0.797-3.199-0.252-5.9-0.252-5.9s3.107,1.918,4.388,4.228c1.281,2.31,3.671,5.337,3.671,5.337
					s3.15-6.011-3.252-10.987C97.769,231.922,95.865,234.576,95.865,234.576z"/>
				<path style="fill:#92E3A9;" d="M98.881,232.136c0,0,3.469-1.715,3.601-7.487c0.132-5.772-3.535-10.139-3.535-10.139
					s0.487,5.111-0.4,7.383c-0.887,2.272-2.714,5.216-2.714,5.216s-1.663-1.869-4.906-3.045c-3.243-1.176-9.387-2.899-9.387-2.899
					s4.68,5.936,7.613,7.443c2.933,1.507,4.606,3.695,4.606,3.695s-3.49,1.075-6.072,0.518c-2.582-0.557-6.433-0.752-6.433-0.752
					s2.449,6.329,10.41,4.788C99.625,235.316,98.881,232.136,98.881,232.136z"/>
				<path style="fill:#92E3A9;" d="M124.775,313.027c0,0-1.016,3.067,2.336,6.533c3.352,3.465,8.098,3.848,8.098,3.848
					s-3.323-2.709-4.152-4.569c-0.829-1.86-1.507-4.672-1.507-4.672s2.086,0.108,4.687-1.129c2.601-1.237,7.23-3.877,7.23-3.877
					s-6.273-0.702-8.889,0.157c-2.616,0.859-4.898,0.569-4.898,0.569s1.409-2.704,3.254-3.911c1.845-1.207,4.221-3.382,4.221-3.382
					s-5.198-2.258-8.953,3.377C122.449,311.603,124.775,313.027,124.775,313.027z"/>
				<path style="fill:#92E3A9;" d="M121.073,316.117c0,0-3.575-1.481-8.007,2.22c-4.431,3.702-5.303,9.337-5.303,9.337
					s3.526-3.732,5.82-4.561c2.294-0.828,5.712-1.392,5.712-1.392s-0.311,2.482,0.939,5.697c1.25,3.215,4,8.974,4,8.974
					s1.386-7.431,0.588-10.63c-0.798-3.199-0.253-5.9-0.253-5.9s3.107,1.918,4.388,4.228c1.281,2.31,3.671,5.337,3.671,5.337
					s3.15-6.011-3.252-10.987C122.976,313.463,121.073,316.117,121.073,316.117z"/>
				<path style="fill:#92E3A9;" d="M124.089,313.677c0,0,3.469-1.715,3.601-7.488c0.132-5.772-3.535-10.139-3.535-10.139
					s0.487,5.111-0.4,7.383c-0.887,2.272-2.714,5.216-2.714,5.216s-1.663-1.869-4.906-3.045c-3.243-1.176-9.387-2.899-9.387-2.899
					s4.68,5.936,7.613,7.443c2.933,1.507,4.607,3.695,4.607,3.695s-3.49,1.075-6.072,0.518c-2.582-0.557-6.433-0.752-6.433-0.752
					s2.449,6.329,10.41,4.788C124.833,316.857,124.089,313.677,124.089,313.677z"/>
			</g>
		</g>
	</g>
</g>
<g id="Device">
	<g>
		<g>
			<g>
				<polygon style="fill:#BABABA;stroke:#263238;stroke-miterlimit:10;" points="173.665,449.27 114.614,449.27 123.472,416.673 
					164.808,416.673 				"/>
				<polygon style="fill:#263238;stroke:#263238;stroke-linecap:round;stroke-linejoin:round;stroke-miterlimit:10;" points="
					169.653,434.504 164.808,416.673 123.472,416.673 118.626,434.504 				"/>
				<rect x="99.26" y="449.27" style="fill:#BABABA;stroke:#263238;stroke-miterlimit:10;" width="89.758" height="3.307"/>
			</g>
			<rect x="26.142" y="258.03" style="fill:#BABABA;stroke:#263238;stroke-miterlimit:10;" width="235.996" height="162.065"/>
			<polygon style="fill:#F7F7F7;stroke:#263238;stroke-miterlimit:10;" points="94.127,413.917 34.324,413.917 34.324,264.208 
				253.956,264.208 253.956,413.917 100.121,413.917 			"/>
			<polygon style="fill:#F7F7F7;stroke:#263238;stroke-miterlimit:10;" points="94.127,413.917 34.324,413.917 34.324,406.06 
				253.956,406.06 253.956,413.917 100.121,413.917 			"/>
		</g>
		<g>
			<polygon style="fill:#F7F7F7;stroke:#263238;stroke-miterlimit:10;" points="50.153,280.851 50.153,278.928 42.394,278.928 
				42.394,280.851 42.394,292.271 59.115,292.271 59.115,280.851 			"/>
			<rect x="42.394" y="282.969" style="fill:#F7F7F7;stroke:#263238;stroke-miterlimit:10;" width="16.722" height="9.73"/>
		</g>
		<g>
			<polygon style="fill:#F7F7F7;stroke:#263238;stroke-miterlimit:10;" points="50.153,301.316 50.153,299.392 42.394,299.392 
				42.394,301.316 42.394,312.735 59.115,312.735 59.115,301.316 			"/>
			<rect x="42.394" y="303.433" style="fill:#F7F7F7;stroke:#263238;stroke-miterlimit:10;" width="16.722" height="9.73"/>
		</g>
		<g>
			<polygon style="fill:#F7F7F7;stroke:#263238;stroke-miterlimit:10;" points="82.321,301.316 82.321,299.392 74.561,299.392 
				74.561,301.316 74.561,312.735 91.283,312.735 91.283,301.316 			"/>
			<rect x="74.561" y="303.433" style="fill:#F7F7F7;stroke:#263238;stroke-miterlimit:10;" width="16.722" height="9.73"/>
		</g>
		<g>
			<polygon style="fill:#F7F7F7;stroke:#263238;stroke-miterlimit:10;" points="50.153,321.78 50.153,319.857 42.394,319.857 
				42.394,321.78 42.394,333.2 59.115,333.2 59.115,321.78 			"/>
			<rect x="42.394" y="323.898" style="fill:#F7F7F7;stroke:#263238;stroke-miterlimit:10;" width="16.722" height="9.73"/>
		</g>
		<g>
			<polygon style="fill:#F7F7F7;stroke:#263238;stroke-miterlimit:10;" points="50.153,342.245 50.153,340.321 42.394,340.321 
				42.394,342.245 42.394,353.664 59.115,353.664 59.115,342.245 			"/>
			<rect x="42.394" y="344.362" style="fill:#F7F7F7;stroke:#263238;stroke-miterlimit:10;" width="16.722" height="9.73"/>
		</g>
		<g>
			<polygon style="fill:#F7F7F7;stroke:#263238;stroke-miterlimit:10;" points="82.321,342.245 82.321,340.321 74.561,340.321 
				74.561,342.245 74.561,353.664 91.283,353.664 91.283,342.245 			"/>
			<rect x="74.561" y="344.362" style="fill:#F7F7F7;stroke:#263238;stroke-miterlimit:10;" width="16.722" height="9.73"/>
		</g>
	</g>
</g>
<g id="Character">
	<g>
		<g>
			<g>
				<polygon style="fill:#FFFFFF;stroke:#263238;stroke-miterlimit:10;" points="273.753,328.737 303.202,410.118 282.62,430.701 
					277.236,428.168 254.12,334.436 				"/>
				<g>
					<path style="fill:#FFFFFF;stroke:#263238;stroke-miterlimit:10;" d="M249.328,273.647c0,0,4.707,5.013,6.116,8.216
						c1.409,3.203,10.634,18.577,10.634,18.577s-3.203-3.459-0.641-9.353c2.562-5.894,6.278-5.125,6.278-3.844
						c0,1.281,3.075,12.299,5.893,15.118s3.716,7.943,3.716,14.734c0,6.79-2.05,13.068-3.075,14.862
						c-1.025,1.794-7.175,3.587-10.121,2.434c-2.947-1.153-6.662,3.587-11.275,4.484c-4.612,0.897-11.659-6.79-14.862-8.712
						c-3.203-1.922-7.303-4.74-7.303-4.74s-1.537-4.1-0.512-5.637c1.025-1.538,1.922-4.484,1.922-4.484s-8.84-14.862-8.072-16.655
						c0.769-1.794,13.324,3.844,13.324,3.844s-8.84-16.271-7.943-18.577c0.897-2.306,4.356-3.203,4.997-2.947
						c0.641,0.256,10.89,16.399,10.89,16.399s-2.562-12.428-3.459-14.862c-0.897-2.434-2.05-5.893-1.025-7.175
						C245.835,274.048,249.328,273.647,249.328,273.647z"/>
					<path style="fill:#FFFFFF;stroke:#263238;stroke-miterlimit:10;" d="M249.328,273.647c-0.146-0.888-0.981-1.49-1.868-1.343
						c-1.817,0.3-4.742,0.986-6.334,2.434c-2.422,2.202,2.532,9.047,3.685,11.609c1.153,2.562,2.947,3.203,4.484,1.153
						c1.537-2.05,1.025-5.765,0.641-9.353C249.734,276.28,249.503,274.717,249.328,273.647z"/>
					<path style="fill:#FFFFFF;stroke:#263238;stroke-miterlimit:10;" d="M236.354,277.892c0,0-5.381,2.434-5.381,4.612
						s3.075,7.303,4.484,8.84c1.409,1.537,5.509,1.281,6.15-0.384c0.641-1.665-1.025-7.815-1.922-10.506
						C238.788,277.764,238.532,276.995,236.354,277.892z"/>
					<path style="fill:#FFFFFF;stroke:#263238;stroke-miterlimit:10;" d="M226.745,294.931c0,0-2.947,5.637-1.665,7.175
						c1.281,1.537,7.943,4.74,9.481,3.844c1.537-0.897,2.306-2.947,1.153-4.484c-1.153-1.537-4.1-5.509-5.893-6.662
						C228.026,293.65,227.77,293.65,226.745,294.931z"/>
					<path style="fill:none;stroke:#263238;stroke-miterlimit:10;" d="M232.126,315.43c0,0-3.331,6.278-2.05,7.303
						c1.281,1.025,9.353,3.844,11.659,2.434c2.306-1.409,0.769-4.612-2.178-6.79C236.61,316.199,233.407,314.405,232.126,315.43z"/>
					<path style="fill:none;stroke:#263238;stroke-miterlimit:10;" d="M266.078,300.441l2.434,4.997c0,0-4.997,7.687-6.406,10.506
						s1.922,9.096,1.922,9.096"/>
					<path style="fill:none;stroke:#263238;stroke-miterlimit:10;" d="M241.863,306.334c0,0,5.893-5.509,10.506-7.815"/>
					<path style="fill:none;stroke:#263238;stroke-miterlimit:10;" d="M249.422,289.166c0,0,3.843-1.794,4.1-6.022"/>
					<path style="fill:none;stroke:#263238;stroke-miterlimit:10;" d="M238.916,295.7c0,0,5.253-0.256,5.381-3.972"/>
				</g>
			</g>
			<path style="fill:#92E3A9;stroke:#263238;stroke-miterlimit:10;" d="M246.534,205.359c2.213,5.69-2.529,15.174,4.11,23.394
				c6.639,8.219,23.394,25.607,29.716,26.239c6.323,0.632,15.174-6.007,15.174-6.007s5.374,5.058,7.903,13.278
				c2.529,8.219,2.213,12.013,0.316,23.71c-1.897,11.697-5.69,25.923-16.123,45.839c-10.432,19.916-15.49,29.716-14.542,39.2
				c0.948,9.484,9.484,33.51,9.484,33.51s-6.639,5.374-7.271,15.49s-0.632,14.226-0.632,14.226s-2.529,1.581-5.69,6.639
				c-3.161,5.058-3.161,5.058-3.161,5.058l-12.147,6.615h118.937c2.013-5.425,13.374-39.492,13.972-67.628
				c0.632-29.716,2.845-65.755-7.587-95.788c-10.432-30.032-29.084-47.104-38.884-60.381c-9.8-13.277-11.381-17.071-15.49-24.658
				c-4.11-7.587-1.897-8.852-1.897-8.852s2.845-2.845,4.426-11.697c1.581-8.852-4.11-19.916-11.381-18.968
				c-7.271,0.948-9.168,11.697-10.748,15.174c-1.581,3.478-5.69-9.8-5.69-9.8s-4.426,2.213-12.329-3.161
				c-7.903-5.374-5.69-16.439-5.69-16.439s-3.161,6.639-4.742,7.271c-1.581,0.632-0.948-8.536-0.948-8.536
				s-24.974,22.129-30.665,23.71c-5.69,1.581-1.897-17.071-1.897-17.071s-10.748,20.232-7.271,29.084
				C239.263,193.662,244.321,199.668,246.534,205.359z"/>
			<g>
				<path style="fill:#263238;stroke:#263238;stroke-miterlimit:10;" d="M224.393,118.858c0,0-15.836,14.847-13.609,19.053
					c2.227,4.206,10.393,1.732,10.393,1.732s-25.239,31.673-17.569,45.282c7.671,13.609,27.714,3.464,27.714,3.464
					s1.98,10.64,4.949,10.64c2.969,0,9.155-2.722,9.155-2.722s12.867-18.806,29.693-20.291
					c16.826-1.485,35.632,10.888,38.107,15.589c2.474,4.701,13.857,23.26,16.084,22.765s0.247-8.661,2.227-13.609
					c1.98-4.949,8.661-9.65,9.898-8.908c1.237,0.742,2.722,1.732,3.959,0c1.237-1.732,1.485-5.691,1.485-5.691
					s2.227,8.413,6.434,4.949c4.207-3.464,5.691-21.033,2.722-36.127c-2.969-15.094-24.002-35.88-27.961-35.88
					c0,0,4.207-3.217,2.475-5.691c-1.732-2.474-10.888-4.207-18.311-0.742c-7.423,3.464-10.64,5.196-10.64,5.196
					s-4.454-11.382-31.673-13.115C242.704,103.021,224.393,118.858,224.393,118.858z"/>
				<g>
					<path style="fill:#FFFFFF;stroke:#263238;stroke-miterlimit:10;" d="M340.109,228.752c-9.8-13.278-11.381-17.071-15.49-24.658
						c-4.11-7.587-1.897-8.852-1.897-8.852s2.845-2.845,4.426-11.697c1.581-8.852-4.11-19.916-11.381-18.968
						c-7.271,0.949-9.168,11.697-10.749,15.174c-1.581,3.477-5.69-9.8-5.69-9.8s-4.426,2.213-12.329-3.161
						c-7.903-5.374-5.69-16.439-5.69-16.439s-3.161,6.639-4.742,7.271c-1.581,0.632-0.948-8.536-0.948-8.536
						s-24.974,22.129-30.665,23.71c-5.69,1.581-1.897-17.071-1.897-17.071s-10.749,20.232-7.271,29.084
						c3.477,8.852,8.536,14.858,10.749,20.549c2.213,5.69-2.529,15.174,4.11,23.394c6.639,8.219,23.394,25.607,29.716,26.239
						c6.323,0.632,15.174-6.007,15.174-6.007s5.374,5.058,7.903,13.278c2.529,8.219,2.213,12.013,0.316,23.71
						c-0.903,5.567-2.247,11.718-4.52,18.771c1.05,1.703,3.392,1.654,8.629-7.074c9.484-15.807,19.284-38.568,31.929-43.942
						c7.702-3.273,14.099-3.494,17.935-3.169C351.087,241.869,344.648,234.902,340.109,228.752z"/>
					<polygon style="fill:#263238;stroke:#263238;stroke-miterlimit:10;" points="295.534,248.985 309.128,236.023 302.805,258.153 
											"/>
					<path style="fill:none;stroke:#263238;stroke-miterlimit:10;" d="M322.722,195.242c0,0-2.213,6.007-5.374,6.955
						c-3.161,0.948-4.11-1.897-4.11-1.897s2.529,7.903,0.948,12.329"/>
					<path style="fill:none;stroke:#263238;stroke-miterlimit:10;" d="M255.702,187.655c0,0,8.219,7.903,8.219,14.858"/>
					<path style="fill:none;stroke:#263238;stroke-miterlimit:10;" d="M264.124,212.001c0,0,0,2.741,1.686,4.427
						c1.686,1.686,5.27,0.422,5.27,0.422"/>
					<path style="fill:none;stroke:#263238;stroke-miterlimit:10;" d="M274.031,214.109c0,0,4.849-3.584,4.849-2.319
						c0,1.265-2.951,2.741-2.951,2.741"/>
					<path style="fill:none;stroke:#263238;stroke-miterlimit:10;" d="M277.194,225.071c0,0,3.584-12.648,9.908-10.962"/>
					<path style="fill:#263238;" d="M258.442,198.71c1.423,2.269,1.816,4.584,0.879,5.172c-0.937,0.588-2.85-0.775-4.272-3.044
						c-1.423-2.269-1.816-4.584-0.879-5.172C255.107,195.079,257.02,196.441,258.442,198.71z"/>
					<path style="fill:#263238;" d="M283.633,186.062c1.423,2.269,1.816,4.584,0.879,5.172c-0.937,0.588-2.85-0.775-4.272-3.044
						c-1.422-2.269-1.816-4.584-0.879-5.172C280.298,182.43,282.211,183.793,283.633,186.062z"/>
					<path style="fill:#263238;stroke:#263238;stroke-miterlimit:10;" d="M264.124,176.585c0,0,1.686,2.108,3.162,0.422
						c1.476-1.687,2.319-6.113,8.432-6.113s4.427-1.897,1.897-2.53c-2.53-0.632-10.962,0.422-12.648,2.951
						C263.28,173.845,264.124,176.585,264.124,176.585z"/>
					<path style="fill:#263238;stroke:#263238;stroke-miterlimit:10;" d="M255.898,190.621c0,0-4.621-2.745-7.637-1.795
						c-3.016,0.949-6.509,6.424-4.697,5.721c1.812-0.703,4.453-3.125,4.453-3.125s3.568,1.927,6.105,1.703
						C256.66,192.901,256.473,192.164,255.898,190.621z"/>
				</g>
			</g>
			<g>
				<path style="fill:#FFFFFF;stroke:#263238;stroke-miterlimit:10;" d="M379.771,320.237c-1.338,12.372-9.362,35.777-20.062,51.827
					c-10.7,16.05-24.409,40.124-33.437,38.452c-9.028-1.672-96.632-65.536-96.632-65.536s-49.487-40.793-50.824-41.462
					c-1.337-0.669-15.784-6.015-18.359-10.429c-2.575-4.414-5.885-11.77-5.885-11.77s-8.46,3.678-9.563,4.046
					c-1.103,0.368-8.092,9.563-11.034,10.666c-2.942,1.103-1.471-4.781-0.368-5.517c1.103-0.736,7.724-12.138,8.827-13.241
					c1.103-1.103,6.62-4.781,6.62-4.781s-8.827,0.368-12.138,1.471c-3.31,1.103-9.931,1.839-14.712,2.942
					c-4.782,1.103-1.839-5.517,1.839-6.253c3.678-0.736,16.919-5.517,16.919-5.517l13.241-1.104c0,0-17.287-4.414-19.861-4.414
					c-2.575,0-14.114,1.331-14.603-1.361c-0.489-2.691,5.627-3.67,10.521-4.649s11.255-2.447,11.255-2.447l25.446,5.383
					c0,0-15.414-8.074-19.084-10.276c-3.67-2.202-11.01-2.691-11.01-4.404c0-1.713,2.936-1.957,4.893-1.957
					s16.148,4.16,21.042,5.628c4.893,1.468,21.042,7.585,22.999,10.276c1.957,2.691,12.344,35.143,12.344,35.143
					s49.111,28.503,64.647,35.375c11.43,5.057,43.676,18.675,43.676,18.675s0-2.892,0.89-3.559c0.89-0.667,2.669-0.89,2.669-0.89
					s7.785-28.026,9.787-37.813c2.002-9.787,4.671-30.695,19.351-36.033c14.68-5.338,22.688-2.224,28.026,5.338"/>
				<path style="fill:#92E3A9;" d="M263.159,333.013c-0.392,1.287-2.241,1.865-4.129,1.29c-1.888-0.575-3.101-2.085-2.709-3.372
					c0.392-1.287,2.241-1.865,4.129-1.29C262.338,330.216,263.551,331.726,263.159,333.013z"/>
				<path style="fill:#92E3A9;" d="M232.61,319.036c-0.196,0.644-1.12,0.932-2.064,0.645c-0.944-0.287-1.551-1.042-1.355-1.686
					c0.196-0.644,1.12-0.932,2.064-0.645C232.2,317.637,232.807,318.392,232.61,319.036z"/>
				<path style="fill:#92E3A9;" d="M263.721,349.502c-0.196,0.644-1.12,0.932-2.064,0.645c-0.944-0.288-1.551-1.043-1.354-1.686
					c0.196-0.644,1.12-0.932,2.065-0.645S263.918,348.858,263.721,349.502z"/>
				<path style="fill:#92E3A9;" d="M337.293,236.762c-0.349,0.576-1.315,0.628-2.16,0.117c-0.844-0.511-1.246-1.392-0.898-1.968
					c0.348-0.576,1.315-0.628,2.16-0.117C337.239,235.306,337.641,236.187,337.293,236.762z"/>
				<g>
					<path style="fill:#92E3A9;stroke:#263238;stroke-miterlimit:10;" d="M367.19,272.049c-5.338-7.563-13.346-10.676-28.026-5.338
						c-14.68,5.338-17.349,26.247-19.351,36.034c-2.002,9.787-9.787,37.813-9.787,37.813s-1.779,0.222-2.669,0.89
						c-0.89,0.667-0.89,3.559-0.89,3.559s-3.356-1.417-8.275-3.502c1.963,4.838,4.894,15.206,1.886,29.39
						c-2.165,10.206-6.379,14.884-9.99,17.024c17.41,11.978,32.688,21.952,36.184,22.599c9.028,1.672,22.737-22.403,33.437-38.452
						c10.7-16.05,18.725-39.456,20.062-51.827"/>
					<path style="fill:none;stroke:#263238;stroke-miterlimit:10;" d="M306.467,345.006c0,0,13.618,14.065,13.922,24.372"/>
					<path style="fill:none;stroke:#263238;stroke-miterlimit:10;" d="M311.597,342.398c0,0,13.339,6.366,17.583,18.189"/>
					<path style="fill:none;stroke:#263238;stroke-miterlimit:10;" d="M322.814,357.252c0,0,3.941,9.094,1.819,19.098"/>
				</g>
			</g>
		</g>
		<g>
			<path style="fill:#263238;stroke:#263238;stroke-miterlimit:10;" d="M372.608,451.933c0,0,21.03-31.649,28.43-59.905
				c7.4-28.256,6.055-74.677,28.256-80.059c22.201-5.382,47.093,3.364,52.475,21.528c5.382,18.165-6.728,60.549-14.128,87.459
				c-7.4,26.91-9.419,31.62-9.419,31.62L372.608,451.933z"/>
			<path style="fill:#BABABA;stroke:#263238;stroke-miterlimit:10;" d="M310.215,452.52c0,0-63.24-18.837-92.841-19.51
				c-29.602-0.673-18.605,16.13-12.11,13.455c11.437-4.709,34.984,6.728,34.984,6.728L310.215,452.52z"/>
		</g>
	</g>
</g>
<g id="Mosquitos">
	<g>
		<g>
			<g>
				<g>
					<path style="fill:#263238;" d="M399.147,184.402c-0.031,0.032-1.992-1.751-3.82-2.934c-1.124-0.727-2.675-1.42-3.778-1.872
						c-1.197-0.491-2.139-0.813-2.148-0.816c-0.042-0.014-0.064-0.06-0.05-0.101c0.014-0.042,0.06-0.064,0.101-0.05
						c0.038,0.013,3.793,1.302,5.962,2.706C397.253,182.525,399.159,184.39,399.147,184.402z"/>
					<path style="fill:#263238;" d="M389.41,178.525c0.094-0.018,0.184,0.039,0.201,0.128c0.017,0.089-0.045,0.176-0.139,0.194
						c-0.094,0.018-0.184-0.039-0.201-0.128C389.254,178.63,389.316,178.543,389.41,178.525z"/>
					<path style="fill:#263238;" d="M389.964,174.279c0.035,0.021,0.054,0.062,0.046,0.104c-0.006,0.033-0.622,3.326-0.492,4.311
						c0.007,0.055-0.031,0.105-0.086,0.112c-0.055,0.007-0.105-0.031-0.112-0.086c-0.134-1.017,0.468-4.238,0.494-4.374
						c0.01-0.054,0.062-0.09,0.117-0.08C389.943,174.268,389.954,174.273,389.964,174.279z"/>
					<path style="fill:#263238;" d="M399.835,184.094c-0.031,0.032-1.993-1.751-3.82-2.934c-1.124-0.727-2.675-1.42-3.779-1.872
						c-1.197-0.491-2.139-0.813-2.148-0.816c-0.042-0.014-0.064-0.06-0.05-0.101c0.014-0.042,0.06-0.064,0.101-0.05
						c0.038,0.013,3.793,1.302,5.962,2.705C397.941,182.217,399.847,184.081,399.835,184.094z"/>
					<path style="fill:#263238;" d="M390.098,178.217c0.094-0.018,0.184,0.039,0.201,0.128c0.017,0.089-0.045,0.175-0.139,0.194
						c-0.094,0.018-0.184-0.039-0.201-0.128C389.942,178.321,390.004,178.235,390.098,178.217z"/>
					<path style="fill:#263238;" d="M390.652,173.97c0.035,0.021,0.054,0.062,0.046,0.104c-0.006,0.033-0.622,3.326-0.492,4.311
						c0.007,0.055-0.031,0.105-0.086,0.112c-0.055,0.007-0.105-0.031-0.112-0.086c-0.134-1.017,0.468-4.237,0.494-4.374
						c0.01-0.054,0.062-0.09,0.116-0.08C390.631,173.96,390.642,173.964,390.652,173.97z"/>
					<path style="fill:#263238;" d="M400.265,183.524c-0.031,0.032-1.993-1.751-3.82-2.934c-1.124-0.727-2.675-1.419-3.778-1.872
						c-1.197-0.491-2.139-0.813-2.148-0.816c-0.042-0.014-0.064-0.06-0.05-0.101c0.014-0.042,0.06-0.064,0.101-0.05
						c0.038,0.013,3.793,1.302,5.962,2.705C398.371,181.647,400.277,183.511,400.265,183.524z"/>
					<path style="fill:#263238;" d="M390.528,177.647c0.094-0.018,0.184,0.039,0.201,0.128c0.017,0.089-0.045,0.175-0.139,0.193
						c-0.094,0.018-0.184-0.039-0.201-0.128C390.372,177.751,390.434,177.665,390.528,177.647z"/>
					<path style="fill:#263238;" d="M391.082,173.4c0.034,0.021,0.054,0.062,0.046,0.104c-0.006,0.033-0.622,3.326-0.492,4.311
						c0.007,0.055-0.031,0.105-0.086,0.112c-0.055,0.007-0.105-0.031-0.112-0.086c-0.134-1.017,0.468-4.238,0.494-4.374
						c0.01-0.054,0.062-0.09,0.117-0.08C391.061,173.39,391.072,173.394,391.082,173.4z"/>
					<g>
						<path style="fill:#263238;" d="M398.095,185.467c-0.031,0.032-1.993-1.751-3.82-2.934c-1.124-0.727-2.675-1.419-3.778-1.872
							c-1.197-0.491-2.139-0.813-2.148-0.816c-0.042-0.014-0.064-0.06-0.05-0.101c0.014-0.042,0.06-0.064,0.101-0.05
							c0.038,0.013,3.794,1.302,5.962,2.705C396.201,183.59,398.107,185.455,398.095,185.467z"/>
					</g>
					<path style="fill:#263238;" d="M388.358,179.59c0.094-0.018,0.184,0.039,0.201,0.128c0.017,0.089-0.045,0.176-0.139,0.194
						s-0.184-0.039-0.201-0.128C388.201,179.695,388.264,179.608,388.358,179.59z"/>
					<g>
						<path style="fill:#263238;" d="M388.911,175.344c0.035,0.021,0.054,0.062,0.046,0.104c-0.006,0.033-0.622,3.326-0.492,4.311
							c0.007,0.055-0.031,0.105-0.086,0.112c-0.055,0.007-0.105-0.031-0.112-0.086c-0.134-1.017,0.468-4.238,0.494-4.374
							c0.01-0.054,0.062-0.09,0.117-0.08C388.89,175.333,388.901,175.338,388.911,175.344z"/>
					</g>
				</g>
				<path style="fill:#263238;" d="M391.498,174.767c0,0,0.42,0.577,2.021,1.42c1.601,0.843,4.004,0.154,4.674,0.179
					c0,0,0.211,0.063,0.257,0.013c0.046-0.051,0.115,0.146-0.198-0.243c-0.314-0.389-0.537-1.191-2.053-2.622
					c-1.516-1.431-4.814-1.882-4.814-1.882S389.234,172.315,391.498,174.767z"/>
				<path style="fill:#FFFFFF;" d="M394.874,174.893c0.236-0.703,0.215-1.464-0.056-2.272c-0.247-0.116-0.502-0.219-0.755-0.312
					c0.408,0.876,0.496,1.679,0.258,2.393c-0.204,0.613-0.618,1.069-0.998,1.379c0.064,0.035,0.129,0.07,0.196,0.105
					c0.123,0.065,0.252,0.12,0.384,0.168C394.284,176.001,394.664,175.518,394.874,174.893z"/>
				<path style="fill:#FFFFFF;" d="M392.411,175.531c0.347-0.344,0.68-0.795,0.872-1.367c0.22-0.657,0.216-1.364-0.006-2.113
					c-0.239-0.07-0.468-0.13-0.68-0.181c0.299,0.763,0.345,1.468,0.133,2.103c-0.169,0.507-0.481,0.906-0.799,1.204
					C392.056,175.28,392.214,175.398,392.411,175.531z"/>
				<path style="fill:#FFFFFF;" d="M396.57,175.496c0.158-0.47,0.2-0.966,0.13-1.485c-0.15-0.157-0.316-0.323-0.501-0.498
					c-0.091-0.086-0.188-0.168-0.29-0.246c0.277,0.739,0.314,1.422,0.109,2.039c-0.185,0.555-0.542,0.981-0.89,1.287
					c0.274,0.018,0.549,0.017,0.816,0.005C396.197,176.297,396.424,175.931,396.57,175.496z"/>
				<g>
					<path style="fill:#AEA892;" d="M397.437,174.877c-0.007,0.258-0.049,0.507-0.129,0.746c-0.117,0.352-0.304,0.653-0.514,0.904
						c0.292-0.035,0.56-0.074,0.789-0.105c0.109-0.186,0.204-0.388,0.278-0.609c0.023-0.067,0.042-0.135,0.06-0.204
						C397.803,175.408,397.653,175.166,397.437,174.877z"/>
				</g>
				<path style="fill:#FFFFFF;stroke:#263238;stroke-width:0.25;stroke-miterlimit:10;" d="M391.511,171.833
					c0,0-1.904-4.412-3.403-6.678c-1.499-2.267-1.565-2.39-1.631-2.329c-0.066,0.061-0.453,1.83,0.744,4.473
					c1.198,2.643,3.767,5.508,3.767,5.508S391.451,172.994,391.511,171.833z"/>
				<path style="fill:#FFFFFF;stroke:#263238;stroke-width:0.25;stroke-miterlimit:10;" d="M391.72,171.993
					c0,0,4.117-2.359,6.128-4.069c2.011-1.711,2.123-1.789,2.049-1.845c-0.075-0.055-1.955-0.212-4.41,1.256
					c-2.454,1.468-4.862,4.276-4.862,4.276S390.524,172.076,391.72,171.993z"/>
				<g>
					<g>
						<path style="fill:#263238;" d="M392,175.742c-0.019,0.005-0.04,0.006-0.061,0.001c-0.907-0.198-1.965-0.823-2.009-0.85
							c-0.063-0.037-0.084-0.119-0.046-0.182c0.037-0.063,0.119-0.084,0.182-0.046c0.01,0.006,1.066,0.63,1.93,0.818
							c0.072,0.016,0.117,0.086,0.102,0.158C392.086,175.693,392.047,175.73,392,175.742z"/>
					</g>
					<g>
						<path style="fill:#263238;" d="M392.889,174.962c-0.018,0.008-0.038,0.013-0.06,0.013c-0.928-0.022-2.086-0.434-2.134-0.452
							c-0.069-0.025-0.105-0.101-0.08-0.17c0.025-0.069,0.101-0.105,0.17-0.08c0.012,0.004,1.167,0.416,2.051,0.436
							c0.073,0.002,0.131,0.063,0.13,0.136C392.964,174.897,392.933,174.941,392.889,174.962z"/>
					</g>
					<path style="fill:#263238;" d="M392.978,174.734c0.051,0.107,0.009,0.233-0.092,0.281c-0.101,0.048-0.225,0-0.275-0.108
						c-0.051-0.107-0.009-0.233,0.092-0.281C392.804,174.578,392.927,174.626,392.978,174.734z"/>
					<g>
						<path style="fill:#263238;" d="M392.915,174.662c0.04,0.019,0.067,0.062,0.063,0.109c-0.003,0.037-0.297,3.742-0.038,4.814
							c0.014,0.059-0.022,0.119-0.082,0.134c-0.059,0.014-0.119-0.022-0.134-0.082c-0.267-1.106,0.021-4.73,0.033-4.884
							c0.005-0.061,0.058-0.107,0.119-0.102C392.891,174.652,392.904,174.656,392.915,174.662z"/>
					</g>
					<path style="fill:#263238;" d="M392.829,179.379c0.103,0.024,0.169,0.122,0.147,0.22c-0.022,0.098-0.125,0.158-0.228,0.134
						c-0.103-0.024-0.169-0.122-0.147-0.22C392.623,179.415,392.725,179.355,392.829,179.379z"/>
					<g>
						<path style="fill:#263238;" d="M404.564,183.551c-0.026,0.041-2.557-1.457-4.807-2.335c-1.384-0.54-3.224-0.945-4.525-1.19
							c-1.41-0.266-2.506-0.406-2.517-0.407c-0.049-0.006-0.083-0.05-0.077-0.099s0.05-0.083,0.099-0.077
							c0.044,0.005,4.414,0.567,7.084,1.608C402.086,181.934,404.574,183.535,404.564,183.551z"/>
					</g>
					<g>
						<path style="fill:#263238;" d="M393.569,174.284c-0.017,0.011-0.036,0.018-0.058,0.02c-0.923,0.093-2.123-0.174-2.174-0.186
							c-0.072-0.016-0.117-0.087-0.1-0.159c0.016-0.072,0.087-0.117,0.159-0.1c0.012,0.003,1.209,0.269,2.089,0.181
							c0.073-0.007,0.138,0.046,0.146,0.119C393.635,174.21,393.61,174.258,393.569,174.284z"/>
					</g>
					<path style="fill:#263238;" d="M393.629,174.046c0.063,0.1,0.038,0.23-0.057,0.29c-0.095,0.06-0.223,0.027-0.286-0.073
						c-0.063-0.1-0.038-0.23,0.057-0.29C393.437,173.913,393.566,173.945,393.629,174.046z"/>
					<g>
						<path style="fill:#263238;" d="M393.558,173.982c0.042,0.014,0.074,0.053,0.076,0.1c0.002,0.037,0.166,3.75,0.554,4.783
							c0.021,0.057-0.007,0.121-0.065,0.143c-0.057,0.022-0.121-0.007-0.143-0.065c-0.401-1.065-0.561-4.697-0.568-4.851
							c-0.003-0.061,0.045-0.113,0.106-0.115C393.532,173.976,393.546,173.978,393.558,173.982z"/>
					</g>
					<path style="fill:#263238;" d="M394.052,178.674c0.106,0.011,0.183,0.101,0.173,0.2c-0.01,0.1-0.104,0.172-0.21,0.161
						c-0.106-0.011-0.183-0.101-0.173-0.2C393.852,178.735,393.946,178.663,394.052,178.674z"/>
					<g>
						<path style="fill:#263238;" d="M406.211,181.372c-0.021,0.044-2.717-1.132-5.058-1.726c-1.439-0.365-3.316-0.541-4.637-0.625
							c-1.432-0.091-2.537-0.095-2.548-0.095c-0.049,0-0.089-0.04-0.088-0.089c0-0.049,0.04-0.089,0.089-0.088
							c0.044,0,4.45,0.02,7.228,0.725C403.553,180.072,406.219,181.355,406.211,181.372z"/>
					</g>
					<path style="fill:#263238;" d="M392.131,175.535c0.029,0.115-0.035,0.23-0.144,0.258c-0.109,0.028-0.22-0.043-0.25-0.158
						c-0.029-0.115,0.035-0.231,0.144-0.258C391.99,175.349,392.101,175.42,392.131,175.535z"/>
					<g>
						<path style="fill:#263238;" d="M392.083,175.452c0.036,0.026,0.054,0.073,0.041,0.119c-0.01,0.036-1.004,3.617-0.954,4.719
							c0.003,0.061-0.045,0.113-0.106,0.116c-0.061,0.003-0.113-0.045-0.116-0.106c-0.051-1.137,0.921-4.64,0.962-4.788
							c0.017-0.059,0.078-0.093,0.137-0.077C392.06,175.439,392.072,175.445,392.083,175.452z"/>
					</g>
					<path style="fill:#263238;" d="M391.1,180.067c0.097,0.043,0.143,0.152,0.102,0.244c-0.041,0.092-0.152,0.131-0.249,0.088
						c-0.097-0.043-0.143-0.152-0.102-0.244S391.003,180.023,391.1,180.067z"/>
					<g>
						<path style="fill:#263238;" d="M401.827,186.396c-0.034,0.035-2.233-1.917-4.275-3.207c-1.256-0.793-2.985-1.541-4.215-2.03
							c-1.334-0.53-2.383-0.875-2.393-0.879c-0.047-0.015-0.072-0.065-0.057-0.112c0.015-0.046,0.065-0.072,0.112-0.057
							c0.042,0.014,4.225,1.397,6.648,2.927C399.702,184.338,401.84,186.383,401.827,186.396z"/>
					</g>
				</g>
				<path style="fill:#263238;" d="M386.082,173.819c0,0-0.046-1.102,0.127-1.497c0.173-0.395,0.306-0.488,0.306-0.488l-0.086,0.276
					c0,0,0.219-0.368,0.548-0.686c0.329-0.318,0.802-0.458,0.802-0.458l-0.311,0.313c0,0,0.962-0.596,1.301-0.643
					c0.34-0.047,1.079,0.019,1.079,0.019l-0.275,0.148c0,0,0.505-0.089,0.84,0.001c0.335,0.09,1.223,0.588,1.223,0.588l-0.22,0.056
					c0,0,0.254,0.307,0.438,0.572c0.185,0.266,0.397,0.563,0.397,0.563l-0.23-0.059c0,0,0.282,0.417,0.324,0.66
					c0.042,0.243,0.071,0.587,0.072,0.665c0,0.078-0.267-0.206-0.267-0.206s-0.013,0.257-0.122,0.519
					c-0.109,0.262-0.301,0.584-0.397,0.667c-0.096,0.083-0.164,0.198-0.302,0.272c-0.138,0.074-0.563,0.319-0.563,0.319l0.385-0.02
					c0,0-0.784,0.297-0.922,0.293c-0.138-0.004-0.027,0.046-0.372-0.003c-0.344-0.049-0.487-0.072-0.487-0.072l0.235,0.155
					c0,0-0.344-0.049-0.629-0.094c-0.285-0.045-0.326-0.054-0.45-0.081c-0.124-0.027-0.22-0.022-0.556-0.191
					c-0.336-0.169-0.607-0.314-0.607-0.314s-0.593-0.181-0.801-0.461C386.355,174.355,386.203,174.218,386.082,173.819z"/>
				<g>
					<path style="fill:#756341;stroke:#7A593B;stroke-width:0.25;stroke-miterlimit:10;" d="M386.126,173.012
						c0,0-0.014,0.009-0.038,0.035c-0.002,0.034-0.004,0.067-0.005,0.101L386.126,173.012z"/>
				</g>
				<path style="fill:#FFFFFF;stroke:#263238;stroke-width:0.25;stroke-miterlimit:10;" d="M386.209,175
					c0.008,0.693-0.373,1.26-0.852,1.266c-0.479,0.006-0.874-0.552-0.882-1.245c-0.008-0.693,0.373-1.26,0.852-1.266
					C385.806,173.75,386.2,174.307,386.209,175z"/>
				<path style="fill:#263238;" d="M385.64,174.457c0,0,0.207-0.288,0.209-0.52c0.002-0.232-0.121-0.574-0.121-0.574l-0.063,0.276
					c0,0-0.114-0.287-0.286-0.439c-0.172-0.153-0.7-0.31-0.7-0.31l0.265,0.24c0,0-0.201-0.193-0.549-0.143
					c-0.348,0.051-0.85,0.506-0.85,0.506l0.53-0.075c0,0-0.283,0.204-0.367,0.28c-0.084,0.076-0.161,0.331-0.219,0.358
					c-0.058,0.026,0.818-0.529,1.405-0.291C385.481,174.002,385.64,174.457,385.64,174.457z"/>
				<path style="fill:#263238;" d="M388.281,174.292c-0.351-0.575-1.032-0.543-1.429-0.442c-0.396,0.101-0.94,0.827-1.15,1.762
					c0,0-0.118,0.541-0.279,0.863c-0.161,0.322-4.777,6.928-4.777,6.928l-0.421,0.636l0.707-0.848l4.892-5.744l-0.279,0.109
					c0,0,0.61-0.592,1.003-0.937l0.18,0.01l-0.024-0.096l0.249-0.025l-0.037-0.144l0.315-0.067l-0.084-0.081l0.204-0.052
					l-0.01-0.138l0.189-0.061l-0.012-0.099l0.138-0.061l-0.087-0.141c0.03-0.049,0.056-0.099,0.077-0.151
					c0.122-0.297,0.133-0.46,0.132-0.518c0.005,0.087,0.019,0.378-0.013,0.646l-0.047,0.007l0.022,0.149
					c-0.007,0.033-0.015,0.064-0.024,0.094c-0.001,0.003-0.002,0.005-0.003,0.008l-0.099,0.044l-0.009,0.117l-0.108,0.028
					l-0.009,0.117l-0.108,0.027l-0.002,0.141l-0.108,0.027l-0.009,0.117l-0.138,0.01l0.015,0.06l-0.081,0.033l0.008,0.111
					c-0.027,0.026-0.053,0.05-0.076,0.073c-0.215,0.208-0.415,0.527-0.415,0.527s0.386-0.443,0.703-0.601
					c0.318-0.157,0.635-0.417,0.943-0.866C388.529,175.417,388.632,174.867,388.281,174.292z"/>
				<path style="fill:#FFFFFF;stroke:#263238;stroke-width:0.25;stroke-miterlimit:10;" d="M387.444,175.123
					c-0.114,0.754-0.629,1.301-1.15,1.223c-0.521-0.079-0.85-0.754-0.736-1.508c0.114-0.754,0.629-1.301,1.15-1.223
					C387.229,173.694,387.559,174.369,387.444,175.123z"/>
				<path style="fill:#263238;" d="M385.595,174.698c0,0-0.203-1.191-0.095-1.367c0.108-0.176,0.152-0.234,0.152-0.234l0.005,0.176
					c0,0,0.188-0.33,0.313-0.429c0.124-0.099,0.593-0.246,0.593-0.246l-0.119,0.162c0,0,0.24-0.123,0.438-0.1
					c0.198,0.023,0.839,0.234,0.839,0.234l-0.245,0.06c0,0,0.03,0.066,0.157,0.169c0.126,0.102,0.467,0.53,0.467,0.53
					s-0.211-0.238-0.451-0.227c-0.24,0.01-0.678,0.111-0.678,0.111l0.151,0.105c0,0-0.518,0.029-0.73,0.13
					c-0.212,0.101-0.353,0.123-0.431,0.252C385.884,174.153,385.595,174.698,385.595,174.698z"/>
			</g>
			<path style="fill:none;stroke:#263238;stroke-width:0.25;stroke-miterlimit:10;" d="M388.956,165.428c0,0,0.67,1.207,1.075,2.012
				"/>
			<path style="fill:none;stroke:#263238;stroke-width:0.25;stroke-miterlimit:10;" d="M385.758,165.388
				c0,0,0.742,1.819,1.546,3.104"/>
			<path style="fill:none;stroke:#263238;stroke-width:0.25;stroke-miterlimit:10;" d="M393.818,168c0,0,2.103-1.877,3.701-2.391"/>
			<path style="fill:none;stroke:#263238;stroke-width:0.25;stroke-miterlimit:10;" d="M396.488,169.993
				c0,0,2.627-1.644,3.733-2.907"/>
		</g>
		<path style="fill:none;stroke:#263238;stroke-width:0.5;stroke-miterlimit:10;stroke-dasharray:2;" d="M262.428,328.135
			c0,0,18.595-32.321,71.282-29.664c52.687,2.656,89.15,15.132,111.73-10.105c22.58-25.237,24.193-100.582-42.219-112.979"/>
	</g>
	<g>
		<g>
			<g>
				<g>
					<path style="fill:#263238;" d="M160.724,347.466c0.036,0.026,1.658-2.07,3.252-3.553c0.98-0.912,2.387-1.863,3.395-2.501
						c1.093-0.691,1.965-1.173,1.973-1.178c0.039-0.021,0.053-0.07,0.031-0.108c-0.021-0.039-0.07-0.053-0.108-0.031
						c-0.035,0.019-3.509,1.942-5.4,3.701C162.263,345.288,160.71,347.456,160.724,347.466z"/>
					<path style="fill:#263238;" d="M169.291,339.985c-0.096-0.001-0.174,0.071-0.176,0.161c-0.001,0.09,0.075,0.165,0.171,0.167
						c0.096,0.001,0.174-0.071,0.176-0.161S169.387,339.986,169.291,339.985z"/>
					<path style="fill:#263238;" d="M168.007,335.899c-0.03,0.027-0.043,0.07-0.027,0.11c0.012,0.032,1.191,3.167,1.234,4.16
						c0.003,0.055,0.049,0.098,0.104,0.095c0.055-0.002,0.098-0.049,0.095-0.104c-0.045-1.025-1.198-4.092-1.247-4.222
						c-0.02-0.052-0.077-0.078-0.129-0.058C168.026,335.885,168.016,335.892,168.007,335.899z"/>
					<path style="fill:#263238;" d="M159.993,347.281c0.036,0.026,1.658-2.07,3.251-3.553c0.98-0.912,2.387-1.863,3.395-2.501
						c1.093-0.691,1.965-1.173,1.973-1.177c0.039-0.021,0.053-0.07,0.031-0.108c-0.021-0.039-0.07-0.053-0.109-0.032
						c-0.035,0.019-3.509,1.942-5.4,3.701C161.532,345.104,159.979,347.271,159.993,347.281z"/>
					<path style="fill:#263238;" d="M168.56,339.801c-0.096-0.001-0.174,0.07-0.176,0.161s0.075,0.165,0.171,0.166
						s0.174-0.071,0.176-0.161C168.732,339.876,168.656,339.802,168.56,339.801z"/>
					<path style="fill:#263238;" d="M167.276,335.715c-0.03,0.027-0.043,0.07-0.028,0.11c0.012,0.032,1.191,3.167,1.234,4.16
						c0.002,0.055,0.049,0.098,0.104,0.095c0.055-0.002,0.098-0.049,0.095-0.104c-0.045-1.025-1.198-4.092-1.247-4.222
						c-0.02-0.052-0.077-0.078-0.129-0.058C167.295,335.701,167.285,335.707,167.276,335.715z"/>
					<path style="fill:#263238;" d="M159.471,346.795c0.036,0.026,1.658-2.07,3.252-3.553c0.98-0.912,2.387-1.863,3.395-2.501
						c1.093-0.691,1.965-1.173,1.973-1.177c0.039-0.021,0.053-0.07,0.031-0.108c-0.021-0.039-0.07-0.053-0.108-0.031
						c-0.035,0.019-3.509,1.942-5.4,3.701C161.009,344.617,159.457,346.785,159.471,346.795z"/>
					<path style="fill:#263238;" d="M168.037,339.314c-0.096-0.001-0.174,0.071-0.176,0.161c-0.001,0.09,0.075,0.165,0.171,0.166
						c0.096,0.002,0.174-0.071,0.176-0.161C168.21,339.39,168.133,339.315,168.037,339.314z"/>
					<path style="fill:#263238;" d="M166.753,335.229c-0.03,0.027-0.043,0.07-0.027,0.11c0.012,0.032,1.191,3.167,1.234,4.16
						c0.003,0.055,0.049,0.098,0.104,0.095c0.055-0.002,0.098-0.049,0.095-0.104c-0.045-1.025-1.198-4.092-1.247-4.222
						c-0.02-0.052-0.077-0.078-0.129-0.058C166.772,335.215,166.762,335.221,166.753,335.229z"/>
					<g>
						<path style="fill:#263238;" d="M161.946,348.332c0.036,0.026,1.658-2.07,3.252-3.553c0.98-0.912,2.387-1.863,3.395-2.501
							c1.093-0.691,1.965-1.173,1.973-1.177c0.039-0.021,0.053-0.07,0.031-0.108c-0.021-0.039-0.07-0.053-0.108-0.031
							c-0.035,0.019-3.509,1.942-5.4,3.701C163.485,346.154,161.932,348.322,161.946,348.332z"/>
					</g>
					<path style="fill:#263238;" d="M170.513,340.851c-0.096-0.001-0.174,0.071-0.176,0.161c-0.002,0.09,0.075,0.165,0.171,0.166
						c0.096,0.001,0.174-0.071,0.176-0.161C170.685,340.927,170.608,340.852,170.513,340.851z"/>
					<g>
						<path style="fill:#263238;" d="M169.229,336.765c-0.03,0.027-0.043,0.07-0.027,0.11c0.012,0.032,1.191,3.167,1.234,4.16
							c0.002,0.055,0.049,0.098,0.104,0.095c0.055-0.002,0.098-0.049,0.095-0.104c-0.045-1.025-1.198-4.091-1.247-4.222
							c-0.02-0.052-0.077-0.078-0.129-0.058C169.248,336.751,169.237,336.758,169.229,336.765z"/>
					</g>
				</g>
				<path style="fill:#263238;" d="M166.581,336.647c0,0-0.313,0.641-1.743,1.75c-1.43,1.109-3.916,0.848-4.572,0.989
					c0,0-0.197,0.099-0.251,0.057c-0.054-0.042-0.088,0.164,0.153-0.273c0.241-0.438,0.322-1.267,1.566-2.94
					c1.244-1.673,4.413-2.69,4.413-2.69S168.384,333.839,166.581,336.647z"/>
				<path style="fill:#FFFFFF;" d="M163.279,337.358c-0.354-0.651-0.467-1.404-0.34-2.247c0.223-0.157,0.456-0.303,0.689-0.439
					c-0.25,0.934-0.196,1.74,0.162,2.402c0.307,0.568,0.795,0.945,1.223,1.184c-0.057,0.045-0.115,0.091-0.175,0.138
					c-0.11,0.086-0.227,0.162-0.349,0.232C164.052,338.346,163.594,337.938,163.279,337.358z"/>
				<path style="fill:#FFFFFF;" d="M165.815,337.558c-0.401-0.278-0.808-0.665-1.096-1.194c-0.331-0.608-0.45-1.306-0.361-2.082
					c0.223-0.11,0.439-0.209,0.638-0.296c-0.162,0.804-0.084,1.506,0.235,2.094c0.254,0.47,0.632,0.808,0.997,1.047
					C166.121,337.249,165.986,337.393,165.815,337.558z"/>
				<path style="fill:#FFFFFF;" d="M161.713,338.247c-0.237-0.436-0.365-0.917-0.386-1.44c0.12-0.181,0.255-0.373,0.407-0.578
					c0.075-0.1,0.156-0.198,0.243-0.293c-0.144,0.776-0.062,1.455,0.247,2.027c0.279,0.514,0.704,0.872,1.1,1.113
					c-0.267,0.065-0.537,0.112-0.802,0.147C162.22,338.971,161.932,338.65,161.713,338.247z"/>
				<g>
					<path style="fill:#AEA892;" d="M160.752,337.788c0.052,0.253,0.137,0.491,0.256,0.712c0.177,0.327,0.413,0.59,0.664,0.8
						c-0.294,0.017-0.564,0.025-0.795,0.034c-0.139-0.164-0.269-0.346-0.38-0.551c-0.034-0.062-0.065-0.126-0.095-0.19
						C160.484,338.375,160.589,338.111,160.752,337.788z"/>
				</g>
				<path style="fill:#FFFFFF;stroke:#263238;stroke-width:0.25;stroke-miterlimit:10;" d="M166.058,333.76
					c0,0,1.108-4.676,2.19-7.168c1.082-2.493,1.126-2.626,1.201-2.578c0.075,0.048,0.764,1.724,0.045,4.534
					c-0.72,2.811-2.751,6.079-2.751,6.079S166.32,334.893,166.058,333.76z"/>
				<path style="fill:#FFFFFF;stroke:#263238;stroke-width:0.25;stroke-miterlimit:10;" d="M165.88,333.953
					c0,0-4.464-1.607-6.742-2.942c-2.278-1.335-2.402-1.393-2.338-1.46c0.064-0.068,1.889-0.548,4.561,0.47
					c2.672,1.018,5.532,3.365,5.532,3.365S167.072,333.827,165.88,333.953z"/>
				<g>
					<g>
						<path style="fill:#263238;" d="M166.257,337.695c0.02,0.001,0.041-0.001,0.06-0.01c0.859-0.353,1.792-1.152,1.831-1.186
							c0.056-0.048,0.062-0.132,0.014-0.187c-0.048-0.056-0.132-0.062-0.187-0.014c-0.009,0.008-0.94,0.806-1.759,1.142
							c-0.068,0.028-0.1,0.105-0.072,0.173C166.163,337.661,166.208,337.691,166.257,337.695z"/>
					</g>
					<g>
						<path style="fill:#263238;" d="M165.245,337.081c0.019,0.005,0.04,0.006,0.061,0.002c0.91-0.183,1.978-0.79,2.023-0.816
							c0.064-0.036,0.086-0.118,0.049-0.181c-0.036-0.064-0.118-0.086-0.181-0.049c-0.011,0.006-1.077,0.612-1.944,0.786
							c-0.072,0.014-0.118,0.085-0.104,0.156C165.16,337.03,165.198,337.068,165.245,337.081z"/>
					</g>
					<path style="fill:#263238;" d="M165.118,336.871c-0.031,0.115,0.031,0.231,0.139,0.261c0.108,0.029,0.221-0.04,0.252-0.154
						c0.031-0.114-0.031-0.231-0.139-0.261C165.262,336.688,165.149,336.757,165.118,336.871z"/>
					<g>
						<path style="fill:#263238;" d="M165.167,336.79c-0.037,0.026-0.055,0.073-0.043,0.118c0.01,0.036,0.943,3.633,0.875,4.734
							c-0.004,0.061,0.043,0.114,0.104,0.117c0.061,0.004,0.114-0.043,0.117-0.104c0.07-1.136-0.843-4.655-0.882-4.804
							c-0.015-0.059-0.076-0.095-0.135-0.079C165.19,336.776,165.178,336.782,165.167,336.79z"/>
					</g>
					<path style="fill:#263238;" d="M166.073,341.42c-0.098,0.042-0.145,0.15-0.106,0.242c0.039,0.092,0.15,0.134,0.248,0.092
						c0.098-0.042,0.145-0.15,0.106-0.242C166.281,341.42,166.171,341.379,166.073,341.42z"/>
					<g>
						<path style="fill:#263238;" d="M155.242,347.57c0.033,0.036,2.264-1.88,4.328-3.135c1.269-0.772,3.011-1.491,4.249-1.959
							c1.343-0.507,2.397-0.835,2.408-0.839c0.047-0.014,0.073-0.064,0.058-0.111c-0.015-0.047-0.064-0.073-0.111-0.058
							c-0.042,0.013-4.248,1.326-6.696,2.816C157.401,345.547,155.229,347.556,155.242,347.57z"/>
					</g>
					<g>
						<path style="fill:#263238;" d="M164.458,336.531c0.018,0.008,0.039,0.011,0.06,0.01c0.925-0.069,2.061-0.541,2.109-0.561
							c0.068-0.028,0.1-0.106,0.071-0.174c-0.028-0.068-0.106-0.099-0.174-0.071c-0.011,0.005-1.144,0.475-2.026,0.541
							c-0.073,0.006-0.128,0.069-0.123,0.142C164.38,336.47,164.413,336.513,164.458,336.531z"/>
					</g>
					<path style="fill:#263238;" d="M164.357,336.307c-0.045,0.11,0.003,0.233,0.106,0.276c0.104,0.043,0.224-0.012,0.269-0.122
						c0.045-0.11-0.003-0.233-0.106-0.276C164.523,336.143,164.402,336.198,164.357,336.307z"/>
					<g>
						<path style="fill:#263238;" d="M164.416,336.232c-0.039,0.021-0.064,0.065-0.057,0.112c0.005,0.037,0.489,3.722,0.286,4.806
							c-0.011,0.06,0.028,0.118,0.088,0.129c0.06,0.011,0.118-0.028,0.129-0.089c0.209-1.118-0.264-4.723-0.284-4.876
							c-0.008-0.061-0.064-0.103-0.124-0.095C164.44,336.222,164.428,336.226,164.416,336.232z"/>
					</g>
					<path style="fill:#263238;" d="M164.746,340.939c-0.102,0.029-0.163,0.131-0.135,0.227c0.027,0.096,0.133,0.151,0.235,0.122
						c0.102-0.029,0.163-0.131,0.135-0.227C164.953,340.964,164.848,340.91,164.746,340.939z"/>
					<g>
						<path style="fill:#263238;" d="M153.241,345.71c0.029,0.04,2.478-1.587,4.68-2.579c1.354-0.61,3.171-1.11,4.457-1.422
							c1.395-0.338,2.482-0.534,2.493-0.536c0.048-0.009,0.08-0.055,0.072-0.103c-0.009-0.048-0.055-0.08-0.103-0.072
							c-0.043,0.008-4.378,0.794-6.991,1.971C155.632,343.968,153.23,345.695,153.241,345.71z"/>
					</g>
					<path style="fill:#263238;" d="M166.092,337.513c-0.009,0.118,0.075,0.221,0.187,0.229c0.112,0.008,0.209-0.081,0.218-0.199
						c0.009-0.118-0.075-0.221-0.187-0.229C166.198,337.306,166.1,337.395,166.092,337.513z"/>
					<g>
						<path style="fill:#263238;" d="M166.124,337.423c-0.031,0.032-0.04,0.082-0.02,0.125c0.016,0.034,1.617,3.388,1.76,4.481
							c0.008,0.061,0.063,0.103,0.124,0.095c0.061-0.008,0.103-0.063,0.095-0.124c-0.147-1.128-1.714-4.409-1.78-4.548
							c-0.026-0.055-0.093-0.079-0.148-0.052C166.144,337.406,166.133,337.414,166.124,337.423z"/>
					</g>
					<path style="fill:#263238;" d="M167.895,341.797c-0.088,0.059-0.114,0.175-0.058,0.258c0.056,0.083,0.173,0.103,0.261,0.043
						c0.088-0.059,0.114-0.175,0.058-0.258S167.983,341.737,167.895,341.797z"/>
					<g>
						<path style="fill:#263238;" d="M158.433,349.896c0.039,0.029,1.865-2.276,3.652-3.902c1.099-0.999,2.672-2.037,3.798-2.732
							c1.222-0.753,2.195-1.276,2.204-1.282c0.043-0.023,0.06-0.077,0.036-0.12c-0.023-0.043-0.077-0.059-0.12-0.036
							c-0.039,0.021-3.918,2.11-6.038,4.039C160.167,347.499,158.417,349.884,158.433,349.896z"/>
					</g>
				</g>
				<path style="fill:#263238;" d="M171.75,334.772c0,0-0.147-1.093-0.386-1.452c-0.239-0.359-0.386-0.427-0.386-0.427l0.133,0.257
					c0,0-0.279-0.324-0.659-0.58c-0.38-0.256-0.869-0.311-0.869-0.311l0.361,0.254c0,0-1.051-0.42-1.393-0.407
					c-0.342,0.013-1.059,0.206-1.059,0.206l0.297,0.098c0,0-0.512,0-0.827,0.147c-0.315,0.148-1.103,0.791-1.103,0.791l0.227,0.017
					c0,0-0.197,0.346-0.332,0.64c-0.136,0.294-0.293,0.624-0.293,0.624l0.216-0.098c0,0-0.205,0.459-0.204,0.706
					c0.001,0.247,0.032,0.591,0.045,0.668c0.013,0.077,0.227-0.249,0.227-0.249s0.057,0.251,0.21,0.49
					c0.153,0.239,0.398,0.523,0.507,0.588c0.109,0.065,0.196,0.166,0.345,0.215c0.148,0.049,0.61,0.216,0.61,0.216l-0.383,0.047
					c0,0,0.824,0.156,0.958,0.128c0.135-0.028,0.035,0.04,0.366-0.068c0.331-0.108,0.467-0.155,0.467-0.155l-0.204,0.194
					c0,0,0.331-0.108,0.603-0.202c0.273-0.094,0.312-0.11,0.429-0.158c0.117-0.048,0.213-0.06,0.515-0.284
					c0.301-0.224,0.543-0.415,0.543-0.415s0.552-0.282,0.708-0.593C171.574,335.347,171.7,335.186,171.75,334.772z"/>
				<g>
					<path style="fill:#756341;stroke:#7A593B;stroke-width:0.25;stroke-miterlimit:10;" d="M171.566,333.984
						c0,0,0.015,0.007,0.043,0.028c0.008,0.033,0.015,0.066,0.022,0.098L171.566,333.984z"/>
				</g>
				<path style="fill:#FFFFFF;stroke:#263238;stroke-width:0.25;stroke-miterlimit:10;" d="M171.83,335.957
					c0.112,0.684,0.587,1.176,1.059,1.098s0.764-0.695,0.652-1.379c-0.112-0.684-0.587-1.176-1.059-1.098
					S171.718,335.273,171.83,335.957z"/>
				<path style="fill:#263238;" d="M172.296,335.323c0,0-0.254-0.248-0.297-0.476c-0.042-0.228,0.02-0.586,0.02-0.586l0.11,0.261
					c0,0,0.063-0.302,0.205-0.482c0.143-0.181,0.636-0.427,0.636-0.427l-0.219,0.282c0,0,0.164-0.225,0.516-0.236
					c0.351-0.01,0.925,0.35,0.925,0.35l-0.535,0.018c0,0,0.314,0.152,0.41,0.212c0.096,0.06,0.216,0.298,0.278,0.314
					c0.062,0.016-0.898-0.378-1.434-0.042C172.373,334.848,172.296,335.323,172.296,335.323z"/>
				<path style="fill:#263238;" d="M169.666,335.619c0.245-0.628,0.922-0.714,1.33-0.684s1.069,0.651,1.439,1.535
					c0,0,0.21,0.512,0.425,0.801c0.215,0.289,5.91,5.991,5.91,5.991l0.525,0.553l-0.844-0.712l-5.816-4.806l0.294,0.059
					c0,0-0.704-0.477-1.15-0.749l-0.176,0.042l0.007-0.099l-0.25,0.019l0.011-0.148l-0.322-0.011l0.069-0.094l-0.21-0.016
					l-0.014-0.138l-0.197-0.027l-0.005-0.1l-0.146-0.036l0.061-0.154c-0.038-0.043-0.072-0.088-0.102-0.135
					c-0.172-0.272-0.211-0.429-0.22-0.487c0.01,0.087,0.047,0.376,0.124,0.634l0.047-0.001l0.005,0.151
					c0.013,0.031,0.026,0.061,0.04,0.089c0.001,0.002,0.003,0.005,0.004,0.007l0.105,0.026l0.029,0.114l0.111,0.008l0.029,0.114
					l0.111,0.008l0.027,0.139l0.111,0.008l0.029,0.114l0.138-0.015l-0.005,0.062l0.086,0.019l0.012,0.111
					c0.031,0.021,0.061,0.04,0.088,0.058c0.248,0.167,0.501,0.447,0.501,0.447s-0.457-0.369-0.797-0.469
					c-0.34-0.1-0.698-0.3-1.079-0.689C169.618,336.771,169.421,336.247,169.666,335.619z"/>
				<path style="fill:#FFFFFF;stroke:#263238;stroke-width:0.25;stroke-miterlimit:10;" d="M170.635,336.293
					c0.244,0.723,0.846,1.172,1.345,1.004c0.499-0.168,0.706-0.891,0.463-1.613c-0.244-0.723-0.846-1.172-1.345-1.004
					C170.598,334.848,170.391,335.57,170.635,336.293z"/>
				<path style="fill:#263238;" d="M172.382,335.552c0,0-0.007-1.208-0.144-1.363c-0.137-0.154-0.191-0.204-0.191-0.204l0.026,0.174
					c0,0-0.243-0.292-0.382-0.368c-0.14-0.076-0.627-0.139-0.627-0.139l0.145,0.139c0,0-0.258-0.08-0.449-0.023
					s-0.786,0.376-0.786,0.376l0.252,0.016c0,0-0.018,0.07-0.125,0.193c-0.107,0.123-0.367,0.603-0.367,0.603
					s0.167-0.271,0.405-0.302c0.238-0.031,0.687-0.009,0.687-0.009l-0.131,0.13c0,0,0.515-0.062,0.742,0.001
					c0.227,0.063,0.369,0.06,0.468,0.173C172.003,335.066,172.382,335.552,172.382,335.552z"/>
			</g>
			<path style="fill:none;stroke:#263238;stroke-width:0.25;stroke-miterlimit:10;" d="M167.46,327.009c0,0-0.45,1.305-0.709,2.168"
				/>
			<path style="fill:none;stroke:#263238;stroke-width:0.25;stroke-miterlimit:10;" d="M170.602,326.413c0,0-0.415,1.92-0.982,3.325
				"/>
			<path style="fill:none;stroke:#263238;stroke-width:0.25;stroke-miterlimit:10;" d="M163.119,330.386c0,0-2.398-1.482-4.06-1.711
				"/>
			<path style="fill:none;stroke:#263238;stroke-width:0.25;stroke-miterlimit:10;" d="M160.837,332.814
				c0,0-2.873-1.162-4.182-2.213"/>
		</g>
		<path style="fill:none;stroke:#263238;stroke-width:0.5;stroke-miterlimit:10;stroke-dasharray:2;" d="M150.193,340.522
			c0,0-19.817,6.913-28.574,18.896s-11.061,49.774,46.087,39.635c57.148-10.139,141.487,1.383,183.426,47.931"/>
	</g>
</g>
<g id="Line">
	<line style="fill:none;stroke:#263238;stroke-miterlimit:10;" x1="491.188" y1="452.577" x2="10.99" y2="452.577"/>
</g>
</svg>
