<?xml version="1.0" encoding="utf-8"?>
<!-- Generator: Adobe Illustrator 27.5.0, SVG Export Plug-In . SVG Version: 6.00 Build 0)  -->
<svg version="1.1" xmlns="http://www.w3.org/2000/svg" xmlns:xlink="http://www.w3.org/1999/xlink" x="0px" y="0px"
	 viewBox="0 0 500 500" style="enable-background:new 0 0 500 500;" xml:space="preserve">
<g id="Background_Simple">
	<g>
		<path style="opacity:0.7;fill:#FFFFFF;" d="M67.931,167.086c0,0-27.877,71.988,11.297,144.503
			c39.174,72.516,119.879,110.802,184.469,143.548c64.59,32.746,131.661,16.799,163.534-36.838
			c31.873-53.637-11.845-91.928-11.897-168.418c-0.051-76.49,11.447-96.742-29.963-161.364
			c-41.41-64.623-143.059-78.925-219.9-30.996C88.631,105.45,67.931,167.086,67.931,167.086z"/>
	</g>
	<g>
		<path style="fill:#92E3A9;" d="M80.121,157.92c28.824-53.065,101.321-115.003,200.786-89.203
			c99.464,25.8,166.662,80.38,155.651,175.343c-11.012,94.963-68.875,173.858-193.518,176.168
			C118.396,422.539,16.923,274.268,80.121,157.92z"/>
		<path style="opacity:0.7;fill:#FFFFFF;" d="M80.121,157.92c28.824-53.065,101.321-115.003,200.786-89.203
			c99.464,25.8,166.662,80.38,155.651,175.343c-11.012,94.963-68.875,173.858-193.518,176.168
			C118.396,422.539,16.923,274.268,80.121,157.92z"/>
	</g>
</g>
<g id="Clouds">
	<g>
		<g>
			<defs>
				<path id="XMLID_434_" d="M229.582,166.248c0,0,13.62-15.613,33.486-15.613c0,0,0.661-12.13,14.22-14.742
					c13.558-2.612,16.196,9.483,16.196,9.483s10.022-5.311,23.473,0c13.451,5.311,10.727,20.828,10.727,20.828
					s38.816-1.267,45.474,5.85h-89.272H198.71C198.71,172.054,202.231,163.347,229.582,166.248z"/>
			</defs>
			<clipPath id="XMLID_00000131358516927121615450000011287287152106529427_">
				<use xlink:href="#XMLID_434_"  style="overflow:visible;"/>
			</clipPath>
			
				<path style="opacity:0.5;clip-path:url(#XMLID_00000131358516927121615450000011287287152106529427_);fill:none;stroke:#263238;stroke-linecap:round;stroke-linejoin:round;stroke-miterlimit:10;" d="
				M229.582,166.248c0,0,13.62-15.613,33.486-15.613c0,0,0.661-12.13,14.22-14.742c13.558-2.612,16.196,9.483,16.196,9.483
				s10.022-5.311,23.473,0c13.451,5.311,10.727,20.828,10.727,20.828s38.816-1.267,45.474,5.85h-89.272H198.71
				C198.71,172.054,202.231,163.347,229.582,166.248z"/>
			
				<use xlink:href="#XMLID_434_"  style="overflow:visible;fill:none;stroke:#263238;stroke-linecap:round;stroke-linejoin:round;stroke-miterlimit:10;"/>
		</g>
		<g>
			<defs>
				<path id="XMLID_433_" d="M342.127,73.643c0,0-10.863-12.453-26.708-12.453c0,0-0.527-9.674-11.342-11.758
					c-10.814-2.083-12.918,7.564-12.918,7.564s-7.993-4.236-18.722,0s-8.556,16.612-8.556,16.612s-30.959-1.011-36.27,4.666h71.203
					h67.936C366.75,78.274,363.942,71.329,342.127,73.643z"/>
			</defs>
			<clipPath id="XMLID_00000093144857893414843100000011792743253409427093_">
				<use xlink:href="#XMLID_433_"  style="overflow:visible;"/>
			</clipPath>
			
				<path style="opacity:0.5;clip-path:url(#XMLID_00000093144857893414843100000011792743253409427093_);fill:none;stroke:#263238;stroke-linecap:round;stroke-linejoin:round;stroke-miterlimit:10;" d="
				M342.127,73.643c0,0-10.863-12.453-26.708-12.453c0,0-0.527-9.674-11.342-11.758c-10.814-2.083-12.918,7.564-12.918,7.564
				s-7.993-4.236-18.722,0s-8.556,16.612-8.556,16.612s-30.959-1.011-36.27,4.666h71.203h67.936
				C366.75,78.274,363.942,71.329,342.127,73.643z"/>
			
				<use xlink:href="#XMLID_433_"  style="overflow:visible;fill:none;stroke:#263238;stroke-linecap:round;stroke-linejoin:round;stroke-miterlimit:10;"/>
		</g>
		<g>
			<defs>
				<path id="XMLID_432_" d="M89.901,116.908c0,0,6.452-7.396,15.864-7.396c0,0,0.313-5.746,6.736-6.984
					c6.423-1.238,7.673,4.493,7.673,4.493s4.748-2.516,11.12,0c6.372,2.516,5.082,9.867,5.082,9.867s18.388-0.6,21.543,2.771
					h-42.291H75.276C75.276,119.659,76.944,115.534,89.901,116.908z"/>
			</defs>
			<clipPath id="XMLID_00000108270977408609399490000007529295356476145087_">
				<use xlink:href="#XMLID_432_"  style="overflow:visible;"/>
			</clipPath>
			
				<path style="opacity:0.5;clip-path:url(#XMLID_00000108270977408609399490000007529295356476145087_);fill:none;stroke:#263238;stroke-linecap:round;stroke-linejoin:round;stroke-miterlimit:10;" d="
				M89.901,116.908c0,0,6.452-7.396,15.864-7.396c0,0,0.313-5.746,6.736-6.984c6.423-1.238,7.673,4.493,7.673,4.493
				s4.748-2.516,11.12,0c6.372,2.516,5.082,9.867,5.082,9.867s18.388-0.6,21.543,2.771h-42.291H75.276
				C75.276,119.659,76.944,115.534,89.901,116.908z"/>
			
				<use xlink:href="#XMLID_432_"  style="overflow:visible;fill:none;stroke:#263238;stroke-linecap:round;stroke-linejoin:round;stroke-miterlimit:10;"/>
		</g>
		<g>
			<defs>
				<path id="XMLID_435_" d="M188.721,287.916c0,0,6.452-7.397,15.864-7.397c0,0,0.313-5.746,6.736-6.984
					c6.423-1.237,7.673,4.493,7.673,4.493s4.748-2.516,11.12,0c6.372,2.516,5.082,9.867,5.082,9.867s18.388-0.6,21.543,2.771
					h-42.291h-40.351C174.096,290.667,175.764,286.542,188.721,287.916z"/>
			</defs>
			<clipPath id="XMLID_00000048478501654621386010000008265782776250179467_">
				<use xlink:href="#XMLID_435_"  style="overflow:visible;"/>
			</clipPath>
			
				<path style="opacity:0.5;clip-path:url(#XMLID_00000048478501654621386010000008265782776250179467_);fill:none;stroke:#263238;stroke-linecap:round;stroke-linejoin:round;stroke-miterlimit:10;" d="
				M188.721,287.916c0,0,6.452-7.397,15.864-7.397c0,0,0.313-5.746,6.736-6.984c6.423-1.237,7.673,4.493,7.673,4.493
				s4.748-2.516,11.12,0c6.372,2.516,5.082,9.867,5.082,9.867s18.388-0.6,21.543,2.771h-42.291h-40.351
				C174.096,290.667,175.764,286.542,188.721,287.916z"/>
			
				<use xlink:href="#XMLID_435_"  style="overflow:visible;fill:none;stroke:#263238;stroke-linecap:round;stroke-linejoin:round;stroke-miterlimit:10;"/>
		</g>
	</g>
</g>
<g id="Wind_turbines">
	<g>
		<g>
			<path style="fill:none;stroke:#263238;stroke-linecap:round;stroke-linejoin:round;stroke-miterlimit:10;" d="M114.409,194.122
				l-0.1-15.603c-0.007-1.167-0.956-2.11-2.123-2.11c-1.167,0-2.116,0.942-2.123,2.11l-0.033,5.11"/>
			
				<line style="fill:none;stroke:#263238;stroke-linecap:round;stroke-linejoin:round;stroke-miterlimit:10;" x1="109.936" y1="198.295" x2="109.899" y2="204.017"/>
			
				<line style="fill:none;stroke:#263238;stroke-linecap:round;stroke-linejoin:round;stroke-miterlimit:10;" x1="115.296" y1="332.688" x2="114.51" y2="209.902"/>
			
				<line style="fill:none;stroke:#263238;stroke-linecap:round;stroke-linejoin:round;stroke-miterlimit:10;" x1="109.83" y1="214.807" x2="109.076" y2="332.688"/>
			<path style="fill:none;stroke:#263238;stroke-linecap:round;stroke-linejoin:round;stroke-miterlimit:10;" d="M166.034,205.032
				l-45.417-9.696l-2.493,3.529l-1.815-0.191l-19.204-46.01c-0.283-0.679-1.063-1-1.742-0.716c-0.629,0.262-0.958,0.957-0.763,1.61
				l13.281,44.502l4.292,0.495l0.681,1.631l-30.469,39.543c-0.449,0.583-0.34,1.419,0.242,1.868c0.54,0.416,1.306,0.357,1.777-0.136
				l32.057-33.602l-1.699-3.973l1.128-1.464l49.727,5.238c0.732,0.077,1.387-0.453,1.464-1.185
				C167.152,205.796,166.7,205.174,166.034,205.032z"/>
			
				<circle style="fill:none;stroke:#263238;stroke-linecap:round;stroke-linejoin:round;stroke-miterlimit:10;" cx="115.296" cy="200.233" r="1.301"/>
		</g>
		<g>
			<path style="fill:none;stroke:#263238;stroke-linecap:round;stroke-linejoin:round;stroke-miterlimit:10;" d="M156.222,248.047
				l-0.079-12.342c-0.006-0.923-0.756-1.669-1.68-1.669c-0.923,0-1.674,0.745-1.68,1.669l-0.026,4.042"/>
			
				<line style="fill:none;stroke:#263238;stroke-linecap:round;stroke-linejoin:round;stroke-miterlimit:10;" x1="152.684" y1="251.348" x2="152.655" y2="255.874"/>
			
				<line style="fill:none;stroke:#263238;stroke-linecap:round;stroke-linejoin:round;stroke-miterlimit:10;" x1="156.924" y1="357.657" x2="156.302" y2="260.529"/>
			
				<line style="fill:none;stroke:#263238;stroke-linecap:round;stroke-linejoin:round;stroke-miterlimit:10;" x1="152.6" y1="264.409" x2="152.004" y2="357.657"/>
			<path style="fill:none;stroke:#263238;stroke-linecap:round;stroke-linejoin:round;stroke-miterlimit:10;" d="M197.059,256.677
				l-35.927-7.67l-1.972,2.791l-1.436-0.151l-15.191-36.396c-0.224-0.537-0.841-0.791-1.378-0.566
				c-0.497,0.207-0.758,0.757-0.604,1.273l10.505,35.202l3.395,0.391l0.538,1.29l-24.102,31.28
				c-0.355,0.461-0.269,1.122,0.191,1.478c0.427,0.329,1.033,0.283,1.405-0.107l25.359-26.58l-1.344-3.143l0.893-1.159l39.335,4.144
				c0.579,0.061,1.097-0.359,1.158-0.937C197.943,257.281,197.586,256.789,197.059,256.677z"/>
			<path style="fill:none;stroke:#263238;stroke-linecap:round;stroke-linejoin:round;stroke-miterlimit:10;" d="M157.953,252.88
				c0,0.569-0.461,1.029-1.03,1.029c-0.569,0-1.03-0.461-1.03-1.029s0.461-1.03,1.03-1.03
				C157.492,251.851,157.953,252.312,157.953,252.88z"/>
		</g>
		<g>
			<path style="fill:none;stroke:#263238;stroke-linecap:round;stroke-linejoin:round;stroke-miterlimit:10;" d="M375.591,194.122
				l0.1-15.603c0.007-1.167,0.956-2.11,2.123-2.11c1.167,0,2.116,0.942,2.123,2.11l0.033,5.11"/>
			
				<line style="fill:none;stroke:#263238;stroke-linecap:round;stroke-linejoin:round;stroke-miterlimit:10;" x1="380.064" y1="198.295" x2="380.101" y2="204.017"/>
			
				<line style="fill:none;stroke:#263238;stroke-linecap:round;stroke-linejoin:round;stroke-miterlimit:10;" x1="374.704" y1="332.688" x2="375.49" y2="209.902"/>
			
				<line style="fill:none;stroke:#263238;stroke-linecap:round;stroke-linejoin:round;stroke-miterlimit:10;" x1="380.17" y1="214.807" x2="380.924" y2="332.688"/>
			<path style="fill:none;stroke:#263238;stroke-linecap:round;stroke-linejoin:round;stroke-miterlimit:10;" d="M323.966,205.032
				l45.417-9.696l2.493,3.529l1.815-0.191l19.204-46.01c0.283-0.679,1.063-1,1.742-0.716c0.629,0.262,0.958,0.957,0.763,1.61
				l-13.281,44.502l-4.292,0.495l-0.681,1.631l30.469,39.543c0.449,0.583,0.34,1.419-0.242,1.868
				c-0.54,0.416-1.306,0.357-1.777-0.136l-32.057-33.602l1.699-3.973l-1.128-1.464l-49.727,5.238
				c-0.732,0.077-1.387-0.453-1.464-1.185C322.848,205.796,323.3,205.174,323.966,205.032z"/>
			
				<circle style="fill:none;stroke:#263238;stroke-linecap:round;stroke-linejoin:round;stroke-miterlimit:10;" cx="374.704" cy="200.233" r="1.301"/>
		</g>
		<g>
			<path style="fill:none;stroke:#263238;stroke-linecap:round;stroke-linejoin:round;stroke-miterlimit:10;" d="M333.778,248.047
				l0.079-12.342c0.006-0.923,0.756-1.669,1.68-1.669c0.924,0,1.674,0.745,1.68,1.669l0.026,4.042"/>
			
				<line style="fill:none;stroke:#263238;stroke-linecap:round;stroke-linejoin:round;stroke-miterlimit:10;" x1="337.316" y1="251.348" x2="337.345" y2="255.874"/>
			
				<line style="fill:none;stroke:#263238;stroke-linecap:round;stroke-linejoin:round;stroke-miterlimit:10;" x1="333.076" y1="357.657" x2="333.698" y2="260.529"/>
			
				<line style="fill:none;stroke:#263238;stroke-linecap:round;stroke-linejoin:round;stroke-miterlimit:10;" x1="337.4" y1="264.409" x2="337.996" y2="357.657"/>
			<path style="fill:none;stroke:#263238;stroke-linecap:round;stroke-linejoin:round;stroke-miterlimit:10;" d="M292.941,256.677
				l35.927-7.67l1.972,2.791l1.436-0.151l15.191-36.396c0.224-0.537,0.841-0.791,1.378-0.566c0.497,0.207,0.758,0.757,0.604,1.273
				l-10.505,35.202l-3.396,0.391l-0.538,1.29l24.102,31.28c0.355,0.461,0.269,1.122-0.191,1.478
				c-0.427,0.329-1.033,0.283-1.405-0.107l-25.359-26.58l1.344-3.143l-0.893-1.159l-39.336,4.144
				c-0.579,0.061-1.097-0.359-1.158-0.937C292.056,257.281,292.414,256.789,292.941,256.677z"/>
			<path style="fill:none;stroke:#263238;stroke-linecap:round;stroke-linejoin:round;stroke-miterlimit:10;" d="M332.047,252.88
				c0,0.569,0.461,1.029,1.03,1.029c0.569,0,1.03-0.461,1.03-1.029s-0.461-1.03-1.03-1.03
				C332.508,251.851,332.047,252.312,332.047,252.88z"/>
		</g>
	</g>
</g>
<g id="Hands">
	<g>
		<g>
			<defs>
				<path id="XMLID_431_" d="M30.84,318.11c0,0,1.94,5.12,7.97,13c7.86,10.26,22.66,25.19,49.14,39.51
					c46.8,25.3,76.42,67.34,76.42,67.34l27.23-86.79c0,0-12.11-0.88-29.15-12.98c-11.58-8.22-25.44-21.61-39.31-43.43
					c-34.28-53.91-70.15-65.6-70.15-65.6"/>
			</defs>
			<use xlink:href="#XMLID_431_"  style="overflow:visible;fill:#FFFFFF;"/>
			<clipPath id="XMLID_00000114038103306608540850000007527754230721224622_">
				<use xlink:href="#XMLID_431_"  style="overflow:visible;"/>
			</clipPath>
			<path style="opacity:0.4;clip-path:url(#XMLID_00000114038103306608540850000007527754230721224622_);fill:#92E3A9;" d="
				M38.81,331.11c7.86,10.26,22.66,25.19,49.14,39.51c46.8,25.3,76.42,67.34,76.42,67.34l27.23-86.79c0,0-12.11-0.88-29.15-12.98
				c-13.95-0.38-42.868,9.09-57.637,23.356C104.813,361.546,70.69,344.25,38.81,331.11z"/>
			
				<path style="clip-path:url(#XMLID_00000114038103306608540850000007527754230721224622_);fill:none;stroke:#263238;stroke-linecap:round;stroke-linejoin:round;stroke-miterlimit:10;" d="
				M128.855,349.792c0,0,16.642,14.376,26.037,14.847"/>
			
				<path style="clip-path:url(#XMLID_00000114038103306608540850000007527754230721224622_);fill:none;stroke:#263238;stroke-linecap:round;stroke-linejoin:round;stroke-miterlimit:10;" d="
				M80.022,366.459c11.868,5.771,29.275,12.221,35.604,15.523"/>
			
				<path style="clip-path:url(#XMLID_00000114038103306608540850000007527754230721224622_);fill:none;stroke:#263238;stroke-linecap:round;stroke-linejoin:round;stroke-miterlimit:10;" d="
				M125.516,298.648c4.352,9.495,11.358,18.989,11.358,18.989"/>
			
				<use xlink:href="#XMLID_431_"  style="overflow:visible;fill:none;stroke:#263238;stroke-linecap:round;stroke-linejoin:round;stroke-miterlimit:10;"/>
		</g>
		<g>
			<defs>
				<path id="XMLID_430_" d="M465.6,310.11c0,0-1.94,5.12-7.97,13c-7.86,10.26-22.66,25.19-49.14,39.51
					c-46.8,25.3-76.42,67.34-76.42,67.34l-27.23-86.79c0,0,12.11-0.88,29.15-12.98c11.58-8.22,25.44-21.61,39.31-43.43
					c34.28-53.91,70.15-65.6,70.15-65.6"/>
			</defs>
			<use xlink:href="#XMLID_430_"  style="overflow:visible;fill:#FFFFFF;"/>
			<clipPath id="XMLID_00000027577527441365549460000006930030468670656423_">
				<use xlink:href="#XMLID_430_"  style="overflow:visible;"/>
			</clipPath>
			<path style="opacity:0.4;clip-path:url(#XMLID_00000027577527441365549460000006930030468670656423_);fill:#92E3A9;" d="
				M457.63,323.11c-7.86,10.26-22.66,25.19-49.14,39.51c-46.8,25.3-76.42,67.34-76.42,67.34l-27.23-86.79
				c0,0,12.11-0.88,29.15-12.98c13.95-0.38,38.779,6.064,51.23,25.995C385.22,356.185,425.75,336.25,457.63,323.11z"/>
			
				<path style="clip-path:url(#XMLID_00000027577527441365549460000006930030468670656423_);fill:none;stroke:#263238;stroke-linecap:round;stroke-linejoin:round;stroke-miterlimit:10;" d="
				M350.428,326.776c0,0-8.124,13.213-29.133,21.507"/>
			
				<path style="clip-path:url(#XMLID_00000027577527441365549460000006930030468670656423_);fill:none;stroke:#263238;stroke-linecap:round;stroke-linejoin:round;stroke-miterlimit:10;" d="
				M413.516,360.535c-5.026,2.085-25.714,8.592-30.462,11.924"/>
			
				<path style="clip-path:url(#XMLID_00000027577527441365549460000006930030468670656423_);fill:none;stroke:#263238;stroke-linecap:round;stroke-linejoin:round;stroke-miterlimit:10;" d="
				M373.56,296.67c0,0,4.726-17.011,11.66-27.297"/>
			
				<use xlink:href="#XMLID_430_"  style="overflow:visible;fill:none;stroke:#263238;stroke-linecap:round;stroke-linejoin:round;stroke-miterlimit:10;"/>
		</g>
		<g>
			<path style="fill:#FFFFFF;" d="M213.817,371.936l-29.227,3.509c0,0-20.408,6.222-25.337,10.654s-11.416,16.31-11.416,16.31
				s-7.18,1.362-10.862,0.035c-0.912-0.335-1.616-0.843-1.928-1.57c-0.45-1.039-0.762-2.228-0.981-3.486
				c-0.9-5.16-0.162-11.289-0.162-11.289s-4.79-6.857-5.021-9.673c-0.219-2.701,0.82-14.383,3.717-17.626
				c0.127-0.138,0.254-0.277,0.393-0.381c3.197-2.563,21.458-10.677,21.458-10.677s4.109-6.176,14.163-7.999
				c10.042-1.824,31.732,4.571,31.732,4.571l3.151,6.452L213.817,371.936z"/>
			<path style="opacity:0.4;fill:#92E3A9;" d="M134.067,397.389c-0.9-5.16-0.162-11.289-0.162-11.289s-4.79-6.857-5.021-9.673
				c-0.219-2.701,0.82-14.383,3.717-17.626c-3.359,6.695-2.689,16.91,1.985,13.655c5.714-3.971,11.601,4.144,11.601,4.144
				C139.977,379.832,135.44,390.844,134.067,397.389z"/>
			<path style="opacity:0.4;fill:#92E3A9;" d="M213.817,371.936l-29.227,3.509c0,0-20.408,6.222-25.337,10.654
				s-11.416,16.31-11.416,16.31s-7.18,1.362-10.862,0.035c3.382-1.027,8.288-4.802,9.211-9.892
				c1.327-7.238,13.517-13.759,13.055-19.369c-0.473-5.61-9.812-14.764-9.812-14.764c5.483-1.189,10.423,2.216,10.423,2.216
				c-2.609-3.532-7.457-6.533-7.457-6.533c10.735-1.166,12.79,6.429,12.79,6.429c3.001,0.669,10.042-2.112,10.042-2.112
				c0-4.386,2.228-7.688,2.228-7.688l3.486,5.448c3.786,0,16.507-3.625,22.555-5.414L213.817,371.936z"/>
			<g>
				<path style="fill:none;stroke:#263238;stroke-linecap:round;stroke-linejoin:round;stroke-miterlimit:10;" d="M135.048,400.879
					c1.571,3.651,12.786,1.536,12.786,1.536s6.487-11.887,11.416-16.32c4.929-4.433,25.344-10.653,25.344-10.653l29.225-3.503
					l-13.471-27.627c0,0-21.691-6.393-31.737-4.566c-10.046,1.827-14.156,7.991-14.156,7.991s-18.266,8.118-21.462,10.68
					c-3.196,2.563-4.338,15.191-4.11,18.01c0.228,2.819,5.023,9.668,5.023,9.668S132.764,395.571,135.048,400.879z"/>
				<path style="fill:none;stroke:#263238;stroke-linecap:round;stroke-linejoin:round;stroke-miterlimit:10;" d="M135.504,398.425
					c0,0,1.827-10.275,10.503-14.042c0,0,0.913-6.122-1.37-8.94c-2.283-2.818-8.905,2.661-9.133,8.94
					C135.276,390.662,135.504,398.425,135.504,398.425z"/>
				<path style="fill:none;stroke:#263238;stroke-linecap:round;stroke-linejoin:round;stroke-miterlimit:10;" d="M154.455,360.535
					c0,0,15.223,6.838,7.269,23.848"/>
				<path style="fill:none;stroke:#263238;stroke-linecap:round;stroke-linejoin:round;stroke-miterlimit:10;" d="M159.848,357.327
					c0,0,12.941,11.163,3.432,25.217"/>
				<path style="fill:none;stroke:#263238;stroke-linecap:round;stroke-linejoin:round;stroke-miterlimit:10;" d="M177.456,355.063
					c0,0-1.201,6.513,0,14.872"/>
				<path style="fill:none;stroke:#263238;stroke-linecap:round;stroke-linejoin:round;stroke-miterlimit:10;" d="M139.157,372.459
					c0,0-2.74,1.307-4.566,8.157"/>
				<path style="fill:none;stroke:#263238;stroke-linecap:round;stroke-linejoin:round;stroke-miterlimit:10;" d="M136.874,360.535
					c0,0-3.882,0.523-5.936,8.208"/>
			</g>
		</g>
		<g>
			<path style="fill:#FFFFFF;" d="M361.775,371.936c-3.197,2.055-4.883,6.36-4.883,6.36s0.6,7.803,0,9.858
				c-0.6,2.055-4.94,5.933-8.369,3.763c-3.417-2.17-5.194-10.158-14.071-13.621l-55.556-22.116c0,0,2.031-3.197,6.683-7.087
				c3.209-2.678,7.676-5.691,13.575-8.207c14.44-6.164,32.02-10.042,40.585-7.307c4.825,1.547,10.631,6.937,15.11,12.247
				c3.463,4.098,6.118,8.161,6.926,10.354C363.599,361.213,364.973,369.882,361.775,371.936z"/>
			<path style="opacity:0.4;fill:#92E3A9;" d="M361.775,371.936c-3.197,2.055-4.883,6.36-4.883,6.36s0.6,7.803,0,9.858
				c-0.6,2.055-4.94,5.933-8.369,3.763c-3.417-2.17-5.194-10.158-14.071-13.621l-55.556-22.116c0,0,2.031-3.197,6.683-7.087
				c7.607-0.046,17.626,0.716,25.845,4.121c0,0-0.566-6.176,2.632-5.471c0,0-0.808-6.245,2.643-6.556
				c3.44-0.3,2.643,1.985,2.643,1.985s0.035,6.291,2.782,7.561c2.736,1.27,1.154-7.411,6.51-8.623c0,0,0.3,9.777,3.44,12.951
				c0,0-3.567,10.308,1.304,15.421c4.871,5.114,14.013,11.197,15.987,11.047c1.974-0.15-5.402-9.13-5.402-9.13
				s0.139-9.073,5.737-10.85c5.598-1.789,10.469,2.782,10.469,2.782s-0.843-8.622-5.321-18.503
				c3.463,4.098,6.118,8.161,6.926,10.354C363.599,361.213,364.973,369.882,361.775,371.936z"/>
			<g>
				<path style="fill:none;stroke:#263238;stroke-linecap:round;stroke-linejoin:round;stroke-miterlimit:10;" d="M278.891,356.185
					c0,0,5.814-9.133,20.259-15.298s32.028-10.046,40.589-7.306c8.561,2.74,20.206,17.581,22.032,22.604s3.197,13.699,0,15.754
					s-4.881,6.355-4.881,6.355s0.599,7.801,0,9.856c-0.599,2.055-4.937,5.936-8.362,3.767c-3.425-2.169-5.203-10.153-14.08-13.623"
					/>
				<path style="fill:none;stroke:#263238;stroke-linecap:round;stroke-linejoin:round;stroke-miterlimit:10;" d="M343.964,372.396
					c0,0,0.683-8.905,5.022-8.448c4.338,0.457,7.59,9.818,7.905,20.435C356.891,384.383,352.186,375.136,343.964,372.396z"/>
				<path style="fill:none;stroke:#263238;stroke-linecap:round;stroke-linejoin:round;stroke-miterlimit:10;" d="M329.807,375.443
					c0,0-5.023-16.061,5.708-22.226"/>
				<path style="fill:none;stroke:#263238;stroke-linecap:round;stroke-linejoin:round;stroke-miterlimit:10;" d="M328.633,344.312
					c0,0-4.143,13.778,0,21.502c0,0-9.785-7.346-17.206-4.149"/>
				<path style="fill:none;stroke:#263238;stroke-linecap:round;stroke-linejoin:round;stroke-miterlimit:10;" d="M320.03,361.546
					c0,0-1.411-5.361-1.182-8.33s-3.729-6.393-2.207-10.046"/>
				<path style="fill:none;stroke:#263238;stroke-linecap:round;stroke-linejoin:round;stroke-miterlimit:10;" d="M314.053,349.792
					c0,0,3.267,7.439,5.287,8.628"/>
				<path style="fill:none;stroke:#263238;stroke-linecap:round;stroke-linejoin:round;stroke-miterlimit:10;" d="M321.29,367.373
					c0,0,4.118-1.827,7.345,0"/>
				<path style="fill:none;stroke:#263238;stroke-linecap:round;stroke-linejoin:round;stroke-miterlimit:10;" d="M353.096,354.106
					c0,0,6.621-0.559,8.22,12.861"/>
			</g>
		</g>
		<g>
			<g>
				<g>
					<defs>
						<path id="XMLID_429_" d="M255.776,257.761c0,0-15.93-9.183-2.875-42.351s52.281-43.231,61.151-53.232
							C314.053,162.177,310.475,264.049,255.776,257.761z"/>
					</defs>
					<use xlink:href="#XMLID_429_"  style="overflow:visible;fill:#92E3A9;"/>
					<clipPath id="XMLID_00000042702087268516650600000011079079692919259544_">
						<use xlink:href="#XMLID_429_"  style="overflow:visible;"/>
					</clipPath>
					<path style="opacity:0.3;clip-path:url(#XMLID_00000042702087268516650600000011079079692919259544_);fill-opacity:0.7;" d="
						M307.1,171.7c-4.48,8.51-18.27,19.25-33.42,45.09c-9.17,15.64-15.36,31.77-18.42,40.61c-2.41-1.78-12.16-10.78-4.78-35.05
						c0.29,8.6,3.34,13.43,3.34,13.43C252.86,202.38,307.1,171.7,307.1,171.7z"/>
					
						<use xlink:href="#XMLID_429_"  style="overflow:visible;fill:none;stroke:#263238;stroke-linecap:round;stroke-linejoin:round;stroke-miterlimit:10;"/>
				</g>
				<path style="fill:none;stroke:#263238;stroke-linecap:round;stroke-linejoin:round;stroke-miterlimit:10;" d="M257.253,216.791
					c0,0-2.479,17.725,3.221,29.275l2.845-7.385c0,0,19.78-0.528,30.066-13.187"/>
				<path style="fill:none;stroke:#263238;stroke-linecap:round;stroke-linejoin:round;stroke-miterlimit:10;" d="M268.066,201.758
					c0,0-4.483,16.615-1.319,28.22l1.319-5.802c0,0,24.791-6.419,30.066-14.067"/>
				<path style="fill:none;stroke:#263238;stroke-linecap:round;stroke-linejoin:round;stroke-miterlimit:10;" d="M280.907,190.945
					c0,0-5.993,12.396-5.856,22.681l2.927-5.011c0,0,20.946-3.956,24.638-10.549"/>
				<path style="fill:none;stroke:#263238;stroke-linecap:round;stroke-linejoin:round;stroke-miterlimit:10;" d="M293.385,180.296
					c-4.376,6.041-9.565,19.553-9.565,19.553l4.782-5.435c0,0,11.821-3.087,16.234-8.858"/>
				<g>
					<defs>
						<path id="XMLID_426_" d="M236.794,345.254c0,0,6.795-119.759,64.502-165.041c0,0-53.536,44.226-56.297,165.041H236.794z"/>
					</defs>
					<use xlink:href="#XMLID_426_"  style="overflow:visible;fill:#92E3A9;"/>
					<clipPath id="XMLID_00000142855331523706776810000013958606751510753954_">
						<use xlink:href="#XMLID_426_"  style="overflow:visible;"/>
					</clipPath>
					<path style="opacity:0.3;clip-path:url(#XMLID_00000142855331523706776810000013958606751510753954_);fill-opacity:0.7;" d="
						M236.794,345.254c0,0,6.795-119.759,64.502-165.041c0,0-53.536,44.226-56.297,165.041H236.794z"/>
					
						<use xlink:href="#XMLID_426_"  style="overflow:visible;fill:none;stroke:#263238;stroke-linecap:round;stroke-linejoin:round;stroke-miterlimit:10;"/>
				</g>
			</g>
			<g>
				<g>
					<defs>
						<path id="XMLID_428_" d="M231.39,220.409c0,0,14.248-8.214,2.571-37.879c-11.676-29.666-46.761-38.666-54.694-47.612
							C179.267,134.918,182.467,226.034,231.39,220.409z"/>
					</defs>
					<use xlink:href="#XMLID_428_"  style="overflow:visible;fill:#92E3A9;"/>
					<clipPath id="XMLID_00000137816470984178531290000015918462500883568558_">
						<use xlink:href="#XMLID_428_"  style="overflow:visible;"/>
					</clipPath>
					<path style="opacity:0.3;clip-path:url(#XMLID_00000137816470984178531290000015918462500883568558_);fill-opacity:0.7;" d="
						M234.006,182.512c-0.633-1.601-1.357-3.161-2.245-4.634c-1.793-2.973,2.719,5.888,2.811,13.067
						c0.033,2.595-0.659,6.593-4.195,9.497c-0.901-4.701-1.391-9.637-3.632-13.866c-11.463-21.631-38.224-41.242-42.475-44.476
						c0.46,0.58,15.11,18.97,23.78,29.6c4.651,5.708,7.742,12.91,10.797,19.543c3.883,8.43,7.361,17.027,10.814,25.64
						c0.482,1.202,0.964,2.405,1.446,3.607c3.88-2.425,6.043-6.918,6.906-11.411c1.474-7.672-0.286-15.599-2.738-23.017
						C234.882,184.87,234.468,183.68,234.006,182.512z"/>
					
						<use xlink:href="#XMLID_428_"  style="overflow:visible;fill:none;stroke:#263238;stroke-linecap:round;stroke-linejoin:round;stroke-miterlimit:10;"/>
				</g>
				<path style="fill:none;stroke:#263238;stroke-linecap:round;stroke-linejoin:round;stroke-miterlimit:10;" d="M230.069,183.766
					c0,0,2.217,15.854-2.881,26.184l-2.545-6.605c0,0-17.692-0.472-26.891-11.794"/>
				<path style="fill:none;stroke:#263238;stroke-linecap:round;stroke-linejoin:round;stroke-miterlimit:10;" d="M220.398,170.32
					c0,0,4.01,14.861,1.18,25.24l-1.18-5.189c0,0-22.173-5.741-26.891-12.582"/>
				<path style="fill:none;stroke:#263238;stroke-linecap:round;stroke-linejoin:round;stroke-miterlimit:10;" d="M208.913,160.649
					c0,0,5.36,11.087,5.238,20.286l-2.618-4.482c0,0-18.734-3.538-22.036-9.436"/>
				<path style="fill:none;stroke:#263238;stroke-linecap:round;stroke-linejoin:round;stroke-miterlimit:10;" d="M197.753,151.124
					c3.914,5.403,8.555,17.489,8.555,17.489l-4.277-4.861c0,0-10.573-2.761-14.52-7.923"/>
				<g>
					<defs>
						<path id="XMLID_427_" d="M245.989,293.805c0,0-3.7-102.255-55.313-142.755c0,0,49.698,44.51,50.419,159.048
							c0,0,1.623,0.32,2.495-2.317"/>
					</defs>
					<use xlink:href="#XMLID_427_"  style="overflow:visible;fill:#92E3A9;"/>
					<clipPath id="XMLID_00000116206069604704374500000016617895205582327184_">
						<use xlink:href="#XMLID_427_"  style="overflow:visible;"/>
					</clipPath>
					<path style="opacity:0.3;clip-path:url(#XMLID_00000116206069604704374500000016617895205582327184_);fill-opacity:0.7;" d="
						M245.989,293.805c0,0-3.7-102.255-55.313-142.755c0,0,49.698,44.51,50.419,159.048c0,0,1.623,0.32,2.495-2.317"/>
					
						<use xlink:href="#XMLID_427_"  style="overflow:visible;fill:none;stroke:#263238;stroke-linecap:round;stroke-linejoin:round;stroke-miterlimit:10;"/>
				</g>
			</g>
			<path style="fill:#263238;" d="M162.554,386.703c0,0-3.449-2.721,0.001-11.224c2.639-6.505,11.221-6.187,11.694-13.018
				c3.524,0.436,6.336-1.894,8.151-4.742c1.822-2.859,3.294-6.268,6.335-7.768c0.944-0.465,1.986-0.711,2.915-1.204
				c3.606-1.913,4.856-7.111,8.764-8.29c2.302-0.695,4.955,0.257,7.108-0.812c2.228-1.106,3.152-4.022,5.437-5.005
				c0.957-0.412,2.035-0.424,3.043-0.688c4.053-1.063,6.658-6.036,10.845-5.887c1.216,0.043,2.508,0.531,3.597-0.013
				c0.849-0.424,1.352-1.394,2.24-1.728c0.723-0.273,1.526-0.061,2.285,0.087c2.198,0.429,4.968,0.387,7.039-0.578
				c1.958-0.912,2.461-3.567,3.678-4.166c4.851-2.387,10.299,6.925,13.101,9.254c1.642,1.365,3.491-2.132,5.624-2.049
				c1.936,0.075,2.929,3.075,4.851,2.836c-0.889,0.703-0.384,2.253,0.597,2.821c0.981,0.568,2.183,0.509,3.31,0.63
				c2.764,0.296,5.255,1.739,7.651,3.149c0.411,0.242,0.837,0.497,1.101,0.895c0.29,0.438,0.35,0.999,0.652,1.428
				c0.627,0.89,2.092,0.956,2.56,1.939c0.227,0.478,0.143,1.042,0.254,1.559c0.316,1.481,2.06,2.151,3.57,2.258
				s3.139-0.064,4.428,0.729c0.984,0.606,1.581,1.67,2.412,2.474c3.009,2.909,6.482,2.751,9.254,6.434
				c2.899,3.851,4.858,8.054,9.003,10.835c7.024,4.713,8.994,11.347,10.91,17.525c1.916,6.178-25.226,21.529-79.963,25.458
				C190.264,413.769,161.828,390.862,162.554,386.703z"/>
			<path style="opacity:0.4;fill:none;stroke:#FFFFFF;stroke-linecap:round;stroke-linejoin:round;stroke-miterlimit:10;" d="
				M213.658,344.024c1.227,0.312,3.045,0.24,3.154-1.021c0.024-0.282-0.058-0.582,0.055-0.842c0.326-0.743,1.467-0.171,2.257-0.356
				c0.59-0.138,0.945-0.717,1.379-1.139c1.068-1.039,2.924-1.127,4.085-0.194c0.695,0.559,1.149,1.418,1.947,1.818
				c1.471,0.738,3.91-0.092,4.452,1.462"/>
			<path style="opacity:0.4;fill:none;stroke:#FFFFFF;stroke-linecap:round;stroke-linejoin:round;stroke-miterlimit:10;" d="
				M234.751,351.81c1.331,0.981,3.548,0.219,3.994-1.373c0.112-0.4,0.155-0.871,0.492-1.113c0.525-0.375,1.219,0.122,1.861,0.188
				c1.267,0.13,1.983-1.349,2.832-2.299c1-1.12,2.624-1.644,4.091-1.318c1.466,0.325,2.717,1.486,3.149,2.924
				c2.513,0.665,5.025,1.329,7.538,1.994"/>
			<path style="opacity:0.4;fill:none;stroke:#FFFFFF;stroke-linecap:round;stroke-linejoin:round;stroke-miterlimit:10;" d="
				M247.651,335.933c1.274-0.408,2.617-0.604,3.955-0.577c-0.35-0.834-0.099-1.881,0.591-2.465c0.69-0.584,1.765-0.659,2.529-0.175
				c1.237-1.245,3.621-0.983,4.558,0.501c0.098,0.422,0.197,0.844,0.295,1.266c1.964,0.647,3.804,1.67,5.391,2.995"/>
			<path style="opacity:0.4;fill:none;stroke:#FFFFFF;stroke-linecap:round;stroke-linejoin:round;stroke-miterlimit:10;" d="
				M268.582,345.33c0.659,0.195,1.318,0.391,1.978,0.586c-0.33-0.518,0.293-1.16,0.896-1.275c0.603-0.115,1.271,0.003,1.798-0.311
				c0.596-0.356,0.777-1.118,1.163-1.695c0.386-0.577,1.373-0.913,1.699-0.3c-0.078-0.649,0.635-1.169,1.288-1.148
				c0.653,0.022,1.23,0.409,1.767,0.783c1.707,1.188,3.415,2.377,5.122,3.565"/>
		</g>
		<g>
			<path style="fill:#FFFFFF;" d="M145.855,402.413c0,0,5.784-10.229,13.395-16.318c7.611-6.089,13.09-13.886,19.788-22.164
				c6.697-8.279,16.439-18.782,21.31-19.619s15.83,0.724,17.048,10.751c0,0,7.459-9.043,17.885-2.704s5.251,18.211,5.251,18.211
				s3.793-1.522,6.158,0c2.366,1.522,9.082,82.115,9.082,82.115s-5.499,1.299-11.283,3.734c-5.784,2.435-13.09,2.74-17.961,0
				c0,0-9.133,2.363-15.222,1.942c-6.089-0.42-22.528-0.725-28.312-2.247c-5.784-1.522-14.613-5.108-18.57-7.12
				s-8.524-6.796-10.351-10.493s-5.175-4.907-10.351-11.152C138.548,421.105,145.855,402.413,145.855,402.413z"/>
			<path style="opacity:0.4;fill:#92E3A9;" d="M246.692,370.574c-2.285-1.466-5.898-0.104-6.152-0.012
				c0.069-0.173,0.635-1.535,0.993-3.521l-6.256,13.171c0,0-9.661,12.582-13.124,18.215c-3.463,5.633-0.496,6.233-4.756,15.214
				c-4.259,8.98-10.469,26.156-17.049,27.553c-6.579,1.408-20.558-3.394-23.155-10.123c-2.609-6.718,3.671-11.485,11.358-21.228
				c7.688-9.742,10.885-13.401,10.273-17.926c-0.589-4.386,15.029-31.755,15.987-33.417c-0.405,0.535-2.817,3.773-5.837,7.758
				c1.209-2.21,2.371-4.819,3.477-7.838l-14.384-6.062c0,0-14.156,15.06-6.545,20.821c4.185,3.168,8.323,3.223,12.175-0.025
				c-3.046,3.933-5.959,7.589-7.607,9.389c-4.571,4.975-5.483,10.55-7.538,13.828c-2.055,3.267-10.192,16.899-17.211,21.816
				c-7.018,4.917-11.174,6.268-16.887,3.186c-3.902-2.101-6.326-13.69-7.48-20.812c-0.727,1.143-1.12,1.847-1.12,1.847
				s-7.307,18.7-2.124,24.944c5.171,6.245,8.519,7.445,10.342,11.151c1.835,3.694,6.395,8.473,10.354,10.493
				c3.959,2.008,12.79,5.598,18.573,7.122c5.783,1.512,22.22,1.824,28.315,2.239c6.083,0.427,15.214-1.939,15.214-1.939
				c4.871,2.736,12.178,2.436,17.961,0c4.282-1.801,8.415-2.99,10.273-3.486c0.323-0.415,0.623-0.843,0.935-1.27
				C254.91,442.349,248.896,371.983,246.692,370.574z"/>
			<path style="opacity:0.4;fill:#92E3A9;" d="M222.495,358.42c0,0-14.54,16.792-4.49,24.124
				c10.049,7.331,20.822-6.645,21.294-18.214L222.495,358.42z"/>
			<g>
				<path style="fill:none;stroke:#263238;stroke-linecap:round;stroke-linejoin:round;stroke-miterlimit:10;" d="M255.776,452.68
					c0,0-0.369,0.092-1.016,0.254c-1.858,0.496-5.991,1.685-10.273,3.486c-5.783,2.436-13.09,2.736-17.961,0
					c0,0-9.131,2.366-15.214,1.939c-6.095-0.415-22.532-0.727-28.315-2.239c-5.783-1.524-14.613-5.114-18.573-7.122
					c-3.959-2.02-8.519-6.799-10.354-10.493c-1.824-3.705-5.171-4.906-10.342-11.151c-5.183-6.245,2.124-24.944,2.124-24.944
					s0.392-0.704,1.12-1.847c2.043-3.232,6.66-9.973,12.282-14.463c7.607-6.095,13.09-13.886,19.785-22.174
					c6.695-8.276,16.437-18.78,21.308-19.611c4.871-0.843,15.837,0.727,17.049,10.746c0,0,7.457-9.038,17.88-2.701
					c6.833,4.155,6.972,10.677,6.256,14.683c-0.358,1.985-0.923,3.347-0.993,3.521c0.254-0.092,3.867-1.454,6.152,0.012
					c2.205,1.408,8.219,71.774,9.004,81.09C255.741,452.322,255.776,452.68,255.776,452.68z"/>
				<path style="fill:none;stroke:#263238;stroke-linecap:round;stroke-linejoin:round;stroke-miterlimit:10;" d="M217.396,355.063
					c-3.349,2.72-21.615,37.197-25.039,41.307c-3.425,4.11-12.786,15.821-16.896,20.126c-4.11,4.305-7.306,10.854-7.306,10.854
					s-4.338,4.402-8.448,7.26"/>
				<path style="fill:none;stroke:#263238;stroke-linecap:round;stroke-linejoin:round;stroke-miterlimit:10;" d="M240.533,370.569
					c0,0-5.023,8.448-7.991,15.526c-2.968,7.078-11.568,25.115-15.145,31.965c-3.577,6.85-9.285,22.604-13.395,25.116
					c-4.11,2.512-10.046,8.22-13.699,7.763"/>
				<path style="fill:none;stroke:#263238;stroke-linecap:round;stroke-linejoin:round;stroke-miterlimit:10;" d="M193.498,452.994
					c0,0-1.019-2.245,0-2.766"/>
				<path style="fill:none;stroke:#263238;stroke-linecap:round;stroke-linejoin:round;stroke-miterlimit:10;" d="M229.098,454.098
					c0,0,8.229-7.868,9.375-13.619c1.146-5.751,17.301-50.998,17.301-50.998"/>
				<path style="fill:#FFFFFF;stroke:#263238;stroke-linecap:round;stroke-linejoin:round;stroke-miterlimit:10;" d="
					M198.065,352.358c0,0,9.361-0.608,14.384,6.062c0,0-7.535,18.77-16.668,13.976C186.648,367.601,198.065,352.358,198.065,352.358
					z"/>
				<path style="fill:#FFFFFF;stroke:#263238;stroke-linecap:round;stroke-linejoin:round;stroke-miterlimit:10;" d="
					M222.495,358.42c0,0,9.412-0.33,16.804,5.909c0,0-4.931,21.081-16.804,17.884C210.622,379.017,218.614,365.222,222.495,358.42z"
					/>
				<path style="fill:none;stroke:#263238;stroke-linecap:round;stroke-linejoin:round;stroke-miterlimit:10;" d="M242.816,376.427
					c0,0-5.251,7.919-4.566,13.702s8.442,4.707,8.442,4.707"/>
				<path style="fill:none;stroke:#263238;stroke-linecap:round;stroke-linejoin:round;stroke-miterlimit:10;" d="M203.544,396.37
					c0,0,6.452,4.785,12.702,6.046"/>
				<path style="fill:none;stroke:#263238;stroke-linecap:round;stroke-linejoin:round;stroke-miterlimit:10;" d="M149.432,405.046
					c0,0,0.913,10.96,3.197,14.841c2.283,3.882,17.636,3.653,17.636,3.653"/>
				<path style="fill:none;stroke:#263238;stroke-linecap:round;stroke-linejoin:round;stroke-miterlimit:10;" d="M174.091,431.075
					c0,0,3.197,6.545,11.188,10.122c7.991,3.577,13.544,1.979,13.544,1.979"/>
				<path style="fill:none;stroke:#263238;stroke-linecap:round;stroke-linejoin:round;stroke-miterlimit:10;" d="M212.449,447.049
					c0,0,12.101,5.552,19.407,1.182"/>
				<path style="fill:none;stroke:#263238;stroke-linecap:round;stroke-linejoin:round;stroke-miterlimit:10;" d="M178.657,378.294
					c0,0,2.584,6.04,7.799,7.377"/>
				<path style="fill:none;stroke:#263238;stroke-linecap:round;stroke-linejoin:round;stroke-miterlimit:10;" d="M229.098,416.496
					c0,0,3.777,3.391,9.09,3.391"/>
			</g>
		</g>
		<g>
			<path style="fill:#FFFFFF;" d="M344.645,423.083c0,0-7.307,13.24-15.064,16.899c-7.768,3.648-14.163,2.286-18.723,5.021
				c-4.571,2.736-12.328,4.109-22.832,5.933c-10.504,1.824-21.078,4.109-28.58,2.747c-2.528-0.462-5.01-1.362-7.434-2.62
				c-4.756-2.447-9.292-6.233-13.54-10.585c-3.728-3.832-3.417-10.031-0.9-14.163c1.258-2.101,3.093-3.682,5.241-4.144
				c0,0-2.516-1.997-5.344-4.536c-3.07-2.736-6.487-6.118-7.434-8.253c-1.835-4.109-1.374-11.416,5.021-17.811
				c6.395-6.395,14.152-5.471,14.152-5.471s-9.777-8.011-5.933-17.361c1.385-3.382,3.867-7.849,11.416-9.13
				c10.804-1.824,16.899,4.34,16.899,4.34s-1.708-10.723,9.188-13.009c10.897-2.285,34.64,15.064,39.212,17.349
				c3.29,1.639,8.449,5.402,13.297,8.392c0.392,0.242,0.785,0.485,1.166,0.716c1.339,0.808,2.643,1.535,3.855,2.112
				c5.656,4.109,7.364,10.596,10.216,12.409c1.697,1.074,3.624,0.67,5.194-0.277c0.196,0.289,0.369,0.566,0.52,0.843
				C356.523,396.592,362.006,413.953,344.645,423.083z"/>
			<path style="opacity:0.4;fill:#92E3A9;" d="M344.645,423.083c0,0-7.307,13.24-15.064,16.899
				c-7.768,3.648-14.163,2.286-18.723,5.021c-4.571,2.736-12.328,4.109-22.832,5.933c-10.504,1.824-21.078,4.109-28.58,2.747
				c-2.528-0.462-5.01-1.362-7.434-2.62c5.668-0.439,10.008-3.278,12.039-7.538c2.505-5.275-4.952-5.679-6.741-2.332
				c-1.789,3.336-12.513,2.135-10.62,0c1.893-2.124-1.893-13.09-3.878-14.567c-0.854-0.646-3.047-0.589-5.241-0.312
				c1.258-2.101,3.093-3.682,5.241-4.144c0,0-2.516-1.997-5.344-4.536l6.995,4.156c0,0,14.983,13.009,23.19,19.404
				c8.207,6.383,23.721,4.871,27.796,0c4.075-4.883-14.429-20.085-20.212-24.702c-5.598-4.467-8.069-11.935-8.207-12.397
				c0.485,0.462,15.641,15.133,24.033,24.921c8.542,9.95,17.441,7.007,27.103,2.493c9.65-4.513,4.259-17.407,1.177-20.477
				c-3.093-3.07-16.703-14.891-18.838-18.48c-2.066-3.463-17.049-16.276-17.984-17.072c1.027,0.658,17.453,11.312,19.808,14.002
				c2.436,2.77,8.53,6.96,17.695,13.54c9.177,6.579,16.103,14.129,22.878,0c4.652-9.719-3.855-20.535-9.615-26.341
				c0.392,0.242,0.785,0.485,1.166,0.716c1.339,0.808,2.643,1.535,3.855,2.112c5.656,4.109,7.364,10.596,10.216,12.409
				c1.697,1.074,3.624,0.67,5.194-0.277c0.196,0.289,0.369,0.566,0.52,0.843C356.523,396.592,362.006,413.953,344.645,423.083z"/>
			<path style="opacity:0.4;fill:#92E3A9;" d="M252.034,381.262c0,0,3.425-10.046,14.841-13.014c0,0,11.188,7.763,11.188,14.156
				c0,6.393-4.313,11.337-12.317,8.865C257.742,388.796,252.034,381.262,252.034,381.262z"/>
			<path style="opacity:0.4;fill:#92E3A9;" d="M278.891,365.101c0,0,4.577-5.936,11.645-7.763c0,0,14.737,11.188,9.195,17.124
				C294.189,380.399,281.174,372.864,278.891,365.101z"/>
			<path style="opacity:0.4;fill:#92E3A9;" d="M236.794,409.139c0,0,5.633-8.824,13.928-11.188c0,0,17.124,9.666,8.448,17.276
				C250.494,422.838,238.849,413.249,236.794,409.139z"/>
			<g>
				<path style="fill:none;stroke:#263238;stroke-linecap:round;stroke-linejoin:round;stroke-miterlimit:10;" d="M344.645,423.083
					c0,0-7.307,13.24-15.064,16.899c-7.768,3.648-14.163,2.286-18.723,5.021c-4.571,2.736-12.328,4.109-22.832,5.933
					c-10.504,1.824-21.078,4.109-28.58,2.747c-7.503-1.374-14.567-6.637-20.974-13.205c-5.621-5.783-2.055-16.934,4.34-18.307
					c0,0-10.954-8.68-12.778-12.79c-1.835-4.109-1.374-11.416,5.021-17.811c6.395-6.395,14.152-5.471,14.152-5.471
					s-9.777-8.011-5.933-17.361c1.385-3.382,3.867-7.849,11.416-9.13c10.804-1.824,16.899,4.34,16.899,4.34
					s-1.708-10.723,9.188-13.009c10.897-2.285,34.64,15.064,39.212,17.349c3.555,1.778,9.304,6.025,14.463,9.107
					c1.339,0.808,2.643,1.535,3.855,2.112c5.656,4.109,7.364,10.596,10.216,12.409c1.697,1.074,3.624,0.67,5.194-0.277
					c0.196,0.289,0.369,0.566,0.52,0.843C356.523,396.592,362.006,413.953,344.645,423.083z"/>
				<path style="fill:none;stroke:#263238;stroke-linecap:round;stroke-linejoin:round;stroke-miterlimit:10;" d="M271.585,363.948
					c1.522,3.577,15.42,16.059,21.41,19.712c5.989,3.653,22.733,21.919,27.604,24.354c4.871,2.435,9.133,10.046,14.917,11.873"/>
				<path style="fill:none;stroke:#263238;stroke-linecap:round;stroke-linejoin:round;stroke-miterlimit:10;" d="M249.209,386.095
					c8.372,7.002,17.809,18.875,22.376,22.223c4.566,3.349,14.917,14.917,19.484,20.701c4.566,5.784,7.611,9.742,25.572,12.177"/>
				<path style="fill:none;stroke:#263238;stroke-linecap:round;stroke-linejoin:round;stroke-miterlimit:10;" d="M323.033,423.54
					c0,0-1.218,10.96-17.961,13.091"/>
				<path style="fill:none;stroke:#263238;stroke-linecap:round;stroke-linejoin:round;stroke-miterlimit:10;" d="M343.126,391.917
					c0,0,4.566,13.053-7.611,17.923"/>
				<path style="fill:none;stroke:#263238;stroke-linecap:round;stroke-linejoin:round;stroke-miterlimit:10;" d="M242.816,422.17
					c0,0,11.81,9.894,16.636,12.634c4.827,2.74,11.22,10.046,16.09,11.568c4.871,1.522,9.742,0,9.742,0"/>
				<path style="fill:none;stroke:#263238;stroke-linecap:round;stroke-linejoin:round;stroke-miterlimit:10;" d="M297.904,435.805
					c0,0-2.07,3.565-4.91,5.392"/>
				<path style="fill:#FFFFFF;stroke:#263238;stroke-linecap:round;stroke-linejoin:round;stroke-miterlimit:10;" d="
					M249.209,379.474c0,0,3.425-10.046,14.841-13.014c0,0,11.188,7.763,11.188,14.156c0,6.393-4.313,11.337-12.317,8.865
					C254.917,387.009,249.209,379.474,249.209,379.474z"/>
				<path style="fill:#FFFFFF;stroke:#263238;stroke-linecap:round;stroke-linejoin:round;stroke-miterlimit:10;" d="
					M277.064,363.948c0,0,4.577-5.936,11.644-7.763c0,0,14.737,11.188,9.195,17.124
					C292.362,379.246,279.348,371.711,277.064,363.948z"/>
				<path style="fill:#FFFFFF;stroke:#263238;stroke-linecap:round;stroke-linejoin:round;stroke-miterlimit:10;" d="
					M235.281,407.557c0,0,5.633-8.824,13.928-11.188c0,0,17.124,9.666,8.448,17.276
					C248.981,421.257,237.336,411.667,235.281,407.557z"/>
				<path style="fill:#FFFFFF;stroke:#263238;stroke-linecap:round;stroke-linejoin:round;stroke-miterlimit:10;" d="
					M239.299,436.199c0,0,7.939-1.607,9.887-8.849c0,0,8.121,6.275,3.448,11.152C245.749,445.687,239.299,436.199,239.299,436.199z"
					/>
				<path style="fill:none;stroke:#263238;stroke-linecap:round;stroke-linejoin:round;stroke-miterlimit:10;" d="M308.801,388.15
					c0,0,4.11-1.827,5.251-7.535"/>
				<path style="fill:none;stroke:#263238;stroke-linecap:round;stroke-linejoin:round;stroke-miterlimit:10;" d="M294.417,396.37
					c0,0-1.765,10.031-11.492,11.645"/>
				<path style="fill:none;stroke:#263238;stroke-linecap:round;stroke-linejoin:round;stroke-miterlimit:10;" d="M269.986,419.887
					c0,0-3.998,5.792-9.876,7.463"/>
				<path style="fill:none;stroke:#263238;stroke-linecap:round;stroke-linejoin:round;stroke-miterlimit:10;" d="M273.602,445.523
					c0,0-2.474,3.818-6.584,5.416"/>
				<path style="fill:none;stroke:#263238;stroke-linecap:round;stroke-linejoin:round;stroke-miterlimit:10;" d="M280.782,447.049
					c0,0,0.415,2.196-0.978,3.89"/>
				<path style="fill:none;stroke:#263238;stroke-linecap:round;stroke-linejoin:round;stroke-miterlimit:10;" d="M252.405,448.994
					c0,0,5.936-0.11,9.818-5.818"/>
			</g>
		</g>
	</g>
</g>
</svg>
