<?xml version="1.0" encoding="utf-8"?>
<!-- Generator: Adobe Illustrator 27.5.0, SVG Export Plug-In . SVG Version: 6.00 Build 0)  -->
<svg version="1.1" xmlns="http://www.w3.org/2000/svg" xmlns:xlink="http://www.w3.org/1999/xlink" x="0px" y="0px"
	 viewBox="0 0 500 500" style="enable-background:new 0 0 500 500;" xml:space="preserve">
<g id="Background_Simple">
	<g>
		<path style="opacity:0.7;fill:#FFFFFF;" d="M67.931,167.086c0,0-27.877,71.988,11.297,144.503
			c39.174,72.516,119.879,110.802,184.469,143.548c64.59,32.746,131.661,16.799,163.534-36.838
			c31.873-53.637-11.845-91.928-11.897-168.418c-0.051-76.49,11.447-96.742-29.963-161.364
			c-41.41-64.623-143.059-78.925-219.9-30.996C88.631,105.45,67.931,167.086,67.931,167.086z"/>
	</g>
	<g>
		<path style="fill:#92E3A9;" d="M401.552,85.78c-0.186-0.169-0.373-0.338-0.56-0.507c-51.569-46.435-120.064-48.528-169.963,1.457
			c-26.008,26.052-72.187,21.067-105.227,30.49C11.882,149.71,31.578,304.275,87.85,378.991
			c50.78,67.424,160.807,82.656,234.731,49.482c64.959-29.151,110.699-94.275,126.976-162.369
			c1.632-6.829,2.975-13.727,4.001-20.673C462.121,187.465,445.675,125.902,401.552,85.78z"/>
		<path style="opacity:0.7;fill:#FFFFFF;" d="M401.552,85.78c-0.186-0.169-0.373-0.338-0.56-0.507
			c-51.569-46.435-120.064-48.528-169.963,1.457c-26.008,26.052-72.187,21.067-105.227,30.49
			C11.882,149.71,31.578,304.275,87.85,378.991c50.78,67.424,160.807,82.656,234.731,49.482
			c64.959-29.151,110.699-94.275,126.976-162.369c1.632-6.829,2.975-13.727,4.001-20.673
			C462.121,187.465,445.675,125.902,401.552,85.78z"/>
	</g>
</g>
<g id="Clouds">
	<g>
		<path style="fill:none;stroke:#263238;stroke-linecap:round;stroke-linejoin:round;stroke-miterlimit:10;" d="M66.767,151.709
			c0,0,3.11-10.804,24.077-10.861c20.967-0.056,33.257,18.933,33.257,18.933s8.791-8.27,19.415-2.75
			c10.625,5.52,10.595,13.648,10.595,13.648l87.296,7l-189.77,0.036"/>
		<path style="fill:none;stroke:#263238;stroke-linecap:round;stroke-linejoin:round;stroke-miterlimit:10;" d="M463.582,223.446
			c0,0-3.11-10.804-24.077-10.861c-20.967-0.056-33.257,18.933-33.257,18.933s-8.791-8.27-19.415-2.75
			c-10.624,5.52-10.595,8.648-10.595,8.648h-27.296"/>
		<path style="fill:none;stroke:#263238;stroke-linecap:round;stroke-linejoin:round;stroke-miterlimit:10;" d="M34.558,218.205
			c0,0,3.11-10.804,24.077-10.861c20.967-0.057,33.257,18.932,33.257,18.932s8.791-8.27,19.415-2.75
			c10.624,5.52,10.595,8.648,10.595,8.648h27.296"/>
		<path style="fill:none;stroke:#263238;stroke-linecap:round;stroke-linejoin:round;stroke-miterlimit:10;" d="M45.88,301.534
			l29.598-2c0,0-4.213-8.021,5.288-17.516c9.502-9.495,19.157-3.165,19.157-3.165s9.32-28.879,36.513-25.49
			c27.193,3.389,30.061,27.128,30.061,27.128s5.812-5.827,17.651-2.007c11.839,3.82,13.629,18.487,10.703,24.659
			c0,0,13.484,2.371,14.378,12.777c0,0,0.833-9.206,13.523-9.488c12.689-0.282,15.854,13.96,15.854,13.96h14.242"/>
		<path style="fill:none;stroke:#263238;stroke-linecap:round;stroke-linejoin:round;stroke-miterlimit:10;" d="M435.045,121.298
			l-41.275-5.063c0,0-1.214-11.817-13.904-11.229c0,0-2.8-11.47-16.448-14.936c-13.648-3.466-20.769,10.878-20.769,10.878
			s-7.228-2.25-14.27,2.185c-6.538,4.117-3.928,11.955-3.928,11.955l-72.009,7.224c0,0,105.767,2.409,173.02,0.161"/>
		<path style="fill:none;stroke:#263238;stroke-linecap:round;stroke-linejoin:round;stroke-miterlimit:10;" d="M393.816,278.923
			l-71.125-3.203c-7.818-23.662-37.404-13.766-37.404-13.766c-11.196-24.539-37.342-12.844-37.342-12.844
			s-13.297-23.649-39.529-18.7c-26.232,4.949-31.616,25.881-31.616,25.881l-18.107,0.687"/>
		
			<line style="fill:none;stroke:#263238;stroke-linecap:round;stroke-linejoin:round;stroke-miterlimit:10;" x1="106.563" y1="260.278" x2="36.469" y2="262.153"/>
	</g>
</g>
<g id="Stone">
	<path style="fill:none;stroke:#263238;stroke-miterlimit:10;" d="M423.888,331.879c-3.643,6.545-7.563,12.941-11.766,19.141
		c-1.9,2.82-3.86,5.58-5.86,8.31c-0.01,0-0.01,0.01-0.01,0.01c-3.58,4.83-7.33,9.53-11.25,14.08c-1.25,1.47-2.53,2.92-3.83,4.35
		c-2.97,3.29-6.03,6.48-9.18,9.58c-0.59,0.58-1.17,1.15-1.76,1.72c-16.88,16.26-36.22,29.79-57.65,39.4
		c-39.5,17.74-89.33,21.64-134.91,11.13c-2.67-0.62-5.33-1.28-7.97-2c-1.94-0.53-3.87-1.08-5.79-1.66
		c-2.07-0.62-4.13-1.28-6.17-1.97c-1-0.33-2-0.68-3-1.03c-4.43-1.56-8.8-3.28-13.07-5.14c-0.48-0.21-0.95-0.42-1.42-0.63
		c-14.63-6.517-28.234-14.819-40.219-24.899"/>
	<g>
		<g>
			<path style="fill:#263238;" d="M389.77,296.689c0,0,16.379,5.543,13.959,18.05C403.729,314.739,384.836,318.252,389.77,296.689z"
				/>
			<path style="fill:#263238;" d="M422.056,308.107c0,0,12.528-10.263,25.977,0.024
				C448.034,308.131,434.963,321.063,422.056,308.107z"/>
			<path style="fill:#263238;" d="M455.275,274.104c0,0-3.454,24.964-23.869,12.689
				C431.406,286.792,442.939,270.713,455.275,274.104z"/>
			<path style="fill:#263238;" d="M431.551,253.725c0,0,15.099,13.846-1.371,24.903C430.18,278.627,420.502,265.311,431.551,253.725
				z"/>
			<path style="fill:#263238;" d="M404.555,269.988c0,0,19.493,2.887,15.045,20.482C419.6,290.47,400.403,286.414,404.555,269.988z"
				/>
			<path style="fill:none;stroke:#263238;stroke-linecap:round;stroke-linejoin:round;stroke-miterlimit:10;" d="M404.718,334.341
				c0,0-3.339-12.824,9.661-29.243c13-16.419,19.756-31.306,18.188-43.399"/>
			<path style="fill:none;stroke:#263238;stroke-linecap:round;stroke-linejoin:round;stroke-miterlimit:10;" d="M409.604,276.296
				c0,0,10.249,7.407,11.155,20.122"/>
			<path style="fill:none;stroke:#263238;stroke-linecap:round;stroke-linejoin:round;stroke-miterlimit:10;" d="M446.81,282.301
				c0,0-8.851,7.304-19.761,3.516"/>
			<path style="fill:none;stroke:#263238;stroke-linecap:round;stroke-linejoin:round;stroke-miterlimit:10;" d="M440.094,308.869
				c0,0-19.563,0.644-26.375-2.908"/>
			<path style="fill:none;stroke:#263238;stroke-linecap:round;stroke-linejoin:round;stroke-miterlimit:10;" d="M393.816,303.619
				c0,0,5.533,10.602,13.766,12.534"/>
			<path style="fill:none;stroke:#FFFFFF;stroke-linecap:round;stroke-linejoin:round;stroke-miterlimit:10;" d="M431.677,273.759
				c0.979-3.928,1.412-8.031,0.891-12.06"/>
			<path style="fill:none;stroke:#FFFFFF;stroke-linecap:round;stroke-linejoin:round;stroke-miterlimit:10;" d="M409.604,276.296
				c3.932,2.981,7.119,7.21,9.074,11.716"/>
			<path style="fill:none;stroke:#FFFFFF;stroke-linecap:round;stroke-linejoin:round;stroke-miterlimit:10;" d="M446.81,282.301
				c-3.064,2.393-6.927,3.937-10.766,4.438"/>
			<path style="fill:none;stroke:#FFFFFF;stroke-linecap:round;stroke-linejoin:round;stroke-miterlimit:10;" d="M440.094,308.869
				c-4.797,0.135-9.62,0.032-14.402-0.371"/>
			<path style="fill:none;stroke:#FFFFFF;stroke-linecap:round;stroke-linejoin:round;stroke-miterlimit:10;" d="M393.816,303.619
				c1.86,3.349,4.284,6.502,7.154,9.042"/>
		</g>
	</g>
	<g>
		<g>
			<path style="fill:#263238;" d="M137.32,365.875c0,0-15.358,7.945-11.083,19.945C126.237,385.821,145.444,386.451,137.32,365.875z
				"/>
			<path style="fill:#263238;" d="M107.12,382.023c0,0-13.93-8.26-25.678,3.934C81.442,385.957,96.31,396.775,107.12,382.023z"/>
			<path style="fill:#263238;" d="M69.162,353.407c0,0,7.172,24.16,25.507,8.952C94.669,362.359,80.847,348.198,69.162,353.407z"/>
			<path style="fill:#263238;" d="M89.548,329.689c0,0-12.843,15.961,5.104,24.413C94.652,354.102,102.215,339.48,89.548,329.689z"
				/>
			<path style="fill:#263238;" d="M118.684,341.704c0,0-18.836,5.788-11.79,22.513C106.894,364.217,125.262,357.318,118.684,341.704
				z"/>
			<path style="fill:none;stroke:#263238;stroke-linecap:round;stroke-linejoin:round;stroke-miterlimit:10;" d="M128.379,406.872
				c0,0,1.201-14.704-14.123-28.979c-15.324-14.275-24.243-27.975-24.513-40.167"/>
			<path style="fill:none;stroke:#263238;stroke-linecap:round;stroke-linejoin:round;stroke-miterlimit:10;" d="M114.643,348.701
				c0,0-9.018,8.865-8,21.571"/>
			<path style="fill:none;stroke:#263238;stroke-linecap:round;stroke-linejoin:round;stroke-miterlimit:10;" d="M78.764,360.237
				c0,0,9.85,5.889,20.065,0.502"/>
			<path style="fill:none;stroke:#263238;stroke-linecap:round;stroke-linejoin:round;stroke-miterlimit:10;" d="M89.402,385.492
				c0,0,19.437-2.308,25.637-6.844"/>
			<path style="fill:none;stroke:#263238;stroke-linecap:round;stroke-linejoin:round;stroke-miterlimit:10;" d="M134.363,373.335
				c0,0-3.787,11.635-11.636,14.784"/>
			<path style="fill:none;stroke:#FFFFFF;stroke-linecap:round;stroke-linejoin:round;stroke-miterlimit:10;" d="M92.44,349.515
				c-1.559-3.736-2.604-7.727-2.696-11.789"/>
			<path style="fill:none;stroke:#FFFFFF;stroke-linecap:round;stroke-linejoin:round;stroke-miterlimit:10;" d="M114.643,348.701
				c-3.439,3.539-5.953,8.199-7.208,12.948"/>
			<path style="fill:none;stroke:#FFFFFF;stroke-linecap:round;stroke-linejoin:round;stroke-miterlimit:10;" d="M78.764,360.237
				c3.389,1.904,7.44,2.849,11.312,2.767"/>
			<path style="fill:none;stroke:#FFFFFF;stroke-linecap:round;stroke-linejoin:round;stroke-miterlimit:10;" d="M89.402,385.492
				c4.763-0.588,9.515-1.417,14.182-2.534"/>
			<path style="fill:none;stroke:#FFFFFF;stroke-linecap:round;stroke-linejoin:round;stroke-miterlimit:10;" d="M134.363,373.335
				c-1.335,3.591-3.257,7.073-5.712,10.016"/>
		</g>
	</g>
	<g>
		<g>
			<path style="fill:#92E3A9;stroke:#263238;stroke-linecap:round;stroke-linejoin:round;stroke-miterlimit:10;" d="M359.912,364.01
				c12.17,6.1,17.92,18.18,20.32,25.06c0.59-0.57,1.17-1.14,1.76-1.72c3.15-3.1,6.21-6.29,9.18-9.58c1.3-1.43,2.58-2.88,3.83-4.35
				c0.58-2.32,1.24-4.77,1.98-7.3c0.64-2.19,1.35-4.44,2.12-6.72c0.83-2.47,1.73-4.97,2.72-7.46c0.85-2.15,1.76-4.3,2.74-6.41
				c1.02-2.2,1.85-4.24,2.51-6.1c2.76-7.81,2.58-12.71,1.12-15.2c-1.66-2.82-4.95-2.58-7.48,0c-0.5,0.51-1,1.15-1.5,1.89
				c0,0,0,0-0.01,0.01c-1.87,2.77-3.75,6.95-5.36,11.07c-2.59,6.59-4.48,12.99-4.48,12.99s2.95-21.58,2.12-33.12
				c-0.59-8.1-1.45-15.36-3.04-20.51c-1.73-5.59-4.33-8.69-8.4-7.68c-5.68,1.41-2.94,14.99-1.14,33.38
				c0.63,6.39,1.14,13.37,1.14,20.62c0,4.95-0.23,10.03-0.83,15.14c0,0-0.31-0.51-0.84-1.43c-2.71-4.71-11.31-20.25-14.57-33.78
				c-3.89-16.16-14.7-9.38-11.24,5.09s17.72,22.76,23.01,38.48c0,0-18.24-17.49-24.28-10.84
				C347.892,359.29,356.282,362.19,359.912,364.01z"/>
			<path style="opacity:0.2;fill-opacity:0.7;stroke:#263238;stroke-miterlimit:10;" d="M359.912,364.01
				c12.17,6.1,17.92,18.18,20.32,25.06c0.59-0.57,1.17-1.14,1.76-1.72c3.15-3.1,6.21-6.29,9.18-9.58c1.3-1.43,2.58-2.88,3.83-4.35
				c0.58-2.32,1.24-4.77,1.98-7.3c0.64-2.19,1.35-4.44,2.12-6.72c0.83-2.47,1.73-4.97,2.72-7.46c0.85-2.15,1.76-4.3,2.74-6.41
				c1.02-2.2,1.85-4.24,2.51-6.1c2.76-7.81,2.58-12.71,1.12-15.2c-1.66-2.82-4.95-2.58-7.48,0c-0.5,0.51-1,1.15-1.5,1.89
				c0,0,0,0-0.01,0.01c-1.87,2.77-3.75,6.95-5.36,11.07c-2.59,6.59-4.48,12.99-4.48,12.99s2.95-21.58,2.12-33.12
				c-0.59-8.1-1.45-15.36-3.04-20.51c-1.73-5.59-4.33-8.69-8.4-7.68c-5.68,1.41-2.94,14.99-1.14,33.38
				c0.63,6.39,1.14,13.37,1.14,20.62c0,4.95-0.23,10.03-0.83,15.14c0,0-0.31-0.51-0.84-1.43c-2.71-4.71-11.31-20.25-14.57-33.78
				c-3.89-16.16-14.7-9.38-11.24,5.09s17.72,22.76,23.01,38.48c0,0-18.24-17.49-24.28-10.84
				C347.892,359.29,356.282,362.19,359.912,364.01z"/>
		</g>
		<g>
			<path style="fill:#92E3A9;stroke:#263238;stroke-linecap:round;stroke-linejoin:round;stroke-miterlimit:10;" d="M373.042,338.3
				c2.51,5.98,4.2,12.28,5.33,18.29c3.07,16.28,2.03,30.45,2.03,30.45l1.59,0.31c3.15-3.1,6.21-6.29,9.18-9.58
				c1.3-1.43,2.58-2.88,3.83-4.35c3.92-4.55,7.67-9.25,11.25-14.08c0,0,0-0.01,0.01-0.01c2-2.73,3.96-5.49,5.86-8.31
				c-4.86,2.07-10.12,6.03-13.02,8.38c-1.39,1.12-2.24,1.88-2.24,1.88c1.3-3.44,3.02-6.51,4.96-9.34
				c6.83-9.96,16.32-17.14,19.41-28.3c3.98-14.34-6.58-21.5-11.05-5.48c-0.56,2-1.24,4.03-1.99,6.07
				c-5.33,14.3-14.67,28.57-14.67,28.57c2.43-7.85,4.39-17.31,5.68-26.67c0.01-0.01,0.01-0.01,0.01-0.01
				c2.95-21.41,2.41-42.34-4.05-42.45c-4.93-0.09-6.67,4.45-6.72,12.89c-0.04,4.01,0.31,8.91,0.88,14.62
				c1.76,17.69-3.26,43.15-3.26,43.15s-2.83-23.52-7.16-32.07c-0.45-0.88-0.91-1.6-1.38-2.12
				C372.432,314.55,363.732,316.11,373.042,338.3z"/>
			<path style="fill:none;stroke:#263238;stroke-linecap:round;stroke-linejoin:round;stroke-miterlimit:10;" d="M377.974,337.284
				c7.899,18.73,7.885,45.84,7.885,45.84s11.796-53.654,9.476-76.392"/>
			<path style="fill:none;stroke:#263238;stroke-linecap:round;stroke-linejoin:round;stroke-miterlimit:10;" d="M413.764,327.241
				c0,0-12.546,25.3-23.783,34.89"/>
			<path style="fill:none;stroke:#263238;stroke-linecap:round;stroke-linejoin:round;stroke-miterlimit:10;" d="M387.452,375.49
				c1.8-2.79,5.49-6.16,9.53-9.37c3.12-2.47,6.44-4.85,9.27-6.78c0,0,0-0.01,0.01-0.01"/>
		</g>
	</g>
	<g>
		<g>
			<path style="fill:#92E3A9;stroke:#263238;stroke-linecap:round;stroke-linejoin:round;stroke-miterlimit:10;" d="M142.512,418.96
				c0.01,0.01,0.02,0.03,0.04,0.04c1.33,1.44,2.89,2.97,4.67,4.58c1.52,1.36,3.01,2.78,4.45,4.22c4.27,1.86,8.64,3.58,13.07,5.14
				c1,0.35,2,0.7,3,1.03c2.04,0.69,4.1,1.35,6.17,1.97c1.92,0.58,3.85,1.13,5.79,1.66c2.64,0.72,5.3,1.38,7.97,2
				c1.18-5.52,3.5-11.43,7.87-16.61c2.62-3.1,9.19-9.07,4.59-11.18c-8.17-3.74-18.05,19.52-18.05,19.52
				c-1.33-16.53,8.52-29.77,6-44.43c-2.51-14.66-15.12-16.64-12.33-0.25c2.33,13.72,0.54,31.39-0.1,36.79
				c-0.12,1.05-0.21,1.64-0.21,1.64c-2.56-4.45-4.76-9.03-6.71-13.57c0-0.01-0.01-0.02-0.01-0.02c-2.86-6.66-5.13-13.28-7.07-19.4
				c-5.59-17.62-8.41-31.18-14.19-30.24c-4.14,0.68-5.31,4.55-4.7,10.37c0.57,5.36,2.63,12.37,5.28,20.05
				c3.72,10.76,14.64,29.03,14.98,29.6c-0.26-0.31-4.41-5.29-9.22-10.17c-3.11-3.15-6.48-6.25-9.29-8.06
				c-0.01-0.01-0.01-0.01-0.01-0.01c-0.75-0.48-1.46-0.87-2.12-1.15c-3.35-1.37-6.46-0.3-6.88,2.95
				C135.142,408.29,136.902,412.87,142.512,418.96z"/>
			<path style="opacity:0.2;fill-opacity:0.7;stroke:#263238;stroke-miterlimit:10;" d="M142.512,418.96
				c0.01,0.01,0.02,0.03,0.04,0.04c1.33,1.44,2.89,2.97,4.67,4.58c1.52,1.36,3.01,2.78,4.45,4.22c4.27,1.86,8.64,3.58,13.07,5.14
				c1,0.35,2,0.7,3,1.03c2.04,0.69,4.1,1.35,6.17,1.97c1.92,0.58,3.85,1.13,5.79,1.66c2.64,0.72,5.3,1.38,7.97,2
				c1.18-5.52,3.5-11.43,7.87-16.61c2.62-3.1,9.19-9.07,4.59-11.18c-8.17-3.74-18.05,19.52-18.05,19.52
				c-1.33-16.53,8.52-29.77,6-44.43c-2.51-14.66-15.12-16.64-12.33-0.25c2.33,13.72,0.54,31.39-0.1,36.79
				c-0.12,1.05-0.21,1.64-0.21,1.64c-2.56-4.45-4.76-9.03-6.71-13.57c0-0.01-0.01-0.02-0.01-0.02c-2.86-6.66-5.13-13.28-7.07-19.4
				c-5.59-17.62-8.41-31.18-14.19-30.24c-4.14,0.68-5.31,4.55-4.7,10.37c0.57,5.36,2.63,12.37,5.28,20.05
				c3.72,10.76,14.64,29.03,14.98,29.6c-0.26-0.31-4.41-5.29-9.22-10.17c-3.11-3.15-6.48-6.25-9.29-8.06
				c-0.01-0.01-0.01-0.01-0.01-0.01c-0.75-0.48-1.46-0.87-2.12-1.15c-3.35-1.37-6.46-0.3-6.88,2.95
				C135.142,408.29,136.902,412.87,142.512,418.96z"/>
		</g>
		<g>
			<path style="fill:#92E3A9;stroke:#263238;stroke-linecap:round;stroke-linejoin:round;stroke-miterlimit:10;" d="M123.282,410.02
				c6.76,8.45,17.3,11.51,26.97,17.15c0.47,0.21,0.94,0.42,1.42,0.63c4.27,1.86,8.64,3.58,13.07,5.14c1,0.35,2,0.7,3,1.03
				c2.04,0.69,4.1,1.35,6.17,1.97c1.92,0.58,3.85,1.13,5.79,1.66c-1.44-4.16-2.9-8.98-4.05-14.16c-1.33-5.97-2.25-12.43-2.3-18.92
				c-0.18-24.06-8.79-22.07-11.27-14.93c-0.22,0.67-0.36,1.51-0.43,2.5c-0.61,9.42,5.84,31.62,6.03,32.28
				c-0.45-0.65-14.71-21.67-19.97-38.37c-1.73-5.47-3.33-10.11-4.95-13.78c-3.37-7.74-6.75-11.23-11.25-9.2
				c-5.9,2.64,1.85,22.09,12.99,40.61c0,0,0,0,0.01,0.01c4.87,8.09,10.39,16.01,15.71,22.27c-0.43-0.29-14.35-9.6-24.72-20.48
				c-1.49-1.58-2.92-3.18-4.22-4.8C120.862,387.67,113.982,398.41,123.282,410.02z"/>
			<path style="fill:none;stroke:#263238;stroke-linecap:round;stroke-linejoin:round;stroke-miterlimit:10;" d="M167.742,433.97
				c-0.19-0.29-0.38-0.58-0.58-0.87c-4.2-6.4-8.97-13.9-13.36-21.4c-5.86-10.01-11.06-20.03-13.37-27.42"/>
			<path style="fill:none;stroke:#263238;stroke-linecap:round;stroke-linejoin:round;stroke-miterlimit:10;" d="M168.422,405.53
				c0.01,1.95,0.12,3.95,0.3,5.96c0,0,0.01,0.01,0.01,0.02c0.79,8.51,3,17.32,5.18,24.43"/>
			<path style="fill:none;stroke:#263238;stroke-linecap:round;stroke-linejoin:round;stroke-miterlimit:10;" d="M131.565,410.391
				c0,0,21.494,18.317,35.599,22.709"/>
		</g>
	</g>
	<g>
		<defs>
			<path id="XMLID_322_" d="M164.742,432.94c51.17,18.1,111.58,16.3,157.84-4.47c26.22-11.76,49.31-29.38,68.59-50.7l-17.22-17.72
				h-18.94l-8.41-26.92c0,0-133.81-1.93-146.03-1.2c-12.21,0.74-21.32,18.03-21.32,18.03l14.8,23.54l-19.6,29.08L164.742,432.94z"/>
		</defs>
		<use xlink:href="#XMLID_322_"  style="overflow:visible;fill:#BFBFBF;"/>
		<clipPath id="XMLID_00000173127408048287890110000000854165244918089898_">
			<use xlink:href="#XMLID_322_"  style="overflow:visible;"/>
		</clipPath>
		<g style="clip-path:url(#XMLID_00000173127408048287890110000000854165244918089898_);">
			<path style="opacity:0.3;fill-opacity:0.7;" d="M214.372,343.62c18.35,2.77,47.57-4.74,47.57-4.74s21.63,6.71,48.77,4.74
				c17.91-1.3,26.09-6.91,29.58-10.58c-26.65-0.37-129.1-1.74-139.72-1.11c-1.03,0.06-2.05,0.24-3.03,0.53l8.52,2.56
				C206.062,335.02,196.012,340.85,214.372,343.62z"/>
			<path style="opacity:0.3;fill-opacity:0.7;" d="M355.012,360.05c0,0-32.354,16.326-33.172,15.44
				c-0.818-0.886-21.652-7.703-21.652-7.703l-13.221,4.145l13.221-16.758l35.254-1.073l11.16-20.972L355.012,360.05z"/>
			<polygon style="opacity:0.3;fill-opacity:0.7;" points="173.752,404.77 194.052,417.3 234.642,404.09 194.052,373.5 
				174.452,402.58 			"/>
			<path style="opacity:0.3;fill-opacity:0.7;" d="M202.622,442.51c41.31,6.59,84.74,1.77,119.96-14.04
				c26.22-11.76,49.31-29.38,68.59-50.7l-17.22-17.72l-16.61,36.02h-49.48l-33.77,29.33l-45.9,2.14L202.622,442.51z"/>
			<polyline style="fill:none;stroke:#263238;stroke-linecap:round;stroke-linejoin:round;stroke-miterlimit:10;" points="
				271.44,375.849 249.281,379.289 228.838,370.272 224.622,355.175 196.011,352.256 179.252,349.96 			"/>
			<polyline style="fill:none;stroke:#263238;stroke-linecap:round;stroke-linejoin:round;stroke-miterlimit:10;" points="
				300.188,355.175 335.442,354.102 346.602,333.13 			"/>
			<polyline style="fill:none;stroke:#263238;stroke-linecap:round;stroke-linejoin:round;stroke-miterlimit:10;" points="
				307.862,396.074 274.091,425.4 249.805,417.302 252.442,400.374 241.614,400.702 			"/>
			<polyline style="fill:none;stroke:#263238;stroke-linecap:round;stroke-linejoin:round;stroke-miterlimit:10;" points="
				173.352,404.52 194.052,417.302 196.011,427.537 			"/>
		</g>
		<use xlink:href="#XMLID_322_"  style="overflow:visible;fill:none;stroke:#263238;stroke-miterlimit:10;"/>
	</g>
</g>
<g id="Character">
	<g>
		<path style="fill:#263238;" d="M341.594,298.912c2.545,23.209-4.22,34.286-17.091,39.297c-13.989,5.446-34.486,3.901-50.795-0.582
			c-3.052-0.839-54.751-19.462-62.927-33.176c-6.783-11.378-7.669-22.544,6.857-23.322c6.928-0.371,68.572,16.201,68.572,16.201
			l5.802-2.11L341.594,298.912z"/>
		<path style="fill:#FFFFFF;stroke:#263238;stroke-linecap:round;stroke-linejoin:round;stroke-miterlimit:10;" d="M306.702,189
			c0.47,0.51,0.85,1.21,1.16,2.04c0.69,1.82,1.02,4.24,1.18,6.52c0.24,3.63,0.02,6.91,0.02,6.91l16.68-0.63
			c-1.69-8.81,3.77-15.8,3.77-15.8C329.882,160.31,303.542,185.53,306.702,189z"/>
		<g>
			<defs>
				<path id="XMLID_1_" d="M324.502,199.354c0,0-25.85,1.14-31.94,19.953c0,0-11.628,6.55-8.068,16.836
					c3.56,10.286,6.718,21.519,6.718,21.519s-2.103,14.877-1.311,22.525c0,0-3.957,9.784-2.052,11.87c0,0-4.421,3.512-4.032,4.482
					c2.954,7.363,48.173,15.459,59.369,7.253c3.418-2.505-13.217-44.679-11.615-46.813c1.602-2.134,8.308-21.231,7.517-24.396
					c0,0,7.517,2.329,7.517-13.275C346.605,203.703,335.736,197.249,324.502,199.354z"/>
			</defs>
			<use xlink:href="#XMLID_1_"  style="overflow:visible;fill:#92E3A9;"/>
			<clipPath id="XMLID_00000114785541624658596750000003643395263475559838_">
				<use xlink:href="#XMLID_1_"  style="overflow:visible;"/>
			</clipPath>
			<path style="opacity:0.2;clip-path:url(#XMLID_00000114785541624658596750000003643395263475559838_);fill-opacity:0.7;" d="
				M346.6,219.31c0,15.6-7.51,13.27-7.51,13.27c0.22,0.88-0.14,2.98-0.8,5.61c-0.41-0.23-0.81-0.49-1.2-0.77
				c-10.35-7.41-8.13-28.64-31.69-27.72c0,0,8.58-6.19,16.44-4.02c7.86,2.18,14.49,9.92,16.82,9.81c2.32-0.12-1.31-3.43-1.57-5.14
				c-0.21-1.32,4.71,1.58,8.74,2.3v0.01C346.33,214.65,346.6,216.87,346.6,219.31z"/>
			<path style="opacity:0.2;clip-path:url(#XMLID_00000114785541624658596750000003643395263475559838_);fill-opacity:0.7;" d="
				M316.25,250c0,0-2.28,26.88-27.56,33.6c0.61-1.93,1.21-3.41,1.21-3.41c-0.79-7.65,1.31-22.53,1.31-22.53s-3.15-11.23-6.72-21.52
				c-0.06-0.17-0.11-0.34-0.16-0.51c2.59-0.7,5.88-2.3,8.63-5.9C298.44,222.56,316.25,250,316.25,250z"/>
			<path style="opacity:0.2;clip-path:url(#XMLID_00000114785541624658596750000003643395263475559838_);fill-opacity:0.7;" d="
				M305.4,298.57c0,0-10.43,1.52-20.43-0.55h-0.01c-0.56-0.49-0.94-0.99-1.14-1.48c-0.36-0.9,3.4-3.97,3.96-4.43
				C292.58,294.34,300.58,297.82,305.4,298.57z"/>
			
				<use xlink:href="#XMLID_1_"  style="overflow:visible;fill:none;stroke:#263238;stroke-linecap:round;stroke-linejoin:round;stroke-miterlimit:10;"/>
		</g>
		<path style="fill:none;stroke:#263238;stroke-linecap:round;stroke-linejoin:round;stroke-miterlimit:10;" d="M339.088,232.582
			c-5.143-1.714-5.04-18.857-14.586-23.077c-9.546-4.22-22.568,0.264-26.211,4.484"/>
		<path style="fill:#FFFFFF;stroke:#263238;stroke-linecap:round;stroke-linejoin:round;stroke-miterlimit:10;" d="M226.077,276.495
			l-15.359,2.094l-4.817,3.971l-1.658,6.066c0,0,2.185-0.659,3.788-4.417c0,0,1.876-1.155,3.771-2.473c0,0,3.079,1.332,8.802,1.286
			c3.436-0.028,4.253,3.659,8.694,2.523C237.2,283.523,226.077,276.495,226.077,276.495z"/>
		<path style="fill:#92E3A9;stroke:#263238;stroke-linecap:round;stroke-linejoin:round;stroke-miterlimit:10;" d="M311.921,215.914
			c-11.674-4.22-24.13,23.963-35.998,39.481c-1.714,2.241-34.813,14.242-45.89,18.198l-7.121,2.11c0,0,4.22,9.758,10.286,12.923
			l5.538-1.582c0,0,50.895-10.106,56.816-13.943c3.012-1.952,28.958-28.255,28.949-36.431"/>
		<g>
			<path style="fill:#757575;stroke:#263238;stroke-linecap:round;stroke-linejoin:round;stroke-miterlimit:10;" d="
				M254.277,333.516c3.072-9.309-7.703-13.028-13.275-11.657c-5.572,1.371-13.173-1.176-18.999-0.298
				c-5.826,0.878-11.892,1.142-10.309,10.372C213.277,341.164,250.97,343.538,254.277,333.516z"/>
			<path style="fill:none;stroke:#263238;stroke-linecap:round;stroke-linejoin:round;stroke-miterlimit:10;" d="M233.849,323.23
				l-0.72,1.978c0,0-6.881-2.11-11.125-0.989c-4.243,1.121-6.221,0.857-6.749,2.571c-0.527,1.714-1.451,5.143,0,5.67
				c1.451,0.527,13.582,3.956,16.22,3.692l1.055,2.769"/>
			
				<line style="fill:none;stroke:#263238;stroke-linecap:round;stroke-linejoin:round;stroke-miterlimit:10;" x1="227.563" y1="335.669" x2="227.563" y2="337.868"/>
			
				<line style="fill:none;stroke:#263238;stroke-linecap:round;stroke-linejoin:round;stroke-miterlimit:10;" x1="222.679" y1="334.543" x2="222.004" y2="336.769"/>
			
				<line style="fill:none;stroke:#263238;stroke-linecap:round;stroke-linejoin:round;stroke-miterlimit:10;" x1="217.439" y1="333.129" x2="216.442" y2="335.656"/>
			
				<line style="fill:none;stroke:#263238;stroke-linecap:round;stroke-linejoin:round;stroke-miterlimit:10;" x1="214.477" y1="330.696" x2="212.486" y2="331.077"/>
			
				<line style="fill:none;stroke:#263238;stroke-linecap:round;stroke-linejoin:round;stroke-miterlimit:10;" x1="215.255" y1="326.791" x2="213.481" y2="325.736"/>
			
				<line style="fill:none;stroke:#263238;stroke-linecap:round;stroke-linejoin:round;stroke-miterlimit:10;" x1="218.233" y1="325.055" x2="217.439" y2="323.23"/>
			
				<line style="fill:none;stroke:#263238;stroke-linecap:round;stroke-linejoin:round;stroke-miterlimit:10;" x1="223.299" y1="323.23" x2="223.299" y2="322.175"/>
			
				<line style="fill:none;stroke:#263238;stroke-linecap:round;stroke-linejoin:round;stroke-miterlimit:10;" x1="228.195" y1="324.143" x2="228.838" y2="322.175"/>
			<path style="fill:none;stroke:#263238;stroke-linecap:round;stroke-linejoin:round;stroke-miterlimit:10;" d="M240.97,323.159
				l0.791,2.577c0,0,3.012-2.416,6.055-0.681c3.043,1.736,3.175,4.373,1.989,7.406c-1.187,3.033-6.857,3.195-6.857,3.195
				l-0.791,2.212"/>
			
				<line style="fill:none;stroke:#263238;stroke-linecap:round;stroke-linejoin:round;stroke-miterlimit:10;" x1="247.299" y1="336.769" x2="246.527" y2="335.019"/>
			
				<line style="fill:none;stroke:#263238;stroke-linecap:round;stroke-linejoin:round;stroke-miterlimit:10;" x1="252.442" y1="333.129" x2="249.805" y2="332.461"/>
			
				<line style="fill:none;stroke:#263238;stroke-linecap:round;stroke-linejoin:round;stroke-miterlimit:10;" x1="252.442" y1="327.105" x2="250.185" y2="327.588"/>
			
				<line style="fill:none;stroke:#263238;stroke-linecap:round;stroke-linejoin:round;stroke-miterlimit:10;" x1="246.913" y1="323.23" x2="246.527" y2="324.468"/>
			<path style="fill:none;stroke:#263238;stroke-linecap:round;stroke-linejoin:round;stroke-miterlimit:10;" d="M234.64,327.105
				c0,0-2.374,2.914-0.791,7.913"/>
			<path style="fill:none;stroke:#263238;stroke-linecap:round;stroke-linejoin:round;stroke-miterlimit:10;" d="M240.97,327.588
				c0,0,1.451,4.515,0,6.804"/>
			<path style="fill:none;stroke:#263238;stroke-linecap:round;stroke-linejoin:round;stroke-miterlimit:10;" d="M239.783,325.736
				c0,0-2.261,0.353-3.834-0.681"/>
			<path style="fill:none;stroke:#263238;stroke-linecap:round;stroke-linejoin:round;stroke-miterlimit:10;" d="M240.31,337.868
				c0,0-2.129-0.791-4.361,0"/>
			<path style="fill:none;stroke:#263238;stroke-linecap:round;stroke-linejoin:round;stroke-miterlimit:10;" d="M228.838,326.791
				c0,0-0.406,3.6-0.322,6.338"/>
			<path style="fill:none;stroke:#263238;stroke-linecap:round;stroke-linejoin:round;stroke-miterlimit:10;" d="M223.299,326.263
				c0,0-0.621,3.061-0.621,5.67"/>
			<path style="fill:none;stroke:#263238;stroke-linecap:round;stroke-linejoin:round;stroke-miterlimit:10;" d="M218.233,326.791
				c0,0-0.588,3.048-0.794,4.096"/>
			<path style="fill:none;stroke:#263238;stroke-linecap:round;stroke-linejoin:round;stroke-miterlimit:10;" d="M245.735,327.105
				c0,0-0.081,2.593,0,5.356"/>
		</g>
		<g style="opacity:0.3;">
			<path style="fill:none;stroke:#FFFFFF;stroke-linecap:round;stroke-linejoin:round;stroke-miterlimit:10;" d="M303.616,307.236
				c0,0-5.011,2.153-4.22,4.167c0.791,2.015,2.068,4.916,2.068,4.916s-12.438,5.361-17.671,5.054
				c-5.232-0.307-23.43-7.062-23.43-7.062v-8.541l-5.545-3.428c0,0-3.261,11.341-2.946,15.824l5.062,4.011l2.11-5.066"/>
			<path style="fill:none;stroke:#FFFFFF;stroke-linecap:round;stroke-linejoin:round;stroke-miterlimit:10;" d="M311.989,308.539
				c0,0-6.857,9.692-8.374,10.681c-1.516,0.989-14.176,4.709-18.725,4.629c-4.549-0.08-22.945-6.014-22.945-6.014"/>
			<path style="fill:none;stroke:#FFFFFF;stroke-linecap:round;stroke-linejoin:round;stroke-miterlimit:10;" d="M252.442,303.198
				c0.009-0.593-10.828-3.758-10.828-3.758s0.204,4.945-1.304,10.879c-1.508,5.934-1.508,5.934-1.508,5.934s10.17,5.127,13.64,5.12"
				/>
			<path style="fill:none;stroke:#FFFFFF;stroke-linecap:round;stroke-linejoin:round;stroke-miterlimit:10;" d="M237.866,305.571
				c0,0-25.107-10.681-26.426-11.275c-1.319-0.593-3.495,0-3.495,0"/>
			<path style="fill:none;stroke:#FFFFFF;stroke-linecap:round;stroke-linejoin:round;stroke-miterlimit:10;" d="M240.31,310.319
				c0,0-12.761-4.681-17.321-7.978c-4.56-3.297-14.055-5.473-14.055-5.473"/>
			<path style="fill:none;stroke:#FFFFFF;stroke-linecap:round;stroke-linejoin:round;stroke-miterlimit:10;" d="M327.022,315.264
				c0,0,7.516,0.198,10.286-0.989l1.78,7.098c0,0-5.143,2.363-7.714,1.786c-2.571-0.577-4.352-4.397-4.352-4.397"/>
			<path style="fill:none;stroke:#FFFFFF;stroke-linecap:round;stroke-linejoin:round;stroke-miterlimit:10;" d="M325.44,320.407
				c0,0-4.154,9.604-9.099,11.527c0,0,5.143,3.236,13.055,1.195c0,0,6.842-5.566,7.692-10.953"/>
		</g>
		<path style="fill:#263238;" d="M307.862,191.04c0.69,1.82,1.02,4.24,1.18,6.52c5.52-3.45,4.43-6.52,4.43-6.52H307.862z"/>
		<g>
			<path style="fill:#FFFFFF;stroke:#263238;stroke-linecap:round;stroke-linejoin:round;stroke-miterlimit:10;" d="
				M328.634,188.695c20.485-23.253,5.18-35.827-7.098-36.782c-27.568-2.143-18.526,20.722-20.116,22.087
				c-2.597,2.229-5.12,3.018-5.209,4.145c-0.135,1.723,2.656,3.893,2.656,3.893l-1.004,3.692l0.94,0.376
				c0,0,0.291,9.823,2.768,9.822c7.412-0.002,11.82-2.384,12.763-4.657"/>
			<path style="fill:none;stroke:#263238;stroke-linecap:round;stroke-linejoin:round;stroke-miterlimit:10;" d="M303.154,165.279
				c0,0,3.56,0.148,4.605,3.67"/>
			<path style="fill:#263238;" d="M303.447,173.305c-0.077,0.98,0.199,1.801,0.616,1.834c0.418,0.033,0.819-0.735,0.896-1.715
				c0.077-0.98-0.198-1.801-0.616-1.834C303.926,171.557,303.524,172.325,303.447,173.305z"/>
			<path style="fill:none;stroke:#263238;stroke-linecap:round;stroke-linejoin:round;stroke-miterlimit:10;" d="M298.804,186.106
				c0,0,2.275,0.179,2.768-0.766"/>
			<path style="fill:#263238;" d="M310.676,149.712c0,0-6.877-0.013-10.71,4.976c-3.833,4.989-0.81,10.275-0.81,10.275l1.558-3.073
				c0,0,2.343,3.931,8.696,3.882l-1.037-4.601c0,0,2.319,5.12,6.692,6.7l-0.638,8.085c0,0,3.07-3.329,6.256-1.353
				c5.954,3.694,3.965,13.541,3.965,13.541s5.242,3.087,9.921,0.782c4.679-2.305,17.817-17.936,6.8-32.562
				C330.352,141.739,312.378,148.259,310.676,149.712z"/>
			<path style="fill:#FFFFFF;stroke:#263238;stroke-linecap:round;stroke-linejoin:round;stroke-miterlimit:10;" d="
				M317.357,174.401c0,0,5.799-5.143,7.604-1.186s-0.631,7.997-3.467,10.419c-2.837,2.422-8.42,2.775-6.047-0.477"/>
			<path style="fill:#263238;" d="M341.26,164.527c0,0,5.305-14.006,18.509-11.999c9.066,1.378,2.464,5.443,2.464,5.443
				s9.747,1.572,12.085,9.137c1.177,3.81-6.234,0.518-6.234,0.518s3.082,2.84,4.032,8.852c0.63,3.982-3.879,3.563-10.789-3.461
				c0,0,0.764,2.9,5.072,5.99c4.307,3.09-6.826,4.717-12.59-2.712c0,0,0.382,2.807-1.848,4.566
				c-2.231,1.759-0.761-5.808-7.599-8.356C337.523,169.958,341.26,164.527,341.26,164.527z"/>
		</g>
		<g style="opacity:0.2;">
			<path style="fill:none;stroke:#FFFFFF;stroke-linecap:round;stroke-linejoin:round;stroke-miterlimit:10;" d="M307.862,152.331
				c0,0-6.132,2.447-4.708,7.856"/>
			<path style="fill:none;stroke:#FFFFFF;stroke-linecap:round;stroke-linejoin:round;stroke-miterlimit:10;" d="M309.418,153.264
				c0,0-0.594,7.121,7.121,9.89"/>
			<path style="fill:none;stroke:#FFFFFF;stroke-linecap:round;stroke-linejoin:round;stroke-miterlimit:10;" d="M314.873,151.771
				c0,0,18.912-4.02,27.011,11.382"/>
			<path style="fill:none;stroke:#FFFFFF;stroke-linecap:round;stroke-linejoin:round;stroke-miterlimit:10;" d="M318.69,168.395
				c0,0,13.673,5.044,23.959,0"/>
			<path style="fill:none;stroke:#FFFFFF;stroke-linecap:round;stroke-linejoin:round;stroke-miterlimit:10;" d="M329,184.121
				c0,0,8.559-3.711,12.884-10.757"/>
			<path style="fill:none;stroke:#FFFFFF;stroke-linecap:round;stroke-linejoin:round;stroke-miterlimit:10;" d="M346.605,163.154
				c0,0,9.384-6.446,16.813,1.187"/>
			<path style="fill:none;stroke:#FFFFFF;stroke-linecap:round;stroke-linejoin:round;stroke-miterlimit:10;" d="M348.583,167.114
				c0,0,7.927-0.352,8.76,6.251"/>
		</g>
		<path style="fill:none;stroke:#263238;stroke-linecap:round;stroke-linejoin:round;stroke-miterlimit:10;" d="M287.849,292.056
			c0,0,16.97,10.284,37.731,7.383"/>
		<path style="fill:none;stroke:#263238;stroke-linecap:round;stroke-linejoin:round;stroke-miterlimit:10;" d="M324.502,245.637
			c0,0-4.692,8.078-10.943,8.786"/>
		<path style="fill:none;stroke:#263238;stroke-linecap:round;stroke-linejoin:round;stroke-miterlimit:10;" d="M331.572,256.978
			c0,0-5.485,6.857-9.731,6.593"/>
		<path style="fill:none;stroke:#263238;stroke-linecap:round;stroke-linejoin:round;stroke-miterlimit:10;" d="M228.195,274.138
			c0,0,1.802,6.371,7.754,10.43"/>
		<path style="fill:none;stroke:#263238;stroke-linecap:round;stroke-linejoin:round;stroke-miterlimit:10;" d="M275.923,255.396
			c0,0,7.385,3.858,13.187-0.972"/>
	</g>
</g>
</svg>
