<?xml version="1.0" encoding="utf-8"?>
<!-- Generator: Adobe Illustrator 27.5.0, SVG Export Plug-In . SVG Version: 6.00 Build 0)  -->
<svg version="1.1" xmlns="http://www.w3.org/2000/svg" xmlns:xlink="http://www.w3.org/1999/xlink" x="0px" y="0px"
	 viewBox="0 0 500 500" style="enable-background:new 0 0 500 500;" xml:space="preserve">
<g id="Background_Simple">
	<g>
		<path style="fill:#92E3A9;" d="M488.752,236.783c-0.559-36.234-15.872-71.866-39.196-99.881
			c-13.645-16.389-30.064-30.944-47.989-42.506c-18.603-11.999-38.828-25.41-61.274-28.324c-5.54-0.719-11.22-0.744-16.688,0.528
			c-20.933,4.87,20.489,27.364,25.903,30.625C291.612,71.659,231.686,45.634,168.4,45.036c-12.203-0.115-24.861,0.85-35.589,6.667
			c-10.728,5.816-19.031,17.583-17.434,29.682c1.321,10.001,8.549,21.429,1.769,28.899c-1.939,2.136-4.687,3.328-7.385,4.349
			c-13.844,5.239-28.79,7.647-41.905,14.511c-20.309,10.63-34.17,31.199-40.594,53.203c-6.424,22.004-6.116,45.438-3.594,68.222
			c4.746,42.88,17.651,85.782,43.766,120.122c37.303,49.05,98.461,75.9,159.72,82.591c74.126,8.096,154.493-13.562,203.509-69.755
			c7.27-8.334,13.936-17.629,16.58-28.368c2.644-10.738,0.549-23.202-7.588-30.691c-2.193-2.018-5.016-4.18-4.778-7.151
			c0.322-4.021,5.539-5.153,9.516-5.824c26.092-4.402,41.014-33.143,43.705-59.467C488.619,246.946,488.831,241.858,488.752,236.783
			z"/>
		<path style="opacity:0.7;fill:#FFFFFF;" d="M488.752,236.783c-0.559-36.234-15.872-71.866-39.196-99.881
			c-13.645-16.389-30.064-30.944-47.989-42.506c-18.603-11.999-38.828-25.41-61.274-28.324c-5.54-0.719-11.22-0.744-16.688,0.528
			c-20.933,4.87,20.489,27.364,25.903,30.625C291.612,71.659,231.686,45.634,168.4,45.036c-12.203-0.115-24.861,0.85-35.589,6.667
			c-10.728,5.816-19.031,17.583-17.434,29.682c1.321,10.001,8.549,21.429,1.769,28.899c-1.939,2.136-4.687,3.328-7.385,4.349
			c-13.844,5.239-28.79,7.647-41.905,14.511c-20.309,10.63-34.17,31.199-40.594,53.203c-6.424,22.004-6.116,45.438-3.594,68.222
			c4.746,42.88,17.651,85.782,43.766,120.122c37.303,49.05,98.461,75.9,159.72,82.591c74.126,8.096,154.493-13.562,203.509-69.755
			c7.27-8.334,13.936-17.629,16.58-28.368c2.644-10.738,0.549-23.202-7.588-30.691c-2.193-2.018-5.016-4.18-4.778-7.151
			c0.322-4.021,5.539-5.153,9.516-5.824c26.092-4.402,41.014-33.143,43.705-59.467C488.619,246.946,488.831,241.858,488.752,236.783
			z"/>
	</g>
</g>
<g id="Trees">
	<g>
		<path style="fill:#92E3A9;" d="M432.466,124.232c0,22.99-13.6,41.627-30.376,41.627c-16.776,0-30.376-18.637-30.376-41.627
			s13.6-102.005,30.376-102.005C418.866,22.228,432.466,101.243,432.466,124.232z"/>
		<path style="opacity:0.5;fill:#FFFFFF;" d="M432.466,124.232c0,22.99-13.6,41.627-30.376,41.627
			c-16.776,0-30.376-18.637-30.376-41.627s13.6-102.005,30.376-102.005C418.866,22.228,432.466,101.243,432.466,124.232z"/>
		<polygon style="fill:#B2B2B2;" points="385.681,126.299 395.369,129.679 400.169,136.203 399.329,156.178 393.744,152.388 
			399.156,160.312 398.604,174.79 403.797,178.054 403.032,145.13 419.122,136.26 409.924,139.662 411.77,134.126 407.372,140.606 
			402.982,142.23 402.668,124.048 418.648,102.819 410.084,111.382 411.533,105.427 407.436,114.031 402.579,118.887 402.09,90.481 
			400.349,131.91 385.206,115.863 393.524,127.17 		"/>
		<g>
			<path style="fill:#FFFFFF;" d="M418.801,90.571c0,0,0.281,2.791-1.245,4.84c-1.525,2.049-4.28,2.58-4.28,2.58
				s-0.281-2.791,1.245-4.84C416.047,91.102,418.801,90.571,418.801,90.571z"/>
			<path style="fill:#FFFFFF;" d="M427.956,103.434c0,0,0.281,2.791-1.245,4.84c-1.526,2.049-4.28,2.58-4.28,2.58
				s-0.281-2.791,1.245-4.839C425.202,103.965,427.956,103.434,427.956,103.434z"/>
			<path style="fill:#FFFFFF;" d="M427.952,128.479c0,0-0.675,2.723-2.801,4.138c-2.126,1.416-4.898,0.988-4.898,0.988
				s0.675-2.723,2.801-4.138C425.18,128.052,427.952,128.479,427.952,128.479z"/>
			<path style="fill:#FFFFFF;" d="M377.671,128.479c0,0,0.675,2.723,2.801,4.138c2.126,1.416,4.898,0.988,4.898,0.988
				s-0.675-2.723-2.801-4.138C380.444,128.052,377.671,128.479,377.671,128.479z"/>
			<path style="fill:#FFFFFF;" d="M417.378,118.083c0,0,0.281,2.791-1.245,4.84c-1.525,2.049-4.28,2.58-4.28,2.58
				s-0.281-2.791,1.245-4.84C414.624,118.614,417.378,118.083,417.378,118.083z"/>
			<path style="fill:#FFFFFF;" d="M415.006,76.577c0,0,0.281,2.791-1.245,4.84c-1.526,2.049-4.28,2.58-4.28,2.58
				s-0.281-2.791,1.245-4.839C412.252,77.108,415.006,76.577,415.006,76.577z"/>
			<path style="fill:#FFFFFF;" d="M409.551,87.25c0,0,0.281,2.791-1.244,4.84c-1.526,2.049-4.28,2.58-4.28,2.58
				s-0.281-2.791,1.245-4.84C406.797,87.781,409.551,87.25,409.551,87.25z"/>
			<path style="fill:#FFFFFF;" d="M422.501,79.48c0,0,0.281,2.791-1.244,4.839c-1.525,2.049-4.28,2.58-4.28,2.58
				s-0.281-2.791,1.244-4.84C419.747,80.01,422.501,79.48,422.501,79.48z"/>
			<path style="fill:#FFFFFF;" d="M380.419,79.48c0,0-0.281,2.791,1.244,4.839c1.526,2.049,4.28,2.58,4.28,2.58
				s0.281-2.791-1.244-4.84C383.173,80.01,380.419,79.48,380.419,79.48z"/>
			<path style="fill:#FFFFFF;" d="M416.192,63.533c0,0,0.281,2.791-1.245,4.839c-1.525,2.049-4.28,2.58-4.28,2.58
				s-0.281-2.791,1.245-4.84C413.438,64.064,416.192,63.533,416.192,63.533z"/>
			<path style="fill:#FFFFFF;" d="M413.511,49.676c0,0,0.973,2.631,0.011,4.997c-0.962,2.366-3.494,3.572-3.494,3.572
				s-0.973-2.631-0.011-4.997C410.979,50.882,413.511,49.676,413.511,49.676z"/>
			<path style="fill:#FFFFFF;" d="M394.302,46.055c0,0,2.485,1.301,3.355,3.703c0.871,2.401-0.202,4.993-0.202,4.993
				s-2.485-1.301-3.355-3.703C393.229,48.647,394.302,46.055,394.302,46.055z"/>
			<path style="fill:#FFFFFF;" d="M403.26,62.625c0,0,1.77,2.176,1.623,4.726c-0.147,2.55-2.155,4.509-2.155,4.509
				s-1.77-2.176-1.623-4.726C401.252,64.584,403.26,62.625,403.26,62.625z"/>
			<path style="fill:#FFFFFF;" d="M402.786,37.959c0,0,1.77,2.176,1.623,4.726c-0.147,2.55-2.155,4.508-2.155,4.508
				s-1.77-2.176-1.623-4.726C400.778,39.918,402.786,37.959,402.786,37.959z"/>
			<path style="fill:#FFFFFF;" d="M382.681,90.571c0,0-0.281,2.791,1.245,4.84c1.525,2.049,4.28,2.58,4.28,2.58
				s0.281-2.791-1.245-4.84C385.435,91.102,382.681,90.571,382.681,90.571z"/>
			<path style="fill:#FFFFFF;" d="M377.464,105.75c0,0-0.281,2.791,1.245,4.84c1.525,2.049,4.28,2.58,4.28,2.58
				s0.281-2.791-1.244-4.84C380.218,106.281,377.464,105.75,377.464,105.75z"/>
			<path style="fill:#FFFFFF;" d="M391.314,111.261c0,0-0.281,2.791,1.245,4.84c1.525,2.049,4.28,2.58,4.28,2.58
				s0.281-2.791-1.244-4.84C394.068,111.792,391.314,111.261,391.314,111.261z"/>
			<path style="fill:#FFFFFF;" d="M395.101,90.228c0,0-1.068,2.593-0.193,4.993c0.875,2.4,3.362,3.697,3.362,3.697
				s1.068-2.593,0.194-4.993C397.588,91.526,395.101,90.228,395.101,90.228z"/>
			<path style="fill:#FFFFFF;" d="M385.293,146.195c0,0,2.805,0.051,4.721-1.637c1.917-1.688,2.22-4.477,2.22-4.477
				s-2.804-0.051-4.721,1.637C385.597,143.407,385.293,146.195,385.293,146.195z"/>
			<path style="fill:#FFFFFF;" d="M412.204,143.127c0,0,0.762,2.7,2.932,4.046c2.17,1.347,4.927,0.831,4.927,0.831
				s-0.762-2.699-2.932-4.046C414.961,142.611,412.204,143.127,412.204,143.127z"/>
			<path style="fill:#FFFFFF;" d="M388.422,76.577c0,0-0.281,2.791,1.245,4.84c1.525,2.049,4.28,2.58,4.28,2.58
				s0.281-2.791-1.245-4.839C391.176,77.108,388.422,76.577,388.422,76.577z"/>
			<path style="fill:#FFFFFF;" d="M388.374,64.244c0,0-0.281,2.791,1.245,4.839c1.525,2.049,4.28,2.58,4.28,2.58
				s0.281-2.791-1.245-4.84C391.128,64.775,388.374,64.244,388.374,64.244z"/>
		</g>
	</g>
	<g>
		<path style="fill:#92E3A9;" d="M374.001,110.748c0,19.31-11.423,34.964-25.514,34.964c-14.091,0-25.515-15.654-25.515-34.964
			s11.423-85.678,25.515-85.678C362.578,25.07,374.001,91.438,374.001,110.748z"/>
		<path style="opacity:0.5;fill:#FFFFFF;" d="M374.001,110.748c0,19.31-11.423,34.964-25.514,34.964
			c-14.091,0-25.515-15.654-25.515-34.964s11.423-85.678,25.515-85.678C362.578,25.07,374.001,91.438,374.001,110.748z"/>
		<polygon style="fill:#B2B2B2;" points="334.704,112.484 342.842,115.323 346.873,120.803 346.168,137.581 341.477,134.398 
			346.022,141.053 345.778,152.828 349.784,152.383 349.278,128.301 362.793,120.851 355.067,123.709 356.617,119.058 
			352.924,124.501 349.236,125.865 348.973,110.594 362.395,92.762 355.201,99.955 356.418,94.953 352.977,102.179 348.898,106.258 
			348.487,82.399 347.025,117.197 334.305,103.719 341.292,113.216 		"/>
		<g>
			<path style="fill:#FFFFFF;" d="M362.523,82.474c0,0,0.236,2.344-1.045,4.065c-1.281,1.721-3.595,2.167-3.595,2.167
				s-0.236-2.344,1.045-4.065C360.21,82.92,362.523,82.474,362.523,82.474z"/>
			<path style="fill:#FFFFFF;" d="M370.213,93.279c0,0,0.236,2.344-1.045,4.065c-1.281,1.721-3.595,2.167-3.595,2.167
				s-0.236-2.344,1.045-4.065C367.9,93.725,370.213,93.279,370.213,93.279z"/>
			<path style="fill:#FFFFFF;" d="M370.21,114.315c0,0-0.567,2.287-2.353,3.476c-1.786,1.189-4.114,0.83-4.114,0.83
				s0.567-2.287,2.353-3.476C367.881,113.956,370.21,114.315,370.21,114.315z"/>
			<path style="fill:#FFFFFF;" d="M327.977,114.315c0,0,0.567,2.287,2.353,3.476s4.114,0.83,4.114,0.83s-0.567-2.287-2.353-3.476
				C330.305,113.956,327.977,114.315,327.977,114.315z"/>
			<path style="fill:#FFFFFF;" d="M361.328,105.583c0,0,0.236,2.344-1.045,4.065c-1.281,1.721-3.595,2.167-3.595,2.167
				s-0.236-2.344,1.045-4.065C359.014,106.029,361.328,105.583,361.328,105.583z"/>
			<path style="fill:#FFFFFF;" d="M359.336,70.721c0,0,0.236,2.344-1.045,4.065c-1.281,1.721-3.595,2.167-3.595,2.167
				s-0.236-2.344,1.045-4.065C357.022,71.167,359.336,70.721,359.336,70.721z"/>
			<path style="fill:#FFFFFF;" d="M354.754,79.685c0,0,0.236,2.344-1.045,4.065c-1.281,1.721-3.595,2.167-3.595,2.167
				s-0.236-2.344,1.045-4.065C352.44,80.131,354.754,79.685,354.754,79.685z"/>
			<path style="fill:#FFFFFF;" d="M365.631,73.158c0,0,0.236,2.344-1.045,4.065c-1.281,1.721-3.595,2.167-3.595,2.167
				s-0.236-2.344,1.045-4.065C363.318,73.604,365.631,73.158,365.631,73.158z"/>
			<path style="fill:#FFFFFF;" d="M330.285,73.158c0,0-0.236,2.344,1.045,4.065c1.281,1.721,3.595,2.167,3.595,2.167
				s0.236-2.344-1.045-4.065C332.598,73.604,330.285,73.158,330.285,73.158z"/>
			<path style="fill:#FFFFFF;" d="M360.332,59.764c0,0,0.236,2.344-1.045,4.065c-1.281,1.721-3.595,2.167-3.595,2.167
				s-0.236-2.344,1.045-4.065C358.018,60.21,360.332,59.764,360.332,59.764z"/>
			<path style="fill:#FFFFFF;" d="M358.08,48.125c0,0,0.817,2.21,0.009,4.197c-0.808,1.988-2.935,3-2.935,3s-0.817-2.21-0.009-4.197
				C355.953,49.138,358.08,48.125,358.08,48.125z"/>
			<path style="fill:#FFFFFF;" d="M341.945,45.084c0,0,2.087,1.093,2.818,3.11c0.732,2.017-0.169,4.194-0.169,4.194
				s-2.087-1.093-2.818-3.11C341.044,47.261,341.945,45.084,341.945,45.084z"/>
			<path style="fill:#FFFFFF;" d="M349.469,59.001c0,0,1.487,1.828,1.364,3.97c-0.123,2.142-1.81,3.787-1.81,3.787
				s-1.487-1.828-1.363-3.97C347.783,60.647,349.469,59.001,349.469,59.001z"/>
			<path style="fill:#FFFFFF;" d="M349.071,38.283c0,0,1.487,1.828,1.363,3.97c-0.123,2.142-1.81,3.787-1.81,3.787
				s-1.487-1.827-1.363-3.969C347.385,39.928,349.071,38.283,349.071,38.283z"/>
			<path style="fill:#FFFFFF;" d="M332.185,82.474c0,0-0.236,2.344,1.045,4.065c1.281,1.721,3.595,2.167,3.595,2.167
				s0.236-2.344-1.045-4.065C334.498,82.92,332.185,82.474,332.185,82.474z"/>
			<path style="fill:#FFFFFF;" d="M327.802,95.224c0,0-0.236,2.344,1.045,4.065c1.281,1.721,3.595,2.167,3.595,2.167
				s0.236-2.344-1.045-4.065C330.115,95.67,327.802,95.224,327.802,95.224z"/>
			<path style="fill:#FFFFFF;" d="M339.436,99.853c0,0-0.236,2.344,1.045,4.065c1.281,1.721,3.595,2.167,3.595,2.167
				s0.236-2.344-1.045-4.065C341.749,100.299,339.436,99.853,339.436,99.853z"/>
			<path style="fill:#FFFFFF;" d="M342.616,82.187c0,0-0.897,2.178-0.162,4.194c0.735,2.016,2.823,3.105,2.823,3.105
				s0.897-2.178,0.163-4.194C344.705,83.276,342.616,82.187,342.616,82.187z"/>
			<path style="fill:#FFFFFF;" d="M334.378,129.196c0,0,2.355,0.043,3.966-1.375c1.61-1.418,1.865-3.76,1.865-3.76
				s-2.355-0.043-3.965,1.375C334.633,126.854,334.378,129.196,334.378,129.196z"/>
			<path style="fill:#FFFFFF;" d="M356.982,126.619c0,0,0.64,2.267,2.463,3.399c1.823,1.131,4.139,0.698,4.139,0.698
				s-0.64-2.267-2.463-3.399C359.297,126.186,356.982,126.619,356.982,126.619z"/>
			<path style="fill:#FFFFFF;" d="M337.006,70.721c0,0-0.236,2.344,1.045,4.065c1.281,1.721,3.595,2.167,3.595,2.167
				s0.236-2.344-1.045-4.065C339.32,71.167,337.006,70.721,337.006,70.721z"/>
			<path style="fill:#FFFFFF;" d="M336.966,60.362c0,0-0.236,2.344,1.045,4.065c1.281,1.721,3.595,2.167,3.595,2.167
				s0.236-2.344-1.045-4.065C339.279,60.807,336.966,60.362,336.966,60.362z"/>
		</g>
	</g>
	<g>
		<path style="fill:#92E3A9;" d="M471.682,202.154c0,16.842-9.963,30.495-22.253,30.495c-12.29,0-22.253-13.653-22.253-30.495
			s9.963-74.725,22.253-74.725C461.719,127.429,471.682,185.312,471.682,202.154z"/>
		<path style="opacity:0.5;fill:#FFFFFF;" d="M471.682,202.154c0,16.842-9.963,30.495-22.253,30.495
			c-12.29,0-22.253-13.653-22.253-30.495s9.963-74.725,22.253-74.725C461.719,127.429,471.682,185.312,471.682,202.154z"/>
		<polygon style="fill:#B2B2B2;" points="437.408,203.668 444.506,206.144 448.022,210.923 447.407,225.556 443.315,222.78 
			447.28,228.585 446.794,240.496 450.641,240.744 450.119,217.463 461.906,210.965 455.168,213.458 456.52,209.402 
			453.299,214.149 450.082,215.339 449.853,202.019 461.559,186.467 455.285,192.74 456.346,188.378 453.345,194.68 
			449.788,198.238 449.429,177.429 448.154,207.779 437.061,196.023 443.154,204.306 		"/>
		<g>
			<path style="fill:#FFFFFF;" d="M461.671,177.495c0,0,0.206,2.044-0.912,3.545c-1.118,1.501-3.135,1.89-3.135,1.89
				s-0.206-2.044,0.912-3.545C459.654,177.883,461.671,177.495,461.671,177.495z"/>
			<path style="fill:#FFFFFF;" d="M468.378,186.918c0,0,0.206,2.044-0.912,3.545c-1.117,1.501-3.135,1.89-3.135,1.89
				s-0.206-2.044,0.912-3.545C466.36,187.307,468.378,186.918,468.378,186.918z"/>
			<path style="fill:#FFFFFF;" d="M468.375,205.265c0,0-0.494,1.994-2.052,3.031c-1.557,1.037-3.588,0.724-3.588,0.724
				s0.494-1.995,2.052-3.032C466.344,204.952,468.375,205.265,468.375,205.265z"/>
			<path style="fill:#FFFFFF;" d="M431.541,205.265c0,0,0.494,1.994,2.052,3.031c1.558,1.037,3.588,0.724,3.588,0.724
				s-0.494-1.995-2.052-3.032C433.572,204.952,431.541,205.265,431.541,205.265z"/>
			<path style="fill:#FFFFFF;" d="M460.629,197.649c0,0,0.206,2.044-0.912,3.545c-1.117,1.501-3.135,1.89-3.135,1.89
				s-0.206-2.044,0.912-3.545C458.611,198.038,460.629,197.649,460.629,197.649z"/>
			<path style="fill:#FFFFFF;" d="M458.891,167.244c0,0,0.206,2.044-0.912,3.545c-1.118,1.501-3.135,1.89-3.135,1.89
				s-0.206-2.044,0.912-3.545C456.873,167.632,458.891,167.244,458.891,167.244z"/>
			<path style="fill:#FFFFFF;" d="M454.895,175.062c0,0,0.206,2.044-0.912,3.545c-1.117,1.501-3.135,1.89-3.135,1.89
				s-0.206-2.044,0.912-3.545C452.877,175.451,454.895,175.062,454.895,175.062z"/>
			<path style="fill:#FFFFFF;" d="M464.382,169.37c0,0,0.206,2.044-0.912,3.545c-1.117,1.501-3.135,1.89-3.135,1.89
				s-0.206-2.044,0.912-3.545C462.364,169.758,464.382,169.37,464.382,169.37z"/>
			<path style="fill:#FFFFFF;" d="M433.554,169.37c0,0-0.206,2.044,0.912,3.545c1.118,1.501,3.135,1.89,3.135,1.89
				s0.206-2.044-0.912-3.545C435.572,169.758,433.554,169.37,433.554,169.37z"/>
			<path style="fill:#FFFFFF;" d="M459.76,157.688c0,0,0.206,2.044-0.912,3.545c-1.117,1.501-3.135,1.89-3.135,1.89
				s-0.206-2.044,0.912-3.545C457.742,158.076,459.76,157.688,459.76,157.688z"/>
			<path style="fill:#FFFFFF;" d="M457.796,147.536c0,0,0.713,1.927,0.008,3.661c-0.705,1.733-2.56,2.617-2.56,2.617
				s-0.713-1.927-0.008-3.661C455.941,148.42,457.796,147.536,457.796,147.536z"/>
			<path style="fill:#FFFFFF;" d="M443.724,144.884c0,0,1.82,0.953,2.458,2.713c0.638,1.759-0.148,3.658-0.148,3.658
				s-1.82-0.953-2.458-2.712C442.938,146.783,443.724,144.884,443.724,144.884z"/>
			<path style="fill:#FFFFFF;" d="M450.286,157.023c0,0,1.297,1.594,1.189,3.462c-0.108,1.868-1.578,3.303-1.578,3.303
				s-1.297-1.594-1.189-3.462C448.815,158.457,450.286,157.023,450.286,157.023z"/>
			<path style="fill:#FFFFFF;" d="M449.939,138.953c0,0,1.297,1.594,1.189,3.462c-0.108,1.868-1.578,3.303-1.578,3.303
				s-1.297-1.594-1.189-3.462C448.468,140.388,449.939,138.953,449.939,138.953z"/>
			<path style="fill:#FFFFFF;" d="M435.211,177.495c0,0-0.206,2.044,0.912,3.545c1.118,1.501,3.135,1.89,3.135,1.89
				s0.206-2.044-0.912-3.545C437.229,177.883,435.211,177.495,435.211,177.495z"/>
			<path style="fill:#FFFFFF;" d="M431.388,188.614c0,0-0.206,2.044,0.912,3.545c1.118,1.501,3.135,1.89,3.135,1.89
				s0.206-2.044-0.912-3.545C433.406,189.003,431.388,188.614,431.388,188.614z"/>
			<path style="fill:#FFFFFF;" d="M441.535,192.652c0,0-0.206,2.044,0.912,3.545c1.117,1.501,3.135,1.89,3.135,1.89
				s0.206-2.044-0.912-3.545C443.553,193.04,441.535,192.652,441.535,192.652z"/>
			<path style="fill:#FFFFFF;" d="M444.309,177.244c0,0-0.783,1.9-0.142,3.658c0.641,1.758,2.463,2.708,2.463,2.708
				s0.783-1.9,0.142-3.658C446.131,178.194,444.309,177.244,444.309,177.244z"/>
			<path style="fill:#FFFFFF;" d="M437.124,218.243c0,0,2.054,0.038,3.459-1.199c1.404-1.237,1.626-3.279,1.626-3.279
				s-2.054-0.038-3.458,1.199C437.347,216.201,437.124,218.243,437.124,218.243z"/>
			<path style="fill:#FFFFFF;" d="M456.838,215.996c0,0,0.558,1.977,2.148,2.964s3.61,0.609,3.61,0.609s-0.558-1.978-2.148-2.964
				C458.858,215.618,456.838,215.996,456.838,215.996z"/>
			<path style="fill:#FFFFFF;" d="M439.416,167.244c0,0-0.206,2.044,0.912,3.545c1.118,1.501,3.135,1.89,3.135,1.89
				s0.206-2.044-0.912-3.545C441.434,167.632,439.416,167.244,439.416,167.244z"/>
			<path style="fill:#FFFFFF;" d="M439.381,158.209c0,0-0.206,2.044,0.912,3.545c1.117,1.501,3.135,1.89,3.135,1.89
				s0.206-2.044-0.912-3.545C441.398,158.598,439.381,158.209,439.381,158.209z"/>
		</g>
	</g>
	<g>
		<path style="fill:#92E3A9;" d="M319.92,130.943c0,13.308-7.872,24.096-17.583,24.096s-17.583-10.788-17.583-24.096
			c0-13.308,7.872-59.046,17.583-59.046S319.92,117.635,319.92,130.943z"/>
		<path style="opacity:0.5;fill:#FFFFFF;" d="M319.92,130.943c0,13.308-7.872,24.096-17.583,24.096s-17.583-10.788-17.583-24.096
			c0-13.308,7.872-59.046,17.583-59.046S319.92,117.635,319.92,130.943z"/>
		<polygon style="fill:#B2B2B2;" points="292.838,132.139 298.447,134.095 301.225,137.872 300.739,149.434 297.506,147.241 
			300.638,151.827 300.223,159.951 302.894,159.357 302.882,143.04 312.196,137.905 306.872,139.874 307.94,136.669 
			305.395,140.421 302.853,141.361 302.672,130.836 311.921,118.547 306.964,123.504 307.803,120.057 305.431,125.037 
			302.62,127.848 302.337,111.405 301.329,135.387 292.564,126.098 297.379,132.643 		"/>
		<g>
			<path style="fill:#FFFFFF;" d="M312.01,111.457c0,0,0.163,1.616-0.72,2.801c-0.883,1.186-2.477,1.493-2.477,1.493
				s-0.163-1.615,0.72-2.801C310.416,111.765,312.01,111.457,312.01,111.457z"/>
			<path style="fill:#FFFFFF;" d="M317.31,118.903c0,0,0.163,1.616-0.72,2.801c-0.883,1.186-2.477,1.493-2.477,1.493
				s-0.163-1.615,0.72-2.801C315.715,119.211,317.31,118.903,317.31,118.903z"/>
			<path style="fill:#FFFFFF;" d="M317.307,133.401c0,0-0.391,1.576-1.621,2.395c-1.231,0.82-2.835,0.572-2.835,0.572
				s0.391-1.576,1.621-2.395C315.703,133.154,317.307,133.401,317.307,133.401z"/>
			<path style="fill:#FFFFFF;" d="M288.202,133.401c0,0,0.391,1.576,1.621,2.395c1.231,0.82,2.835,0.572,2.835,0.572
				s-0.391-1.576-1.621-2.395C289.807,133.154,288.202,133.401,288.202,133.401z"/>
			<path style="fill:#FFFFFF;" d="M311.186,127.383c0,0,0.163,1.615-0.72,2.801c-0.883,1.186-2.477,1.493-2.477,1.493
				s-0.163-1.615,0.72-2.801C309.592,127.69,311.186,127.383,311.186,127.383z"/>
			<path style="fill:#FFFFFF;" d="M309.814,103.357c0,0,0.163,1.616-0.72,2.801c-0.883,1.186-2.477,1.493-2.477,1.493
				s-0.163-1.615,0.72-2.801C308.219,103.665,309.814,103.357,309.814,103.357z"/>
			<path style="fill:#FFFFFF;" d="M306.656,109.535c0,0,0.163,1.616-0.72,2.801c-0.883,1.186-2.477,1.493-2.477,1.493
				s-0.163-1.615,0.72-2.801C305.062,109.843,306.656,109.535,306.656,109.535z"/>
			<path style="fill:#FFFFFF;" d="M314.152,105.037c0,0,0.163,1.615-0.72,2.801s-2.477,1.493-2.477,1.493s-0.163-1.615,0.72-2.801
				C312.558,105.344,314.152,105.037,314.152,105.037z"/>
			<path style="fill:#FFFFFF;" d="M289.793,105.037c0,0-0.163,1.615,0.72,2.801s2.477,1.493,2.477,1.493s0.163-1.615-0.72-2.801
				C291.387,105.344,289.793,105.037,289.793,105.037z"/>
			<path style="fill:#FFFFFF;" d="M310.5,95.806c0,0,0.163,1.616-0.72,2.801c-0.883,1.186-2.477,1.493-2.477,1.493
				s-0.163-1.615,0.72-2.801C308.906,96.114,310.5,95.806,310.5,95.806z"/>
			<path style="fill:#FFFFFF;" d="M308.948,87.785c0,0,0.563,1.523,0.007,2.893c-0.557,1.37-2.023,2.068-2.023,2.068
				s-0.563-1.523-0.007-2.892C307.482,88.483,308.948,87.785,308.948,87.785z"/>
			<path style="fill:#FFFFFF;" d="M297.829,85.689c0,0,1.438,0.753,1.942,2.143c0.504,1.39-0.117,2.89-0.117,2.89
				s-1.438-0.753-1.942-2.143C297.208,87.19,297.829,85.689,297.829,85.689z"/>
			<path style="fill:#FFFFFF;" d="M303.014,95.281c0,0,1.025,1.26,0.94,2.736c-0.085,1.476-1.247,2.61-1.247,2.61
				s-1.025-1.26-0.94-2.736S303.014,95.281,303.014,95.281z"/>
			<path style="fill:#FFFFFF;" d="M302.74,81.003c0,0,1.025,1.259,0.94,2.736c-0.085,1.476-1.247,2.61-1.247,2.61
				s-1.025-1.259-0.94-2.736C301.577,82.137,302.74,81.003,302.74,81.003z"/>
			<path style="fill:#FFFFFF;" d="M291.102,111.457c0,0-0.163,1.616,0.721,2.801c0.883,1.186,2.477,1.493,2.477,1.493
				s0.163-1.615-0.72-2.801C292.696,111.765,291.102,111.457,291.102,111.457z"/>
			<path style="fill:#FFFFFF;" d="M288.082,120.244c0,0-0.163,1.616,0.72,2.801c0.883,1.186,2.477,1.493,2.477,1.493
				s0.163-1.615-0.72-2.801C289.676,120.551,288.082,120.244,288.082,120.244z"/>
			<path style="fill:#FFFFFF;" d="M296.099,123.434c0,0-0.163,1.615,0.72,2.801c0.883,1.186,2.477,1.493,2.477,1.493
				s0.163-1.616-0.72-2.801C297.693,123.741,296.099,123.434,296.099,123.434z"/>
			<path style="fill:#FFFFFF;" d="M298.291,111.259c0,0-0.618,1.501-0.112,2.89s1.946,2.14,1.946,2.14s0.618-1.501,0.112-2.89
				C299.731,112.01,298.291,111.259,298.291,111.259z"/>
			<path style="fill:#FFFFFF;" d="M292.614,143.656c0,0,1.623,0.03,2.733-0.948c1.109-0.977,1.285-2.591,1.285-2.591
				s-1.623-0.03-2.733,0.948C292.79,142.042,292.614,143.656,292.614,143.656z"/>
			<path style="fill:#FFFFFF;" d="M308.191,141.88c0,0,0.441,1.563,1.697,2.342c1.256,0.78,2.852,0.481,2.852,0.481
				s-0.441-1.563-1.697-2.342C309.787,141.581,308.191,141.88,308.191,141.88z"/>
			<path style="fill:#FFFFFF;" d="M294.425,103.357c0,0-0.163,1.616,0.72,2.801s2.477,1.493,2.477,1.493s0.163-1.615-0.72-2.801
				C296.019,103.665,294.425,103.357,294.425,103.357z"/>
			<path style="fill:#FFFFFF;" d="M294.397,96.218c0,0-0.163,1.615,0.72,2.801c0.883,1.186,2.477,1.493,2.477,1.493
				s0.163-1.616-0.72-2.801C295.991,96.526,294.397,96.218,294.397,96.218z"/>
		</g>
	</g>
</g>
<g id="Rocks">
	<g>
		<path style="fill:none;stroke:#263238;stroke-miterlimit:10;" d="M396.356,284.895c0,0,19.541-36.561,27.105-42.234
			c7.564-5.673,29.627-1.261,31.518-1.261c1.891,0,13.868,22.693,15.759,28.997c1.891,6.304,6.934,66.818,6.934,66.818"/>
		<polyline style="fill:none;stroke:#263238;stroke-miterlimit:10;" points="470.739,270.396 458.053,277.871 445.069,276.504 
			432.769,260.104 425.936,250.537 		"/>
		<polyline style="fill:none;stroke:#263238;stroke-miterlimit:10;" points="445.069,276.504 436.186,292.905 444.395,311.492 
			444.386,321.605 		"/>
		<polyline style="fill:none;stroke:#263238;stroke-miterlimit:10;" points="104.761,94.05 164.896,90.633 197.014,100.2 
			242.798,144.618 274.232,181.519 295.416,223.886 		"/>
		<path style="fill:none;stroke:#263238;stroke-miterlimit:10;" d="M261.932,167.168c0,0,86.102-17.767,98.402-15.034
			c12.3,2.733,56.718,34.851,58.768,37.584c2.05,2.733,8.883,28.701,8.883,28.701l4.1,19.817"/>
		<path style="fill:none;stroke:#263238;stroke-miterlimit:10;" d="M47.36,197.236c0,0,32.801-12.3,34.851-12.3
			c2.05,0,12.3,0,16.4,2.05s15.034,12.984,15.034,12.984"/>
		<path style="fill:none;stroke:#263238;stroke-miterlimit:10;" d="M164.896,96.1c0,0,12.984,17.767,15.717,22.55
			c2.733,4.784,1.367,25.967,0.683,28.701c-0.683,2.733,4.784,16.4,4.784,16.4"/>
		<polyline style="fill:none;stroke:#263238;stroke-miterlimit:10;" points="419.102,189.719 398.602,220.47 374.001,228.67 
			363.751,242.337 		"/>
	</g>
</g>
<g id="River">
	<g>
		<path style="fill:none;stroke:#263238;stroke-miterlimit:10;" d="M395.675,260.712c2.232,0.921,4.455,1.855,6.669,2.803"/>
		<path style="fill:none;stroke:#263238;stroke-miterlimit:10;" d="M24.097,197.551c51.416-0.084,224.175,4.161,365.823,60.822"/>
		<path style="fill:none;stroke:#263238;stroke-miterlimit:10;" d="M8.977,197.739c0,0,3.326-0.106,9.477-0.159"/>
		<path style="fill:none;stroke:#263238;stroke-miterlimit:10;" d="M340.185,351.543c0.74,1.789,1.47,3.615,2.186,5.477"/>
		<path style="fill:none;stroke:#263238;stroke-miterlimit:10;" d="M312.063,301.562c0,0,14.185,17.862,26.432,46"/>
		<path style="fill:none;stroke:#263238;stroke-miterlimit:10;" d="M397.064,321.575c0.521,2.181,0.993,4.336,1.411,6.427"/>
		<path style="fill:none;stroke:#263238;stroke-miterlimit:10;" d="M340.437,321.552c0,0,16.766,29.019,20.636,45.141
			s9.673-7.094,4.514-23.86c-5.159-16.766-16.122-42.561-8.383-36.757c7.738,5.804,15.477,35.467,17.411,27.084
			c1.935-8.383-2.579-21.925,0.645-15.477c3.224,6.449,5.159,12.897,9.028,29.019c3.869,16.122,7.738,5.159,5.804-12.252
			c-1.935-17.411-15.477-54.169-8.383-48.365c5.515,4.512,10.64,17.599,14.163,30.776"/>
		<path style="fill:none;stroke:#263238;stroke-miterlimit:10;" d="M385.64,275.439c0,0,57.363,39.082,81.947,107.792"/>
		<path style="fill:none;stroke:#263238;stroke-miterlimit:10;" d="M400.769,299.393c0,0,20.802,17.65,37.822,63.666"/>
		<g>
			<path style="fill:none;stroke:#263238;stroke-miterlimit:10;" d="M134.872,295.358c1.237,1.608,2.478,3.246,3.722,4.914"/>
			<path style="fill:none;stroke:#263238;stroke-miterlimit:10;" d="M43.079,215.318c19.041,8.946,51.242,29.265,86.969,73.892"/>
			<path style="fill:none;stroke:#263238;stroke-miterlimit:10;" d="M25.099,208.701c0,0,4.493,0.877,12.361,4.131"/>
			<path style="fill:none;stroke:#263238;stroke-miterlimit:10;" d="M67.355,289.767c5.517,7.527,10.499,14.445,14.492,16.309
				c9.673,4.514,5.159-9.673,7.738-6.449c2.579,3.224,17.411,23.215,19.991,14.832c2.579-8.383-25.15-54.168-18.056-50.944
				s30.953,43.851,32.243,38.047c1.29-5.804-0.645-9.028-0.645-9.028"/>
			<path style="fill:none;stroke:#263238;stroke-miterlimit:10;" d="M52.747,322.036c9.915,4.998,19.749,8.544,19.427,2.741
				c-0.645-11.608-45.14-58.683-30.309-58.038c7.837,0.341,15.854,10.043,23.099,19.785"/>
			<path style="fill:none;stroke:#263238;stroke-miterlimit:10;" d="M32.837,310.59c0,0,7.609,4.909,16.134,9.48"/>
			<path style="fill:none;stroke:#263238;stroke-miterlimit:10;" d="M94.243,231.609c13.203,10.576,32.009,27.68,46.931,49.317"/>
			<path style="fill:none;stroke:#263238;stroke-miterlimit:10;" d="M77.978,219.664c0,0,4.72,3.011,11.963,8.571"/>
			<path style="fill:none;stroke:#263238;stroke-miterlimit:10;" d="M76.043,207.411c0,0,30.309,17.411,39.982,27.729"/>
		</g>
	</g>
</g>
<g id="Foam_2">
	<g>
		<path style="fill:#FFFFFF;stroke:#263238;stroke-miterlimit:10;" d="M224.984,228.958c0,0,44.81-25.121,54.994-46.846
			c10.184-21.726,46.846-27.836,45.489-18.331c-1.358,9.505-23.763,2.037-27.157,11.542c-3.395,9.505,15.616,1.358,16.294,7.468
			c0.679,6.11-2.716,4.752-12.221,10.184s-7.468,12.9,6.11,8.826c13.579-4.074,42.773-4.074,48.204,8.147
			s-18.331-8.826-24.442-3.395c-6.11,5.432,23.084,7.468,29.194,23.084c6.11,15.615-6.11,12.221-12.221,5.432
			c-6.11-6.789-21.726-19.01-26.478-13.579c-4.753,5.432,32.589,14.258,34.626,38.02c2.037,23.763-0.679,32.589-6.789,24.442
			c-6.11-8.147-10.863-26.478-16.294-25.799c-5.432,0.679,10.184,17.652,6.11,30.552c-4.074,12.9-10.863-1.358-12.9-7.468
			c-2.037-6.11-10.184-18.331-14.937-14.937c-4.753,3.395,5.431,7.468,2.037,14.258c-3.395,6.789-9.505-2.037-13.579-2.716
			c-4.074-0.679-1.358,5.431-3.395,8.826c-2.037,3.395-7.468,0.679-14.258-13.579c-6.789-14.258-18.331-14.258-13.579-8.147
			c4.753,6.11,8.826,13.579,5.431,16.294c-3.395,2.716-30.236-25.484-37.523-32.77C230.415,241.179,220.231,230.316,224.984,228.958
			z"/>
		<path style="fill:#FFFFFF;stroke:#263238;stroke-miterlimit:10;" d="M225.342,253.805c0,0,38.034,1.475,52.878-8.309
			c14.844-9.784,40.372,0.548,35.835,6.027c-4.537,5.48-15.801-7.912-21.625-3.22c-5.824,4.691,9.34,6.903,7.404,11.026
			c-1.936,4.123-3.555,1.951-11.663,1.703c-8.108-0.248-9.712,5.259,0.444,7.941c10.156,2.683,28.6,13.984,27.301,23.807
			s-8.165-12.672-14.128-11.606c-5.963,1.066,11.693,13.654,9.509,25.885c-2.184,12.231-8.591,5.356-9.823-1.299
			c-1.232-6.655-6.367-20.42-11.473-18.828c-5.105,1.592,15.07,21.623,7.159,37.424c-7.912,15.801-13.044,20.326-13.751,12.814
			s3.387-20.934-0.308-22.607c-3.694-1.673-0.399,15.095-7.966,21.668c-7.567,6.573-6.338-5.063-5.259-9.712
			c1.078-4.649,0.662-15.524-3.655-15.219c-4.317,0.305,0.541,6.821-4.232,9.796c-4.773,2.975-5.217-4.966-7.528-6.972
			c-2.311-2.006-2.96,2.906-5.561,4.262c-2.601,1.356-4.981-2.462-3.752-14.098c1.23-11.636-6.062-16.104-5.425-10.404
			c0.637,5.7,0.32,11.995-2.876,12.397c-3.196,0.402-9.238-27.804-11.021-35.229C224.043,263.629,221.814,252.824,225.342,253.805z"
			/>
		<path style="fill:#FFFFFF;stroke:#263238;stroke-miterlimit:10;" d="M361.237,175.2c-0.937,2.31-5.843,2.502-10.959,0.428
			c-5.116-2.074-8.504-5.628-7.567-7.939c0.937-2.31,5.843-2.502,10.959-0.428C358.786,169.336,362.174,172.89,361.237,175.2z"/>
		<path style="fill:#FFFFFF;stroke:#263238;stroke-miterlimit:10;" d="M376.089,200.357c-0.87,2.145-4.786,2.583-8.746,0.977
			c-3.961-1.606-6.466-4.646-5.597-6.792c0.87-2.145,4.786-2.583,8.746-0.977C374.453,195.171,376.959,198.212,376.089,200.357z"/>
		<path style="fill:#FFFFFF;stroke:#263238;stroke-miterlimit:10;" d="M335.434,202.908c-0.87,2.145-4.785,2.583-8.746,0.977
			c-3.961-1.606-6.466-4.646-5.597-6.792c0.87-2.145,4.786-2.583,8.746-0.977C333.798,197.722,336.304,200.763,335.434,202.908z"/>
		<path style="fill:#FFFFFF;stroke:#263238;stroke-miterlimit:10;" d="M334.54,175.986c-0.682,1.683-3.755,2.026-6.862,0.767
			c-3.107-1.26-5.073-3.646-4.391-5.329c0.682-1.683,3.755-2.026,6.862-0.767C333.257,171.917,335.222,174.303,334.54,175.986z"/>
		<path style="fill:#FFFFFF;stroke:#263238;stroke-miterlimit:10;" d="M371.541,215.859c-0.341,0.842-1.877,1.013-3.431,0.383
			c-1.554-0.63-2.537-1.823-2.195-2.664c0.341-0.842,1.877-1.013,3.431-0.383C370.899,213.825,371.882,215.018,371.541,215.859z"/>
		<path style="fill:#FFFFFF;stroke:#263238;stroke-miterlimit:10;" d="M374.876,238.45c-0.341,0.842-1.877,1.013-3.431,0.383
			c-1.554-0.63-2.537-1.823-2.196-2.664c0.341-0.842,1.877-1.013,3.431-0.383C374.234,236.415,375.217,237.608,374.876,238.45z"/>
		<ellipse style="fill:#FFFFFF;stroke:#263238;stroke-miterlimit:10;" cx="250.801" cy="158.402" rx="5.159" ry="3.224"/>
		<path style="fill:#FFFFFF;stroke:#263238;stroke-miterlimit:10;" d="M264.988,176.136c0,1.247-1.155,2.257-2.579,2.257
			c-1.424,0-2.579-1.01-2.579-2.257c0-1.247,1.155-2.257,2.579-2.257C263.833,173.879,264.988,174.889,264.988,176.136z"/>
		<path style="fill:#FFFFFF;stroke:#263238;stroke-miterlimit:10;" d="M226.941,144.215c0,1.425-1.588,2.579-3.547,2.579
			c-1.959,0-3.547-1.155-3.547-2.579c0-1.425,1.588-2.579,3.547-2.579C225.353,141.635,226.941,142.79,226.941,144.215z"/>
		<path style="fill:#FFFFFF;stroke:#263238;stroke-miterlimit:10;" d="M280.465,149.696c0,1.959-1.299,3.547-2.902,3.547
			c-1.603,0-2.902-1.588-2.902-3.547c0-1.959,1.299-3.547,2.902-3.547C279.165,146.15,280.465,147.737,280.465,149.696z"/>
	</g>
</g>
<g id="Character">
	<g>
		<path style="fill:#263238;stroke:#263238;stroke-miterlimit:10;" d="M136.66,217.117c0,0,20.127,75.719,35.395,103.862
			c15.269,28.143,61.769,75.719,93,85.77c31.231,10.051,43.03,12.061,44.418,0c1.388-12.061-133.253-142.727-143.664-160.819
			C155.399,227.838,137.354,212.426,136.66,217.117z"/>
		<g>
			<g>
				<path style="fill:#92E3A9;stroke:#263238;stroke-miterlimit:10;" d="M198.622,205.937c0,0-20.445-23.513-32.364-31.691
					c-11.919-8.178-27.984-11.703-33.748,4.742c-5.764,16.445,11.711,80.609,45.04,131.551
					c33.329,50.942,80.358,81.788,98.523,91.867c18.165,10.079,31.243,13.453,44.182,6.32c12.939-7.133-4.253-48.31-11.898-72.021
					c-7.645-23.712-27.56-47.973-39.502-64.044S198.622,205.937,198.622,205.937z"/>
				<path style="fill:none;stroke:#263238;stroke-miterlimit:10;" d="M260.139,318.237c0,0,7.501,11.231,9.323,14.213
					c1.822,2.981,6.035,2.595,4.472-2.734c-1.563-5.329-6.596-11.714-6.596-11.714"/>
				<line style="fill:none;stroke:#263238;stroke-miterlimit:10;" x1="271.737" y1="343.91" x2="285.008" y2="340.67"/>
				<line style="fill:none;stroke:#263238;stroke-miterlimit:10;" x1="271.919" y1="315.908" x2="282.697" y2="334.81"/>
				<line style="fill:none;stroke:#263238;stroke-miterlimit:10;" x1="286.667" y1="342.692" x2="295.635" y2="362.559"/>
				<path style="fill:none;stroke:#263238;stroke-miterlimit:10;" d="M299.884,383.846L299.884,383.846
					c2.109-3.436,7.038-4.245,11.008-1.808c3.97,2.437,5.479,7.198,3.37,10.634c-0.185,0.301-0.391,0.581-0.616,0.841"/>
				<path style="fill:none;stroke:#263238;stroke-miterlimit:10;" d="M179.756,228.555c0,0-7.888,1.997-9.982,14.858
					c-2.095,12.86,5.889,24.997,20.542,37.647"/>
			</g>
			<g>
				<path style="fill:#FFFFFF;stroke:#263238;stroke-miterlimit:10;" d="M201.894,186.497c0,0-10.388,2.236-11.389,2.406
					c-1.001,0.17-30.631,7.673-32.165,8.345c-1.534,0.673-11.2,17.765-8.789,19.828c2.41,2.063,29.085-3.197,29.085-3.197
					l3.03,11.548l62.883,1.48c0,0,7.137,8.059,14.826,10.875c7.689,2.815,12.348-2.508,12.801-7.118
					c0.454-4.61-1.594-8.176-3.37-10.141c-1.776-1.965-6.192-4.923-6.997-6.023c-0.805-1.1-7.496-5.32-9.748-10.089
					c-2.252-4.768-2.463-8.441-7.953-12.866c-5.49-4.425-14.875-5.098-14.875-5.098L201.894,186.497z"/>
				<path style="fill:none;stroke:#263238;stroke-miterlimit:10;" d="M241.599,211.956c0,0,2.908-5.266,5.47-5.701"/>
				<path style="fill:none;stroke:#263238;stroke-miterlimit:10;" d="M246.903,211.931c0,0,3.715-2.513,6.463-1.85"/>
				<path style="fill:none;stroke:#263238;stroke-miterlimit:10;" d="M178.636,213.879l6.997-1.336c0,0,2.604-6.843-0.027-9.032"/>
				<path style="fill:none;stroke:#263238;stroke-miterlimit:10;" d="M194.037,206.598c0,0-3.515,8.127-8.148,9.667"/>
				<path style="fill:none;stroke:#263238;stroke-miterlimit:10;" d="M161.017,205.051c0,0,1.961,2.679-0.159,7.934"/>
				<path style="fill:none;stroke:#263238;stroke-miterlimit:10;" d="M163.986,198.145c0,0,4.84,6.332,4.736,12.374"/>
			</g>
			<path style="fill:#263238;stroke:#263238;stroke-miterlimit:10;" d="M266.842,226.645c0.639,3.764-1.003,5.186-5.383,5.93
				c-4.38,0.743-9.838,0.527-10.478-3.237c-0.639-3.764,2.393-7.419,6.773-8.163C262.134,220.431,266.203,222.88,266.842,226.645z"
				/>
			<g>
				<path style="fill:#263238;stroke:#263238;stroke-miterlimit:10;" d="M183.986,239.484c0,0-8.894,4.743-9.141,16.474
					c-0.247,11.731,28.971,35.869,41.896,44.618c12.926,8.749,35.12,16.421,45.756,14.615c10.637-1.806,18.628-11.867,17.392-20.611
					c-1.236-8.744-40.414-47.605-40.414-47.605s-6.372-0.908-11.895-1.214C222.057,245.456,183.986,239.484,183.986,239.484z"/>
				<path style="fill:#454545;" d="M228.26,253.846c0,0-12.059,3.74-9.242,5.377c2.817,1.637,15.155-0.457,10.98,2.367
					c-4.175,2.824-12.944,6.006-12.944,6.006s24.59,12.75,22.061,15.295s-26.903-6.434-37.068-11.478
					c-10.165-5.044-18.965-12.013-15.465-11.338c3.5,0.675,20.462,8.374,18.111,2.003c-2.351-6.371-24.157-8.802-18.421-15.595
					c5.735-6.793,35.236-0.698,41.309-0.722C233.653,245.737,228.26,253.846,228.26,253.846z"/>
				<path style="fill:#454545;" d="M269.358,291.146c0,0,6.052,15.138-14.062,15.32c-20.114,0.182-64.109-31.893-70.586-40.742
					s-1.185-18.7-1.185-18.7s-6.232,3.205-5.518,12.392c0.714,9.188,33.723,39.126,51.919,46.615
					c18.197,7.489,29.448,8.964,40.056,1.662C280.591,300.392,269.358,291.146,269.358,291.146z"/>
				<path style="fill:#454545;" d="M243.421,258.492c0,0,20.642,27.832,22.321,36.252c1.678,8.42-13.246,5.482-21.798,3.452
					c0,0,12.855,4.119,13.857-4.937C258.802,284.204,243.421,258.492,243.421,258.492z"/>
			</g>
			<g>
				<path style="fill:#263238;stroke:#263238;stroke-miterlimit:10;" d="M190.505,188.902c0,0,4.655,4.36,7.008,9.729
					c2.354,5.369,3.007,11.645-0.053,15.461c-3.061,3.816-7.459,7.035-10.663,7.579c-3.204,0.544-6.843,0.956-6.843,0.956
					s1.156,6.809,2.04,12.015c0.884,5.207,4.277,11.842,4.277,11.842s5.792,4.991,19.851,5.283
					c14.059,0.291,27.979-1.454,31.58-3.301c3.601-1.848,5.46-5.46,6.25-9.302c0.79-3.842-1.39-17.894-2.353-27.208
					c-0.963-9.314-5.028-17.482-6.808-20.683c-1.779-3.2-3.389-5.399-3.389-5.399l-2.169,0.574c0,0-0.208,8.482-0.163,12.389
					c0.045,3.907-1.481,7.05-1.481,7.05l-16.5-1.319c0,0-4.866-8.033-7.851-12.265c-2.985-4.232-5.093-5.728-5.093-5.728
					S191.303,187.531,190.505,188.902z"/>
				<path style="fill:#92E3A9;stroke:#263238;stroke-miterlimit:10;" d="M204.849,214.045l-13.483,11.141
					c0,0,1.922,11.321,3.443,14.79c1.521,3.469,7.562,3.375,7.562,3.375l17.593-0.657l-7.724-7.075l-12.611-0.188l-1.914-8.527
					l6.186-1.982l-0.085-3.247L204.849,214.045z"/>
				<path style="fill:#92E3A9;stroke:#263238;stroke-miterlimit:10;" d="M193.381,189.832c0,0,5.725,8.818,7.067,11.483l6.778-0.706
					c0,0-6.125-9.863-8.116-12.418L193.381,189.832z"/>
				<path style="fill:#92E3A9;stroke:#263238;stroke-miterlimit:10;" d="M229.593,190.805c0,0,1.171,5.586,1.575,7.965
					c0.404,2.379,0.559,5.913,0.559,5.913l7.325,1.204c0,0-2.399-6.268-3.819-10.699c-1.42-4.432-2.036-5.439-2.036-5.439
					L229.593,190.805z"/>
				<path style="fill:#92E3A9;stroke:#263238;stroke-miterlimit:10;" d="M239.877,230.266l-3.978,6.321l-1.046,4.338
					c0,0,8.419-2.915,8.845-5.662C244.122,232.517,242.514,226.55,239.877,230.266z"/>
				<path style="fill:#92E3A9;stroke:#263238;stroke-miterlimit:10;" d="M233.67,216.759l-1.13,3.034l-2.81-0.513l0.218-3.454
					c-3.81-0.774-9.283-1.352-15.059-0.219l1.28,3.996l-2.969,0.009l-1.677-3.145c-1.521,0.482-3.044,1.094-4.546,1.876
					l8.663,18.097l17.14-0.58l2.436-18.584C235.215,217.276,234.658,217.059,233.67,216.759z"/>
			</g>
			<path style="fill:#263238;stroke:#263238;stroke-miterlimit:10;" d="M201.296,173.308c0,0,0.249,12.099,0.598,13.188
				c0.349,1.089,16.422,13.619,19.058,14.648c2.636,1.029,4.285,1.077,5.527-1.266c1.243-2.344,1.652-7.664,1.652-7.664l-8.272-0.4
				l-8.003-8.485l-1.35-15.686L201.296,173.308z"/>
			<g>
				<path style="fill:#FFFFFF;stroke:#263238;stroke-miterlimit:10;" d="M209.799,171.208c0,0-0.569,14.043,1.007,16.564
					c1.577,2.522,8.109,8.139,10.555,8.052c2.446-0.087,4.892-0.174,6.77-3.61c1.878-3.436,4.55-7.992,4.833-11.157
					c0.283-3.165-0.28-4.547-0.201-5.052c0.078-0.506,1.342-4.658-0.132-8.509c-1.474-3.852-12.8-2.913-16.997-1.544
					C211.436,167.321,211.283,169.316,209.799,171.208z"/>
				<path style="fill:none;stroke:#263238;stroke-miterlimit:10;" d="M228.825,175.033c0,0-1.565,1.414-1.243,2.344
					c0.322,0.93,2.223,5.365,1.083,6.379c-1.14,1.014-3.325-0.256-3.325-0.256"/>
				<path style="fill:none;stroke:#263238;stroke-miterlimit:10;" d="M226.682,187.538c0,0-4.363-0.572-6.659-3.464"/>
				<path style="fill:#263238;" d="M222.699,177.767c-0.06,0.802-0.507,1.422-0.997,1.385s-0.838-0.717-0.778-1.519
					c0.06-0.802,0.507-1.422,0.997-1.385C222.412,176.286,222.76,176.966,222.699,177.767z"/>
				<path style="fill:#263238;" d="M231.421,177.435c-0.06,0.802-0.507,1.422-0.997,1.385c-0.49-0.037-0.838-0.717-0.778-1.518
					c0.06-0.802,0.507-1.422,0.997-1.385C231.133,175.954,231.481,176.633,231.421,177.435z"/>
				<path style="fill:none;stroke:#263238;stroke-miterlimit:10;" d="M219.145,175.036c0,0,1.562-2.398,4.995-1.504"/>
				<path style="fill:none;stroke:#263238;stroke-miterlimit:10;" d="M230.07,173.673c0,0,1.378-1.546,2.765-0.141"/>
			</g>
			<path style="fill:#92E3A9;stroke:#263238;stroke-miterlimit:10;" d="M200.481,167.54c0,0,0.069,5.239,0.815,5.768
				c0.746,0.53,3.568,1.691,5.214,0.755c1.646-0.936,3.289-2.855,3.289-2.855l21.878-2.566c0,0,0.349,1.089,1.36,1.246
				c1.011,0.156,1.511-1.733,1.159-3.806s-2.229-7.333-7.453-11.04c-5.223-3.707-14.795-3.067-20.208,0.806
				C201.122,159.72,200.336,163.791,200.481,167.54z"/>
			<path style="fill:#263238;stroke:#263238;stroke-miterlimit:10;" d="M212.032,170.829c0,0,0.613,18.108,1.44,19.116
				c0.828,1.008,2.72,2.492,2.72,2.492s-2.226-15.045-2.259-17.172c-0.033-2.127,0.094-4.282,0.094-4.282L212.032,170.829z"/>
			<g>
				<path style="fill:#FFFFFF;stroke:#263238;stroke-miterlimit:10;" d="M154.09,186.647c0,0-11.828,10.137-14.596,17.302
					c-2.769,7.165,1.984,15.444,7.693,15.271c5.709-0.172,10.454-11.658,11.124-12.409c0.669-0.751,3.683-3.654,4.09-5.954
					c0.406-2.301-1.915-2.797-1.915-2.797l2.459-5.265L154.09,186.647z"/>
				<path style="fill:#263238;stroke:#263238;stroke-miterlimit:10;" d="M154.09,186.647c0,0-3.013,2.583-6.353,6.062
					c2.557,2.871,5.137,5.573,12.748,5.351c-0.091-1.951,1.509-3.35,1.509-3.35l0.95-1.915L154.09,186.647z"/>
			</g>
			<g>
				<path style="fill:#92E3A9;stroke:#263238;stroke-miterlimit:10;" d="M119.974,166.962c0,0-1.461-8.396-8.725-14.582
					c-7.264-6.186-42.741-18.846-49.466-18.529c-6.725,0.317-12.731,9.855-13.656,16.056c-0.924,6.202,5.012,12.887,13.883,15.228
					c8.871,2.341,31.276,7.879,39.281,8.443C109.295,174.143,117.597,172.712,119.974,166.962z"/>
				<path style="fill:#92E3A9;stroke:#263238;stroke-miterlimit:10;" d="M289.947,233.327c0,0,6.752-5.269,18.406-4.014
					c9.331,1.005,38.809,14.838,45.168,19.938c6.91,5.542,2.864,13.939-3.608,19.763c-6.472,5.824-18.151,3.826-29.474-2.209
					c-18.048-9.62-32.053-29.478-32.053-29.478L289.947,233.327z"/>
				<g>
					<path style="fill:#FFFFFF;stroke:#263238;stroke-miterlimit:10;" d="M248.61,222.228c0,0-2.53,1.761-1.447,3.241
						c1.083,1.48,3.143,4.145,3.756,2.524c0.613-1.621-1.095-5.471-1.095-5.471L248.61,222.228z"/>
					<path style="fill:#263238;stroke:#263238;stroke-miterlimit:10;" d="M350.205,259.016c-0.598,1.542-2.341,2.296-3.875,1.678
						l-57.944-23.367l-169.04-65.605l-56.242-20.864c-1.594-0.591-2.395-2.373-1.78-3.958l0,0c0.615-1.585,2.409-2.36,3.985-1.721
						l54.738,22.208l169.901,65.94l58.529,21.837C350.025,255.741,350.803,257.475,350.205,259.016L350.205,259.016z"/>
					<path style="fill:#92E3A9;stroke:#263238;stroke-miterlimit:10;" d="M284.725,231.3l-1.698,3.947l5.358,2.079l57.944,23.367
						c1.534,0.618,3.277-0.136,3.875-1.678l0,0c0.598-1.542-0.179-3.275-1.729-3.853l-58.529-21.837L284.725,231.3z"/>
					<path style="fill:#92E3A9;stroke:#263238;stroke-miterlimit:10;" d="M120.047,167.387l-54.738-22.208
						c-1.576-0.639-3.37,0.135-3.985,1.721l0,0c-0.615,1.585,0.187,3.366,1.78,3.958l56.242,20.864l3.642,1.413l2.007-3.828
						L120.047,167.387z"/>
				</g>
			</g>
			<g>
				<path style="fill:#FFFFFF;stroke:#263238;stroke-miterlimit:10;" d="M154.075,178.193c0,0-2.316,6.986-1.614,7.485
					c0.703,0.499,4.16,6.299,6.634,7.527c2.475,1.228,4.644,0.654,5.909-0.385c1.266-1.039,1.663-2.342,1.663-2.342l-1.545-3.034
					l1.387-2.13c0.346-0.531,0.236-1.241-0.266-1.628c-0.361-0.278-0.806-0.57-1.268-0.751c-1.103-0.431-0.779-0.318-1.784-1.384
					c-1.005-1.065-2.603-2.61-4.809-3.471C156.176,177.218,154.94,177.222,154.075,178.193z"/>
				<path style="fill:none;stroke:#263238;stroke-miterlimit:10;" d="M163.872,182.505c0,0-1.737,2.677-2.057,3.254
					c-0.32,0.577-0.318,1.204-0.318,1.204"/>
				<path style="fill:none;stroke:#263238;stroke-miterlimit:10;" d="M161.341,180.506c0,0-2.89,2.687-3.074,3.45
					c-0.184,0.763,0.209,1.847,0.209,1.847"/>
				<path style="fill:none;stroke:#263238;stroke-miterlimit:10;" d="M157.725,178.297c0,0-2.681,4.533-2.712,5.584
					c-0.031,1.051,0.581,1.574,0.581,1.574"/>
			</g>
			<g>
				<path style="fill:#FFFFFF;stroke:#263238;stroke-miterlimit:10;" d="M267.88,224.074c0,0-1.845-3.353-3.087-4.098
					c-1.242-0.746-7.89-3.283-9.93-3.096c-2.04,0.187-3.742,1.432-4.201,3.423c-0.459,1.991-0.348,4.522,0.871,6.069
					c1.219,1.546,3.598,2.418,5.484,2.257c1.885-0.161,3.716-1.587,3.716-1.587s2.602-2.514,3.505-2.827
					C265.141,223.902,267.88,224.074,267.88,224.074z"/>
				<path style="fill:none;stroke:#263238;stroke-miterlimit:10;" d="M258.102,228.444c0,0-0.678-2.117-0.707-3.227
					c-0.029-1.111,3.99-4.662,4.791-4.639"/>
				<path style="fill:none;stroke:#263238;stroke-miterlimit:10;" d="M254.588,228.403c0,0-1.508-3.251-0.763-4.493
					c0.745-1.242,3.914-4.171,4.973-4.51"/>
				<path style="fill:none;stroke:#263238;stroke-miterlimit:10;" d="M251.533,226.372c0,0-0.295-3.616,0.605-4.885
					c0.9-1.269,2.421-2.643,2.421-2.643"/>
			</g>
		</g>
	</g>
</g>
<g id="Foam_1">
	<g>
		<g>
			<path style="fill:#FFFFFF;stroke:#263238;stroke-miterlimit:10;" d="M75.868,349.121c8.62,6.602,16.67,14.253,24.186,22.661
				c8.271,9.252,25.151,24.367,57.649,41.684c53.79,28.662,126.986,32.078,160.147,23.383c48.9-12.823,42.176-12.823,64.792-15.84
				c22.616-3.017,31.174,3.017,33.007,0c1.834-3.017,0-18.103-14.059-18.103c-14.059,0-29.34,5.28-29.34,5.28
				s17.115-13.577,28.729-15.086c11.614-1.508-3.667-18.103-17.115-13.577c-13.447,4.526-28.117,22.628-39.731,34.697
				c-11.614,12.068,2.445-10.56,1.834-23.383c-0.611-12.823-11.614-14.331-29.34,3.771c-17.726,18.103-45.844,36.205-50.122,33.942
				c-4.279-2.263,31.785-37.714,17.115-34.697c-14.67,3.017-25.061,18.103-38.509,19.611c-13.447,1.509,17.115-44.502,4.89-50.536
				s-18.949,5.28-31.174,11.314c-12.225,6.034,11.003-20.365-1.222-21.874c-12.225-1.508-6.724,9.051-32.396,14.331
				c-25.672,5.28-1.834-15.085-11.614-25.645c-9.78-10.56-29.34,9.051-39.731,12.068c-10.391,3.017,16.504-12.823,12.225-22.628
				c-4.279-9.806-22.005,5.28-39.12,8.297c-17.115,3.017-49.511-3.771-49.511-3.771L75.868,349.121z"/>
			<path style="fill:#FFFFFF;stroke:#263238;stroke-miterlimit:10;" d="M75.868,349.121c0,0,22.544,20.597,37.826,19.088
				c15.281-1.509,39.731-7.543,35.452,3.771c-4.279,11.314-14.67,18.103-0.611,15.086c14.059-3.017,25.672-3.771,23.227,6.788
				c-2.445,10.56,8.558,1.509,34.841-0.754c26.284-2.263,15.281,15.84,11.002,24.891c-4.279,9.051-2.445,3.017,23.839-14.331
				c26.284-17.348,33.619,0,22.005,14.331c-11.614,14.331-5.501,29.417,9.169,15.84c14.67-13.577,26.263-29.244,26.885-16.508
				c0.621,12.736-9.77,18.77,5.511,8.965c15.281-9.806,50.122-24.137,43.398-11.314c-6.724,12.823-18.949,17.348-30.562,21.874
				c-11.614,4.526,30.562-9.051,42.176-11.314c11.614-2.263,9.169,4.526,9.169,9.051c0,4.526,9.78-2.263,9.78-2.263
				s10.391-3.017,11.002,2.263c0.611,5.28-6.724,8.297,6.112,3.771c12.836-4.526,16.504-3.771,18.949,2.263
				s7.335,9.806,11.614,9.051c4.279-0.754-12.836,5.28-43.398,7.543c-30.562,2.263-69.682-0.754-69.682-0.754
				s40.342,10.56,55.012,12.068c14.67,1.509,33.618,6.034,33.618,6.034s-124.694,8.297-201.711-28.663s-77.017-36.96-77.017-36.96
				s55.012,33.188,63.57,36.96c8.557,3.771-55.624-17.348-99.022-52.045c-29.168-23.32-64.181-64.868-50.733-55.062
				c13.447,9.806,26.895,20.365,26.895,20.365s-43.398-46.765-30.562-39.222C46.457,327.479,75.868,349.121,75.868,349.121z"/>
		</g>
		<g>
			<path style="fill:#FFFFFF;stroke:#263238;stroke-miterlimit:10;" d="M290.956,307.867c0,2.083-2.052,3.771-4.584,3.771
				c-2.532,0-4.584-1.689-4.584-3.771c0-2.083,2.052-3.771,4.584-3.771C288.903,304.096,290.956,305.785,290.956,307.867z"/>
			<circle style="fill:#FFFFFF;stroke:#263238;stroke-miterlimit:10;" cx="295.617" cy="332.569" r="2.828"/>
			<path style="fill:#FFFFFF;stroke:#263238;stroke-miterlimit:10;" d="M241.445,331.627c0,1.458-1.231,2.64-2.751,2.64
				c-1.519,0-2.751-1.182-2.751-2.64c0-1.458,1.232-2.64,2.751-2.64C240.213,328.987,241.445,330.169,241.445,331.627z"/>
			<path style="fill:#FFFFFF;stroke:#263238;stroke-miterlimit:10;" d="M277.508,387.821c0,2.499-1.779,4.526-3.973,4.526
				s-3.973-2.026-3.973-4.526c0-2.5,1.779-4.526,3.973-4.526S277.508,385.321,277.508,387.821z"/>
			<path style="fill:#FFFFFF;stroke:#263238;stroke-miterlimit:10;" d="M303.181,377.261c0,1.25-0.958,2.263-2.139,2.263
				c-1.182,0-2.139-1.013-2.139-2.263c0-1.25,0.958-2.263,2.139-2.263C302.223,374.998,303.181,376.011,303.181,377.261z"/>
			<path style="fill:#FFFFFF;stroke:#263238;stroke-miterlimit:10;" d="M310.516,361.421c0,2.916-2.463,5.28-5.501,5.28
				c-3.038,0-5.501-2.364-5.501-5.28c0-2.916,2.463-5.28,5.501-5.28C308.052,356.141,310.516,358.505,310.516,361.421z"/>
			<path style="fill:#FFFFFF;stroke:#263238;stroke-miterlimit:10;" d="M322.74,383.295c0,1.25-1.095,2.263-2.445,2.263
				c-1.35,0-2.445-1.013-2.445-2.263c0-1.25,1.095-2.263,2.445-2.263C321.646,381.032,322.74,382.045,322.74,383.295z"/>
			<ellipse style="fill:#FFFFFF;stroke:#263238;stroke-miterlimit:10;" cx="169.929" cy="319.936" rx="6.112" ry="6.788"/>
			<ellipse style="fill:#FFFFFF;stroke:#263238;stroke-miterlimit:10;" cx="188.572" cy="344.45" rx="5.196" ry="4.903"/>
			<ellipse style="fill:#FFFFFF;stroke:#263238;stroke-miterlimit:10;" cx="184.293" cy="300.325" rx="2.751" ry="3.017"/>
			<path style="fill:#FFFFFF;stroke:#263238;stroke-miterlimit:10;" d="M202.936,305.982c0,1.458-1.505,2.64-3.362,2.64
				c-1.857,0-3.362-1.182-3.362-2.64c0-1.458,1.505-2.64,3.362-2.64C201.431,303.342,202.936,304.524,202.936,305.982z"/>
		</g>
	</g>
</g>
</svg>
