<?xml version="1.0" encoding="utf-8"?>
<!-- Generator: Adobe Illustrator 27.5.0, SVG Export Plug-In . SVG Version: 6.00 Build 0)  -->
<svg version="1.1" xmlns="http://www.w3.org/2000/svg" xmlns:xlink="http://www.w3.org/1999/xlink" x="0px" y="0px"
	 viewBox="0 0 500 500" style="enable-background:new 0 0 500 500;" xml:space="preserve">
<g id="Background_Simple">
	<g>
		<path style="fill:#92E3A9;" d="M457.549,267.238c16.637-106.421-72.142-213.687-188.71-227.009
			c-1.451-0.166-2.904-0.321-4.358-0.466c-81.45-8.09-155.901,54.127-177.189,101.581c-21.288,47.454-76.999,92.597-56.349,180.552
			c20.649,87.955,76.747,134.819,208.273,148.689c131.526,13.87,155.793-23.747,190.709-105.923
			C442.023,336.186,452.085,302.186,457.549,267.238z"/>
		<path style="opacity:0.8;fill:#FFFFFF;" d="M457.549,267.238c16.637-106.421-72.142-213.687-188.71-227.009
			c-1.451-0.166-2.904-0.321-4.358-0.466c-81.45-8.09-155.901,54.127-177.189,101.581c-21.288,47.454-76.999,92.597-56.349,180.552
			c20.649,87.955,76.747,134.819,208.273,148.689c131.526,13.87,155.793-23.747,190.709-105.923
			C442.023,336.186,452.085,302.186,457.549,267.238z"/>
	</g>
</g>
<g id="Floor">
	<line style="fill:none;stroke:#263238;stroke-miterlimit:10;" x1="12.778" y1="440.21" x2="480.576" y2="440.21"/>
</g>
<g id="Trees">
	<g>
		<g>
			<path style="fill:#92E3A9;" d="M428.152,351.947c0,0,1.4-3.064-15.749-9.958c-17.15-6.894-34.587-2.681-41.469,6.511
				c-6.882,9.193-14.109,10.341-19.69,14.172c-5.58,3.83-8.714,11.108-3.405,18.768c5.309,7.66,0.861,11.107,2.974,15.704
				c2.113,4.596,12.253,8.809,17.166,7.277c4.913-1.532,14.307-5.745,23.133-5.362s21.062,8.809,34.917,10.341
				c13.855,1.532,21.918-6.894,21.671-12.64c-0.247-5.745,6.779-2.681,6.136-17.619
				C453.193,364.204,428.152,351.947,428.152,351.947z"/>
			<path style="fill:#263238;" d="M364.44,384.276c0,0-1.917-2.556-4.473-3.195c-2.556-0.639-4.473-0.32-4.473-0.32
				s0.958,1.278,3.195,2.876S364.44,384.276,364.44,384.276z"/>
			<path style="fill:#263238;" d="M367.081,375.435c0,0-1.218-2.954-3.534-4.211c-2.316-1.257-4.252-1.426-4.252-1.426
				s0.609,1.477,2.376,3.582C363.438,375.486,367.081,375.435,367.081,375.435z"/>
			<path style="fill:#263238;" d="M378.547,369.872c0,0-0.094-3.194-1.815-5.189c-1.721-1.995-3.472-2.838-3.472-2.838
				s0.047,1.597,0.955,4.191C375.122,368.63,378.547,369.872,378.547,369.872z"/>
			<path style="fill:#263238;" d="M389.831,366.293c0,0,1.668-2.725,1.318-5.337c-0.35-2.611-1.355-4.275-1.355-4.275
				s-0.834,1.363-1.493,4.031C387.642,363.381,389.831,366.293,389.831,366.293z"/>
			<path style="fill:#263238;" d="M409.13,366.064c0,0,2.477-2.019,3.012-4.599c0.535-2.58,0.139-4.483,0.139-4.483
				s-1.238,1.009-2.744,3.309C408.03,362.591,409.13,366.064,409.13,366.064z"/>
			<path style="fill:#263238;" d="M423.734,372.26c0,0,2.477-2.019,3.012-4.599c0.535-2.58,0.139-4.482,0.139-4.482
				s-1.238,1.009-2.744,3.309C422.634,368.787,423.734,372.26,423.734,372.26z"/>
			<path style="fill:#263238;" d="M429.982,380.206c0,0,3.088-0.82,4.638-2.951c1.55-2.131,1.972-4.028,1.972-4.028
				s-1.544,0.41-3.863,1.886C430.409,376.588,429.982,380.206,429.982,380.206z"/>
			<path style="fill:#263238;" d="M432.626,388.295c0,0,3.083,0.838,5.492-0.228c2.409-1.067,3.725-2.497,3.725-2.497
				s-1.542-0.419-4.288-0.305C434.81,385.379,432.626,388.295,432.626,388.295z"/>
			<path style="fill:#263238;" d="M421.697,394.469c0,0,2.656,1.776,5.28,1.531c2.623-0.245,4.326-1.182,4.326-1.182
				s-1.328-0.888-3.968-1.653C424.695,392.4,421.697,394.469,421.697,394.469z"/>
			<path style="fill:#263238;" d="M400.186,377.152c0,0,1.668-2.725,1.318-5.337c-0.35-2.611-1.355-4.275-1.355-4.275
				s-0.834,1.363-1.493,4.031C397.998,374.239,400.186,377.152,400.186,377.152z"/>
			<path style="fill:#263238;" d="M366.009,390.371c0,0-2.768-1.596-5.369-1.178c-2.602,0.418-4.238,1.465-4.238,1.465
				s1.384,0.798,4.069,1.387C363.154,392.635,366.009,390.371,366.009,390.371z"/>
			<path style="fill:#263238;" d="M377.511,384.94c0,0-2.768-1.596-5.369-1.179c-2.602,0.418-4.238,1.465-4.238,1.465
				s1.384,0.798,4.069,1.387C374.657,387.203,377.511,384.94,377.511,384.94z"/>
		</g>
		<path style="fill:#263238;" d="M376.129,380.216c0,0,13.217,13.406,16.829,17.236c3.612,3.83,5.49,11.874,5.005,18.385
			c-0.486,6.511-4.69,24.513-4.69,24.513h12.64c0,0-0.878-11.491-1.006-23.364c-0.128-11.874,1.206-16.47,2.273-18.385
			s7.516-12.257,7.516-12.257l8.731-10.725l-13.961,13.789l-1.675-15.268c-0.028-0.259-0.404-0.275-0.432-0.019l-1.991,17.967
			l-4.266,7.66l-9.539-8.043l5.244-7.938c0.188-0.284-0.209-0.613-0.45-0.373l-6.704,6.68L376.129,380.216z"/>
	</g>
	<g>
		<g>
			<path style="fill:#92E3A9;" d="M100.128,351.947c0,0,1.4-3.064-15.75-9.958c-17.15-6.894-34.587-2.681-41.469,6.511
				c-6.882,9.193-14.109,10.341-19.69,14.172c-5.58,3.83-8.714,11.108-3.405,18.768c5.309,7.66,0.861,11.107,2.974,15.704
				c2.113,4.596,12.253,8.809,17.166,7.277c4.913-1.532,14.307-5.745,23.133-5.362s21.062,8.809,34.917,10.341
				c13.855,1.532,21.918-6.894,21.671-12.64c-0.247-5.745,6.779-2.681,6.136-17.619
				C125.168,364.204,100.128,351.947,100.128,351.947z"/>
			<path style="fill:#263238;" d="M36.416,384.276c0,0-1.917-2.556-4.473-3.195c-2.556-0.639-4.473-0.32-4.473-0.32
				s0.959,1.278,3.195,2.876S36.416,384.276,36.416,384.276z"/>
			<path style="fill:#263238;" d="M39.056,375.435c0,0-1.218-2.954-3.534-4.211c-2.316-1.257-4.252-1.426-4.252-1.426
				s0.609,1.477,2.376,3.582C35.414,375.486,39.056,375.435,39.056,375.435z"/>
			<path style="fill:#263238;" d="M50.523,369.872c0,0-0.094-3.194-1.815-5.189c-1.721-1.995-3.472-2.838-3.472-2.838
				s0.047,1.597,0.955,4.191C47.098,368.63,50.523,369.872,50.523,369.872z"/>
			<path style="fill:#263238;" d="M61.806,366.293c0,0,1.668-2.725,1.318-5.337c-0.35-2.611-1.355-4.275-1.355-4.275
				s-0.834,1.363-1.493,4.031C59.618,363.381,61.806,366.293,61.806,366.293z"/>
			<path style="fill:#263238;" d="M81.105,366.064c0,0,2.477-2.019,3.012-4.599c0.535-2.58,0.139-4.483,0.139-4.483
				s-1.238,1.009-2.744,3.309C80.006,362.591,81.105,366.064,81.105,366.064z"/>
			<path style="fill:#263238;" d="M95.71,372.26c0,0,2.477-2.019,3.012-4.599c0.535-2.58,0.139-4.482,0.139-4.482
				s-1.238,1.009-2.744,3.309C94.61,368.787,95.71,372.26,95.71,372.26z"/>
			<path style="fill:#263238;" d="M101.957,380.206c0,0,3.088-0.82,4.638-2.951c1.55-2.131,1.972-4.028,1.972-4.028
				s-1.544,0.41-3.863,1.886C102.385,376.588,101.957,380.206,101.957,380.206z"/>
			<path style="fill:#263238;" d="M104.602,388.295c0,0,3.083,0.838,5.492-0.228c2.409-1.067,3.725-2.497,3.725-2.497
				s-1.542-0.419-4.288-0.305C106.785,385.379,104.602,388.295,104.602,388.295z"/>
			<path style="fill:#263238;" d="M93.673,394.469c0,0,2.656,1.776,5.28,1.531c2.623-0.245,4.326-1.182,4.326-1.182
				s-1.328-0.888-3.968-1.653C96.67,392.4,93.673,394.469,93.673,394.469z"/>
			<path style="fill:#263238;" d="M72.162,377.152c0,0,1.668-2.725,1.318-5.337c-0.35-2.611-1.355-4.275-1.355-4.275
				s-0.834,1.363-1.493,4.031C69.974,374.239,72.162,377.152,72.162,377.152z"/>
			<path style="fill:#263238;" d="M37.985,390.371c0,0-2.768-1.596-5.369-1.178c-2.601,0.418-4.239,1.465-4.239,1.465
				s1.384,0.798,4.069,1.387C35.13,392.635,37.985,390.371,37.985,390.371z"/>
			<path style="fill:#263238;" d="M49.487,384.94c0,0-2.768-1.596-5.369-1.179c-2.601,0.418-4.238,1.465-4.238,1.465
				s1.384,0.798,4.069,1.387C46.633,387.203,49.487,384.94,49.487,384.94z"/>
		</g>
		<path style="fill:#263238;" d="M48.105,380.216c0,0,13.217,13.406,16.829,17.236c3.612,3.83,5.49,11.874,5.005,18.385
			c-0.486,6.511-4.69,24.513-4.69,24.513h12.64c0,0-0.878-11.491-1.006-23.364c-0.128-11.874,1.206-16.47,2.273-18.385
			c1.067-1.915,7.516-12.257,7.516-12.257l8.731-10.725L81.44,389.408l-1.675-15.268c-0.028-0.259-0.403-0.275-0.432-0.019
			l-1.991,17.967l-4.266,7.66l-9.539-8.043l5.244-7.938c0.188-0.284-0.209-0.613-0.45-0.373l-6.703,6.68L48.105,380.216z"/>
	</g>
	<g>
		<g>
			<path style="fill:#92E3A9;" d="M367.298,299.755c0,0,1.4-3.064-15.75-9.958c-17.15-6.894-34.587-2.681-41.469,6.511
				c-6.882,9.192-14.109,10.341-19.69,14.172c-5.58,3.83-8.714,11.108-3.405,18.768c5.309,7.66,0.861,11.107,2.974,15.704
				c2.113,4.596,12.253,8.809,17.166,7.277s14.307-5.745,23.133-5.362c8.826,0.383,21.062,8.809,34.917,10.341
				c13.855,1.532,21.918-6.894,21.671-12.64c-0.247-5.745,6.779-2.681,6.136-17.619
				C392.339,312.012,367.298,299.755,367.298,299.755z"/>
			<path style="fill:#263238;" d="M303.587,332.084c0,0-1.917-2.556-4.473-3.195c-2.556-0.639-4.473-0.32-4.473-0.32
				s0.959,1.278,3.195,2.876C300.072,333.043,303.587,332.084,303.587,332.084z"/>
			<path style="fill:#263238;" d="M306.228,323.244c0,0-1.218-2.954-3.534-4.211c-2.316-1.257-4.252-1.426-4.252-1.426
				s0.609,1.477,2.376,3.582C302.585,323.294,306.228,323.244,306.228,323.244z"/>
			<path style="fill:#263238;" d="M317.694,317.68c0,0-0.094-3.194-1.815-5.189c-1.721-1.995-3.472-2.838-3.472-2.838
				s0.047,1.597,0.955,4.191C314.269,316.439,317.694,317.68,317.694,317.68z"/>
			<path style="fill:#263238;" d="M328.977,314.102c0,0,1.668-2.725,1.318-5.337c-0.35-2.612-1.355-4.275-1.355-4.275
				s-0.834,1.363-1.493,4.031C326.789,311.189,328.977,314.102,328.977,314.102z"/>
			<path style="fill:#263238;" d="M348.276,313.872c0,0,2.477-2.019,3.012-4.599c0.535-2.58,0.139-4.482,0.139-4.482
				s-1.238,1.009-2.744,3.309C347.177,310.399,348.276,313.872,348.276,313.872z"/>
			<path style="fill:#263238;" d="M362.881,320.068c0,0,2.477-2.019,3.012-4.599c0.535-2.58,0.139-4.483,0.139-4.483
				s-1.238,1.009-2.744,3.309C361.781,316.595,362.881,320.068,362.881,320.068z"/>
			<path style="fill:#263238;" d="M369.128,328.014c0,0,3.088-0.82,4.638-2.951c1.55-2.131,1.972-4.028,1.972-4.028
				s-1.544,0.41-3.863,1.886C369.556,324.396,369.128,328.014,369.128,328.014z"/>
			<path style="fill:#263238;" d="M371.773,336.103c0,0,3.083,0.839,5.492-0.228c2.409-1.067,3.725-2.497,3.725-2.497
				s-1.542-0.419-4.288-0.305C373.956,333.187,371.773,336.103,371.773,336.103z"/>
			<path style="fill:#263238;" d="M360.844,342.278c0,0,2.656,1.776,5.28,1.531c2.623-0.245,4.326-1.182,4.326-1.182
				s-1.328-0.888-3.968-1.653S360.844,342.278,360.844,342.278z"/>
			<path style="fill:#263238;" d="M339.333,324.96c0,0,1.668-2.725,1.318-5.337c-0.35-2.611-1.355-4.275-1.355-4.275
				s-0.834,1.363-1.493,4.031C337.145,322.047,339.333,324.96,339.333,324.96z"/>
			<path style="fill:#263238;" d="M305.155,338.18c0,0-2.768-1.596-5.369-1.178c-2.602,0.418-4.238,1.465-4.238,1.465
				s1.384,0.798,4.069,1.387C302.301,340.443,305.155,338.18,305.155,338.18z"/>
			<path style="fill:#263238;" d="M316.658,332.748c0,0-2.768-1.596-5.369-1.178c-2.601,0.418-4.238,1.465-4.238,1.465
				s1.384,0.798,4.069,1.387C313.804,335.011,316.658,332.748,316.658,332.748z"/>
		</g>
		<path style="fill:#263238;" d="M315.276,328.024c0,0,13.217,13.406,16.829,17.236c3.612,3.83,5.49,11.873,5.005,18.385
			c-0.486,6.511-4.69,76.664-4.69,76.664h12.639c0,0-0.878-63.641-1.006-75.515c-0.128-11.874,1.206-16.47,2.273-18.385
			s7.516-12.257,7.516-12.257l8.731-10.725l-13.961,13.789l-1.675-15.268c-0.028-0.259-0.404-0.275-0.432-0.019l-1.991,17.967
			l-4.266,7.66l-9.539-8.043l5.244-7.938c0.188-0.284-0.209-0.613-0.45-0.373l-6.703,6.68L315.276,328.024z"/>
	</g>
	<g>
		<g>
			<path style="fill:#92E3A9;" d="M236.262,299.755c0,0,1.4-3.064-15.75-9.958c-17.15-6.894-34.587-2.681-41.469,6.511
				c-6.882,9.192-14.109,10.341-19.69,14.172c-5.58,3.83-8.714,11.108-3.405,18.768c5.309,7.66,0.861,11.107,2.974,15.704
				c2.113,4.596,12.253,8.809,17.166,7.277s14.307-5.745,23.133-5.362c8.826,0.383,21.062,8.809,34.917,10.341
				c13.855,1.532,21.918-6.894,21.671-12.64c-0.247-5.745,6.779-2.681,6.136-17.619
				C261.303,312.012,236.262,299.755,236.262,299.755z"/>
			<path style="fill:#263238;" d="M172.551,332.084c0,0-1.917-2.556-4.473-3.195c-2.556-0.639-4.473-0.32-4.473-0.32
				s0.959,1.278,3.195,2.876S172.551,332.084,172.551,332.084z"/>
			<path style="fill:#263238;" d="M175.191,323.244c0,0-1.218-2.954-3.534-4.211c-2.316-1.257-4.252-1.426-4.252-1.426
				s0.609,1.477,2.376,3.582C171.548,323.294,175.191,323.244,175.191,323.244z"/>
			<path style="fill:#263238;" d="M186.658,317.68c0,0-0.094-3.194-1.816-5.189c-1.721-1.995-3.472-2.838-3.472-2.838
				s0.047,1.597,0.955,4.191C183.233,316.439,186.658,317.68,186.658,317.68z"/>
			<path style="fill:#263238;" d="M197.941,314.102c0,0,1.668-2.725,1.318-5.337c-0.35-2.612-1.355-4.275-1.355-4.275
				s-0.834,1.363-1.493,4.031C195.753,311.189,197.941,314.102,197.941,314.102z"/>
			<path style="fill:#263238;" d="M217.24,313.872c0,0,2.477-2.019,3.012-4.599c0.535-2.58,0.139-4.482,0.139-4.482
				s-1.238,1.009-2.744,3.309C216.14,310.399,217.24,313.872,217.24,313.872z"/>
			<path style="fill:#263238;" d="M231.844,320.068c0,0,2.477-2.019,3.012-4.599c0.535-2.58,0.139-4.483,0.139-4.483
				s-1.238,1.009-2.744,3.309C230.745,316.595,231.844,320.068,231.844,320.068z"/>
			<path style="fill:#263238;" d="M238.092,328.014c0,0,3.088-0.82,4.638-2.951c1.55-2.131,1.972-4.028,1.972-4.028
				s-1.544,0.41-3.863,1.886C238.519,324.396,238.092,328.014,238.092,328.014z"/>
			<path style="fill:#263238;" d="M240.736,336.103c0,0,3.083,0.839,5.492-0.228c2.409-1.067,3.725-2.497,3.725-2.497
				s-1.542-0.419-4.288-0.305C242.92,333.187,240.736,336.103,240.736,336.103z"/>
			<path style="fill:#263238;" d="M229.807,342.278c0,0,2.656,1.776,5.28,1.531s4.326-1.182,4.326-1.182s-1.328-0.888-3.968-1.653
				C232.805,340.208,229.807,342.278,229.807,342.278z"/>
			<path style="fill:#263238;" d="M208.297,324.96c0,0,1.668-2.725,1.318-5.337c-0.35-2.611-1.355-4.275-1.355-4.275
				s-0.834,1.363-1.493,4.031C206.108,322.047,208.297,324.96,208.297,324.96z"/>
			<path style="fill:#263238;" d="M174.119,338.18c0,0-2.768-1.596-5.369-1.178c-2.602,0.418-4.239,1.465-4.239,1.465
				s1.384,0.798,4.069,1.387C171.265,340.443,174.119,338.18,174.119,338.18z"/>
			<path style="fill:#263238;" d="M185.622,332.748c0,0-2.768-1.596-5.369-1.178c-2.601,0.418-4.238,1.465-4.238,1.465
				s1.384,0.798,4.069,1.387C182.767,335.011,185.622,332.748,185.622,332.748z"/>
		</g>
		<path style="fill:#263238;" d="M184.24,328.024c0,0,13.217,13.406,16.829,17.236c3.612,3.83,5.49,11.873,5.005,18.385
			c-0.486,6.511-4.69,76.664-4.69,76.664h12.64c0,0-0.878-63.641-1.006-75.515c-0.128-11.874,1.206-16.47,2.273-18.385
			s7.516-12.257,7.516-12.257l8.731-10.725l-13.961,13.789l-1.675-15.268c-0.028-0.259-0.404-0.275-0.432-0.019l-1.991,17.967
			l-4.266,7.66l-9.539-8.043l5.244-7.938c0.188-0.284-0.209-0.613-0.45-0.373l-6.703,6.68L184.24,328.024z"/>
	</g>
</g>
<g id="Clouds">
	<path style="fill:none;stroke:#263238;stroke-miterlimit:10;" d="M411.882,118.141c0,0-11.424-22.848-34.272-22.176
		c-22.848,0.672-22.176,14.784-25.536,18.144c-3.36,3.36-13.44-4.704-21.504-0.672c-8.064,4.032-8.736,10.08-10.752,12.096
		c-2.016,2.016-10.752-4.704-17.472-2.688c-6.72,2.016-10.08,10.08-10.08,10.08l-12.768,4.704h169.346c0,0-6.72-14.112-14.784-16.8
		C425.994,118.141,418.602,121.501,411.882,118.141z"/>
	<path style="fill:none;stroke:#263238;stroke-miterlimit:10;" d="M168.893,52.319c0,0-7.88-15.76-23.64-15.297
		c-15.76,0.464-15.297,10.198-17.614,12.515c-2.318,2.318-9.271-3.245-14.833-0.464c-5.562,2.781-6.026,6.953-7.416,8.344
		c-1.391,1.391-7.417-3.245-12.052-1.854c-4.635,1.39-6.953,6.953-6.953,6.953l-8.807,3.245h116.81c0,0-4.635-9.734-10.198-11.588
		C178.627,52.319,173.528,54.636,168.893,52.319z"/>
	<path style="fill:none;stroke:#263238;stroke-miterlimit:10;" d="M135.452,195.256c0,0-5.26-10.519-15.779-10.21
		s-10.21,6.807-11.757,8.354c-1.547,1.547-6.188-2.166-9.901-0.309c-3.713,1.856-4.022,4.641-4.95,5.569
		c-0.928,0.928-4.95-2.166-8.044-1.237c-3.094,0.928-4.641,4.641-4.641,4.641l-5.879,2.166h77.967c0,0-3.094-6.497-6.807-7.735
		C141.95,195.256,138.546,196.803,135.452,195.256z"/>
	<path style="fill:none;stroke:#263238;stroke-miterlimit:10;" d="M424.219,276.192c0,0-5.26-10.519-15.779-10.21
		c-10.519,0.309-10.21,6.807-11.757,8.354s-6.188-2.166-9.901-0.309c-3.713,1.856-4.022,4.641-4.95,5.569
		c-0.928,0.928-4.95-2.166-8.044-1.238c-3.094,0.928-4.641,4.641-4.641,4.641l-5.879,2.166h77.967c0,0-3.094-6.497-6.807-7.735
		C430.716,276.192,427.313,277.739,424.219,276.192z"/>
</g>
<g id="Stumps">
	<g>
		<rect x="120.512" y="303.103" style="fill:#92E3A9;stroke:#263238;stroke-miterlimit:10;" width="29.341" height="2.742"/>
		<rect x="144.643" y="303.103" style="fill:#92E3A9;stroke:#263238;stroke-miterlimit:10;" width="5.21" height="137.107"/>
		<rect x="133.675" y="303.103" style="fill:#92E3A9;stroke:#263238;stroke-miterlimit:10;" width="5.21" height="137.107"/>
		<rect x="120.512" y="303.103" style="fill:#92E3A9;stroke:#263238;stroke-miterlimit:10;" width="5.21" height="137.107"/>
	</g>
</g>
<g id="Character">
	<g>
		<g>
			<path style="fill:#92E3A9;stroke:#263238;stroke-miterlimit:10;" d="M248.881,344.038c0,0,1.767,22.526,2.429,37.543
				c0.663,15.017,3.533,26.722,3.533,26.722s-6.846-4.638-12.367-5.963c-5.521-1.325-23.409-0.883-30.255-3.533
				c-6.846-2.65-7.288-4.417-8.392-5.079c-1.104-0.663-7.729-7.729-12.809-0.663c-5.079,7.067,0.442,19.876-0.663,21.642
				c-1.104,1.767-4.859,8.392-3.754,15.68c1.104,7.288,2.429,11.263,4.859,10.379c2.429-0.883,10.379-14.576,12.367-18.551
				c1.988-3.975,3.754-6.404,3.754-6.404s20.317,8.171,31.138,13.25c10.821,5.079,31.801,8.834,35.776,1.767
				c3.975-7.067,12.146-21.201,13.03-37.101c0.883-15.9,6.404-51.235,6.404-51.235L248.881,344.038z"/>
			<path style="fill:#263238;stroke:#263238;stroke-miterlimit:10;" d="M250.737,358.612c0,0,5.18-5.18,16.279-8.509
				c11.099-3.33,24.788,4.07,24.788,4.07l2.553-13.821l-33.631,0.502l-11.845,3.185L250.737,358.612z"/>
			<line style="fill:none;stroke:#263238;stroke-miterlimit:10;" x1="255.659" y1="352.458" x2="259.017" y2="371.113"/>
			<line style="fill:none;stroke:#263238;stroke-miterlimit:10;" x1="259.763" y1="374.844" x2="260.883" y2="381.186"/>
		</g>
		<path style="fill:#FFFFFF;stroke:#263238;stroke-miterlimit:10;" d="M204.491,401.528c0.632-2.053,2.208-3.495,3.807-4.479
			c-3.166-1.679-3.629-2.819-4.467-3.322c-1.104-0.663-7.729-7.729-12.809-0.663c-5.079,7.067,0.442,19.876-0.663,21.642
			c-1.104,1.767-4.858,8.392-3.754,15.68c1.104,7.288,2.429,11.263,4.859,10.379c2.429-0.883,10.379-14.576,12.367-18.551
			c1.489-2.978,2.854-5.088,3.445-5.959C205.762,412.103,203.467,404.855,204.491,401.528z"/>
		<path style="fill:#263238;stroke:#263238;stroke-miterlimit:10;" d="M212.222,398.806c0,0-5.521,5.963-5.963,11.042l4.638,0.221
			c0,0,0.883-7.95,5.963-9.717L212.222,398.806z"/>
		<path style="fill:#263238;stroke:#263238;stroke-miterlimit:10;" d="M238.943,401.898c0,0-3.092,2.429-4.638,8.834l4.859,0.442
			c0,0,1.988-5.963,5.3-7.95C244.464,403.223,240.268,401.456,238.943,401.898z"/>
		<g>
			<path style="fill:#FFFFFF;stroke:#263238;stroke-miterlimit:10;" d="M187.488,410.51c0,0,12.809,5.742,20.98,8.834
				c8.171,3.092,28.488,11.925,40.193,15.459c11.705,3.533,29.593-0.221,33.126-2.208c3.534-1.988,7.067-6.404,5.963-8.834
				c-1.104-2.429-2.208-2.429-10.6-4.196c-8.392-1.767-21.863-6.625-25.617-7.288c-3.754-0.663-7.95-3.975-21.863-3.975
				c-13.913,0-26.501-0.221-31.801-0.442C192.567,407.64,186.163,407.419,187.488,410.51z"/>
			<path style="fill:none;stroke:#263238;stroke-miterlimit:10;" d="M249.544,413.381c0,0-3.754,9.938,4.858,20.98"/>
			<path style="fill:none;stroke:#263238;stroke-miterlimit:10;" d="M246.231,412.498c0,0-1.325,9.717,2.429,16.342"/>
		</g>
		<g>
			<path style="fill:#92E3A9;stroke:#263238;stroke-miterlimit:10;" d="M305.726,203.913c0,0-9.34-0.203-12.994-1.421
				s-14.009-5.279-20.1-3.655c-6.091,1.624-8.527,3.655-11.979,7.918c-3.452,4.264-17.055,36.952-16.852,47.104
				c0.203,10.152,9.137,11.979,9.137,11.979s-15.024,23.146-13.603,24.567c1.421,1.421,60.098,27.409,64.564,25.785
				c4.467-1.624,6.497-5.076,7.106-9.137c0.609-4.061,19.288-27.409,19.288-27.409l16.243-24.161c0,0,10.761-16.243,8.121-22.74
				c-2.639-6.497-25.582-17.461-25.582-17.461L305.726,203.913z"/>
			<path style="fill:#263238;stroke:#263238;stroke-miterlimit:10;" d="M346.536,255.483c0,0,10.761-16.243,8.121-22.74
				c-2.639-6.497-25.582-17.461-25.582-17.461l-23.349-11.37c0,0-9.34-0.203-12.994-1.421c-3.655-1.218-14.009-5.279-20.1-3.654
				s-8.527,3.654-11.979,7.918c-3.452,4.264-17.055,36.952-16.852,47.103c0.068,3.38,1.11,5.822,2.462,7.596
				c22.335-15.157,60.743-40.205,66.544-37.304c5.833,2.917,13.726,35.85,17.858,54.94L346.536,255.483z"/>
			<path style="fill:none;stroke:#FFFFFF;stroke-miterlimit:10;" d="M302.072,205.131c0,0-4.061,10.355-2.233,22.943"/>
			<path style="fill:none;stroke:#FFFFFF;stroke-miterlimit:10;" d="M325.353,233.124c-0.672,1.085-1.455,2.183-2.369,3.274"/>
			<path style="fill:none;stroke:#FFFFFF;stroke-miterlimit:10;" d="M329.278,218.531c0,0,0.605,5.446-2.483,11.946"/>
			<path style="fill:none;stroke:#FFFFFF;stroke-miterlimit:10;" d="M331.714,219.344c0,0,0.406,4.873-1.015,9.136"/>
			<line style="fill:none;stroke:#263238;stroke-miterlimit:10;" x1="250.417" y1="288.207" x2="257.607" y2="298.932"/>
			<line style="fill:none;stroke:#263238;stroke-miterlimit:10;" x1="245.628" y1="281.065" x2="248.591" y2="285.484"/>
			<line style="fill:none;stroke:#263238;stroke-miterlimit:10;" x1="255.374" y1="291.217" x2="260.044" y2="299.338"/>
			<line style="fill:none;stroke:#263238;stroke-miterlimit:10;" x1="253.547" y1="279.441" x2="261.059" y2="289.999"/>
		</g>
		<path style="fill:#FFFFFF;stroke:#263238;stroke-miterlimit:10;" d="M304.175,196.994c0.722,0,0.181,13.533-1.083,20.209
			c-1.263,6.676,2.346,17.683,8.842,17.863c6.496,0.18,12.089-7.218,13.713-12.27c1.624-5.052,1.804-7.037,1.804-7.037
			l-22.014-22.374L304.175,196.994z"/>
		<path style="fill:#263238;stroke:#263238;stroke-miterlimit:10;" d="M303.61,213.797l16.787-2.252l-16.049-14.191
			C304.712,199.177,304.389,207.562,303.61,213.797z"/>
		<g>
			<g>
				<path style="fill:#263238;stroke:#263238;stroke-miterlimit:10;" d="M305.257,180.754c0,0,4.15-3.248,14.255-3.789
					c10.104-0.541,15.698,1.443,21.111,3.248c5.413,1.804,8.12,3.428,8.12,3.428s9.022,0.902,9.383-0.902
					c0.361-1.804-7.939-6.135-7.939-6.135s0.634-12.385-3.516-18.7c-4.15-6.315-20.843-9.268-28.783-6.561
					c-7.939,2.707-13.172,8.481-14.976,14.435c-1.804,5.954-1.985,15.337-1.804,15.879
					C301.288,182.198,305.257,180.754,305.257,180.754z"/>
				<path style="fill:#FFFFFF;stroke:#263238;stroke-miterlimit:10;" d="M307.062,173.176c0,0,15.878-4.872,22.374-3.97
					c6.496,0.902,18.946,6.857,18.946,6.857s5.774,3.067,7.578,4.15c1.804,1.083,3.97,1.804,2.165,2.526
					c-1.804,0.722-1.804,0.722-1.804,0.722s-1.083-1.083-6.496-3.609c-5.413-2.526-17.683-8.481-22.374-8.481
					c-4.691,0-21.292,4.511-21.292,4.511L307.062,173.176z"/>
			</g>
			<path style="fill:#FFFFFF;stroke:#263238;stroke-miterlimit:10;" d="M348.743,183.641c0,0-1.443,0.722-2.346,5.233
				c-0.902,4.511-1.624,8.661-3.97,15.157s-11.548,13.533-17.322,13.894c-5.774,0.361-13.533-7.217-15.518-10.646
				s-5.413-10.285-5.413-10.285l-1.804-17.503c0,0,7.217-4.872,12.631-5.594c5.413-0.722,15.879,0,21.653,1.443
				C342.427,176.785,348.743,183.641,348.743,183.641z"/>
			<path style="fill:none;stroke:#263238;stroke-miterlimit:10;" d="M337.917,182.559c0,0-4.331,4.691-3.428,10.105"/>
			<path style="fill:#FFFFFF;stroke:#263238;stroke-miterlimit:10;" d="M302.009,170.65c0,0-3.248,4.511-3.609,8.12
				c-0.361,3.609,0.722,11.728,1.443,16.059c0.722,4.331,4.511,7.037,6.135,6.315c1.624-0.722,6.315-4.511,6.315-6.496
				s-3.068-3.248-4.511-8.842c-1.443-5.593-2.165-8.661-0.722-12.631c1.443-3.97,1.624-7.037-0.361-6.315
				C304.716,167.582,302.009,170.65,302.009,170.65z"/>
			<path style="fill:none;stroke:#263238;stroke-miterlimit:10;" d="M304.175,190.498c0,0,31.035-2.887,43.486,11.909
				c0,0-5.594,10.826-14.615,13.713c-9.022,2.887-15.879-0.722-20.029-5.594C308.866,205.655,303.814,197.535,304.175,190.498z"/>
			<path style="fill:none;stroke:#263238;stroke-miterlimit:10;" d="M315.542,190.498c0,0,1.624,4.15-0.902,8.841"/>
			<path style="fill:none;stroke:#263238;stroke-miterlimit:10;" d="M323.842,191.22c0,0,0.361,8.12-2.707,13.352
				c-3.067,5.233-6.135,7.398-6.135,7.398"/>
			<path style="fill:none;stroke:#263238;stroke-miterlimit:10;" d="M338.999,195.911c0,0-3.609,8.842-4.331,12.631
				s-0.18,7.217-0.18,7.217"/>
			<path style="fill:none;stroke:#263238;stroke-miterlimit:10;" d="M344.412,199.7c0,0-3.068,2.346-3.428,6.676"/>
			<path style="fill:none;stroke:#263238;stroke-miterlimit:10;" d="M308.325,199.7c0,0,18.585-3.789,34.644,9.383"/>
			<path style="fill:#263238;" d="M325.807,184.877c-0.21,1.228-1.017,2.114-1.803,1.98c-0.786-0.134-1.253-1.239-1.043-2.466
				c0.21-1.228,1.017-2.114,1.803-1.98C325.549,182.545,326.016,183.649,325.807,184.877z"/>
			<path style="fill:#263238;" d="M341.505,188.034c-0.21,1.228-1.017,2.114-1.803,1.98c-0.786-0.134-1.253-1.238-1.043-2.466
				c0.21-1.228,1.017-2.114,1.803-1.98C341.247,185.702,341.715,186.807,341.505,188.034z"/>
			<path style="fill:none;stroke:#263238;stroke-miterlimit:10;" d="M320.414,180.393c0,0,4.331-2.526,9.383,1.804"/>
			<path style="fill:none;stroke:#263238;stroke-miterlimit:10;" d="M338.638,183.641c0,0,3.609-0.541,5.774,0.902"/>
			<path style="fill:none;stroke:#263238;stroke-miterlimit:10;" d="M335.03,196.813c0,0-1.985,1.263-3.609,1.263
				c-1.624,0-3.067-0.902-3.067-0.902"/>
		</g>
		<path style="fill:#FFFFFF;stroke:#263238;stroke-miterlimit:10;" d="M233.65,203.101c0,0,1.624,9.542,5.888,12.182
			c4.264,2.639,5.076,4.67,5.076,4.67l-2.436,7.106c0,0,1.421,2.639,6.903,3.249s6.7-1.421,6.7-1.421s1.015-5.076,2.233-7.715
			c1.218-2.64,2.03-7.106,1.421-9.746s-11.979-19.085-11.979-19.085s-3.858-6.497-7.309-5.076c-3.452,1.421-7.918,4.061-7.512,7.512
			C233.04,198.228,233.65,203.101,233.65,203.101z"/>
		<path style="fill:#263238;stroke:#263238;stroke-miterlimit:10;" d="M255.78,228.886c0,0,0.331-1.654,0.842-3.564
			c-4.781,0.345-9.99-1.325-12.99-2.507l-1.455,4.244c0,0,1.421,2.639,6.903,3.249S255.78,228.886,255.78,228.886z"/>
		<polygon style="fill:#263238;stroke:#263238;stroke-miterlimit:10;" points="342.069,265.838 335.921,263.528 343.372,260.216 		
			"/>
		<path style="fill:#FFFFFF;stroke:#263238;stroke-miterlimit:10;" d="M321.156,241.88l-15.227,1.624c0,0-7.106-9.34-16.243-15.024
			c-9.136-5.685-23.349-20.1-23.349-20.1l-4.264-4.67l-7.918,6.7c0,0,10.355,14.415,11.776,16.852
			c1.421,2.436,8.527,19.897,15.836,27.003c7.309,7.106,13.197,14.212,16.04,14.009c2.842-0.203,19.694-2.03,27.003-2.03
			c7.309,0,15.836-4.264,16.446-5.076s2.436-3.655-0.609-8.527c-3.045-4.873-7.309-8.324-9.745-9.543
			C328.466,241.88,321.156,241.88,321.156,241.88z"/>
		<path style="fill:#92E3A9;stroke:#263238;stroke-miterlimit:10;" d="M345.723,228.886c0,0-10.152,3.858-16.852,8.121
			c-6.7,4.264-7.715,4.873-7.715,4.873s10.761,3.452,15.431,9.543c4.67,6.091,5.482,14.415,5.482,14.415s12.588-4.873,16.649-17.055
			c4.061-12.182,0.812-15.837-2.639-18.679c-3.452-2.842-8.121-1.827-8.121-1.827"/>
		<path style="fill:none;stroke:#263238;stroke-miterlimit:10;" d="M245.505,205.25l5.358,8.861c0.936,1.548,3.01,1.941,4.447,0.842
			l0,0c1.141-0.872,1.515-2.424,0.898-3.721l-4.412-9.264L245.505,205.25z"/>
		<path style="fill:#FFFFFF;stroke:#263238;stroke-miterlimit:10;" d="M186.476,73.988l-15.045,11.762l44.805,78.742l6.018,2.188
			c0,0,4.65,1.094,6.292-1.094c1.641-2.188,2.188-11.489,2.188-11.489L186.476,73.988z"/>
		<path style="fill:#92E3A9;stroke:#263238;stroke-miterlimit:10;" d="M228.545,165.586c1.641-2.188,2.188-11.489,2.188-11.489
			l-1.838-3.341l-13.201-5.5l0.541,19.236l6.018,2.188C222.254,166.68,226.904,167.775,228.545,165.586z"/>
		<path style="fill:#FFFFFF;stroke:#263238;stroke-miterlimit:10;" d="M239.132,166.149c0,0-5.279-6.091-12.994-4.264
			c-7.715,1.827-10.761,11.167-9.34,14.009c1.421,2.842,4.467,2.03,6.497,0.609c2.03-1.421,8.73-6.091,8.73-6.091l8.324-2.842
			L239.132,166.149z"/>
		<path style="fill:#FFFFFF;stroke:#263238;stroke-miterlimit:10;" d="M231.822,190.513c0,0-6.7-3.655-8.324-7.106
			c-1.624-3.452-0.609-10.964,6.091-15.227c6.7-4.264,14.009-1.827,18.882,1.827c4.873,3.655,9.339,12.182,11.573,21.115
			c2.233,8.933,3.655,14.212,3.655,14.212l2.842,3.452l-8.324,7.918c0,0-2.639-1.624-5.685-5.685
			c-3.046-4.061-6.497-13.603-8.73-18.07c-2.233-4.467-6.294-5.076-7.106-4.264C235.883,189.498,231.822,190.513,231.822,190.513z"
			/>
		<path style="fill:#263238;stroke:#263238;stroke-miterlimit:10;" d="M258.216,216.704l8.324-7.918l-2.842-3.452
			c0,0-0.072-0.266-0.201-0.754l-10.06,7.589C256.081,215.385,258.216,216.704,258.216,216.704z"/>
		<path style="fill:none;stroke:#263238;stroke-miterlimit:10;" d="M225.122,185.234c0,0,1.015-11.776,10.355-14.618
			c9.34-2.842,12.994-0.609,12.994-0.609"/>
		<path style="fill:none;stroke:#263238;stroke-miterlimit:10;" d="M229.792,188.686c0,0,3.858-11.167,10.152-12.791
			c6.294-1.624,10.964-1.624,15.024,2.639"/>
		<path style="fill:#FFFFFF;stroke:#263238;stroke-miterlimit:10;" d="M242.177,227.059c0,0-6.903,16.446-9.137,24.77
			c-2.233,8.324,1.624,21.521,5.685,22.131c4.061,0.609,21.115-15.228,23.755-22.74s2.639-7.512,2.639-7.512l-8.933-10.558
			l-0.406-4.264C255.78,228.886,250.907,231.119,242.177,227.059z"/>
		<path style="fill:none;stroke:#263238;stroke-miterlimit:10;" d="M256.186,233.15c0,0-0.203,20.912-1.624,25.785"/>
		<path style="fill:#92E3A9;stroke:#263238;stroke-miterlimit:10;" d="M239.334,290.405c0,0-6.294,9.949-9.745,18.476
			c-3.452,8.527-0.609,19.085,1.827,25.176s12.385,12.994,28.424,14.618c16.039,1.624,18.07,0,24.77-2.233
			c6.7-2.233,9.34-1.015,9.34-1.015s2.03,0.812,1.624,7.918c-0.406,7.106,1.218,23.349,6.091,30.252
			c4.873,6.903,12.994,25.582,15.633,30.455c2.639,4.873,3.046,19.897,3.046,22.334s2.233,3.858,4.061,3.858
			c1.827,0,30.455,1.827,30.455,1.827s12.385-1.015,12.588-4.467c0.203-3.452-2.03-2.03-6.091-4.873
			c-4.061-2.842-14.212-10.761-14.212-10.761s-2.842-5.888-10.152-18.07c-7.309-12.182-13.197-55.428-17.664-64.564
			c-4.467-9.137-7.918-16.852-13.806-21.318c-5.888-4.467-14.618-8.527-30.049-13.603c-15.431-5.076-25.582-9.137-25.582-9.137
			L239.334,290.405z"/>
		<path style="fill:#FFFFFF;stroke:#263238;stroke-miterlimit:10;" d="M361.357,432.73c-4.061-2.842-14.212-10.761-14.212-10.761
			s-0.884-1.829-2.923-5.544l-0.623,0.641c0,0-11.099,1.85-12.579,5.18c-1.48,3.33-1.48,3.33-1.48,3.33l-9.682,1.076
			c0.392,4.47,0.487,8.561,0.487,9.733c0,2.436,2.233,3.858,4.061,3.858c1.827,0,30.455,1.827,30.455,1.827
			s12.385-1.015,12.588-4.467C367.651,434.152,365.418,435.573,361.357,432.73z"/>
		<g>
			<path style="fill:#FFFFFF;stroke:#263238;stroke-miterlimit:10;" d="M307.147,302.181c0,0-8.324,1.015-13.197,3.046
				s-6.091,4.061-6.091,5.685c0,1.624,6.497,29.44,6.497,29.44s-1.218,3.858-0.406,5.076s0.812,2.03,1.624,2.233
				c0.812,0.203,3.249,23.146,9.949,34.718c6.7,11.573,13.4,24.161,15.43,34.922c2.03,10.761,5.685,17.258,11.167,17.461
				c5.482,0.203,6.294-9.746,7.512-12.182s7.512-0.609,7.512-0.609s1.421-1.218-0.609-7.106c-2.03-5.888-9.542-18.07-11.573-23.755
				c-2.03-5.685-3.045-33.5-6.7-46.9l-1.624-7.715c0,0,0-2.639-0.812-3.655c-0.812-1.015-0.812-1.015-0.812-1.015
				s-6.091-16.04-8.527-21.521C314.05,304.82,312.02,302.587,307.147,302.181z"/>
			<path style="fill:none;stroke:#263238;stroke-miterlimit:10;" d="M296.996,346.239c0,0,21.724-8.527,29.643-9.745"/>
			<path style="fill:none;stroke:#263238;stroke-miterlimit:10;" d="M296.387,341.975c0,0,15.024-6.7,25.988-9.34"/>
		</g>
		<polygon style="fill:#263238;stroke:#263238;stroke-miterlimit:10;" points="298.57,360.601 295.478,361.484 295.92,365.68 
			299.453,365.238 		"/>
		<polygon style="fill:#263238;stroke:#263238;stroke-miterlimit:10;" points="312.925,396.156 308.729,397.702 310.716,401.677 
			314.471,399.91 		"/>
		<g>
			<path style="fill:#FFFFFF;stroke:#263238;stroke-miterlimit:10;" d="M241.771,209.192c0,0,16.04-5.279,16.04-10.964
				c0-5.685-5.888-13.603-7.309-15.43c-1.421-1.827-5.888-3.858-7.512-3.452c-1.624,0.406-9.542,6.903-11.167,11.167
				c-1.624,4.264,3.452,17.867,4.67,19.288"/>
			<path style="fill:none;stroke:#263238;stroke-miterlimit:10;" d="M231.822,190.513c0,0,11.285-10.035,17.82-7.993"/>
			<path style="fill:none;stroke:#263238;stroke-miterlimit:10;" d="M236.492,202.492c0,0,13.603-9.137,20.709-6.903"/>
			<path style="fill:none;stroke:#263238;stroke-miterlimit:10;" d="M235.274,194.777c0,0,13.197-8.527,17.664-7.715"/>
		</g>
		<path style="fill:none;stroke:#263238;stroke-miterlimit:10;" d="M228.796,318.88c0,0,4.477,5.97,7.835,5.97
			c3.358,0,11.939-4.85,26.117-5.223c14.178-0.373,20.52,1.865,20.52,1.865"/>
	</g>
</g>
</svg>
