<?xml version="1.0" encoding="utf-8"?>
<!-- Generator: Adobe Illustrator 27.5.0, SVG Export Plug-In . SVG Version: 6.00 Build 0)  -->
<svg version="1.1" xmlns="http://www.w3.org/2000/svg" xmlns:xlink="http://www.w3.org/1999/xlink" x="0px" y="0px"
	 viewBox="0 0 500 500" style="enable-background:new 0 0 500 500;" xml:space="preserve">
<g id="Background_Simple">
	<g>
		<path style="fill:#92E3A9;" d="M475.79,277.045c-13.494,40.9-42.565,85.725-85.346,100.317
			c-64.641,22.054-70.416,75.069-187.736,74.707c-18.292-0.055-35.271-1.97-50.936-5.47c-8.421-1.88-16.465-4.23-24.12-7.001
			c-69.499-25.07-107.551-84.691-112.981-148.401C7.516,207.403,64.54,165.128,101.7,140.229
			c37.16-24.899,79.531-117.452,194.867-118.002c17.585-0.076,35.199,1.647,52.355,5.593c39.163,8.991,79.458,30.67,103.664,63.702
			c1.817,2.482,3.557,5.026,5.23,7.622C490.464,149.943,494.191,221.286,475.79,277.045z"/>
		<path style="opacity:0.7;fill:#FFFFFF;" d="M475.79,277.045c-13.494,40.9-42.565,85.725-85.346,100.317
			c-64.641,22.054-70.416,75.069-187.736,74.707c-18.292-0.055-35.271-1.97-50.936-5.47c-8.421-1.88-16.465-4.23-24.12-7.001
			c-69.499-25.07-107.551-84.691-112.981-148.401C7.516,207.403,64.54,165.128,101.7,140.229
			c37.16-24.899,79.531-117.452,194.867-118.002c17.585-0.076,35.199,1.647,52.355,5.593c39.163,8.991,79.458,30.67,103.664,63.702
			c1.817,2.482,3.557,5.026,5.23,7.622C490.464,149.943,494.191,221.286,475.79,277.045z"/>
	</g>
</g>
<g id="Floor_1_">
	<g>
		
			<line style="fill:none;stroke:#263238;stroke-linecap:round;stroke-linejoin:round;stroke-miterlimit:10;" x1="468.748" y1="457.961" x2="483.705" y2="457.961"/>
		
			<line style="fill:none;stroke:#263238;stroke-linecap:round;stroke-linejoin:round;stroke-miterlimit:10;" x1="15.905" y1="457.961" x2="459.864" y2="457.961"/>
	</g>
</g>
<g id="Locations">
	<path style="opacity:0.3;fill:none;stroke:#000000;stroke-linecap:round;stroke-linejoin:round;stroke-miterlimit:10;" d="
		M55.232,80.15c-15.166,0-27.46,12.294-27.46,27.46c0,15.166,27.46,42.822,27.46,42.822s27.46-27.656,27.46-42.822
		C82.692,92.445,70.397,80.15,55.232,80.15z M55.232,117.344c-5.375,0-9.733-4.358-9.733-9.733c0-5.375,4.358-9.733,9.733-9.733
		c5.375,0,9.733,4.358,9.733,9.733C64.965,112.986,60.607,117.344,55.232,117.344z"/>
	<path style="opacity:0.3;fill:none;stroke:#000000;stroke-linecap:round;stroke-linejoin:round;stroke-miterlimit:10;" d="
		M427.68,371.516c-9.697,0-17.559,7.861-17.559,17.559c0,9.697,17.559,27.381,17.559,27.381s17.559-17.684,17.559-27.381
		C445.239,379.377,437.377,371.516,427.68,371.516z M427.68,395.298c-3.437,0-6.224-2.786-6.224-6.224s2.786-6.224,6.224-6.224
		s6.224,2.786,6.224,6.224S431.117,395.298,427.68,395.298z"/>
	<path style="opacity:0.3;fill:none;stroke:#000000;stroke-linecap:round;stroke-linejoin:round;stroke-miterlimit:10;" d="
		M448.82,47.513c-9.697,0-17.559,7.861-17.559,17.559c0,9.697,17.559,27.381,17.559,27.381s17.559-17.684,17.559-27.381
		C466.379,55.375,458.518,47.513,448.82,47.513z M448.82,71.296c-3.437,0-6.224-2.786-6.224-6.224c0-3.437,2.786-6.224,6.224-6.224
		c3.437,0,6.224,2.786,6.224,6.224C455.044,68.509,452.258,71.296,448.82,71.296z"/>
</g>
<g id="Plants">
	<g>
		<g style="opacity:0.2;">
			<path d="M443.603,302.722c-3.527-1.922-8.886-9.159-8.89-9.164c-0.055-0.075,5.842-2.085,6.229-2.169
				c4.475-0.973,13.695-0.221,16.269,4.215c1.853,3.196,0.207,7.051-3.023,8.512C450.888,305.608,446.608,304.358,443.603,302.722z"
				/>
			<path d="M421.098,316.254c-2.78-2.675-5.866-10.451-6.108-11.071c-4.331,1.755-8.917,3.205-13.639,4.417
				c-2.699,0.696-5.439,1.312-8.194,1.896c1.297-0.079,2.458-0.14,2.621-0.132c4.574,0.244,13.267,3.404,14.577,8.362
				c0.945,3.573-1.661,6.855-5.163,7.412c-3.575,0.568-7.376-1.769-9.84-4.14c-2.502-2.406-5.265-8.983-5.973-10.733
				c-1.059,0.213-2.114,0.437-3.174,0.646c-5.086,1.003-10.166,1.98-15.119,3.092c-1.746,0.391-3.451,0.841-5.158,1.284
				c1.153-0.069,2.124-0.118,2.273-0.11c4.573,0.244,13.267,3.404,14.577,8.362c0.944,3.573-1.662,6.856-5.163,7.412
				c-3.577,0.567-7.376-1.769-9.84-4.141c-2.388-2.296-4.992-8.344-5.844-10.419c-1.735,0.507-3.473,1.011-5.131,1.58
				c-1.124,0.414-2.234,0.734-3.339,1.214c-1.104,0.451-2.198,0.898-3.28,1.34c-2.053,0.928-4.178,1.873-6.158,2.829
				c-1.383,0.655-2.688,1.304-4.005,1.954c1.733-0.409,5.143-1.14,5.435-1.168c4.557-0.453,13.628,1.354,15.676,6.057
				c1.474,3.388-0.604,7.028-3.982,8.107c-3.448,1.103-7.557-0.63-10.353-2.601c-3.078-2.171-7.172-9.087-7.678-9.955
				c-2.175,1.083-4.281,2.158-6.251,3.203c-4.356,2.298-8.186,4.454-11.394,6.323l-2.061-2.656c3.367-1.871,7.42-4.047,12.065-6.368
				c2.204-1.109,4.582-2.25,7.035-3.398c-0.179-0.62-1.178-4.15-1.695-7.563c-3.855-0.331-10.607-3.605-11.475-4.034
				c-1.218,2.103-2.381,4.161-3.447,6.12c-2.242,4.094-4.158,7.817-5.753,11.029l-2.229-2.872c1.529-2.884,3.304-6.127,5.33-9.644
				c1.227-2.141,2.581-4.405,3.992-6.715c-0.751-0.638-6.857-5.892-8.457-9.307c-1.449-3.098-2.436-7.448-0.746-10.651
				c1.654-3.135,5.603-4.542,8.681-2.496c4.271,2.839,4.458,12.087,3.214,16.495c-0.073,0.26-1.185,2.992-1.914,4.704
				c0.582-0.941,1.137-1.861,1.748-2.823c1.194-1.91,2.443-3.78,3.78-5.797c0.679-0.952,1.366-1.913,2.059-2.884
				c0.668-0.977,1.496-1.925,2.247-2.9c1.788-2.225,3.708-4.392,5.69-6.532c-1.669-1.051-7.545-4.867-9.456-7.723
				c-1.903-2.843-3.536-6.992-2.35-10.414c1.16-3.35,4.851-5.34,8.202-3.784c4.652,2.16,6.238,11.274,5.676,15.819
				c-0.034,0.283-0.805,3.499-1.262,5.258c1.202-1.277,2.395-2.558,3.653-3.81c3.63-3.617,7.418-7.164,11.18-10.72
				c1.154-1.089,2.289-2.187,3.431-3.283c-0.599-0.367-7.68-4.752-9.821-7.951c-1.903-2.842-3.537-6.993-2.351-10.414
				c1.16-3.35,4.851-5.34,8.202-3.783c4.652,2.16,6.238,11.273,5.676,15.818c-0.042,0.342-1.157,4.969-1.498,6.131
				c2.513-2.414,4.994-4.841,7.343-7.335c3.246-3.435,6.241-6.986,8.888-10.64c-0.279-0.17-7.69-4.714-9.883-7.989
				c-1.903-2.843-3.537-6.994-2.351-10.415c1.16-3.35,4.85-5.34,8.202-3.783c4.652,2.16,6.238,11.272,5.676,15.818
				c-0.045,0.356-1.246,5.333-1.528,6.22c0.156-0.218,0.343-0.426,0.497-0.645c2.777-3.937,4.971-8.099,6.836-12.097
				c1.088-2.321,1.998-4.6,2.834-6.837c-1.468-0.705-8.137-3.999-10.436-6.729c-2.204-2.617-4.284-6.563-3.48-10.092
				c0.786-3.457,4.235-5.84,7.737-4.662c4.861,1.637,7.439,10.52,7.379,15.099c-0.003,0.249-0.317,2.777-0.571,4.615
				c0.362-1.016,0.755-2.056,1.081-3.036c1.238-3.676,2.144-7.118,2.922-10.174c0.428-1.741,0.782-3.323,1.096-4.808
				c-1.079-1.442-5.354-7.311-6.123-10.73c-0.749-3.337-0.777-7.798,1.562-10.562c2.291-2.706,6.451-3.231,9.015-0.572
				c3.561,3.691,1.755,12.763-0.408,16.801c-0.188,0.349-3.738,5.469-3.795,5.395c0,0-0.053-0.07-0.066-0.087
				c-0.273,1.435-0.584,2.969-0.957,4.639c-0.713,3.079-1.546,6.55-2.709,10.266c-1.152,3.718-2.508,7.725-4.316,11.816
				c-1.808,4.104-3.92,8.328-6.658,12.398c-0.03,0.046-0.069,0.09-0.1,0.136c1.171-0.942,4.532-3.467,4.812-3.631
				c3.949-2.319,12.943-4.481,16.773-1.068c2.758,2.459,2.396,6.635-0.218,9.031c-2.67,2.445-7.127,2.593-10.492,1.974
				c-3.794-0.697-10.657-5.481-11.202-5.863c-2.643,3.853-5.669,7.592-8.938,11.208c-1.868,2.069-3.813,4.095-5.789,6.102
				c1.039-0.782,1.973-1.474,2.114-1.556c3.95-2.32,12.942-4.481,16.772-1.068c2.759,2.459,2.396,6.635-0.218,9.03
				c-2.669,2.446-7.127,2.594-10.491,1.975c-3.414-0.628-9.347-4.588-10.903-5.657c-0.766,0.761-1.523,1.531-2.292,2.29
				c-3.689,3.642-7.387,7.259-10.904,10.919c-1.241,1.289-2.415,2.604-3.593,3.915c0.922-0.693,1.706-1.269,1.834-1.345
				c3.95-2.32,12.943-4.48,16.772-1.068c2.758,2.46,2.397,6.636-0.218,9.031c-2.668,2.445-7.127,2.593-10.492,1.974
				c-3.257-0.598-8.767-4.205-10.622-5.467c-1.167,1.379-2.339,2.759-3.408,4.149c-0.708,0.966-1.457,1.846-2.115,2.855
				c-0.672,0.984-1.338,1.96-1.997,2.926c-1.2,1.908-2.451,3.867-3.576,5.757c-0.792,1.309-1.522,2.571-2.262,3.839
				c1.22-1.297,3.661-3.788,3.888-3.972c2.361-1.921,6.93-4.1,10.995-4.532c0.347-0.286,0.716-0.54,1.112-0.757
				c3.11-1.702,7.18-0.698,8.618,2.707c1.996,4.724-2.95,12.542-6.419,15.531c-0.205,0.176-2.639,1.842-4.192,2.868
				c1.005-0.464,1.975-0.926,3.015-1.39c2.05-0.933,4.124-1.804,6.352-2.751c1.092-0.419,2.194-0.841,3.309-1.268
				c1.095-0.447,2.309-0.78,3.473-1.179c2.718-0.868,5.516-1.617,8.35-2.308c-0.813-1.798-3.608-8.222-3.626-11.658
				c-0.019-3.421,0.908-7.784,3.784-9.983c2.816-2.154,6.991-1.779,8.928,1.368c2.689,4.368-1.015,12.844-3.991,16.325
				c-0.186,0.217-2.602,2.475-3.954,3.689c1.707-0.402,3.409-0.812,5.149-1.163c5.023-1.014,10.139-1.884,15.239-2.774
				c1.563-0.271,3.116-0.561,4.672-0.845c-0.296-0.637-3.783-8.201-3.805-12.05c-0.019-3.421,0.908-7.783,3.784-9.983
				c2.816-2.153,6.991-1.778,8.928,1.369c2.689,4.368-1.015,12.844-3.991,16.325c-0.224,0.262-3.706,3.506-4.631,4.287
				c3.426-0.626,6.836-1.283,10.171-2.066c4.603-1.075,9.059-2.384,13.282-3.971c-0.139-0.297-3.813-8.175-3.835-12.117
				c-0.019-3.421,0.908-7.783,3.784-9.983c2.816-2.154,6.99-1.778,8.928,1.369c2.689,4.367-1.016,12.844-3.992,16.324
				c-0.234,0.274-3.982,3.761-4.706,4.344c0.251-0.095,0.521-0.165,0.77-0.262c4.488-1.753,8.615-4.014,12.376-6.32
				c2.187-1.335,4.203-2.735,6.135-4.139c-0.835-1.397-4.581-7.825-4.992-11.37c-0.394-3.399,0.048-7.836,2.665-10.338
				c2.563-2.449,6.754-2.535,9.025,0.38c3.153,4.046,0.401,12.878-2.175,16.664c-0.14,0.207-1.795,2.142-3.022,3.535
				c0.862-0.647,1.764-1.3,2.577-1.936c3.059-2.383,5.715-4.754,8.049-6.873c1.318-1.216,2.485-2.341,3.565-3.406
				c-0.103-1.798-0.432-9.051,0.813-12.327c1.216-3.198,3.653-6.932,7.129-7.947c3.403-0.994,7.162,0.863,7.834,4.495
				c0.933,5.044-5.578,11.614-9.609,13.789c-0.349,0.187-6.134,2.499-6.142,2.406c0,0-0.005-0.088-0.006-0.108
				c-1.02,1.045-2.126,2.154-3.358,3.34c-2.293,2.174-4.903,4.61-7.924,7.069c-3.011,2.465-6.353,5.059-10.119,7.474
				c-3.771,2.424-7.863,4.784-12.392,6.668c-0.051,0.021-0.108,0.037-0.159,0.058c1.496-0.14,5.693-0.39,6.017-0.372
				c4.573,0.243,13.267,3.403,14.578,8.361c0.944,3.573-1.663,6.856-5.164,7.412C427.361,320.962,423.562,318.625,421.098,316.254z"
				/>
			<path d="M386.211,231.998c-0.088-0.032,3.723-4.962,3.999-5.245c3.197-3.28,11.301-7.739,15.896-5.458
				c3.309,1.643,4.063,5.767,2.173,8.767c-1.928,3.064-6.189,4.384-9.597,4.675C394.68,235.08,386.218,232,386.211,231.998z"/>
		</g>
		<g style="opacity:0.2;">
			<path d="M33.745,302.722c3.527-1.922,8.886-9.159,8.89-9.164c0.055-0.075-5.842-2.085-6.229-2.169
				c-4.475-0.973-13.695-0.221-16.269,4.215c-1.853,3.196-0.207,7.051,3.023,8.512C26.46,305.608,30.74,304.358,33.745,302.722z"/>
			<path d="M56.251,316.254c2.78-2.675,5.866-10.451,6.109-11.071c4.331,1.755,8.917,3.205,13.639,4.417
				c2.699,0.696,5.439,1.312,8.194,1.896c-1.297-0.079-2.458-0.14-2.621-0.132c-4.574,0.244-13.267,3.404-14.577,8.362
				c-0.945,3.573,1.661,6.855,5.163,7.412c3.575,0.568,7.376-1.769,9.84-4.14c2.502-2.406,5.265-8.983,5.973-10.733
				c1.059,0.213,2.114,0.437,3.174,0.646c5.086,1.003,10.166,1.98,15.119,3.092c1.746,0.391,3.451,0.841,5.158,1.284
				c-1.153-0.069-2.124-0.118-2.273-0.11c-4.573,0.244-13.267,3.404-14.577,8.362c-0.944,3.573,1.662,6.856,5.163,7.412
				c3.577,0.567,7.376-1.769,9.84-4.141c2.388-2.296,4.992-8.344,5.844-10.419c1.735,0.507,3.473,1.011,5.132,1.58
				c1.124,0.414,2.234,0.734,3.339,1.214c1.104,0.451,2.198,0.898,3.28,1.34c2.053,0.928,4.178,1.873,6.158,2.829
				c1.383,0.655,2.688,1.304,4.005,1.954c-1.733-0.409-5.143-1.14-5.435-1.168c-4.557-0.453-13.628,1.354-15.676,6.057
				c-1.474,3.388,0.604,7.028,3.982,8.107c3.448,1.103,7.557-0.63,10.353-2.601c3.078-2.171,7.172-9.087,7.678-9.955
				c2.175,1.083,4.281,2.158,6.251,3.203c4.356,2.298,8.186,4.454,11.394,6.323l2.061-2.656c-3.367-1.871-7.42-4.047-12.065-6.368
				c-2.204-1.109-4.582-2.25-7.035-3.398c0.179-0.62,1.178-4.15,1.695-7.563c3.855-0.331,10.607-3.605,11.475-4.034
				c1.218,2.103,2.381,4.161,3.447,6.12c2.242,4.094,4.158,7.817,5.753,11.029l2.229-2.872c-1.529-2.884-3.304-6.127-5.33-9.644
				c-1.227-2.141-2.581-4.405-3.992-6.715c0.751-0.638,6.857-5.892,8.457-9.307c1.449-3.098,2.436-7.448,0.746-10.651
				c-1.654-3.135-5.603-4.542-8.681-2.496c-4.271,2.839-4.459,12.087-3.214,16.495c0.073,0.26,1.185,2.992,1.914,4.704
				c-0.582-0.941-1.137-1.861-1.748-2.823c-1.194-1.91-2.443-3.78-3.78-5.797c-0.679-0.952-1.366-1.913-2.059-2.884
				c-0.668-0.977-1.496-1.925-2.247-2.9c-1.788-2.225-3.708-4.392-5.69-6.532c1.669-1.051,7.545-4.867,9.456-7.723
				c1.903-2.843,3.536-6.992,2.35-10.414c-1.16-3.35-4.851-5.34-8.202-3.784c-4.652,2.16-6.238,11.274-5.676,15.819
				c0.034,0.283,0.805,3.499,1.262,5.258c-1.202-1.277-2.395-2.558-3.653-3.81c-3.63-3.617-7.418-7.164-11.18-10.72
				c-1.154-1.089-2.289-2.187-3.431-3.283c0.599-0.367,7.68-4.752,9.821-7.951c1.903-2.842,3.537-6.993,2.351-10.414
				c-1.16-3.35-4.851-5.34-8.202-3.783c-4.652,2.16-6.238,11.273-5.676,15.818c0.042,0.342,1.157,4.969,1.498,6.131
				c-2.513-2.414-4.994-4.841-7.343-7.335c-3.246-3.435-6.241-6.986-8.888-10.64c0.279-0.17,7.69-4.714,9.883-7.989
				c1.903-2.843,3.537-6.994,2.351-10.415c-1.16-3.35-4.85-5.34-8.202-3.783c-4.652,2.16-6.238,11.272-5.676,15.818
				c0.045,0.356,1.246,5.333,1.528,6.22c-0.156-0.218-0.343-0.426-0.497-0.645c-2.777-3.937-4.971-8.099-6.836-12.097
				c-1.088-2.321-1.998-4.6-2.834-6.837c1.468-0.705,8.137-3.999,10.436-6.729c2.204-2.617,4.284-6.563,3.48-10.092
				c-0.785-3.457-4.235-5.84-7.737-4.662c-4.861,1.637-7.439,10.52-7.379,15.099c0.003,0.249,0.317,2.777,0.571,4.615
				c-0.362-1.016-0.755-2.056-1.081-3.036c-1.238-3.676-2.144-7.118-2.922-10.174c-0.428-1.741-0.782-3.323-1.096-4.808
				c1.079-1.442,5.354-7.311,6.123-10.73c0.749-3.337,0.777-7.798-1.562-10.562c-2.291-2.706-6.451-3.231-9.015-0.572
				c-3.561,3.691-1.755,12.763,0.408,16.801c0.188,0.349,3.738,5.469,3.795,5.395c0,0,0.053-0.07,0.066-0.087
				c0.273,1.435,0.584,2.969,0.957,4.639c0.713,3.079,1.547,6.55,2.709,10.266c1.152,3.718,2.507,7.725,4.316,11.816
				c1.808,4.104,3.92,8.328,6.658,12.398c0.03,0.046,0.069,0.09,0.1,0.136c-1.171-0.942-4.532-3.467-4.812-3.631
				c-3.949-2.319-12.943-4.481-16.773-1.068c-2.758,2.459-2.396,6.635,0.218,9.031c2.67,2.445,7.127,2.593,10.492,1.974
				c3.794-0.697,10.657-5.481,11.202-5.863c2.643,3.853,5.669,7.592,8.938,11.208c1.868,2.069,3.813,4.095,5.789,6.102
				c-1.039-0.782-1.973-1.474-2.114-1.556c-3.95-2.32-12.942-4.481-16.772-1.068c-2.759,2.459-2.396,6.635,0.218,9.03
				c2.669,2.446,7.127,2.594,10.491,1.975c3.414-0.628,9.347-4.588,10.903-5.657c0.766,0.761,1.523,1.531,2.292,2.29
				c3.689,3.642,7.387,7.259,10.904,10.919c1.241,1.289,2.415,2.604,3.593,3.915c-0.922-0.693-1.706-1.269-1.834-1.345
				c-3.95-2.32-12.943-4.48-16.772-1.068c-2.758,2.46-2.397,6.636,0.218,9.031c2.668,2.445,7.127,2.593,10.492,1.974
				c3.257-0.598,8.767-4.205,10.622-5.467c1.167,1.379,2.339,2.759,3.408,4.149c0.708,0.966,1.457,1.846,2.115,2.855
				c0.672,0.984,1.338,1.96,1.997,2.926c1.2,1.908,2.451,3.867,3.576,5.757c0.792,1.309,1.522,2.571,2.262,3.839
				c-1.22-1.297-3.661-3.788-3.888-3.972c-2.361-1.921-6.93-4.1-10.995-4.532c-0.347-0.286-0.716-0.54-1.112-0.757
				c-3.11-1.702-7.18-0.698-8.618,2.707c-1.996,4.724,2.95,12.542,6.419,15.531c0.205,0.176,2.639,1.842,4.192,2.868
				c-1.005-0.464-1.975-0.926-3.015-1.39c-2.05-0.933-4.124-1.804-6.352-2.751c-1.092-0.419-2.194-0.841-3.309-1.268
				c-1.095-0.447-2.309-0.78-3.473-1.179c-2.718-0.868-5.516-1.617-8.35-2.308c0.813-1.798,3.608-8.222,3.626-11.658
				c0.019-3.421-0.908-7.784-3.784-9.983c-2.817-2.154-6.991-1.779-8.929,1.368c-2.689,4.368,1.015,12.844,3.991,16.325
				c0.186,0.217,2.602,2.475,3.954,3.689c-1.707-0.402-3.409-0.812-5.149-1.163c-5.023-1.014-10.139-1.884-15.239-2.774
				c-1.563-0.271-3.115-0.561-4.672-0.845c0.296-0.637,3.783-8.201,3.805-12.05c0.019-3.421-0.908-7.783-3.784-9.983
				c-2.816-2.153-6.991-1.778-8.928,1.369c-2.689,4.368,1.015,12.844,3.991,16.325c0.224,0.262,3.706,3.506,4.631,4.287
				c-3.426-0.626-6.836-1.283-10.171-2.066c-4.603-1.075-9.059-2.384-13.282-3.971c0.139-0.297,3.813-8.175,3.835-12.117
				c0.019-3.421-0.908-7.783-3.784-9.983c-2.816-2.154-6.991-1.778-8.928,1.369c-2.689,4.367,1.016,12.844,3.992,16.324
				c0.234,0.274,3.982,3.761,4.706,4.344c-0.251-0.095-0.521-0.165-0.77-0.262c-4.488-1.753-8.615-4.014-12.376-6.32
				c-2.187-1.335-4.203-2.735-6.135-4.139c0.835-1.397,4.581-7.825,4.992-11.37c0.394-3.399-0.048-7.836-2.665-10.338
				c-2.563-2.449-6.754-2.535-9.025,0.38c-3.153,4.046-0.401,12.878,2.175,16.664c0.14,0.207,1.795,2.142,3.022,3.535
				c-0.862-0.647-1.764-1.3-2.577-1.936c-3.059-2.383-5.715-4.754-8.049-6.873c-1.318-1.216-2.485-2.341-3.565-3.406
				c0.103-1.798,0.432-9.051-0.813-12.327c-1.216-3.198-3.653-6.932-7.129-7.947c-3.403-0.994-7.162,0.863-7.834,4.495
				c-0.933,5.044,5.578,11.614,9.609,13.789c0.349,0.187,6.134,2.499,6.142,2.406c0,0,0.005-0.088,0.006-0.108
				c1.02,1.045,2.126,2.154,3.358,3.34c2.293,2.174,4.903,4.61,7.923,7.069c3.012,2.465,6.353,5.059,10.119,7.474
				c3.771,2.424,7.863,4.784,12.392,6.668c0.051,0.021,0.108,0.037,0.159,0.058c-1.497-0.14-5.693-0.39-6.017-0.372
				c-4.573,0.243-13.267,3.403-14.578,8.361c-0.944,3.573,1.662,6.856,5.164,7.412C49.987,320.962,53.786,318.625,56.251,316.254z"
				/>
			<path d="M91.137,231.998c0.088-0.032-3.723-4.962-3.999-5.245c-3.197-3.28-11.301-7.739-15.896-5.458
				c-3.309,1.643-4.063,5.767-2.173,8.767c1.928,3.064,6.189,4.384,9.597,4.675C82.668,235.08,91.13,232,91.137,231.998z"/>
		</g>
	</g>
</g>
<g id="Device">
	<g>
		<path style="fill:#263238;" d="M363.666,417.648H103.372c-5.639,0-10.211-4.571-10.211-10.211V56.264
			c0-5.639,4.572-10.211,10.211-10.211h260.294c5.639,0,10.211,4.572,10.211,10.211v351.174
			C373.877,413.077,369.305,417.648,363.666,417.648z"/>
		
			<rect x="110.788" y="69.387" style="fill:#FFFFFF;stroke:#263238;stroke-linecap:round;stroke-linejoin:round;stroke-miterlimit:10;" width="245.461" height="324.927"/>
		<g>
			<rect x="119.767" y="270.733" style="fill:#C2C2C2;" width="228.599" height="10.531"/>
			
				<line style="fill:none;stroke:#263238;stroke-linecap:round;stroke-linejoin:round;stroke-miterlimit:10;" x1="119.767" y1="281.265" x2="347.453" y2="281.265"/>
			
				<line style="fill:none;stroke:#263238;stroke-linecap:round;stroke-linejoin:round;stroke-miterlimit:10;" x1="120.27" y1="270.648" x2="347.874" y2="270.648"/>
			
				<line style="fill:none;stroke:#263238;stroke-linecap:round;stroke-linejoin:round;stroke-miterlimit:10;" x1="347.874" y1="253.69" x2="120.27" y2="253.69"/>
			
				<line style="fill:none;stroke:#263238;stroke-linecap:round;stroke-linejoin:round;stroke-miterlimit:10;" x1="347.874" y1="297.036" x2="120.27" y2="297.036"/>
			
				<line style="fill:none;stroke:#263238;stroke-linecap:round;stroke-linejoin:round;stroke-miterlimit:10;" x1="347.874" y1="317.353" x2="120.27" y2="317.353"/>
			<rect x="119.767" y="175.594" style="fill:#C2C2C2;" width="228.599" height="10.531"/>
			<rect x="119.767" y="116.932" style="fill:#C2C2C2;" width="228.599" height="10.531"/>
			
				<rect x="119.767" y="116.932" style="fill:none;stroke:#263238;stroke-linecap:round;stroke-linejoin:round;stroke-miterlimit:10;" width="228.302" height="222.418"/>
			
				<line style="fill:none;stroke:#263238;stroke-linecap:round;stroke-linejoin:round;stroke-miterlimit:10;" x1="119.767" y1="127.463" x2="347.453" y2="127.463"/>
			
				<line style="fill:none;stroke:#263238;stroke-linecap:round;stroke-linejoin:round;stroke-miterlimit:10;" x1="119.767" y1="186.126" x2="347.453" y2="186.126"/>
			
				<line style="fill:none;stroke:#263238;stroke-linecap:round;stroke-linejoin:round;stroke-miterlimit:10;" x1="120.27" y1="145.267" x2="347.874" y2="145.267"/>
			
				<line style="fill:none;stroke:#263238;stroke-linecap:round;stroke-linejoin:round;stroke-miterlimit:10;" x1="229.234" y1="144.846" x2="229.234" y2="127.9"/>
			
				<line style="fill:none;stroke:#263238;stroke-linecap:round;stroke-linejoin:round;stroke-miterlimit:10;" x1="120.27" y1="161.553" x2="347.874" y2="161.553"/>
			
				<line style="fill:none;stroke:#263238;stroke-linecap:round;stroke-linejoin:round;stroke-miterlimit:10;" x1="120.27" y1="175.509" x2="347.874" y2="175.509"/>
			<g>
				
					<line style="fill:none;stroke:#263238;stroke-linecap:round;stroke-linejoin:round;stroke-miterlimit:10;" x1="183.841" y1="161.133" x2="183.841" y2="145.571"/>
				
					<line style="fill:none;stroke:#263238;stroke-linecap:round;stroke-linejoin:round;stroke-miterlimit:10;" x1="195.969" y1="161.133" x2="195.969" y2="145.571"/>
				
					<line style="fill:none;stroke:#263238;stroke-linecap:round;stroke-linejoin:round;stroke-miterlimit:10;" x1="208.096" y1="161.133" x2="208.096" y2="145.571"/>
				
					<line style="fill:none;stroke:#263238;stroke-linecap:round;stroke-linejoin:round;stroke-miterlimit:10;" x1="327.99" y1="161.133" x2="327.99" y2="145.571"/>
			</g>
			
				<line style="fill:none;stroke:#263238;stroke-linecap:round;stroke-linejoin:round;stroke-miterlimit:10;" x1="293.626" y1="144.846" x2="293.626" y2="127.9"/>
			
				<line style="fill:none;stroke:#263238;stroke-linecap:round;stroke-linejoin:round;stroke-miterlimit:10;" x1="347.874" y1="203.654" x2="120.27" y2="203.654"/>
			
				<line style="fill:none;stroke:#263238;stroke-linecap:round;stroke-linejoin:round;stroke-miterlimit:10;" x1="238.91" y1="203.234" x2="238.91" y2="186.287"/>
			
				<line style="fill:none;stroke:#263238;stroke-linecap:round;stroke-linejoin:round;stroke-miterlimit:10;" x1="257.244" y1="270.128" x2="257.244" y2="253.182"/>
			
				<line style="fill:none;stroke:#263238;stroke-linecap:round;stroke-linejoin:round;stroke-miterlimit:10;" x1="347.874" y1="219.94" x2="120.27" y2="219.94"/>
			
				<line style="fill:none;stroke:#263238;stroke-linecap:round;stroke-linejoin:round;stroke-miterlimit:10;" x1="347.874" y1="236.815" x2="120.27" y2="236.815"/>
			<g>
				
					<line style="fill:none;stroke:#263238;stroke-linecap:round;stroke-linejoin:round;stroke-miterlimit:10;" x1="284.303" y1="219.52" x2="284.303" y2="203.959"/>
				
					<line style="fill:none;stroke:#263238;stroke-linecap:round;stroke-linejoin:round;stroke-miterlimit:10;" x1="272.175" y1="219.52" x2="272.175" y2="203.959"/>
				
					<line style="fill:none;stroke:#263238;stroke-linecap:round;stroke-linejoin:round;stroke-miterlimit:10;" x1="260.047" y1="219.52" x2="260.047" y2="203.959"/>
				
					<line style="fill:none;stroke:#263238;stroke-linecap:round;stroke-linejoin:round;stroke-miterlimit:10;" x1="140.154" y1="219.52" x2="140.154" y2="203.959"/>
			</g>
			<g>
				
					<line style="fill:none;stroke:#263238;stroke-linecap:round;stroke-linejoin:round;stroke-miterlimit:10;" x1="237.138" y1="253.587" x2="237.138" y2="236.466"/>
				
					<line style="fill:none;stroke:#263238;stroke-linecap:round;stroke-linejoin:round;stroke-miterlimit:10;" x1="225.011" y1="253.587" x2="225.011" y2="236.466"/>
				
					<line style="fill:none;stroke:#263238;stroke-linecap:round;stroke-linejoin:round;stroke-miterlimit:10;" x1="212.883" y1="253.587" x2="212.883" y2="236.466"/>
				
					<line style="fill:none;stroke:#263238;stroke-linecap:round;stroke-linejoin:round;stroke-miterlimit:10;" x1="134.323" y1="253.587" x2="134.323" y2="236.466"/>
			</g>
			
				<line style="fill:none;stroke:#263238;stroke-linecap:round;stroke-linejoin:round;stroke-miterlimit:10;" x1="174.517" y1="203.234" x2="174.517" y2="186.287"/>
		</g>
		
			<rect x="110.788" y="69.387" style="fill:#92E3A9;stroke:#263238;stroke-linecap:round;stroke-linejoin:round;stroke-miterlimit:10;" width="245.461" height="36.02"/>
		<g>
			<polygon style="opacity:0.2;fill:#FFFFFF;" points="93.161,103.019 93.161,206.984 254.092,46.053 150.127,46.053 			"/>
			<path style="opacity:0.2;fill:#FFFFFF;" d="M373.877,58.381v-3.258c0-5.01-4.061-9.071-9.071-9.071h-5.121L93.161,312.578v26.52
				L373.877,58.381z"/>
			<polygon style="opacity:0.2;fill:#FFFFFF;" points="373.877,398.62 373.877,294.655 250.883,417.648 354.848,417.648 			"/>
		</g>
	</g>
</g>
<g id="Suitcase">
	<g>
		<g>
			<path style="fill:#263238;stroke:#263238;stroke-linecap:round;stroke-linejoin:round;stroke-miterlimit:10;" d="
				M386.264,463.911c-1.348-1.988-4.052-2.508-6.041-1.16c-1.988,1.348-2.508,4.052-1.16,6.041s4.052,2.508,6.041,1.16
				C387.093,468.604,387.612,465.899,386.264,463.911z"/>
			<polygon style="fill:#FFFFFF;stroke:#263238;stroke-linecap:round;stroke-linejoin:round;stroke-miterlimit:10;" points="
				379.685,458.691 382.041,467.88 383.881,467.739 384.826,458.525 			"/>
		</g>
		<g>
			<path style="fill:#263238;stroke:#263238;stroke-linecap:round;stroke-linejoin:round;stroke-miterlimit:10;" d="
				M360.675,463.911c-1.348-1.988-4.052-2.508-6.041-1.16c-1.988,1.348-2.508,4.052-1.16,6.041s4.052,2.508,6.041,1.16
				C361.503,468.604,362.023,465.899,360.675,463.911z"/>
			<polygon style="fill:#FFFFFF;stroke:#263238;stroke-linecap:round;stroke-linejoin:round;stroke-miterlimit:10;" points="
				354.095,458.691 356.452,467.88 358.292,467.739 359.237,458.525 			"/>
		</g>
		
			<line style="fill:none;stroke:#263238;stroke-width:2;stroke-linecap:round;stroke-linejoin:round;stroke-miterlimit:10;" x1="386.836" y1="356.756" x2="386.759" y2="462.193"/>
		
			<line style="fill:none;stroke:#263238;stroke-width:4;stroke-linecap:round;stroke-linejoin:round;stroke-miterlimit:10;" x1="386.962" y1="338.659" x2="386.836" y2="356.756"/>
		<g>
			<path style="fill:#263238;stroke:#263238;stroke-linecap:round;stroke-linejoin:round;stroke-miterlimit:10;" d="
				M379.468,462.422l-24.659-0.25c-1.914-0.02-3.449-1.587-3.43-3.5l0.606-59.682c0.019-1.914,1.586-3.449,3.5-3.43l24.659,0.25
				c1.914,0.02,3.449,1.586,3.43,3.5l-0.606,59.682C382.949,460.906,381.382,462.442,379.468,462.422z"/>
			<path style="fill:#263238;stroke:#263238;stroke-linecap:round;stroke-linejoin:round;stroke-miterlimit:10;" d="M347.72,458.824
				l7.09,0.143l0.523-51.504l-8.661-0.159c-2.47-0.025-4.492,1.957-4.517,4.426l-0.416,40.99
				C341.705,456.057,344.383,458.79,347.72,458.824z"/>
			<path style="fill:#92E3A9;stroke:#263238;stroke-linecap:round;stroke-linejoin:round;stroke-miterlimit:10;" d="
				M350.925,458.857l7.09,0.143l0.523-51.504l-8.661-0.159c-2.47-0.025-4.492,1.957-4.517,4.426l-0.416,40.99
				C344.909,456.09,347.587,458.823,350.925,458.857z"/>
			<path style="fill:#92E3A9;stroke:#263238;stroke-linecap:round;stroke-linejoin:round;stroke-miterlimit:10;" d="M383.13,462.46
				l-24.659-0.25c-1.914-0.019-3.449-1.586-3.43-3.5l0.606-59.682c0.019-1.914,1.586-3.449,3.5-3.43l24.659,0.25
				c1.914,0.019,3.449,1.586,3.43,3.5l-0.606,59.682C386.611,460.944,385.044,462.479,383.13,462.46z"/>
			<path style="fill:#263238;" d="M368.081,395.688l-1.117,24.709c-0.039,0.861,0.627,1.59,1.488,1.629l3.813,0.173
				c0.861,0.039,1.59-0.627,1.629-1.488l1.128-24.952L368.081,395.688z"/>
			<path style="fill:#263238;stroke:#263238;stroke-linecap:round;stroke-linejoin:round;stroke-miterlimit:10;" d="
				M378.759,455.172l-17.177-0.457c-1.674-0.045-2.994-1.437-2.95-3.111l0.484-18.21c0.044-1.674,1.437-2.994,3.111-2.95
				l17.177,0.457c1.674,0.044,2.994,1.437,2.95,3.111l-0.484,18.21C381.826,453.896,380.433,455.217,378.759,455.172z"/>
			<path style="fill:#92E3A9;stroke:#263238;stroke-linecap:round;stroke-linejoin:round;stroke-miterlimit:10;" d="
				M380.767,455.557l-17.177-0.457c-1.674-0.044-2.994-1.437-2.95-3.111l0.484-18.21c0.044-1.674,1.437-2.994,3.111-2.95
				l17.177,0.457c1.674,0.044,2.994,1.437,2.95,3.111l-0.484,18.21C383.833,454.281,382.44,455.602,380.767,455.557z"/>
		</g>
	</g>
</g>
<g id="Character_2">
	<g>
		<g>
			<path style="fill:#FFFFFF;stroke:#263238;stroke-linecap:round;stroke-linejoin:round;stroke-miterlimit:10;" d="
				M293.331,247.599c0,0-0.975,7.676-0.609,8.773c0.366,1.097,2.559,5.483,2.681,5.849c0.122,0.366-2.559,2.681-2.071,3.777
				c0.487,1.096,3.168,2.437,3.168,2.437s6.579,7.554,7.433,7.432c0.853-0.122,4.021-1.828,4.021-1.828l1.828,4.265l18.155-7.676
				l-5.483-9.016c0,0-5.727-14.5-11.088-19.13C306.003,237.852,295.524,242.36,293.331,247.599z"/>
			<polygon style="fill:#263238;stroke:#263238;stroke-linecap:round;stroke-linejoin:round;stroke-miterlimit:10;" points="
				303.931,275.867 308.532,270.92 307.952,274.039 			"/>
			<path style="fill:none;stroke:#263238;stroke-linecap:round;stroke-linejoin:round;stroke-miterlimit:10;" d="M298.205,267.947
				c0,0,1.828-0.853,1.097-3.168"/>
			<path style="fill:none;stroke:#263238;stroke-linecap:round;stroke-linejoin:round;stroke-miterlimit:10;" d="M293.94,256.981
				c0,0,0-1.584,1.828-0.853"/>
			
				<line style="fill:none;stroke:#263238;stroke-linecap:round;stroke-linejoin:round;stroke-miterlimit:10;" x1="295.768" y1="260.515" x2="297.23" y2="263.073"/>
		</g>
		<path style="fill:#263238;stroke:#263238;stroke-linecap:round;stroke-linejoin:round;stroke-miterlimit:10;" d="M316.481,234.684
			c-4.265-2.681-10.6-2.071-13.647,0c-2.85,1.938-7.724,6.86-8.341,7.487c0.003-0.008,0.005-0.02,0.007-0.029
			c-0.026,0.03-0.047,0.068-0.074,0.096c0,0-1.707,4.245-1.096,5.361c1.218-0.122,5.117-2.559,4.874-1.097
			c-0.244,1.462-1.828,4.021-0.853,4.508c0.975,0.487,3.342,2.657,3.342,2.657s0.435,2.339,1.898,2.095
			c1.462-0.244,2.559-2.559,3.655-1.097c1.097,1.462,8.651,8.895,9.138,8.895c0.487,0,7.067-1.949,7.067-1.949
			s0.487-7.554,0.853-12.55C323.67,244.066,320.746,237.364,316.481,234.684z"/>
		<path style="fill:#FFFFFF;stroke:#263238;stroke-linecap:round;stroke-linejoin:round;stroke-miterlimit:10;" d="M303.322,258.078
			c0,0-0.975-6.945,1.462-5.727c2.437,1.218,4.386,7.676,3.777,9.138c-0.609,1.462-2.071,0.487-2.071,0.487"/>
		<path style="fill:#92E3A9;stroke:#263238;stroke-linecap:round;stroke-linejoin:round;stroke-miterlimit:10;" d="M307.493,277.748
			l-2.672,7.569c0,0,8.163-4.453,16.029-7.124c7.866-2.671,13.061-3.414,13.061-3.414l-4.007-5.937
			C329.904,268.842,313.43,270.475,307.493,277.748z"/>
		<path style="fill:#263238;stroke:#263238;stroke-linecap:round;stroke-linejoin:round;stroke-miterlimit:10;" d="M265.667,295.462
			l16.828,28.237c0.126,0.211,0.375,0.315,0.614,0.257l15.796-3.88c0.362-0.089,0.537-0.5,0.351-0.822l-14.596-25.328
			c-0.105-0.182-0.304-0.29-0.514-0.279l-18.028,0.971C265.697,294.641,265.451,295.101,265.667,295.462z"/>
		<polygon style="fill:#878787;stroke:#263238;stroke-linecap:round;stroke-linejoin:round;stroke-miterlimit:10;" points="
			267.53,296.582 282.673,321.992 297.303,318.398 284.213,295.684 		"/>
		<path style="fill:#FFFFFF;stroke:#263238;stroke-linecap:round;stroke-linejoin:round;stroke-miterlimit:10;" d="M295.174,301.198
			c0,0-4.453,2.375-6.085,3.117c-1.633,0.742-2.523,1.336-1.484,2.226c1.039,0.891,4.601-1.187,4.601-1.187l2.82-1.187
			L295.174,301.198z"/>
		<g>
			<path style="fill:#FFFFFF;stroke:#263238;stroke-linecap:round;stroke-linejoin:round;stroke-miterlimit:10;" d="M331.38,460.808
				l1.007,7.717c0,0-1.007,1.678-4.194,2.013c-3.188,0.336-5.536,0.839-5.536,0.839l0.876-7.505L331.38,460.808z"/>
			<path style="fill:#FFFFFF;stroke:#263238;stroke-linecap:round;stroke-linejoin:round;stroke-miterlimit:10;" d="
				M332.387,468.525l-0.146-1.118c-3.002,1.167-6.634,1.543-9.314,1.643l-0.271,2.327c0,0,2.349-0.503,5.536-0.839
				S332.387,468.525,332.387,468.525z"/>
		</g>
		<g>
			<path style="fill:#FFFFFF;stroke:#263238;stroke-linecap:round;stroke-linejoin:round;stroke-miterlimit:10;" d="M308.563,457.62
				l-8.724,5.369c0,0-3.859,1.007-6.04,1.174s-2.181,2.517-1.174,3.355c1.007,0.839,4.344,2.261,8.556,3.188
				c8.388,1.846,20.468,1.174,21.475,0.671s1.845-1.342,2.013-2.013c0.168-0.671,0-7.214,0-7.214S311.919,460.64,308.563,457.62z"/>
			<path style="fill:#FFFFFF;stroke:#263238;stroke-linecap:round;stroke-linejoin:round;stroke-miterlimit:10;" d="
				M300.007,468.525c-4.918-1.493-6.938-2.71-7.748-3.531c-0.511,0.807-0.286,1.981,0.366,2.524
				c1.007,0.839,4.344,2.261,8.556,3.188c8.388,1.845,20.468,1.174,21.475,0.671c0.942-0.471,1.729-1.233,1.965-1.88
				C319.011,469.978,307.028,470.657,300.007,468.525z"/>
		</g>
		<path style="fill:#92E3A9;stroke:#263238;stroke-linecap:round;stroke-linejoin:round;stroke-miterlimit:10;" d="M335.941,351.273
			c0,0,0,8.273-2.758,12.715c-2.758,4.443-6.587,8.426-6.587,9.039c0,0.613-3.677,29.261-3.677,30.793
			c0,1.532-0.153,5.975,0.766,8.273c0.919,2.298,4.443,16.852,6.587,29.873c2.145,13.022,1.226,16.239,1.226,16.239
			s0.919,2.298,0.919,2.911c0,0.613-0.46,2.298-0.46,2.298s-2.451,0.766-4.749,0.766c-2.298,0-3.677-0.306-3.677-0.306
			s-0.153-2.451,0.306-3.677c0.459-1.226,0.153-4.596,0.153-5.362c0-0.766-5.821-40.444-5.821-43.508
			c0-3.064-0.153-35.542-0.153-35.542l-1.379-22.52C316.638,353.264,324.604,352.958,335.941,351.273z"/>
		<g>
			<path style="fill:#92E3A9;stroke:#263238;stroke-linecap:round;stroke-linejoin:round;stroke-miterlimit:10;" d="
				M325.064,368.584c0,0-3.677,6.741-3.983,7.353c-0.306,0.613-0.306,5.975-0.306,7.2c0,1.225-0.766,24.511-0.613,27.729
				c0.153,3.217,2.604,13.175,3.37,19.15c0.766,5.975,2.145,23.439,2.298,23.899c0.153,0.46,0.766,2.604,0.46,3.983
				c-0.306,1.379-1.072,2.911-1.072,2.911s0.46,2.604,0.153,3.37s-4.443,1.532-10.264-0.153c-5.821-1.685-8.273-5.362-8.273-5.362
				s0.306-0.766,0.306-2.298c0-1.532,1.532-1.838,1.532-1.838l-2.911-20.528c0,0-2.758-6.434-2.911-7.507
				c-0.153-1.072,0.613-3.677,0.46-4.749c-0.153-1.072-1.991-3.37-2.145-4.443c-0.153-1.072-5.209-18.23-5.515-33.397
				c-0.307-15.167,0.266-29.274,0.266-29.274s3.87,2.005,15.819,1.239c11.949-0.766,16.698-0.919,22.367-3.37"/>
			<g>
				<path style="fill:none;stroke:#263238;stroke-linecap:round;stroke-linejoin:round;stroke-miterlimit:10;" d="M312.448,445.064
					l0.98,10.208c0,0-1.342,0.839-0.839,2.517c0.503,1.678,0.839,2.684,0.839,2.684"/>
				<path style="fill:none;stroke:#263238;stroke-linecap:round;stroke-linejoin:round;stroke-miterlimit:10;" d="M303.656,393.89
					c0.116,0.741,0.241,1.462,0.377,2.158c2.684,13.757,5.704,24.159,5.872,24.662c0.168,0.503-2.013,2.349-1.174,3.355
					c0.839,1.007,1.846,1.51,1.846,1.51l1.542,16.052"/>
				<path style="fill:none;stroke:#263238;stroke-linecap:round;stroke-linejoin:round;stroke-miterlimit:10;" d="M302.691,358.803
					c0,0-0.976,17.075,0.4,30.635"/>
				<path style="fill:none;stroke:#263238;stroke-linecap:round;stroke-linejoin:round;stroke-miterlimit:10;" d="M298.833,358.467
					c0,0-0.503,6.04,2.852,9.06"/>
				<path style="fill:none;stroke:#263238;stroke-linecap:round;stroke-linejoin:round;stroke-miterlimit:10;" d="M324.502,359.306
					c-3.859,1.678-12.247,1.845-12.247,1.845l1.007,2.517c0,0,5.872-0.336,8.221-1.174"/>
			</g>
		</g>
		<g>
			<g>
				<path style="fill:#C2C2C2;stroke:#263238;stroke-linecap:round;stroke-linejoin:round;stroke-miterlimit:10;" d="
					M295.916,354.63c0,0,2.078,3.859,18.256,2.968c16.178-0.891,22.412-3.562,22.56-4.898c0.148-1.336-0.297-4.453-0.297-4.453
					S305.86,350.474,295.916,354.63z"/>
				<path style="fill:#C2C2C2;stroke:#263238;stroke-linecap:round;stroke-linejoin:round;stroke-miterlimit:10;" d="
					M304.821,285.317c0,0-9.054,4.156-9.202,5.492c-0.148,1.336-4.898,37.254-4.898,37.254l-7.124-8.312
					c0,0,0.148-2.968-0.297-4.156c-0.445-1.187-0.594-2.078-1.633-2.523c-1.039-0.445-4.453-1.336-5.343-2.078
					c-0.891-0.742-3.414-3.117-4.007-2.226c-0.594,0.891-1.781,2.375-1.484,3.414c0.297,1.039,1.484,3.117,1.484,3.711
					s0,5.046,1.929,7.124c1.93,2.078,4.75,2.968,4.75,2.968s4.601,12.171,6.234,14.545c1.633,2.375,8.46,7.866,8.46,7.866
					s-1.633,3.859-1.187,4.156c0.445,0.297,2.523,3.414,3.117,3.414c0.594,0,18.404-2.968,19.74-3.117
					c1.336-0.148,14.694,0,15.733-0.445c1.039-0.445,4.453-1.93,5.195-2.523c0.742-0.594,1.93-1.633,1.336-4.007
					c-0.594-2.375-1.187-19.146-1.187-20.63c0-1.484,3.664-13.062,4.304-17.81c2.305-17.107,2.053-18.111,2.103-20.342
					c0.118-5.266-4.057-7.993-4.651-8.29c-0.594-0.297-4.28-4.021-4.28-4.021S320.702,275.818,304.821,285.317z"/>
				<path style="fill:none;stroke:#263238;stroke-linecap:round;stroke-linejoin:round;stroke-miterlimit:10;" d="M293.69,348.396
					c0,0,5.195-0.891,6.085-1.633s8.757-23.747,9.054-25.083c0.297-1.336,0.742-17.514,0.742-17.514"/>
				
					<line style="fill:none;stroke:#263238;stroke-linecap:round;stroke-linejoin:round;stroke-miterlimit:10;" x1="309.422" y1="314.259" x2="311.946" y2="305.206"/>
				<path style="fill:none;stroke:#263238;stroke-linecap:round;stroke-linejoin:round;stroke-miterlimit:10;" d="M290.128,336.968
					c-0.445-2.523,0.594-8.905,0.594-8.905s1.039,6.234,2.968,8.757"/>
				<path style="fill:#FFFFFF;stroke:#263238;stroke-linecap:round;stroke-linejoin:round;stroke-miterlimit:10;" d="
					M283.597,319.751c0,0,0.148-2.968-0.297-4.156c-0.445-1.187-0.594-2.078-1.633-2.523c-1.039-0.445-4.453-1.336-5.343-2.078
					c-0.891-0.742-3.414-3.117-4.007-2.226c-0.594,0.89-1.781,2.375-1.484,3.414c0.297,1.039,1.484,3.117,1.484,3.711
					s0,5.046,1.929,7.124c1.93,2.078,4.75,2.968,4.75,2.968s0.258,0.682,0.67,1.746c0.904-2.185,2.74-4.872,6.326-5.186
					L283.597,319.751z"/>
				<path style="fill:none;stroke:#263238;stroke-linecap:round;stroke-linejoin:round;stroke-miterlimit:10;" d="M281.222,330.586
					c0,0,1.039-3.71,5.343-5.195"/>
				
					<line style="fill:none;stroke:#263238;stroke-linecap:round;stroke-linejoin:round;stroke-miterlimit:10;" x1="315.359" y1="352.849" x2="330.35" y2="348.396"/>
			</g>
			<path style="fill:none;stroke:#263238;stroke-linecap:round;stroke-linejoin:round;stroke-miterlimit:10;" d="M333.167,313.474
				c0,0-9.488,10.258-17.181,15.899"/>
			<path style="fill:none;stroke:#263238;stroke-linecap:round;stroke-linejoin:round;stroke-miterlimit:10;" d="M328.294,321.167
				c0,0-7.18,7.18-10.258,9.488"/>
		</g>
		<g>
			<path style="fill:#263238;stroke:#263238;stroke-linecap:round;stroke-linejoin:round;stroke-miterlimit:10;" d="
				M333.912,274.779c0,0,7.021,9.179,7.35,11.971c0.328,2.792,0.657,4.435,0.657,4.435l4.106-2.957c0,0-1.971-7.063-4.271-9.363
				C339.455,276.566,333.912,274.779,333.912,274.779z"/>
			<path style="fill:#263238;stroke:#263238;stroke-linecap:round;stroke-linejoin:round;stroke-miterlimit:10;" d="
				M345.537,285.028c0,0-5.86-0.293-9.668,2.637c-3.809,2.93-5.567,12.598-6.446,17.872c-0.879,5.274-1.758,29.005-1.758,32.814
				c0,3.809,3.516,5.567,4.981,6.153c1.465,0.586,9.962-1.465,11.133-1.758c1.172-0.293,9.669-0.293,12.012-5.567
				c2.344-5.274,2.637-14.649,2.344-18.165c-0.293-3.516-2.93-8.79-2.93-8.79s0.586-13.77-0.586-18.458
				C353.448,287.079,348.174,284.442,345.537,285.028z"/>
			<path style="fill:#878787;stroke:#878787;stroke-linecap:round;stroke-linejoin:round;stroke-miterlimit:10;" d="
				M355.206,310.225c0,0-21.344,4.723-20.845,6.721c0.5,1.998-0.25,6.245,0,6.995c0.25,0.749,23.774-4.926,23.774-4.926
				S357.564,311.248,355.206,310.225z"/>
			<path style="fill:none;stroke:#878787;stroke-linecap:round;stroke-linejoin:round;stroke-miterlimit:10;" d="M352.098,288.217
				c0,0-10.742,0.75-14.239,3.997c-3.497,3.248-4.301,15.214-4.497,18.236"/>
			<path style="fill:none;stroke:#878787;stroke-linecap:round;stroke-linejoin:round;stroke-miterlimit:10;" d="M334.361,327.688
				c0,0-0.75,10.742,0,13.24c0.749,2.498,12.544,1.251,16.987-1.249"/>
		</g>
	</g>
</g>
<g id="Character_1">
	<g>
		<path style="fill:#FFFFFF;stroke:#263238;stroke-linecap:round;stroke-linejoin:round;stroke-miterlimit:10;" d="M142.756,430.695
			c0,0-2.696,25.422-3.081,26.385c-0.385,0.963-7.511,0.963-7.896,3.852c-0.385,2.889,0.77,4.044,1.926,4.622
			c1.156,0.578,5.585,2.696,6.933,3.081c1.348,0.385,5.007,0.77,5.97-0.963s0.193-7.896,0.193-7.896l6.933-28.696L142.756,430.695z"
			/>
		<path style="fill:#FFFFFF;stroke:#263238;stroke-linecap:round;stroke-linejoin:round;stroke-miterlimit:10;" d="M176.571,426.141
			c0,0-1.231,31.058-2.001,34.139c-0.77,3.081-0.963,5.393-0.193,7.126c0.77,1.733,3.659,1.733,4.815,1.348
			c1.156-0.385,8.859-4.044,9.63-5.2c0.77-1.156-1.541-2.311-2.504-2.696c-0.963-0.385-4.044-3.274-4.237-3.852
			c-0.193-0.578,4.12-26.243,4.12-26.243L176.571,426.141z"/>
		<path style="fill:#92E3A9;stroke:#263238;stroke-linecap:round;stroke-linejoin:round;stroke-miterlimit:10;" d="M179.192,468.754
			c1.156-0.385,8.859-4.044,9.63-5.2c0.77-1.155-1.541-2.311-2.504-2.696c-0.963-0.385-4.044-3.274-4.237-3.852
			c-0.048-0.143,0.378-1.791,1.046-4.186l-7.994-0.282c-0.603,3.821-0.349,6.889-0.562,7.742c-0.77,3.081-0.963,5.392-0.193,7.126
			C175.147,469.139,178.036,469.139,179.192,468.754z"/>
		<path style="fill:#92E3A9;stroke:#263238;stroke-linecap:round;stroke-linejoin:round;stroke-miterlimit:10;" d="M140.692,449.4
			c-0.477,4.105-0.885,7.349-1.018,7.681c-0.385,0.963-7.511,0.963-7.896,3.852c-0.385,2.889,0.77,4.045,1.926,4.622
			c1.156,0.578,5.585,2.696,6.933,3.081c1.348,0.385,5.007,0.77,5.97-0.963c0.963-1.733,0.193-7.896,0.193-7.896l2.348-9.72
			L140.692,449.4z"/>
		<path style="fill:#FFFFFF;stroke:#263238;stroke-linecap:round;stroke-linejoin:round;stroke-miterlimit:10;" d="M146.905,466.759
			c-1.533,0.301-3.933,0.5-6.268-0.434c-2.656-1.062-6.684-3.131-8.93-4.314c0.004,2.108,0.998,3.044,1.997,3.544
			c1.156,0.578,5.585,2.696,6.933,3.081c1.348,0.385,5.007,0.77,5.97-0.963C146.736,467.441,146.832,467.125,146.905,466.759z"/>
		<path style="fill:#FFFFFF;stroke:#263238;stroke-linecap:round;stroke-linejoin:round;stroke-miterlimit:10;" d="M188.821,463.554
			c0.459-0.688-0.176-1.375-0.967-1.9c-2.228,1.571-5.782,4.023-7.314,4.789c-1.586,0.793-4.623,0.588-6.373,0.382
			c0.061,0.199,0.127,0.395,0.21,0.581c0.77,1.733,3.659,1.733,4.815,1.348C180.347,468.369,188.051,464.71,188.821,463.554z"/>
		<path style="fill:#263238;stroke:#263238;stroke-linecap:round;stroke-linejoin:round;stroke-miterlimit:10;" d="M154.524,340.948
			c0,0-2.311,5.2-3.467,20.607c-1.156,15.407-1.926,33.704-3.852,41.215c-1.926,7.511-5.97,27.926-5.97,27.926l13.867,2.504
			l6.741-29.852l15.6-50.652l-3.552,82.599l13.289,1.156l8.945-57.562c0,0,6.356-22.919,6.548-30.815
			c0.193-7.896-2.118-10.015-2.118-10.015l-23.111-4.622L154.524,340.948z"/>
		<path style="fill:#FFFFFF;stroke:#263238;stroke-linecap:round;stroke-linejoin:round;stroke-miterlimit:10;" d="M155.86,335.884
			l-1.336,5.064c0,0,17.911-2.696,25.615-3.274c7.704-0.578,21.378,1.926,21.378,1.926l-2.765-6.239c0,0-8.406-2.235-17.843-2.428
			c-9.437-0.193-17.141,1.156-18.681,1.541C160.687,332.859,155.86,335.884,155.86,335.884z"/>
		<g>
			<path style="fill:#92E3A9;stroke:#263238;stroke-linecap:round;stroke-linejoin:round;stroke-miterlimit:10;" d="
				M159.504,270.565c0,0-14.297,6.728-17.381,11.774c-3.084,5.046-16.54,34.762-15.419,37.565c1.121,2.803,7.569,8.971,7.569,8.971
				l7.289-4.485l-1.962-8.41l9.251-19.624c0,0,4.766,22.147,5.046,24.67c0.28,2.523-1.402,10.092-0.561,12.335
				c0.841,2.243,1.682,2.803,2.523,2.523c0.841-0.28,12.615-3.644,17.661-3.644s23.548,3.084,25.23,1.121
				c1.682-1.962,0.561-3.644,0-4.485c-0.561-0.841-7.569-25.791-7.569-25.791s3.644-21.306,1.962-23.549
				c-1.682-2.243-17.381-8.13-17.381-8.13L159.504,270.565z"/>
			
				<line style="fill:none;stroke:#263238;stroke-linecap:round;stroke-linejoin:round;stroke-miterlimit:10;" x1="167.14" y1="322.838" x2="182.327" y2="317.22"/>
			
				<line style="fill:none;stroke:#263238;stroke-linecap:round;stroke-linejoin:round;stroke-miterlimit:10;" x1="162.12" y1="324.694" x2="165.184" y2="323.561"/>
			
				<line style="fill:none;stroke:#263238;stroke-linecap:round;stroke-linejoin:round;stroke-miterlimit:10;" x1="158.799" y1="323.31" x2="168.21" y2="319.435"/>
			<polyline style="fill:none;stroke:#263238;stroke-linecap:round;stroke-linejoin:round;stroke-miterlimit:10;" points="
				144.115,287.148 148.851,296.356 144.267,292.178 			"/>
		</g>
		<path style="fill:#92E3A9;stroke:#263238;stroke-linecap:round;stroke-linejoin:round;stroke-miterlimit:10;" d="M193.145,279.535
			l12.335,39.248l5.887,4.766l-5.887,7.569c0,0-9.532-7.849-10.933-9.251c-1.402-1.402-7.85-23.268-7.85-23.268"/>
		<polyline style="fill:none;stroke:#263238;stroke-width:3;stroke-miterlimit:10;" points="237.146,341.525 237.146,335.748 
			217.887,335.748 217.887,340.948 		"/>
		<polyline style="fill:none;stroke:#263238;stroke-width:2;stroke-miterlimit:10;" points="217.887,340.948 217.887,394.103 
			237.146,394.103 237.146,341.525 		"/>
		<path style="fill:#FFFFFF;stroke:#263238;stroke-linecap:round;stroke-linejoin:round;stroke-miterlimit:10;" d="M211.367,323.549
			l15.674,6.376c0,0,2.753,1.001,3.253,1.376c0.501,0.375,2.002,1.752,2.002,1.752h-1.376c0,0,3.503,4.629,3.128,5.13
			c-0.375,0.5-0.125,0.751-1.251,0.751c-1.126,0-2.127-0.626-2.127-0.626s-2.002,0.375-3.753-0.125
			c-1.752-0.501-5.88-4.504-5.88-4.504l-15.555-2.56L211.367,323.549z"/>
		<path style="fill:#263238;stroke:#263238;stroke-linecap:round;stroke-linejoin:round;stroke-miterlimit:10;" d="M214.104,463.119
			h-1.474c-0.468,0-0.848-0.38-0.848-0.848v-5.306c0-0.468,0.38-0.848,0.848-0.848h1.474c0.468,0,0.848,0.38,0.848,0.848v5.306
			C214.953,462.74,214.573,463.119,214.104,463.119z"/>
		
			<rect x="211.752" y="452.361" style="fill:#FFFFFF;stroke:#263238;stroke-linecap:round;stroke-linejoin:round;stroke-miterlimit:10;" width="3.274" height="7.704"/>
		<path style="fill:#263238;stroke:#263238;stroke-linecap:round;stroke-linejoin:round;stroke-miterlimit:10;" d="M241.851,463.119
			h1.474c0.468,0,0.848-0.38,0.848-0.848v-5.306c0-0.468-0.38-0.848-0.848-0.848h-1.474c-0.468,0-0.848,0.38-0.848,0.848v5.306
			C241.003,462.74,241.383,463.119,241.851,463.119z"/>
		
			<rect x="240.842" y="452.266" transform="matrix(-1 -1.224647e-16 1.224647e-16 -1 484.9591 912.235)" style="fill:#FFFFFF;stroke:#263238;stroke-linecap:round;stroke-linejoin:round;stroke-miterlimit:10;" width="3.274" height="7.704"/>
		<path style="fill:#C2C2C2;stroke:#263238;stroke-linecap:round;stroke-linejoin:round;stroke-miterlimit:10;" d="M241.079,454.962
			h-26.547c-3.784,0-6.852-3.068-6.852-6.852v-48.31c0-3.784,3.068-6.852,6.852-6.852h26.547c3.784,0,6.852,3.068,6.852,6.852v48.31
			C247.931,451.894,244.863,454.962,241.079,454.962z"/>
		<path style="fill:#878787;stroke:#263238;stroke-linecap:round;stroke-linejoin:round;stroke-miterlimit:10;" d="M240.4,397.109
			H215.21c-4.159,0-7.531,3.372-7.531,7.531v42.791c0,4.159,3.372,7.531,7.531,7.531H240.4c4.159,0,7.531-3.372,7.531-7.531V404.64
			C247.931,400.481,244.559,397.109,240.4,397.109z"/>
		<g>
			
				<line style="fill:none;stroke:#263238;stroke-linecap:round;stroke-linejoin:round;stroke-miterlimit:10;" x1="212.745" y1="405.634" x2="212.745" y2="446.409"/>
			
				<line style="fill:none;stroke:#263238;stroke-linecap:round;stroke-linejoin:round;stroke-miterlimit:10;" x1="220.275" y1="405.634" x2="220.275" y2="446.409"/>
			
				<line style="fill:none;stroke:#263238;stroke-linecap:round;stroke-linejoin:round;stroke-miterlimit:10;" x1="227.805" y1="405.634" x2="227.805" y2="446.409"/>
			
				<line style="fill:none;stroke:#263238;stroke-linecap:round;stroke-linejoin:round;stroke-miterlimit:10;" x1="235.335" y1="405.634" x2="235.335" y2="446.409"/>
			
				<line style="fill:none;stroke:#263238;stroke-linecap:round;stroke-linejoin:round;stroke-miterlimit:10;" x1="242.865" y1="405.634" x2="242.865" y2="446.409"/>
		</g>
		<path style="fill:#FFFFFF;stroke:#263238;stroke-linecap:round;stroke-linejoin:round;stroke-miterlimit:10;" d="M141.562,324.39
			l10.002,16.358l2.308,1.026l-1.41,6.41c0,0-4.615-2.308-5.256-3.59c-0.641-1.282-12.932-15.718-12.932-15.718L141.562,324.39z"/>
		<g>
			<path style="fill:#263238;stroke:#263238;stroke-linecap:round;stroke-linejoin:round;stroke-miterlimit:10;" d="
				M157.411,268.333l-5.374,30.45c0,0,6.448,8.598,17.195,8.598s16.121-5.374,16.121-5.374l-4.657-35.824L157.411,268.333z"/>
			<g>
				
					<ellipse style="fill:#FFFFFF;stroke:#263238;stroke-linecap:round;stroke-linejoin:round;stroke-miterlimit:10;" cx="170.117" cy="253.434" rx="22.517" ry="22.89"/>
				
					<ellipse style="fill:#92E3A9;stroke:#263238;stroke-linecap:round;stroke-linejoin:round;stroke-miterlimit:10;" cx="169.992" cy="250.697" rx="10.699" ry="10.45"/>
				<polygon style="fill:#92E3A9;stroke:#263238;stroke-linecap:round;stroke-linejoin:round;stroke-miterlimit:10;" points="
					168.875,259.345 167.511,271.628 170.435,272.018 				"/>
				<polygon style="fill:#92E3A9;stroke:#263238;stroke-linecap:round;stroke-linejoin:round;stroke-miterlimit:10;" points="
					169.992,259.392 172.19,268.508 170.435,268.313 168.875,259.345 				"/>
				
					<ellipse style="fill:#FFFFFF;stroke:#263238;stroke-linecap:round;stroke-linejoin:round;stroke-miterlimit:10;" cx="169.992" cy="248.942" rx="10.699" ry="10.45"/>
			</g>
		</g>
	</g>
</g>
<g id="Text">
	<g>
		<path style="fill:#263238;" d="M163.591,92.68V79.687h-2.364v-2.326h7.829v2.326h-2.326V92.68H163.591z"/>
		<path style="fill:#263238;" d="M170.437,92.68V77.361h3.971c1.034,0,1.919,0.117,2.657,0.35c0.738,0.233,1.305,0.646,1.702,1.239
			c0.397,0.593,0.596,1.412,0.596,2.459c0,0.631-0.054,1.188-0.161,1.674c-0.107,0.485-0.296,0.908-0.567,1.267
			c-0.271,0.359-0.653,0.646-1.145,0.86l2.118,7.47h-3.196l-1.759-6.94h-1.097v6.94H170.437z M173.557,83.886h0.908
			c0.504,0,0.901-0.082,1.192-0.246c0.29-0.164,0.495-0.413,0.614-0.747c0.12-0.334,0.18-0.747,0.18-1.238
			c0-0.706-0.129-1.245-0.388-1.617c-0.258-0.372-0.741-0.558-1.447-0.558h-1.059V83.886z"/>
		<path style="fill:#263238;" d="M180.706,92.68l2.969-15.318h3.461l2.95,15.318h-2.894l-0.548-3.366h-2.421l-0.586,3.366H180.706z
			 M184.507,87.403h1.835l-0.927-6.184L184.507,87.403z"/>
		<path style="fill:#263238;" d="M193.244,92.68l-2.913-15.318h2.705l1.816,10.59l1.702-10.59h2.818l-2.913,15.318H193.244z"/>
		<path style="fill:#263238;" d="M200.941,92.68V77.361h6.676v2.156h-3.556v4.066h2.742v2.175h-2.742v4.804h3.593v2.118H200.941z"/>
		<path style="fill:#263238;" d="M209.225,92.68V77.361h3.12v13.2h3.593v2.118H209.225z"/>
		<path style="fill:#263238;" d="M222.066,92.68V77.361h3.102V92.68H222.066z"/>
		<path style="fill:#263238;" d="M227.511,92.68V77.361h2.175l3.404,7.98v-7.98h2.572V92.68h-2.08l-3.404-8.473v8.473H227.511z"/>
		<path style="fill:#263238;" d="M241.961,92.888c-0.945,0-1.733-0.173-2.364-0.52c-0.63-0.347-1.105-0.87-1.428-1.57
			c-0.321-0.7-0.508-1.591-0.558-2.676l2.686-0.454c0.025,0.631,0.091,1.157,0.198,1.579c0.107,0.423,0.271,0.738,0.492,0.946
			s0.494,0.312,0.822,0.312c0.403,0,0.678-0.126,0.823-0.378c0.145-0.252,0.217-0.542,0.217-0.87c0-0.643-0.154-1.182-0.463-1.617
			c-0.309-0.435-0.716-0.873-1.22-1.314l-1.589-1.38c-0.567-0.479-1.03-1.021-1.39-1.626c-0.359-0.605-0.539-1.349-0.539-2.231
			c0-1.261,0.368-2.229,1.106-2.903c0.737-0.674,1.749-1.012,3.035-1.012c0.769,0,1.399,0.126,1.891,0.378
			c0.492,0.252,0.873,0.589,1.145,1.012c0.271,0.422,0.46,0.883,0.567,1.38c0.107,0.499,0.173,0.993,0.198,1.485l-2.666,0.397
			c-0.025-0.466-0.066-0.876-0.123-1.229c-0.057-0.353-0.17-0.63-0.341-0.832c-0.17-0.201-0.425-0.302-0.766-0.302
			c-0.366,0-0.637,0.135-0.813,0.406c-0.177,0.271-0.265,0.571-0.265,0.898c0,0.543,0.123,0.987,0.369,1.334
			c0.246,0.347,0.583,0.709,1.012,1.087l1.551,1.361c0.643,0.555,1.194,1.189,1.654,1.901c0.46,0.712,0.69,1.592,0.69,2.638
			c0,0.719-0.164,1.368-0.491,1.948c-0.328,0.58-0.785,1.034-1.371,1.362C243.445,92.724,242.755,92.888,241.961,92.888z"/>
		<path style="fill:#263238;" d="M251.851,92.888c-1.16,0-2.062-0.199-2.705-0.596c-0.643-0.397-1.094-0.971-1.352-1.721
			c-0.259-0.75-0.388-1.661-0.388-2.732V77.361h3.082v10.912c0,0.378,0.028,0.75,0.086,1.116c0.057,0.366,0.183,0.662,0.378,0.889
			c0.195,0.227,0.494,0.34,0.898,0.34c0.416,0,0.722-0.113,0.917-0.34c0.195-0.227,0.318-0.523,0.369-0.889
			c0.05-0.366,0.075-0.738,0.075-1.116V77.361h3.083v10.477c0,1.072-0.13,1.982-0.388,2.732c-0.259,0.75-0.71,1.324-1.352,1.721
			C253.913,92.689,253.01,92.888,251.851,92.888z"/>
		<path style="fill:#263238;" d="M258.469,92.68V77.361h3.972c1.034,0,1.92,0.117,2.657,0.35c0.737,0.233,1.305,0.646,1.702,1.239
			c0.398,0.593,0.596,1.412,0.596,2.459c0,0.631-0.054,1.188-0.161,1.674c-0.107,0.485-0.296,0.908-0.567,1.267
			c-0.271,0.359-0.652,0.646-1.144,0.86l2.118,7.47h-3.196l-1.759-6.94h-1.097v6.94H258.469z M261.59,83.886h0.907
			c0.504,0,0.901-0.082,1.191-0.246c0.29-0.164,0.495-0.413,0.615-0.747c0.119-0.334,0.18-0.747,0.18-1.238
			c0-0.706-0.13-1.245-0.388-1.617c-0.259-0.372-0.741-0.558-1.447-0.558h-1.059V83.886z"/>
		<path style="fill:#263238;" d="M268.739,92.68l2.969-15.318h3.461l2.95,15.318h-2.894l-0.548-3.366h-2.421l-0.587,3.366H268.739z
			 M272.54,87.403h1.835l-0.927-6.184L272.54,87.403z"/>
		<path style="fill:#263238;" d="M279.556,92.68V77.361h2.175l3.404,7.98v-7.98h2.572V92.68h-2.08l-3.404-8.473v8.473H279.556z"/>
		<path style="fill:#263238;" d="M294.289,92.888c-1.135,0-2.033-0.214-2.695-0.643c-0.662-0.428-1.125-1.024-1.39-1.787
			c-0.266-0.763-0.397-1.648-0.397-2.657v-5.503c0-1.059,0.132-1.97,0.397-2.732c0.265-0.763,0.728-1.353,1.39-1.769
			c0.662-0.416,1.561-0.624,2.695-0.624c1.097,0,1.957,0.183,2.581,0.548c0.624,0.366,1.065,0.883,1.324,1.551
			c0.258,0.668,0.388,1.444,0.388,2.326v1.286h-3.026v-1.437c0-0.353-0.019-0.684-0.057-0.993c-0.038-0.309-0.142-0.561-0.313-0.756
			c-0.17-0.195-0.463-0.293-0.879-0.293c-0.416,0-0.719,0.101-0.908,0.302c-0.188,0.202-0.309,0.463-0.359,0.785
			c-0.05,0.321-0.075,0.678-0.075,1.068v6.959c0,0.429,0.034,0.804,0.105,1.126c0.068,0.321,0.201,0.567,0.396,0.737
			c0.195,0.17,0.476,0.255,0.842,0.255c0.403,0,0.69-0.098,0.86-0.293c0.17-0.195,0.277-0.457,0.321-0.785
			c0.044-0.328,0.066-0.674,0.066-1.04v-1.494h3.026v1.267c0,0.896-0.127,1.687-0.379,2.373c-0.252,0.688-0.688,1.229-1.305,1.627
			C296.28,92.689,295.411,92.888,294.289,92.888z"/>
		<path style="fill:#263238;" d="M300.491,92.68V77.361h6.676v2.156h-3.555v4.066h2.742v2.175h-2.742v4.804h3.593v2.118H300.491z"/>
	</g>
</g>
<g id="Airplane">
	<g>
		<polygon style="fill:#263238;stroke:#263238;stroke-linecap:round;stroke-linejoin:round;stroke-miterlimit:10;" points="
			338.738,132.998 327.882,152.539 332.465,152.298 347.905,135.652 343.804,131.792 		"/>
		<path style="fill:#FFFFFF;stroke:#263238;stroke-linecap:round;stroke-linejoin:round;stroke-miterlimit:10;" d="M484.211,100.912
			l-10.975-0.757c-2-0.138-4.009,0.03-5.958,0.498l-113.583,27.279l-23.16-8.202l-6.272,1.93l20.024,15.44l27.744-1.448
			l103.928-23.349c3.7-0.831,7.212-2.348,10.355-4.471l2.772-1.873c0.845-0.571,1.259-1.598,1.045-2.596l0,0
			c-0.222-1.035-1.072-1.819-2.121-1.955L484.211,100.912z"/>
		<path style="fill:#92E3A9;stroke:#263238;stroke-linecap:round;stroke-linejoin:round;stroke-miterlimit:10;" d="M366.734,135.928
			c5.061-4.588,12.269-10.807,19.279-15.758l-32.317,7.762l-23.16-8.202l-6.272,1.93l20.024,15.44L366.734,135.928z"/>
		<polygon style="fill:#263238;stroke:#263238;stroke-linecap:round;stroke-linejoin:round;stroke-miterlimit:10;" points="
			338.738,132.998 333.672,114.422 338.255,114.422 349.835,132.274 		"/>
		<polygon style="fill:#FFFFFF;stroke:#263238;stroke-linecap:round;stroke-linejoin:round;stroke-miterlimit:10;" points="
			338.738,132.998 334.25,133.425 334.593,136.08 344.287,137.099 		"/>
		<polygon style="fill:#263238;stroke:#263238;stroke-linecap:round;stroke-linejoin:round;stroke-miterlimit:10;" points="
			407.132,120.268 405.79,108.027 392.208,65.603 400.76,68.789 433.794,115.07 		"/>
		<g>
			<path style="fill:#FFFFFF;stroke:#263238;stroke-linecap:round;stroke-linejoin:round;stroke-miterlimit:10;" d="M416.547,92.339
				c-1.239-0.954-1.617-4.344-0.619-5.547c1.451-1.751,8.363-2.378,10.352-1.156c1.368,0.84,1.768,4.426,0.62,5.547
				C425.229,92.813,418.349,93.726,416.547,92.339z"/>
			<path style="fill:#FFFFFF;stroke:#263238;stroke-linecap:round;stroke-linejoin:round;stroke-miterlimit:10;" d="M415.378,87.417
				l-5.261,1.449l0.762,3.05h4.956C415.836,91.916,415.149,89.781,415.378,87.417z"/>
		</g>
		<g>
			<path style="fill:#FFFFFF;stroke:#263238;stroke-linecap:round;stroke-linejoin:round;stroke-miterlimit:10;" d="
				M428.899,107.436c-1.239-0.954-1.617-4.343-0.62-5.547c1.452-1.751,8.363-2.378,10.353-1.156c1.368,0.84,1.768,4.426,0.62,5.547
				C437.581,107.91,430.701,108.823,428.899,107.436z"/>
			<path style="fill:#FFFFFF;stroke:#263238;stroke-linecap:round;stroke-linejoin:round;stroke-miterlimit:10;" d="M427.73,102.514
				l-5.261,1.449l0.763,3.05h4.956C428.188,107.013,427.501,104.878,427.73,102.514z"/>
		</g>
		<polygon style="fill:#263238;stroke:#263238;stroke-linecap:round;stroke-linejoin:round;stroke-miterlimit:10;" points="
			393.68,131.094 405.208,132.553 375.294,170.346 371.646,170.784 379.672,171.659 431.181,124.527 437.018,121.171 		"/>
		<g>
			<path style="fill:#FFFFFF;stroke:#263238;stroke-linecap:round;stroke-linejoin:round;stroke-miterlimit:10;" d="
				M420.677,139.809c-1.239-0.954-1.617-4.344-0.62-5.547c1.451-1.751,8.363-2.378,10.353-1.156c1.368,0.84,1.768,4.426,0.619,5.547
				C429.359,140.284,422.479,141.197,420.677,139.809z"/>
			<path style="fill:#FFFFFF;stroke:#263238;stroke-linecap:round;stroke-linejoin:round;stroke-miterlimit:10;" d="
				M419.508,134.888l-5.261,1.449l0.763,3.05h4.956C419.965,139.386,419.279,137.251,419.508,134.888z"/>
		</g>
		<g>
			<path style="fill:#FFFFFF;stroke:#263238;stroke-linecap:round;stroke-linejoin:round;stroke-miterlimit:10;" d="M399.81,157.465
				c-1.239-0.954-1.617-4.344-0.619-5.547c1.451-1.751,8.363-2.378,10.352-1.156c1.368,0.84,1.768,4.426,0.62,5.547
				C408.492,157.94,401.612,158.853,399.81,157.465z"/>
			<path style="fill:#FFFFFF;stroke:#263238;stroke-linecap:round;stroke-linejoin:round;stroke-miterlimit:10;" d="
				M398.641,152.544l-5.261,1.449l0.762,3.05h4.956C399.099,157.042,398.413,154.908,398.641,152.544z"/>
		</g>
	</g>
	
		<path style="fill:none;stroke:#263238;stroke-linecap:round;stroke-linejoin:round;stroke-miterlimit:10;stroke-dasharray:3,3;" d="
		M327.806,136.488c0,0-192.054,31.848-285.756,83.669c-93.702,51.82,70.986,18.456,70.986,18.456"/>
</g>
</svg>
