<?xml version="1.0" encoding="utf-8"?>
<!-- Generator: Adobe Illustrator 27.5.0, SVG Export Plug-In . SVG Version: 6.00 Build 0)  -->
<svg version="1.1" xmlns="http://www.w3.org/2000/svg" xmlns:xlink="http://www.w3.org/1999/xlink" x="0px" y="0px"
	 viewBox="0 0 500 500" style="enable-background:new 0 0 500 500;" xml:space="preserve">
<g id="Background_Simple">
	<g>
		<path style="fill:#92E3A9;" d="M475.854,170.964c-18.66-65.675-68.497-117.852-132.678-141.137
			c-20.652-7.493-45.246-14.257-73.781-18.647C166.095-4.713,113.869,63.246,108.528,101.445
			c-5.341,38.199-49.707,38.861-71.559,96.471c-21.852,57.61-47.015,190.047,121.179,250.305s240.264,11.676,259.576-28.474
			c19.312-40.15,27.812-71.516,58.272-160.248C486.277,229.551,483.735,198.699,475.854,170.964z"/>
		<path style="opacity:0.8;fill:#FFFFFF;" d="M475.854,170.964c-18.66-65.675-68.497-117.852-132.678-141.137
			c-20.652-7.493-45.246-14.257-73.781-18.647C166.095-4.713,113.869,63.246,108.528,101.445
			c-5.341,38.199-49.707,38.861-71.559,96.471c-21.852,57.61-47.015,190.047,121.179,250.305s240.264,11.676,259.576-28.474
			c19.312-40.15,27.812-71.516,58.272-160.248C486.277,229.551,483.735,198.699,475.854,170.964z"/>
	</g>
</g>
<g id="Clouds">
	<path style="fill:none;stroke:#263238;stroke-linecap:round;stroke-linejoin:round;stroke-miterlimit:10;" d="M415.527,68.939
		c-1.649-2.604-3.069-5.516-5.461-7.712c-4.962-4.555-11.216-8.536-18.178-8.536c-13.663,0-21.313,17.62-25.217,21.524
		c-3.904,3.904-12.687-7.807-21.47-6.831c-8.783,0.976-6.832,10.735-10.735,15.615c-3.904,4.88-10.735-5.856-17.567-5.856
		c-6.831,0-9.759,9.759-11.711,12.687c-1.952,2.928-22.446,8.783-22.446,8.783h174.691c0,0-1.952-17.566-12.687-22.446
		c-7.681-3.492-19.046,2.561-25.999-3.305C417.458,71.775,416.456,70.406,415.527,68.939z"/>
	<path style="fill:none;stroke:#263238;stroke-linecap:round;stroke-linejoin:round;stroke-miterlimit:10;" d="M221.984,75.908
		c-0.733-1.158-1.365-2.452-2.428-3.429c-2.206-2.025-4.987-3.795-8.082-3.795c-6.074,0-9.476,7.834-11.211,9.569
		c-1.736,1.736-5.641-3.471-9.546-3.037s-3.037,4.773-4.773,6.942c-1.736,2.169-4.773-2.603-7.81-2.603s-4.339,4.339-5.207,5.641
		c-0.868,1.302-9.979,3.905-9.979,3.905h77.665c0,0-0.868-7.81-5.64-9.979c-3.415-1.552-8.467,1.139-11.559-1.469
		C222.842,77.169,222.397,76.56,221.984,75.908z"/>
	<path style="fill:none;stroke:#263238;stroke-linecap:round;stroke-linejoin:round;stroke-miterlimit:10;" d="M104.896,135.078
		c-0.733-1.158-1.365-2.452-2.428-3.429c-2.206-2.025-4.987-3.795-8.082-3.795c-6.074,0-9.476,7.834-11.211,9.569
		c-1.736,1.736-5.641-3.471-9.546-3.037s-3.037,4.773-4.773,6.942c-1.736,2.169-4.773-2.603-7.81-2.603
		c-3.037,0-4.339,4.339-5.207,5.641c-0.868,1.302-9.979,3.905-9.979,3.905h77.665c0,0-0.868-7.81-5.64-9.979
		c-3.415-1.552-8.468,1.139-11.559-1.469C105.754,136.339,105.309,135.73,104.896,135.078z"/>
	<path style="fill:none;stroke:#263238;stroke-linecap:round;stroke-linejoin:round;stroke-miterlimit:10;" d="M385.548,186.967
		c-0.474-0.748-0.882-1.585-1.569-2.216c-1.426-1.309-3.222-2.452-5.222-2.452c-3.925,0-6.123,5.062-7.245,6.184
		c-1.121,1.121-3.645-2.243-6.168-1.963c-2.523,0.28-1.963,3.084-3.084,4.486c-1.121,1.402-3.084-1.682-5.047-1.682
		c-1.963,0-2.804,2.804-3.365,3.645c-0.561,0.841-6.448,2.523-6.448,2.523h50.186c0,0-0.561-5.047-3.645-6.449
		c-2.207-1.003-5.471,0.736-7.469-0.949C386.103,187.782,385.815,187.388,385.548,186.967z"/>
</g>
<g id="Sea_2">
	<g>
		<g>
			<path style="fill:#92E3A9;" d="M452.481,231.825c-19.454-7.792-34.585-3.463-67.728,3.463s-48.275,8.658-100.151-6.06
				c-51.877-14.718-59.803,3.463-130.413,6.926s-48.995-2.597-81.418-9.523c-21.176-4.524-36.816-1.292-45.121,1.494
				c-6.68,27.679-9.976,62.262-0.605,96.834c13.54,3.68,35.69,7.54,64.56,5.13c49.91-4.16,54.76-15.25,108.14-8.32
				c53.38,6.93,78.34,7.62,109.53,1.38c31.2-6.23,57.54-9.01,79.73-2.77c22.18,6.24,42.98,7.63,54.76,5.55
				c3.43-0.6,6.91-1.21,10.35-1.74c5.97-17.77,12.99-38.79,21.88-64.69c2.195-6.394,3.8-12.828,4.899-19.265
				C474.319,239.148,465.505,237.042,452.481,231.825z"/>
			<polygon style="fill:#92E3A9;" points="32.983,342.601 32.983,342.601 32.983,342.6 			"/>
			<path style="fill:#92E3A9;" d="M452.758,328.23c-0.065,0.193-0.128,0.38-0.193,0.573
				C452.63,328.61,452.693,328.423,452.758,328.23z"/>
			<path style="fill:#92E3A9;" d="M28.31,329.373c0.002,0.005,0.003,0.011,0.005,0.016C28.313,329.384,28.311,329.379,28.31,329.373
				z"/>
		</g>
		<g>
			<g style="opacity:0.39;">
				<path style="fill:#FFFFFF;" d="M452.481,231.825c-19.454-7.792-34.585-3.463-67.728,3.463s-48.275,8.658-100.151-6.06
					c-51.877-14.718-59.803,3.463-130.413,6.926s-48.995-2.597-81.418-9.523c-21.176-4.524-36.816-1.292-45.121,1.494
					c-6.68,27.679-9.976,62.262-0.605,96.834c13.54,3.68,35.69,7.54,64.56,5.13c49.91-4.16,54.76-15.25,108.14-8.32
					c53.38,6.93,78.34,7.62,109.53,1.38c31.2-6.23,57.54-9.01,79.73-2.77c22.18,6.24,42.98,7.63,54.76,5.55
					c3.43-0.6,6.91-1.21,10.35-1.74c5.97-17.77,12.99-38.79,21.88-64.69c2.195-6.394,3.8-12.828,4.899-19.265
					C474.319,239.148,465.505,237.042,452.481,231.825z"/>
				<polygon style="fill:#FFFFFF;" points="32.983,342.601 32.983,342.601 32.983,342.6 				"/>
				<path style="fill:#FFFFFF;" d="M452.758,328.23c-0.065,0.193-0.128,0.38-0.193,0.573
					C452.63,328.61,452.693,328.423,452.758,328.23z"/>
				<path style="fill:#FFFFFF;" d="M28.31,329.373c0.002,0.005,0.003,0.011,0.005,0.016
					C28.313,329.384,28.311,329.379,28.31,329.373z"/>
			</g>
			<path style="fill:none;stroke:#263238;stroke-linecap:round;stroke-linejoin:round;stroke-miterlimit:10;" d="M20.893,230.959
				c0,0,19.454-11.255,51.877-4.329s10.808,12.986,81.418,9.523c70.611-3.463,78.536-21.644,130.413-6.926
				c51.877,14.718,67.008,12.986,100.152,6.06s48.275-11.255,67.728-3.463c19.454,7.792,29.541,8.658,36.746,9.523"/>
		</g>
	</g>
</g>
<g id="Shark_7">
	<g>
		<path style="fill:#263238;stroke:#263238;stroke-linecap:round;stroke-linejoin:round;stroke-miterlimit:10;" d="M414.292,294.137
			c13.785,0.179,7.48,0.627,26.094,1.331c-1.713-7.607-4.12-18.831-4.494-23.441c-0.591-7.275,1.775-14.113,0.182-16.016
			c-1.594-1.903-20.027,9.329-25.536,18.451c-2.566,4.248-6.011,12.899-8.963,20.934
			C403.461,294.946,411.213,294.097,414.292,294.137z"/>
		<path style="fill:none;stroke:#263238;stroke-linecap:round;stroke-linejoin:round;stroke-miterlimit:10;" d="M401.575,295.395
			c0,0-10.706,1.714-17.273,3.028c-6.568,1.314-11.822,0-15.105,0.657"/>
		<path style="fill:none;stroke:#263238;stroke-linecap:round;stroke-linejoin:round;stroke-miterlimit:10;" d="M440.386,295.468
			c0,0,5.65,1.642,13.531,2.955c7.881,1.314,14.12-0.328,18.717,0.657s4.597,0.985,4.597,0.985"/>
	</g>
</g>
<g id="Shark_6">
	<g>
		<path style="fill:#263238;stroke:#263238;stroke-linecap:round;stroke-linejoin:round;stroke-miterlimit:10;" d="M361.407,243.717
			c0,0,7.396-12.113,10.821-15.595c3.424-3.483,12.836-6.535,13.345-5.518c0.509,1.018-1.272,3.816-1.781,7.122
			c-0.509,3.307-0.509,14.499-0.509,14.499s13.736,1.018,27.472,5.851c0,0-18.824-2.544-25.183-2.289
			c-6.359,0.254-6.105,1.781-15.008,1.018c-8.903-0.763-8.903-2.289-13.482-2.289s-7.377,0-10.684,0.763
			c-3.307,0.763-7.122,1.018-7.122,1.018S354.539,243.971,361.407,243.717z"/>
		<path style="fill:none;stroke:#263238;stroke-linecap:round;stroke-linejoin:round;stroke-miterlimit:10;" d="M410.755,250.076
			c0,0,12.743,1.627,14.459,1.912c1.715,0.286,6.576,0.286,6.576,0.286"/>
		
			<line style="fill:none;stroke:#263238;stroke-linecap:round;stroke-linejoin:round;stroke-miterlimit:10;" x1="339.277" y1="248.295" x2="332.288" y2="249.415"/>
	</g>
</g>
<g id="Shark_5">
	<g>
		<path style="fill:#263238;stroke:#263238;stroke-linecap:round;stroke-linejoin:round;stroke-miterlimit:10;" d="M165.969,246.388
			c9.187,0.12,4.985,0.418,17.389,0.887c-1.142-5.07-2.745-12.549-2.995-15.622c-0.393-4.848,1.183-9.405,0.121-10.673
			c-1.062-1.268-13.347,6.217-17.018,12.296c-1.71,2.831-4.006,8.596-5.973,13.951C158.751,246.927,163.917,246.361,165.969,246.388
			z"/>
		<path style="fill:none;stroke:#263238;stroke-linecap:round;stroke-linejoin:round;stroke-miterlimit:10;" d="M183.358,247.275
			c0,0,2.185,1.674,8.421,1.258s12.471-0.831,12.471-0.831"/>
		<path style="fill:none;stroke:#263238;stroke-linecap:round;stroke-linejoin:round;stroke-miterlimit:10;" d="M157.493,247.226
			c0,0-4.375,0.475-8.948,0.475s-7.483-0.416-7.483-0.416"/>
	</g>
</g>
<g id="Shark_4">
	<g>
		<path style="fill:#263238;stroke:#263238;stroke-linecap:round;stroke-linejoin:round;stroke-miterlimit:10;" d="M85.269,291.246
			c-13.785,0.179-7.48,0.627-26.094,1.331c1.713-7.607,4.12-18.831,4.494-23.441c0.59-7.275-1.776-14.113-0.182-16.016
			c1.594-1.903,20.027,9.329,25.536,18.451c2.566,4.248,6.011,12.899,8.963,20.934C96.101,292.055,88.348,291.207,85.269,291.246z"
			/>
		<path style="fill:none;stroke:#263238;stroke-linecap:round;stroke-linejoin:round;stroke-miterlimit:10;" d="M97.987,292.505
			c0,0,10.705,1.714,17.273,3.028c6.568,1.314,11.821,0,15.105,0.657"/>
		<path style="fill:none;stroke:#263238;stroke-linecap:round;stroke-linejoin:round;stroke-miterlimit:10;" d="M59.175,292.577
			c0,0-5.65,1.642-13.531,2.955s-14.12-0.328-18.717,0.657c-4.597,0.985-4.597,0.985-4.597,0.985"/>
	</g>
</g>
<g id="Character">
	<g>
		<polygon style="fill:#E8E8E8;stroke:#263238;stroke-linecap:round;stroke-linejoin:round;stroke-miterlimit:10;" points="
			103.946,250.516 257.939,265.98 413.196,252.854 255.914,309.943 		"/>
		<g>
			<polygon style="fill:#FFFFFF;stroke:#263238;stroke-linecap:round;stroke-linejoin:round;stroke-miterlimit:10;" points="
				205.877,286.805 256.203,219.414 310.868,289.118 255.914,309.943 			"/>
			<g>
				
					<line style="fill:none;stroke:#263238;stroke-linecap:round;stroke-linejoin:round;stroke-miterlimit:10;" x1="256.273" y1="236.161" x2="256.203" y2="227.702"/>
				
					<line style="fill:none;stroke:#263238;stroke-linecap:round;stroke-linejoin:round;stroke-miterlimit:10;" x1="256.697" y1="287.732" x2="256.311" y2="240.81"/>
				
					<line style="fill:none;stroke:#263238;stroke-linecap:round;stroke-linejoin:round;stroke-miterlimit:10;" x1="256.782" y1="298.085" x2="256.731" y2="291.963"/>
			</g>
		</g>
		<g>
			<g>
				<polygon style="fill:#FFFFFF;stroke:#263238;stroke-linecap:round;stroke-linejoin:round;stroke-miterlimit:10;" points="
					262.672,165.641 260.748,201.12 240.368,209.009 241.354,215.913 265.186,214.433 266.829,212.461 264.529,166.769 				"/>
				<g>
					<path style="fill:#FFFFFF;stroke:#263238;stroke-linecap:round;stroke-linejoin:round;stroke-miterlimit:10;" d="
						M240.368,209.009l-4.438-1.479c0,0-2.794-2.137-3.452-2.465c-0.658-0.329-2.958-0.657-3.287,0
						c-0.329,0.657-0.657,10.519-0.657,10.519l7.889,1.315l4.931-0.986L240.368,209.009z"/>
					<path style="fill:#FFFFFF;stroke:#263238;stroke-linecap:round;stroke-linejoin:round;stroke-miterlimit:10;" d="
						M229.191,205.065l2.538,3.112l2.102-1.156c0,0-0.946-2.313-1.577-3.154C231.624,203.026,229.071,201.743,229.191,205.065z"/>
					<g>
						<path style="fill:#FFFFFF;stroke:#263238;stroke-linecap:round;stroke-linejoin:round;stroke-miterlimit:10;" d="
							M236.423,216.899c0,0-10.37-1.048-10.896-1.363c-0.526-0.315,3.664-10.47,3.664-10.47l9.056,5.53l0.105,2.103l-1.577,1.156
							l-0.421-1.787"/>
						<polyline style="fill:none;stroke:#263238;stroke-linecap:round;stroke-linejoin:round;stroke-miterlimit:10;" points="
							236.986,210.069 234.042,210.91 234.463,216.271 						"/>
						<polyline style="fill:none;stroke:#263238;stroke-linecap:round;stroke-linejoin:round;stroke-miterlimit:10;" points="
							233.937,208.072 231.73,208.177 231.204,216.061 						"/>
						
							<line style="fill:none;stroke:#263238;stroke-linecap:round;stroke-linejoin:round;stroke-miterlimit:10;" x1="231.309" y1="206.284" x2="228.534" y2="215.584"/>
					</g>
				</g>
				<path style="fill:#FFFFFF;stroke:#263238;stroke-linecap:round;stroke-linejoin:round;stroke-miterlimit:10;" d="
					M278.592,156.765c0,0-15.779,8.312-15.92,8.876c-0.141,0.564,1.409,40.715,1.409,40.715s-0.282,9.439,0.564,10.425
					c0.845,0.986,2.254,1.409,2.254,1.409l36.348-0.845c1.55-2.818,2.113-4.086,2.113-4.649c0-0.563,3.663-52.549,3.663-52.549
					l-15.215-4.79L278.592,156.765z"/>
				<polygon style="fill:#92E3A9;stroke:#263238;stroke-miterlimit:10;" points="274.294,163.693 276.837,173.138 279.199,172.956 
					286.283,162.603 280.47,158.425 				"/>
				<g>
					<polygon style="fill:#FFFFFF;stroke:#263238;stroke-linecap:round;stroke-linejoin:round;stroke-miterlimit:10;" points="
						277.465,153.243 277.605,168.036 291.412,155.638 292.116,140 288.876,139.436 285.636,147.467 					"/>
					<polygon style="fill:#263238;stroke:#263238;stroke-linecap:round;stroke-linejoin:round;stroke-miterlimit:10;" points="
						290.567,147.044 277.738,159.914 277.37,154.124 280,154.088 					"/>
				</g>
				<path style="fill:#263238;stroke:#263238;stroke-linecap:round;stroke-linejoin:round;stroke-miterlimit:10;" d="
					M272.815,125.912c0,0-5.494-0.704-5.354-1.691c0.141-0.986,5.354-5.917,16.906-6.058c11.552-0.141,13.243,7.185,12.398,9.721
					c-0.845,2.536-2.536,9.017-2.536,9.017s-0.986,1.55-2.536,1.691c-1.55,0.141-1.691-0.423-2.959-1.55
					c-1.268-1.127-2.254-4.79-3.099-5.354c-0.845-0.563-3.24-1.972-3.24-1.972l0.141-2.395L272.815,125.912z"/>
				<g>
					<path style="fill:#FFFFFF;stroke:#263238;stroke-linecap:round;stroke-linejoin:round;stroke-miterlimit:10;" d="
						M272.675,127.743c0,0-1.409,5.635-1.268,6.34l0.282,3.663c0,0-0.282,4.227-0.141,6.199c0.141,1.972,1.972,9.862,1.972,9.862
						l6.481,0.282c0,0,10.285-5.635,10.566-7.044c0.282-1.409,0.423-6.199,0.423-6.199s2.818,1.127,3.381-0.564
						c0.563-1.691,2.254-6.762,0.704-7.326c-1.55-0.564-3.24-0.704-4.086,0.563c-0.845,1.268-0.845,3.381-0.845,3.381l-1.409,0.141
						l-0.704-5.354l-3.804-2.395l1.127-3.804l-12.539,0.423L272.675,127.743z"/>
					<polyline style="fill:none;stroke:#263238;stroke-linecap:round;stroke-linejoin:round;stroke-miterlimit:10;" points="
						275.07,135.21 275.492,136.337 273.943,143.945 277.465,143.804 					"/>
					
						<line style="fill:none;stroke:#263238;stroke-linecap:round;stroke-linejoin:round;stroke-miterlimit:10;" x1="275.07" y1="146.903" x2="277.183" y2="146.903"/>
					<path style="fill:none;stroke:#263238;stroke-linecap:round;stroke-linejoin:round;stroke-miterlimit:10;" d="M277.796,134.365
						c0,0,3.1-2.407,5.705-1.575"/>
					
						<line style="fill:none;stroke:#263238;stroke-linecap:round;stroke-linejoin:round;stroke-miterlimit:10;" x1="274.083" y1="134.083" x2="271.407" y2="134.083"/>
					<path style="fill:#263238;" d="M280.987,137.042c0,0.622-0.347,1.127-0.775,1.127c-0.428,0-0.775-0.505-0.775-1.127
						c0-0.622,0.347-1.127,0.775-1.127C280.64,135.914,280.987,136.419,280.987,137.042z"/>
					<path style="fill:#263238;" d="M273.943,137.042c0,0.622-0.347,1.127-0.775,1.127c-0.428,0-0.775-0.505-0.775-1.127
						c0-0.622,0.347-1.127,0.775-1.127C273.596,135.914,273.943,136.419,273.943,137.042z"/>
				</g>
				<polygon style="fill:#FFFFFF;stroke:#263238;stroke-linecap:round;stroke-linejoin:round;stroke-miterlimit:10;" points="
					281.691,158.738 284.79,167.05 293.807,155.356 292.68,151.13 				"/>
				<polygon style="fill:#FFFFFF;stroke:#263238;stroke-linecap:round;stroke-linejoin:round;stroke-miterlimit:10;" points="
					277.324,157.047 273.661,159.724 277.605,168.036 				"/>
				<polygon style="fill:#FFFFFF;stroke:#263238;stroke-linecap:round;stroke-linejoin:round;stroke-miterlimit:10;" points="
					273.661,159.724 271.266,166.486 275.492,163.809 				"/>
				<path style="fill:#FFFFFF;stroke:#263238;stroke-linecap:round;stroke-linejoin:round;stroke-miterlimit:10;" d="
					M302.495,169.728c0,0-2.465,12.327-1.644,14.464c0.822,2.137,7.232,23.668,7.232,23.668l-1.315,27.612l8.218,0.493
					c0,0,6.903-33.529,6.739-35.173c-0.164-1.644-9.862-37.309-10.519-38.624c-0.657-1.315-4.602-2.794-4.602-2.794"/>
				<path style="fill:#263238;stroke:#263238;stroke-linecap:round;stroke-linejoin:round;stroke-miterlimit:10;" d="
					M264.644,216.781l-0.613,44.701l3.372,28.034l5.27,27.613l-1.475,1.897l1.054,6.323c0,0-13.912,9.274-12.858,10.328
					c1.054,1.054,42.789,0,42.789,0s0.632-3.162,0.632-7.167c0-4.005-1.686-10.118-1.686-12.647s0.632-78.411,0.632-78.411
					l1.485-20.108L264.644,216.781z"/>
				<g>
					<polygon style="fill:#666666;stroke:#263238;stroke-linecap:round;stroke-linejoin:round;stroke-miterlimit:10;" points="
						297.775,251.443 297.775,245.205 317.482,245.205 317.482,251.869 315.356,251.869 315.356,247.473 300.043,247.473 
						300.043,251.869 					"/>
					<path style="fill:#FFFFFF;stroke:#263238;stroke-linecap:round;stroke-linejoin:round;stroke-miterlimit:10;" d="
						M306.769,235.471l-5.424,5.588v3.945l1.808,0.329l0.164,5.095c0,0,1.151,0.657,2.137,0.164
						c0.986-0.493,1.808-2.137,1.808-2.137s4.109,0.657,5.424-0.164c1.315-0.822,2.301-12.327,2.301-12.327L306.769,235.471z"/>
					<g>
						
							<rect x="284.761" y="251.302" style="fill:#A3A3A3;stroke:#263238;stroke-linecap:round;stroke-linejoin:round;stroke-miterlimit:10;" width="46.582" height="35.014"/>
						<path style="fill:none;stroke:#263238;stroke-linecap:round;stroke-linejoin:round;stroke-miterlimit:10;" d="
							M331.343,251.302l-21.005,17.734c-1.235,1.043-3.1,1.047-4.341,0.011l-21.236-17.745"/>
						
							<rect x="306.179" y="266.47" style="fill:#FFFFFF;stroke:#263238;stroke-linecap:round;stroke-linejoin:round;stroke-miterlimit:10;" width="3.601" height="6.663"/>
					</g>
				</g>
				<path style="fill:none;stroke:#878787;stroke-linecap:round;stroke-linejoin:round;stroke-miterlimit:10;" d="M276.587,234.632
					l2.029,6.34c0,0,3.043,36.265,3.297,47.169c0.254,10.905,3.043,27.896,3.043,27.896s-2.536,2.029-2.536,3.043
					s1.775,7.101,1.775,7.101l-9.637,9.383"/>
			</g>
			<polygon style="fill:#92E3A9;stroke:#263238;stroke-miterlimit:10;" points="276.837,173.138 273.023,209.829 277.382,216.55 
				282.105,208.013 279.199,172.956 			"/>
		</g>
		<polygon style="fill:#FFFFFF;stroke:#263238;stroke-linecap:round;stroke-linejoin:round;stroke-miterlimit:10;" points="
			103.946,250.516 256.782,298.085 413.196,252.854 341.291,341.713 175.266,341.713 		"/>
		<polygon style="fill:#E8E8E8;stroke:#263238;stroke-linecap:round;stroke-linejoin:round;stroke-miterlimit:10;" points="
			175.266,341.713 256.782,298.085 341.291,341.713 		"/>
	</g>
</g>
<g id="Sea_1_1_">
	<g>
		<path style="fill:#92E3A9;" d="M454.114,324.189c-14.46,43.11-22.72,67.13-36.39,95.56c-19.31,40.15-91.38,88.73-259.58,28.47
			c-82.41-29.52-118.4-76.38-131.1-123.26c13.54,3.68,35.69,7.54,64.56,5.13c49.91-4.16,54.76-15.25,108.14-8.32
			c53.38,6.93,78.34,7.62,109.53,1.38c31.2-6.23,57.54-9.01,79.73-2.77c22.18,6.24,42.98,7.63,54.76,5.55
			C447.194,325.329,450.674,324.719,454.114,324.189z"/>
		<path style="opacity:0.19;" d="M309.27,323.15c-31.19,6.24-56.15,5.55-109.53-1.38c-18.25-2.37-30.83-2.63-41.47-1.79l17,21.73
			h166.02l20.11-24.85C345.75,316.8,328.43,319.33,309.27,323.15z"/>
		<path style="fill:none;stroke:#263238;stroke-linecap:round;stroke-linejoin:round;stroke-miterlimit:10;" d="M11.881,319.687
			c0,0,29.809,14.558,79.722,10.398c49.913-4.159,54.765-15.251,108.144-8.319c53.379,6.932,78.335,7.626,109.531,1.387
			c31.195-6.239,57.538-9.012,79.722-2.773c22.183,6.239,42.98,7.626,54.765,5.546c11.785-2.08,24.263-4.159,33.275-3.466"/>
	</g>
</g>
<g id="Shark_3">
	<g>
		<g>
			<path style="fill:#263238;stroke:#263238;stroke-linecap:round;stroke-linejoin:round;stroke-miterlimit:10;" d="
				M410.719,376.965c-17.451,0.227-9.47,0.794-33.033,1.685c2.169-9.63,5.215-23.839,5.689-29.676
				c0.747-9.21-2.248-17.867-0.23-20.275c2.017-2.409,25.354,11.811,32.328,23.358c3.248,5.377,7.61,16.329,11.347,26.502
				C424.431,377.989,414.617,376.914,410.719,376.965z"/>
			<path style="fill:none;stroke:#263238;stroke-linecap:round;stroke-linejoin:round;stroke-miterlimit:10;" d="M426.819,378.557
				c0,0,13.553,2.17,21.867,3.833c8.314,1.663,14.966,0,19.122,0.831"/>
			<path style="fill:none;stroke:#263238;stroke-linecap:round;stroke-linejoin:round;stroke-miterlimit:10;" d="M377.686,378.649
				c0,0-7.152,2.079-17.129,3.741c-9.977,1.663-17.875-0.416-23.695,0.831c-5.82,1.247-5.82,1.247-5.82,1.247"/>
		</g>
		<path style="fill:none;stroke:#263238;stroke-linecap:round;stroke-linejoin:round;stroke-miterlimit:10;" d="M401.711,388.626
			c0,0,9.146-3.326,22.864-1.247c13.718,2.079,22.033,4.157,29.099,4.157"/>
		<path style="fill:none;stroke:#263238;stroke-linecap:round;stroke-linejoin:round;stroke-miterlimit:10;" d="M375.522,369.919
			c0,0-5.404,1.247-15.381,2.079c-9.977,0.831-17.46,0.831-17.46,0.831"/>
	</g>
</g>
<g id="Shark_2">
	<g>
		<g>
			<path style="fill:#263238;stroke:#263238;stroke-linecap:round;stroke-linejoin:round;stroke-miterlimit:10;" d="
				M232.271,420.722c0,0,23.35-38.24,34.16-49.234c10.811-10.995,40.524-20.631,42.13-17.419c1.606,3.212-4.015,12.046-5.621,22.486
				c-1.606,10.44-1.606,45.774-1.606,45.774s43.365,3.212,86.73,18.47c0,0-59.426-8.031-79.502-7.228
				c-20.076,0.803-19.273,5.621-47.38,3.212c-28.107-2.409-28.107-7.228-42.562-7.228c-14.455,0-23.289,0-33.728,2.409
				c-10.44,2.409-22.486,3.212-22.486,3.212S210.589,421.525,232.271,420.722z"/>
			<path style="fill:none;stroke:#263238;stroke-linecap:round;stroke-linejoin:round;stroke-miterlimit:10;" d="M437.507,445.552
				c3.479,0.844,5.056,1.559,8.6,1.559"/>
			<path style="fill:none;stroke:#263238;stroke-linecap:round;stroke-linejoin:round;stroke-miterlimit:10;" d="M388.064,440.798
				c0,0,9.821,3.819,17.304,4.235c7.483,0.416,14.55-2.079,24.527-0.831"/>
			<path style="fill:none;stroke:#263238;stroke-linecap:round;stroke-linejoin:round;stroke-miterlimit:10;" d="M122.687,438.797
				c-8.73,2.078-11.64,2.91-11.64,2.91"/>
			<path style="fill:none;stroke:#263238;stroke-linecap:round;stroke-linejoin:round;stroke-miterlimit:10;" d="M162.406,435.177
				c0,0-5.215,2.789-18.518,3.205c-9.649,0.302-11.862-0.709-15.681-0.494"/>
		</g>
		<path style="fill:none;stroke:#263238;stroke-linecap:round;stroke-linejoin:round;stroke-miterlimit:10;" d="M345.564,451.427
			c8.216-1.402,13.428-1.5,17.902-0.861"/>
		<path style="fill:none;stroke:#263238;stroke-linecap:round;stroke-linejoin:round;stroke-miterlimit:10;" d="M225.867,451.814
			c0,0,21.201-9.977,49.469-2.494c28.268,7.483,48.638,6.651,61.94,3.741"/>
	</g>
</g>
<g id="Shark_1">
	<g>
		<g>
			<path style="fill:#263238;stroke:#263238;stroke-linecap:round;stroke-linejoin:round;stroke-miterlimit:10;" d="M84.114,359.496
				c0,0,17.692-28.974,25.883-37.305s30.704-15.632,31.921-13.198c1.217,2.434-3.042,9.127-4.259,17.037
				c-1.217,7.91-1.217,34.682-1.217,34.682s32.857,2.434,65.714,13.995c0,0-45.026-6.085-60.238-5.476
				c-15.212,0.609-14.603,4.259-35.899,2.434c-21.296-1.825-21.296-5.476-32.249-5.476s-17.646,0-25.556,1.825
				c-7.91,1.825-17.037,2.434-17.037,2.434S67.685,360.104,84.114,359.496z"/>
			<path style="fill:none;stroke:#263238;stroke-linecap:round;stroke-linejoin:round;stroke-miterlimit:10;" d="M202.156,374.707
				c0,0,0.847,1.863,12.072,1.448c11.224-0.416,16.213-4.573,26.19-2.494c9.977,2.078,15.797,2.078,15.797,2.078"/>
		</g>
		<path style="fill:none;stroke:#263238;stroke-linecap:round;stroke-linejoin:round;stroke-miterlimit:10;" d="M65.82,377.818
			c0,0,11.64-2.91,31.178,2.91c19.538,5.82,28.684,5.404,44.065,1.663c15.381-3.741,23.695-2.079,23.695-2.079"/>
	</g>
</g>
<g id="Sun">
	<circle style="fill:#92E3A9;" cx="91.055" cy="74.012" r="24.374"/>
</g>
</svg>
